<?xml version="1.0" standalone="no"?>
<!DOCTYPE svg PUBLIC "-//W3C//DTD SVG 1.1//EN" "http://www.w3.org/Graphics/SVG/1.1/DTD/svg11.dtd" >
<svg>
<metadata>
Created by FontForge 20090622 at Tue Feb 12 08:34:28 2019
 By deploy user
2014 published by FontShop International GmbH
</metadata>
<defs>
<font id="GoodPro" horiz-adv-x="532" >
  <font-face 
    font-family="GoodPro"
    font-weight="400"
    font-stretch="normal"
    units-per-em="1000"
    panose-1="2 11 5 4 2 1 1 2 1 2"
    ascent="817"
    descent="-183"
    x-height="504"
    cap-height="725"
    bbox="-557 -211 1283 931"
    underline-thickness="60"
    underline-position="-30"
    unicode-range="U+000D-U+FEFF"
  />
<missing-glyph horiz-adv-x="509" 
d="M262 256l6 67q121 50 121 148q0 48 -35 82t-105 34q-57 0 -98 -29t-59 -75l48 -17q33 70 106 70q42 0 61.5 -20.5t19.5 -49.5q0 -77 -116 -119l5 -91h46zM205 199v-77h74v77h-74zM16 0v725h454v-725h-454z" />
    <glyph glyph-name="f_f" unicode="ff" horiz-adv-x="600" 
d="M581 504v-54h-135v-450h-73v450h-210v-450h-73v450h-68v54h68v41q0 81 47.5 130.5t149.5 53.5l4 -52q-131 -5 -131 -133v-40h213v41q0 81 47.5 130.5t149.5 53.5l4 -52q-131 -5 -131 -133v-40h138z" />
    <glyph glyph-name="f_f_i" unicode="ffi" horiz-adv-x="802" 
d="M567 729l4 -52q-131 -5 -131 -133v-40h283v-504h-73v450h-207v-450h-73v450h-207v-450h-73v450h-68v54h68v41q0 81 47.5 130.5t149.5 53.5l4 -52q-131 -5 -131 -133v-40h210v41q0 81 47.5 130.5t149.5 53.5zM651 725h69v-102h-69v102z" />
    <glyph glyph-name="f_f_j" unicode="ffj" horiz-adv-x="784" 
d="M723 504v-477q0 -185 -173 -197l-7 58q107 13 107 138v424h-207v-450h-73v450h-207v-450h-73v450h-68v54h68v41q0 81 47.5 130.5t149.5 53.5l4 -52q-131 -5 -131 -133v-40h210v41q0 81 47.5 130.5t149.5 53.5l4 -52q-131 -5 -131 -133v-40h283zM651 725h69v-102h-69v102z
" />
    <glyph glyph-name="f_f_l" unicode="ffl" horiz-adv-x="807" 
d="M370 504v41q0 184 220 184h62v20h74v-749h-74v677h-60q-81 0 -116.5 -32.5t-35.5 -100.5v-40h132v-54h-129v-450h-73v450h-207v-450h-73v450h-68v54h68v41q0 81 47.5 130.5t149.5 53.5l4 -52q-131 -5 -131 -133v-40h210z" />
    <glyph glyph-name="f_i" unicode="fi" horiz-adv-x="522" 
d="M287 729l4 -52q-131 -5 -131 -133v-40h283v-504h-73v450h-207v-450h-73v450h-68v54h68v41q0 81 47.5 130.5t149.5 53.5zM371 725h69v-102h-69v102z" />
    <glyph glyph-name="f_j" unicode="fj" horiz-adv-x="504" 
d="M443 504v-477q0 -185 -173 -197l-7 58q107 13 107 138v424h-207v-450h-73v450h-68v54h68v41q0 81 47.5 130.5t149.5 53.5l4 -52q-131 -5 -131 -133v-40h283zM371 725h69v-102h-69v102z" />
    <glyph glyph-name="f_l" unicode="fl" horiz-adv-x="528" 
d="M292 504v-55h-129v-449h-73v449h-68v55h68v41q0 184 220 184h62v20h74v-749h-74v677h-60q-81 0 -116.5 -32.5t-35.5 -100.5v-40h132z" />
    <glyph glyph-name=".notdef" horiz-adv-x="509" 
d="M262 256l6 67q121 50 121 148q0 48 -35 82t-105 34q-57 0 -98 -29t-59 -75l48 -17q33 70 106 70q42 0 61.5 -20.5t19.5 -49.5q0 -77 -116 -119l5 -91h46zM205 199v-77h74v77h-74zM16 0v725h454v-725h-454z" />
    <glyph glyph-name=".null" horiz-adv-x="0" 
 />
    <glyph glyph-name=".null" horiz-adv-x="0" 
 />
    <glyph glyph-name="nonmarkingreturn" horiz-adv-x="333" 
 />
    <glyph glyph-name="CR" unicode="&#xd;" horiz-adv-x="241" 
 />
    <glyph glyph-name="space" unicode=" " horiz-adv-x="241" 
 />
    <glyph glyph-name="exclam" unicode="!" horiz-adv-x="231" 
d="M76 725h75v-303l-8 -216h-59l-8 215v304zM67 0v100h94v-100h-94z" />
    <glyph glyph-name="quotedbl" unicode="&#x22;" horiz-adv-x="303" 
d="M181 613v112h70v-112l-19 -117h-35zM50 613v112h70v-112l-19 -117h-35z" />
    <glyph glyph-name="numbersign" unicode="#" horiz-adv-x="546" 
d="M38 452v53h122l18 220h55l-18 -220h144l18 220h55l-18 -220h94v-53h-95l-15 -180h110v-53h-112l-18 -219h-55l18 219h-144l-18 -219h-55l18 219h-104v53h107l14 180h-121zM214 452l-14 -180h143l15 180h-144z" />
    <glyph glyph-name="dollar" unicode="$" horiz-adv-x="485" 
d="M235 826h49l1 -95q57 -10 97.5 -46.5t58.5 -91.5l-54 -21q-29 80 -107 95l-13 -265q42 -21 67 -36t54.5 -41t44 -60.5t14.5 -79.5q0 -86 -51.5 -137.5t-136.5 -56.5l-9 -90h-49l-2 92q-62 10 -105 50.5t-63 106.5l57 25q27 -95 115 -116l15 284q-42 19 -66.5 33.5
t-54 39.5t-43.5 59t-14 78q0 78 50 127.5t135 53.5zM380 177q0 51 -30 83t-86 61l-6 -266q58 4 90 35t32 87zM110 558q0 -46 28 -76t82 -58l4 246q-58 -5 -86 -35t-28 -77z" />
    <glyph glyph-name="percent" unicode="%" horiz-adv-x="583" 
d="M275 604v-62q0 -61 -30.5 -94.5t-87.5 -33.5t-87 33.5t-30 94.5v62q0 62 30.5 96.5t86.5 34.5q57 0 87.5 -34.5t30.5 -96.5zM95 605v-64q0 -78 62 -78q63 0 63 78v64q0 79 -63 79q-62 0 -62 -79zM52 0l410 725h61l-410 -725h-61zM545 179v-63q0 -60 -30 -93.5t-87 -33.5
t-87.5 33t-30.5 94v63q0 62 30.5 96.5t87.5 34.5q56 0 86.5 -34.5t30.5 -96.5zM365 180v-65q0 -77 63 -77q62 0 62 77v65q0 78 -62 78q-63 0 -63 -78z" />
    <glyph glyph-name="ampersand" unicode="&#x26;" horiz-adv-x="611" 
d="M446 616l-50 -31q-44 89 -120 89q-45 0 -69 -24t-24 -69q0 -49 33 -95l199 -273q30 89 30 208v13h138v-56h-79q-6 -131 -46 -221q62 -78 151 -101l-11 -63q-98 15 -176 98q-71 -99 -185 -99q-96 0 -151 53t-55 156q0 74 35.5 135.5t97.5 102.5q-53 68 -53 142
q0 67 43 110t119 43q62 0 103.5 -28.5t69.5 -89.5zM243 52q84 0 139 90l-180 245q-44 -31 -69 -82.5t-25 -101.5q0 -75 35.5 -113t99.5 -38z" />
    <glyph glyph-name="quotesingle" unicode="'" horiz-adv-x="172" 
d="M51 613v112h70v-112l-19 -117h-35z" />
    <glyph glyph-name="parenleft" unicode="(" horiz-adv-x="261" 
d="M64 194v268q0 185 52.5 268t158.5 83h27v-51h-27q-71 0 -109 -69t-38 -231v-268q0 -162 38 -231t109 -69h27v-51h-27q-106 0 -158.5 83t-52.5 268z" />
    <glyph glyph-name="parenright" unicode=")" horiz-adv-x="261" 
d="M197 462v-268q0 -185 -52.5 -268t-158.5 -83h-28v52h28q71 0 108.5 68.5t37.5 230.5v268q0 162 -37.5 230.5t-108.5 68.5h-28v52h28q106 0 158.5 -83t52.5 -268z" />
    <glyph glyph-name="asterisk" unicode="*" horiz-adv-x="310" 
d="M135 694l-9 109h51l-8 -109l97 42l16 -51l-103 -25l69 -83l-41 -32l-56 94l-53 -94l-43 32l70 83l-104 25l17 51z" />
    <glyph glyph-name="plus" unicode="+" horiz-adv-x="478" 
d="M208 87v196h-153v57h153v197h57v-197h158v-57h-158v-196h-57z" />
    <glyph glyph-name="comma" unicode="," horiz-adv-x="209" 
d="M59 0v96h93v-70q0 -66 -20 -103t-70 -43l-5 36q26 8 35.5 26t9.5 58h-43z" />
    <glyph glyph-name="hyphen" unicode="-" horiz-adv-x="273" 
d="M26 260v65h221v-65h-221z" />
    <glyph glyph-name="period" unicode="." horiz-adv-x="208" 
d="M57 0v100h94v-100h-94z" />
    <glyph glyph-name="slash" unicode="/" horiz-adv-x="317" 
d="M-26 -85l289 831h62l-290 -831h-61z" />
    <glyph glyph-name="zero" unicode="0" horiz-adv-x="567" 
d="M508 493v-265q0 -111 -58.5 -174.5t-165.5 -63.5q-108 0 -166.5 63.5t-58.5 174.5v264q0 114 58.5 178.5t166.5 64.5q107 0 165.5 -64.5t58.5 -177.5zM136 493v-265q0 -171 148 -171q147 0 147 171v265q0 173 -147 173q-148 0 -148 -173z" />
    <glyph glyph-name="one" unicode="1" horiz-adv-x="369" 
d="M210 728h58v-728h-79v548h-151v55h70q58 0 78 22.5t24 102.5z" />
    <glyph glyph-name="two" unicode="2" horiz-adv-x="544" 
d="M279 735q102 0 154 -51.5t52 -132.5q0 -69 -32.5 -126.5t-80 -98t-95.5 -77.5t-86 -84t-45 -99h350v-66h-428l-2 43q1 47 20.5 90.5t49.5 77.5t66.5 66l72.5 62.5t66 61.5t48.5 69t18.5 78q0 56 -32.5 88.5t-99.5 32.5q-57 0 -97 -35t-54 -96l-61 20q19 76 74.5 126.5
t140.5 50.5z" />
    <glyph glyph-name="three" unicode="3" horiz-adv-x="526" 
d="M196 345v62h50q137 0 137 132q0 130 -127 130q-111 0 -150 -119l-60 21q24 76 81 120t135 44q99 0 149.5 -51.5t50.5 -137.5q0 -130 -105 -166v-2q121 -28 121 -168q0 -220 -218 -220q-78 0 -135.5 37.5t-83.5 110.5l57 24q21 -53 63.5 -80.5t95.5 -27.5q75 0 107.5 39.5
t32.5 119.5q0 73 -38 102.5t-112 29.5h-51z" />
    <glyph glyph-name="four" unicode="4" horiz-adv-x="523" 
d="M421 0h-72v140h-338v51l337 534h73v-521h98l-8 -64h-90v-140zM98 204h251l4 419h-2z" />
    <glyph glyph-name="five" unicode="5" horiz-adv-x="531" 
d="M116 341l-53 28l33 356h368l-6 -68h-303l-21 -242h2q69 41 149 41q207 0 207 -226q0 -116 -59 -178t-169 -62q-75 0 -130.5 39t-78.5 112l58 23q19 -55 59 -82.5t89 -27.5q153 0 153 176q0 86 -36 123.5t-115 37.5q-41 0 -82.5 -14t-64.5 -36z" />
    <glyph glyph-name="six" unicode="6" horiz-adv-x="541" 
d="M286 735q69 0 120 -36.5t73 -103.5l-53 -26q-37 100 -137 100q-75 0 -114 -49.5t-39 -138.5v-83h2q54 57 156 57q203 0 203 -218q0 -122 -57.5 -184.5t-161.5 -62.5q-101 0 -160 60t-59 175v250q0 117 60 188.5t167 71.5zM282 390q-56 0 -100 -24t-46 -64v-83
q0 -82 39 -122t104 -40q143 0 143 179q0 154 -140 154z" />
    <glyph glyph-name="seven" unicode="7" horiz-adv-x="487" 
d="M201 0h-87l276 658h-377v67h461v-58z" />
    <glyph glyph-name="eight" unicode="8" horiz-adv-x="554" 
d="M277 -10q-230 0 -230 217q0 143 112 177v2q-95 37 -95 160q0 189 213 189q110 0 161.5 -50t51.5 -139q0 -122 -97 -160v-2q113 -34 113 -177q0 -112 -57.5 -164.5t-171.5 -52.5zM429 211q0 140 -152 140t-152 -140q0 -85 36.5 -120.5t115.5 -35.5t115.5 35.5t36.5 120.5z
M277 671q-74 0 -106.5 -30t-32.5 -100q0 -68 33 -99t106 -31q72 0 105.5 31.5t33.5 98.5q0 70 -32.5 100t-106.5 30z" />
    <glyph glyph-name="nine" unicode="9" horiz-adv-x="542" 
d="M108 154q47 -98 152 -98q67 0 106.5 39t39.5 112v142h-2q-53 -56 -153 -56q-99 0 -152.5 54t-53.5 162q0 107 57.5 166.5t167.5 59.5q98 0 155 -59t57 -158v-308q0 -100 -61 -160t-158 -60q-156 0 -207 135zM262 355q51 0 96 24t48 63v79q0 70 -35.5 109t-102.5 39
q-146 0 -146 -158q0 -83 35.5 -119.5t104.5 -36.5z" />
    <glyph glyph-name="colon" unicode=":" horiz-adv-x="208" 
d="M57 381v100h94v-100h-94zM57 0v100h94v-100h-94z" />
    <glyph glyph-name="semicolon" unicode=";" horiz-adv-x="209" 
d="M58 381v100h94v-100h-94zM59 0v96h93v-70q0 -66 -20 -103t-70 -43l-5 36q26 8 35.5 26t9.5 58h-43z" />
    <glyph glyph-name="less" unicode="&#x3c;" horiz-adv-x="478" 
d="M395 466l-233 -152l234 -151v-75l-335 221v10l334 223v-76z" />
    <glyph glyph-name="equal" unicode="=" horiz-adv-x="478" 
d="M416 344h-354v59h354v-59zM416 205h-354v58h354v-58z" />
    <glyph glyph-name="greater" unicode="&#x3e;" horiz-adv-x="478" 
d="M82 163l233 151l-232 152v76l334 -223v-10l-335 -221v75z" />
    <glyph glyph-name="question" unicode="?" horiz-adv-x="494" 
d="M23 576q25 71 84 115t142 44q101 0 150 -51.5t49 -126.5q0 -77 -47.5 -140.5t-132.5 -100.5l-7 -110h-57l-6 146q174 75 174 201q0 50 -30.5 84t-96.5 34q-118 0 -162 -116zM186 0v100h94v-100h-94z" />
    <glyph glyph-name="at" unicode="@" horiz-adv-x="774" 
d="M561 449h-28l-23 -235q-1 -6 -1 -27q0 -65 62 -65q46 0 68.5 34t22.5 116v136q0 127 -70 198.5t-198 71.5q-131 0 -207 -79t-76 -205v-201q0 -143 77.5 -221t209.5 -78q84 0 142.5 22.5t105.5 69.5l40 -33q-108 -113 -289 -113q-162 0 -253.5 92.5t-91.5 259.5v204
q0 146 92 242.5t250 96.5q154 0 240 -91t86 -236v-135q0 -104 -40.5 -156t-110.5 -52q-83 0 -108 61q-55 -63 -138 -63q-58 0 -89 37.5t-31 107.5q0 130 69 211t191 81h100zM444 198l25 244h-18q-88 0 -134 -62t-46 -170q0 -90 67 -90q71 0 106 78z" />
    <glyph glyph-name="A" unicode="A" horiz-adv-x="605" 
d="M157 191l-60 -191h-84l245 725h88l246 -725h-86l-61 191h-288zM300 645l-122 -389h247l-123 389h-2z" />
    <glyph glyph-name="B" unicode="B" horiz-adv-x="578" 
d="M496 544q0 -67 -24 -105.5t-78 -54.5v-2q137 -29 137 -175q0 -104 -51 -155.5t-162 -51.5h-235v725h209q101 0 152.5 -48t51.5 -133zM164 344v-276h150q70 0 103 33t33 110q0 69 -33 101t-103 32h-150zM164 655v-245h130q67 0 96 31.5t29 95.5q0 61 -29.5 89.5
t-95.5 28.5h-130z" />
    <glyph glyph-name="C" unicode="C" horiz-adv-x="533" 
d="M287 735q75 0 131 -41.5t75 -105.5l-60 -24q-33 102 -141 102q-73 0 -111.5 -46t-38.5 -131v-258q0 -79 39.5 -126.5t111.5 -47.5q59 0 91.5 25t49.5 85l61 -22q-39 -155 -208 -155q-104 0 -166 66.5t-62 173.5v258q0 115 61 181t167 66z" />
    <glyph glyph-name="D" unicode="D" horiz-adv-x="626" 
d="M83 725h238q116 0 180.5 -65.5t64.5 -180.5v-236q0 -113 -64.5 -178t-180.5 -65h-238v725zM484 475q0 180 -163 180h-156v-586h156q163 0 163 176v230z" />
    <glyph glyph-name="E" unicode="E" horiz-adv-x="537" 
d="M83 725h402v-72h-320v-246h256v-65h-256v-271h335v-71h-417v725z" />
    <glyph glyph-name="F" unicode="F" horiz-adv-x="525" 
d="M83 725h403v-72h-321v-254h276v-68h-276v-331h-82v725z" />
    <glyph glyph-name="G" unicode="G" horiz-adv-x="600" 
d="M307 735q84 0 144.5 -41t82.5 -110l-60 -23q-46 105 -159 105q-174 0 -174 -196v-234q0 -86 43 -131t124 -45q106 0 155 84v151h-110v57h184v-352h-69v69q-64 -78 -176 -78q-110 0 -171.5 64t-61.5 180v236q0 121 63.5 192.5t184.5 71.5z" />
    <glyph glyph-name="H" unicode="H" horiz-adv-x="627" 
d="M83 725h82v-319h297v319h82v-725h-82v335h-297v-335h-82v725z" />
    <glyph glyph-name="I" unicode="I" horiz-adv-x="284" 
d="M101 725h82v-725h-82v725z" />
    <glyph glyph-name="J" unicode="J" horiz-adv-x="276" 
d="M111 725h82v-610q0 -254 -251 -256l-6 65q91 0 133 45t42 146v610z" />
    <glyph glyph-name="K" unicode="K" horiz-adv-x="588" 
d="M571 0h-97l-221 344l-88 -105v-239h-82v725h82v-397l286 397h98l-241 -325z" />
    <glyph glyph-name="L" unicode="L" horiz-adv-x="484" 
d="M83 725h80v-653h296v-72h-376v725z" />
    <glyph glyph-name="M" unicode="M" horiz-adv-x="784" 
d="M627 725h74v-725h-75v557h-2l-213 -417h-37l-214 417h-2v-557h-75v725h74l234 -472h2z" />
    <glyph glyph-name="N" unicode="N" horiz-adv-x="627" 
d="M83 725h66l319 -552h2v552h74v-725h-60l-325 564h-2v-564h-74v725z" />
    <glyph glyph-name="O" unicode="O" horiz-adv-x="602" 
d="M301 735q116 0 178.5 -64.5t62.5 -178.5v-258q0 -115 -62.5 -179.5t-178.5 -64.5t-179 65t-63 179v257q0 114 63 179t179 65zM460 234v257q0 175 -159 175q-160 0 -160 -175v-257q0 -176 160 -176q159 0 159 176z" />
    <glyph glyph-name="P" unicode="P" horiz-adv-x="559" 
d="M319 725q98 0 150.5 -56.5t52.5 -160.5q0 -102 -51.5 -159t-147.5 -57h-158v-292h-82v725h236zM165 656v-298h153q63 0 92.5 36.5t29.5 113.5q0 76 -29.5 112t-92.5 36h-153z" />
    <glyph glyph-name="Q" unicode="Q" horiz-adv-x="602" 
d="M301 735q116 0 178.5 -64.5t62.5 -178.5v-258q0 -97 -45 -158.5t-129 -78.5l121 -118l-73 -32l-126 143q-111 4 -171 68t-60 176v257q0 114 63 179t179 65zM460 234v257q0 175 -159 175q-160 0 -160 -175v-257q0 -176 160 -176q159 0 159 176z" />
    <glyph glyph-name="R" unicode="R" horiz-adv-x="576" 
d="M459 0l-177 317h-117v-317h-82v725h218q103 0 154.5 -51t51.5 -146q0 -84 -37 -134.5t-108 -63.5l191 -330h-94zM165 656v-273h132q70 0 99.5 35.5t29.5 105.5q0 68 -28.5 100t-97.5 32h-135z" />
    <glyph glyph-name="S" unicode="S" horiz-adv-x="492" 
d="M242 735q77 0 133 -37.5t79 -101.5l-58 -26q-17 46 -56 72t-92 26q-67 0 -98.5 -30.5t-31.5 -81.5q0 -35 19 -62t49.5 -45.5t67.5 -35t73.5 -36t67 -42.5t49.5 -60.5t19 -84.5q0 -95 -58 -147.5t-157 -52.5q-78 0 -137.5 43t-81.5 117l64 25q18 -56 59.5 -86.5
t94.5 -30.5q137 0 137 125q0 33 -15 59t-39.5 42.5t-55.5 33t-63.5 29.5t-63.5 32t-55.5 40.5t-39.5 55.5t-15 77q0 81 55 132t150 51z" />
    <glyph glyph-name="T" unicode="T" horiz-adv-x="484" 
d="M16 725h452v-72h-185v-653h-82v653h-185v72z" />
    <glyph glyph-name="U" unicode="U" horiz-adv-x="628" 
d="M474 725h81v-497q0 -112 -62.5 -175t-178.5 -63q-115 0 -178.5 62t-63.5 173v500h83v-500q0 -162 159 -162q160 0 160 162v500z" />
    <glyph glyph-name="V" unicode="V" horiz-adv-x="588" 
d="M575 725l-239 -725h-84l-238 725h90l189 -627h2l189 627h91z" />
    <glyph glyph-name="W" unicode="W" horiz-adv-x="915" 
d="M876 725l-181 -725h-89l-147 593h-2l-149 -593h-89l-179 725h83l142 -625h2l153 625h76l151 -627h2l144 627h83z" />
    <glyph glyph-name="X" unicode="X" horiz-adv-x="580" 
d="M30 0l208 367l-204 358h93l163 -309h2l163 309h91l-202 -361l207 -364h-92l-169 314h-2l-168 -314h-90z" />
    <glyph glyph-name="Y" unicode="Y" horiz-adv-x="561" 
d="M550 725l-229 -477v-248h-82v248l-229 477h93l176 -402h2l178 402h91z" />
    <glyph glyph-name="Z" unicode="Z" 
d="M486 71v-71h-447v51l348 603h-330v71h429v-48l-350 -606h350z" />
    <glyph glyph-name="bracketleft" unicode="[" horiz-adv-x="259" 
d="M77 -157v970h241v-53h-174v-864h174v-53h-241z" />
    <glyph glyph-name="backslash" unicode="\" horiz-adv-x="323" 
d="M35 746l289 -831h-62l-290 831h63z" />
    <glyph glyph-name="bracketright" unicode="]" horiz-adv-x="260" 
d="M183 813v-970h-242v54h173v863h-173v53h242z" />
    <glyph glyph-name="asciicircum" unicode="^" horiz-adv-x="455" 
d="M55 523l150 227h50l145 -227h-63l-107 171l-110 -171h-65z" />
    <glyph glyph-name="underscore" unicode="_" horiz-adv-x="415" 
d="M0 -60h415v-53h-415v53z" />
    <glyph glyph-name="grave" unicode="`" horiz-adv-x="273" 
d="M16 725h87l71 -136h-59z" />
    <glyph glyph-name="a" unicode="a" horiz-adv-x="458" 
d="M104 377l-45 29q64 108 170 108q79 0 118 -47t39 -125v-253q0 -45 42 -45h14v-44q-22 -6 -38 -6q-62 0 -83 51q-56 -53 -137 -53q-66 0 -103.5 36t-37.5 97q0 162 225 162h45v55q0 113 -93 113q-70 0 -116 -78zM198 46q70 0 115 53v135h-45q-85 0 -119.5 -27t-34.5 -78
q0 -83 84 -83z" />
    <glyph glyph-name="b" unicode="b" horiz-adv-x="504" 
d="M288 -8q-91 0 -144 61h-2l-4 -53h-64v749h73v-297h2q52 61 142 61q79 0 121.5 -49.5t42.5 -134.5v-154q0 -84 -43 -133.5t-124 -49.5zM147 389v-273q42 -64 123 -64q55 0 83.5 32t28.5 91v153q0 58 -28 90.5t-83 32.5q-79 0 -124 -62z" />
    <glyph glyph-name="c" unicode="c" horiz-adv-x="427" 
d="M401 403l-51 -24q-31 74 -113 74q-56 0 -85.5 -31t-29.5 -91v-158q0 -59 30 -91t85 -32q81 0 114 80l53 -21q-45 -118 -172 -118q-87 0 -135 50t-48 129v164q0 79 48 129t135 50q58 0 102 -29t67 -81z" />
    <glyph glyph-name="d" unicode="d" horiz-adv-x="505" 
d="M216 514q87 0 139 -57h2v292h73v-749h-65l-4 53h-2q-54 -62 -146 -62q-79 0 -121.5 50t-42.5 134v155q0 85 43 134.5t124 49.5zM357 114v278q-46 61 -123 61q-55 0 -83.5 -32.5t-28.5 -91.5v-155q0 -58 28 -90t83 -32q80 0 124 62z" />
    <glyph glyph-name="e" unicode="e" horiz-adv-x="455" 
d="M413 252h-291v-79q0 -59 31 -91.5t88 -32.5q44 0 72.5 21t47.5 68l53 -21q-44 -126 -179 -126q-88 0 -137 49.5t-49 130.5v163q0 79 48.5 129t134.5 50q84 0 132.5 -51t48.5 -130v-80zM122 338v-38h226v39q0 54 -30 85.5t-84 31.5q-55 0 -83.5 -32t-28.5 -86z" />
    <glyph glyph-name="f" unicode="f" horiz-adv-x="317" 
d="M298 504v-54h-135v-450h-73v450h-68v54h68v41q0 81 47.5 130.5t149.5 53.5l4 -52q-131 -5 -131 -133v-40h138z" />
    <glyph glyph-name="g" unicode="g" horiz-adv-x="491" 
d="M248 182q-53 0 -92 14q-45 -16 -45 -52q0 -45 68 -45h123q162 0 162 -121q0 -73 -57 -114t-159 -41q-186 0 -186 124q0 65 50 99q-63 22 -63 85q0 57 68 88q-44 40 -44 128q0 85 42.5 125.5t132.5 40.5q72 0 115 -26q51 30 66 73l38 -16q-15 -61 -63 -99q22 -38 22 -98
q0 -85 -43 -125t-135 -40zM144 346q0 -63 22.5 -86.5t82.5 -23.5q61 0 83.5 23.5t22.5 86.5q0 62 -24 86.5t-82 24.5q-59 0 -82 -24.5t-23 -86.5zM298 37h-126q-48 -25 -48 -84q0 -77 125 -77q86 0 117.5 25t31.5 69q0 36 -21.5 51.5t-78.5 15.5z" />
    <glyph glyph-name="h" unicode="h" horiz-adv-x="514" 
d="M147 388v-388h-73v749h73v-297h2q50 61 142 61q79 0 121.5 -49.5t42.5 -134.5v-329h-73v328q0 123 -111 123q-40 0 -72.5 -18t-51.5 -45z" />
    <glyph glyph-name="i" unicode="i" horiz-adv-x="230" 
d="M78 504h73v-504h-73v504zM79 725h71v-102h-71v102z" />
    <glyph glyph-name="j" unicode="j" horiz-adv-x="229" 
d="M95 725h71v-102h-71v102zM-5 -170l-7 58q107 13 107 138v478h73v-477q0 -185 -173 -197z" />
    <glyph glyph-name="k" unicode="k" horiz-adv-x="492" 
d="M74 749h73v-514l223 269h84l-181 -216l203 -288h-87l-165 240l-77 -82v-158h-73v749z" />
    <glyph glyph-name="l" unicode="l" horiz-adv-x="236" 
d="M81 749h74v-749h-74v749z" />
    <glyph glyph-name="m" unicode="m" horiz-adv-x="748" 
d="M416 329v-329h-73v329q0 121 -93 121q-34 0 -63.5 -21t-44.5 -55v-374h-73v504h65v-62h2q48 71 131 71q94 0 126 -84h2q43 84 140 84q74 0 114.5 -46.5t40.5 -137.5v-329h-73v329q0 121 -98 121q-47 0 -75 -30t-28 -91z" />
    <glyph glyph-name="n" unicode="n" horiz-adv-x="509" 
d="M142 388v-388h-73v504h65l2 -56h2q54 65 148 65q79 0 121.5 -49.5t42.5 -134.5v-329h-73v328q0 123 -110 123q-81 0 -125 -63z" />
    <glyph glyph-name="o" unicode="o" horiz-adv-x="480" 
d="M431 334v-166q0 -79 -50.5 -128t-140.5 -49q-91 0 -141 48.5t-50 128.5v166q0 80 50 129.5t141 49.5t141 -49.5t50 -129.5zM122 332v-161q0 -57 29.5 -89.5t88.5 -32.5t88.5 32.5t29.5 89.5v161q0 57 -29.5 90t-88.5 33q-60 0 -89 -32.5t-29 -90.5z" />
    <glyph glyph-name="p" unicode="p" horiz-adv-x="499" 
d="M283 -8q-89 0 -139 57h-2v-218h-73v673h65l3 -55h2q53 64 147 64q80 0 122 -50t42 -134v-154q0 -84 -43 -133.5t-124 -49.5zM142 389v-275q44 -63 123 -63q55 0 83.5 32.5t28.5 91.5v153q0 123 -110 123q-80 0 -125 -62z" />
    <glyph glyph-name="q" unicode="q" horiz-adv-x="499" 
d="M221 513q92 0 143 -68h2l4 59h60v-673h-73v223h-2q-52 -64 -141 -64q-77 0 -121 48.5t-44 129.5v168q0 81 45.5 129t126.5 48zM357 130v253q-45 69 -120 69q-53 0 -84 -31.5t-31 -88.5v-161q0 -55 28.5 -87.5t85.5 -32.5q41 0 73 21.5t48 57.5z" />
    <glyph glyph-name="r" unicode="r" horiz-adv-x="348" 
d="M332 498l-11 -66q-23 12 -51 12q-56 0 -89 -42.5t-39 -112.5v-289h-73v504h64l3 -96h2q41 104 133 104q35 0 61 -14z" />
    <glyph glyph-name="s" unicode="s" horiz-adv-x="416" 
d="M376 409l-49 -22q-31 71 -110 71q-47 0 -71 -21t-24 -55q0 -32 26.5 -53t64.5 -34.5t75.5 -29.5t64 -47.5t26.5 -79.5q0 -65 -45.5 -106t-116.5 -41q-126 0 -173 109l48 24q35 -79 122 -79q47 0 71.5 23t24.5 64q0 33 -26.5 55t-64.5 35.5t-76 29.5t-64.5 47t-26.5 77
q0 59 42.5 98t120.5 39q118 0 161 -104z" />
    <glyph glyph-name="t" unicode="t" horiz-adv-x="330" 
d="M295 504v-57h-130v-316q0 -80 70 -80q27 0 48 10l10 -46q-37 -22 -82 -22q-121 0 -121 141v309l-68 13v46l71 4l19 144h53v-146h130z" />
    <glyph glyph-name="u" unicode="u" horiz-adv-x="509" 
d="M367 114v390h73v-504h-65l-4 54h-2q-54 -63 -146 -63q-79 0 -122 50t-43 134v329h74v-330q0 -58 27.5 -90t82.5 -32q81 0 125 62z" />
    <glyph glyph-name="v" unicode="v" horiz-adv-x="489" 
d="M470 504l-186 -504h-81l-184 504h84l140 -435h2l142 435h83z" />
    <glyph glyph-name="w" unicode="w" horiz-adv-x="717" 
d="M470 0l-111 422h-2l-111 -422h-81l-143 504h77l108 -430h2l114 430h71l113 -432h2l108 432h78l-145 -504h-80z" />
    <glyph glyph-name="x" unicode="x" horiz-adv-x="481" 
d="M24 0l165 259l-156 245h85l125 -205l122 205h85l-158 -248l165 -256h-85l-134 217l-129 -217h-85z" />
    <glyph glyph-name="y" unicode="y" horiz-adv-x="504" 
d="M481 504l-197 -534q-25 -68 -65.5 -101.5t-106.5 -37.5l-6 53q46 7 72 29t42 68l9 27l-206 496h82l159 -414h2l138 414h77z" />
    <glyph glyph-name="z" unicode="z" horiz-adv-x="430" 
d="M387 60v-60h-346v47l260 397h-248v60h337v-46l-262 -398h259z" />
    <glyph glyph-name="braceleft" unicode="{" horiz-adv-x="263" 
d="M29 305v46q89 8 89 69q0 20 -19.5 95t-19.5 130q0 83 57.5 125.5t159.5 42.5h28v-47h-28q-71 0 -110 -33t-39 -97q0 -49 19 -121.5t19 -96.5q0 -69 -74 -89v-2q74 -18 74 -88q0 -24 -19 -95.5t-19 -120.5q0 -64 39 -98.5t110 -34.5h27v-47h-27q-103 0 -160 43.5
t-57 127.5q0 56 19.5 129t19.5 93q0 61 -89 69z" />
    <glyph glyph-name="bar" unicode="|" horiz-adv-x="264" 
d="M97 -157v970h70v-970h-70z" />
    <glyph glyph-name="braceright" unicode="}" horiz-adv-x="263" 
d="M234 351v-46q-89 -8 -89 -69q0 -20 19.5 -93t19.5 -129q0 -84 -57 -127.5t-160 -43.5h-27v48h27q71 0 110 34t39 98q0 49 -19 120.5t-19 95.5q0 70 73 88v2q-73 19 -73 89q0 24 19 96.5t19 121.5q0 64 -39 97t-110 33h-28v47h28q103 0 160 -42.5t57 -125.5
q0 -55 -19.5 -130t-19.5 -95q0 -61 89 -69z" />
    <glyph glyph-name="asciitilde" unicode="~" horiz-adv-x="507" 
d="M112 315h-57q14 137 116 137q30 0 55.5 -14t39.5 -31.5t33 -31.5t38 -14q25 0 39 18.5t19 61.5h57q-14 -137 -116 -137q-30 0 -55 14t-39.5 31t-33.5 31t-38 14q-25 0 -39 -18.5t-19 -60.5z" />
    <glyph glyph-name="uni00A0" unicode="&#xa0;" horiz-adv-x="241" 
 />
    <glyph glyph-name="exclamdown" unicode="&#xa1;" horiz-adv-x="231" 
d="M152 -100h-75v303l8 216h59l8 -214v-305zM161 625v-100h-94v100h94z" />
    <glyph glyph-name="cent" unicode="&#xa2;" horiz-adv-x="427" 
d="M401 403l-51 -24q-31 73 -113 73q-56 0 -85.5 -31.5t-29.5 -91.5v-153q0 -61 30 -94t85 -33q81 0 114 81l53 -21q-39 -102 -140 -116l-10 -92h-49l-2 92q-73 8 -113.5 57t-40.5 123v158q0 75 40.5 124t115.5 56l12 110h49l2 -112q94 -17 133 -106z" />
    <glyph glyph-name="sterling" unicode="&#xa3;" horiz-adv-x="560" 
d="M47 330l-10 56h72q-13 91 -13 126q0 104 53 164t150 60q74 0 128 -40t72 -106l-58 -23q-34 101 -139 101q-131 0 -131 -162q0 -32 11 -120h243l-8 -56h-228q15 -107 17 -126q29 -9 58 -33.5t48 -48.5t45 -43t52 -19q35 0 54 29t29 98l57 -14q-24 -183 -137 -183
q-36 0 -68 18.5t-51.5 42l-44.5 53t-43 43.5q-8 -157 -111 -157q-38 0 -60 24t-22 66q0 53 34 88.5t94 40.5l-5.5 29.5l-8.5 45.5t-8 46h-71zM99 45q24 0 35.5 26t11.5 90q-75 -7 -75 -78q0 -38 28 -38z" />
    <glyph glyph-name="currency" unicode="&#xa4;" horiz-adv-x="396" 
d="M83 379q0 37 18 66l-45 49l32 35l46 -49q30 20 64 20q35 0 64 -21l48 51l31 -34l-47 -51q19 -30 19 -66q0 -35 -20 -68l48 -49l-32 -34l-48 49q-28 -20 -63 -20q-36 0 -64 20l-47 -51l-32 34l47 51q-19 30 -19 68zM131 379q0 -31 19.5 -51.5t47.5 -20.5t48 21t20 51
t-20 50.5t-48 20.5t-47.5 -20.5t-19.5 -50.5z" />
    <glyph glyph-name="yen" unicode="&#xa5;" horiz-adv-x="597" 
d="M483 169h-138v-169h-81v169h-150v55h150v49h-150v55h134l-206 397h93l169 -361h2l168 361h93l-207 -397h123v-55h-138v-49h138v-55z" />
    <glyph glyph-name="brokenbar" unicode="&#xa6;" horiz-adv-x="264" 
d="M97 399v414h70v-414h-70zM97 -157v414h70v-414h-70z" />
    <glyph glyph-name="section" unicode="&#xa7;" horiz-adv-x="446" 
d="M63 -47l56 18q28 -75 110 -75q50 0 72 23.5t22 61.5q0 35 -28.5 65.5t-69 55.5t-81 53t-69 69.5t-28.5 91.5q0 96 92 137q-75 61 -75 135q0 63 41 105t121 42q64 0 107.5 -31t61.5 -88l-56 -17q-29 75 -110 75q-50 0 -72 -24t-22 -62q0 -35 28.5 -65.5t69 -55.5t81 -53
t69 -69.5t28.5 -91.5q0 -95 -92 -137q75 -64 75 -135q0 -63 -41 -105t-121 -42q-64 0 -107.5 31t-61.5 88zM346 247q0 15 -4 29t-15 28.5l-18 23.5t-27 24t-28 20.5l-33.5 22.5l-31.5 21q-77 -26 -77 -93q0 -16 4 -30t14.5 -28t19 -24t27 -24t28 -20.5l33 -22t31.5 -21.5
q77 26 77 94z" />
    <glyph glyph-name="dieresis" unicode="&#xa8;" horiz-adv-x="273" 
d="M37 725h59v-103h-59v103zM177 725h59v-103h-59v103z" />
    <glyph glyph-name="copyright" unicode="&#xa9;" horiz-adv-x="706" 
d="M355 618q63 0 108 -33.5t60 -87.5l-50 -17q-26 85 -113 85q-59 0 -90 -36t-31 -103v-132q0 -62 31.5 -100t88.5 -38q48 0 74.5 21t40.5 71l50 -15q-30 -129 -169 -129q-85 0 -135 52.5t-50 137.5v132q0 89 49 140.5t136 51.5zM651 423v-124q0 -135 -80 -223.5t-218 -88.5
t-218.5 88.5t-80.5 223.5v124q0 135 80.5 223.5t218.5 88.5t218 -88.5t80 -223.5zM601 300v122q0 117 -66.5 190.5t-181.5 73.5t-181.5 -73.5t-66.5 -190.5v-122q0 -117 66.5 -190.5t181.5 -73.5t181.5 73.5t66.5 190.5z" />
    <glyph glyph-name="ordfeminine" unicode="&#xaa;" horiz-adv-x="299" 
d="M68 658l-37 19q14 34 43.5 53.5t67.5 19.5q53 0 79 -29t26 -76v-147q0 -23 22 -23h13v-37h-30q-36 0 -50 29q-38 -32 -92 -32q-44 0 -68.5 22t-24.5 59q0 98 147 98h32v32q0 61 -60 61q-22 0 -41 -13.5t-27 -35.5zM123 475q45 0 73 32v68h-32q-95 0 -95 -57q0 -43 54 -43
z" />
    <glyph glyph-name="guillemotleft" unicode="&#xab;" horiz-adv-x="403" 
d="M381 437l-128 -179l128 -180h-68l-126 180l126 179h68zM217 437l-128 -179l128 -180h-68l-126 180l126 179h68z" />
    <glyph glyph-name="logicalnot" unicode="&#xac;" horiz-adv-x="478" 
d="M366 130v152h-311v58h368v-210h-57z" />
    <glyph glyph-name="uni00AD" unicode="&#xad;" horiz-adv-x="273" 
d="M26 260v65h221v-65h-221z" />
    <glyph glyph-name="registered" unicode="&#xae;" horiz-adv-x="273" 
d="M253 668v-55q0 -49 -30.5 -81.5t-86.5 -32.5t-86 32.5t-30 81.5v55q0 49 29.5 80.5t86.5 31.5t87 -31.5t30 -80.5zM45 668v-55q0 -89 91 -89q92 0 92 89v55q0 88 -92 88q-91 0 -91 -88zM173 561l-37 66h-24v-66h-33v164h62q60 0 60 -48q0 -37 -34 -46l43 -70h-37z
M112 700v-50h28q27 0 27 26q0 24 -27 24h-28z" />
    <glyph glyph-name="macron" unicode="&#xaf;" horiz-adv-x="273" 
d="M255 680v-51h-237v51h237z" />
    <glyph glyph-name="degree" unicode="&#xb0;" horiz-adv-x="258" 
d="M25 677q0 44 30.5 76t73.5 32t73.5 -32t30.5 -76q0 -45 -30.5 -76.5t-73.5 -31.5t-73.5 31.5t-30.5 76.5zM69 677q0 -28 17 -46.5t43 -18.5q25 0 42.5 18.5t17.5 46.5t-17.5 46.5t-42.5 18.5q-26 0 -43 -18.5t-17 -46.5z" />
    <glyph glyph-name="plusminus" unicode="&#xb1;" horiz-adv-x="478" 
d="M208 137v169h-153v58h153v173h57v-173h158v-58h-158v-169h-57zM423 42h-368v59h368v-59z" />
    <glyph glyph-name="twosuperior" unicode="&#xb2;" horiz-adv-x="278" 
d="M141 802q50 0 75.5 -24.5t25.5 -61.5q0 -36 -22 -65.5t-49 -46t-51.5 -39t-28.5 -45.5h155v-41h-210l-1 24q1 34 25.5 65t53 50t52.5 45t24 51q0 46 -52 46q-49 0 -64 -54l-41 14q11 36 38.5 59t69.5 23z" />
    <glyph glyph-name="threesuperior" unicode="&#xb3;" horiz-adv-x="278" 
d="M104 624v38h25q55 0 55 50q0 49 -50 49q-47 0 -64 -47l-38 14q12 34 39.5 54t67.5 20q49 0 74 -24t25 -61q0 -54 -46 -71v-2q53 -12 53 -73q0 -47 -28 -71.5t-80 -24.5q-83 0 -108 69l38 15q20 -44 67 -44q56 0 56 59q0 28 -15 39t-45 11h-26z" />
    <glyph glyph-name="acute" unicode="&#xb4;" horiz-adv-x="273" 
d="M133 725h88l-90 -136h-58z" />
    <glyph glyph-name="mu" unicode="&#xb5;" horiz-adv-x="520" 
d="M69 178v326h73v-326q0 -58 29.5 -90t85.5 -32q75 0 120 62v386h73v-504h-65l-3 55h-2q-45 -57 -121 -57q-84 0 -121 64h-2q7 -134 18 -229l-75 -6q-10 194 -10 351z" />
    <glyph glyph-name="paragraph" unicode="&#xb6;" horiz-adv-x="597" 
d="M170 748h430v-67h-115v-844h-72v844h-172v-844h-71v619q-75 0 -114.5 39t-39.5 107q0 64 40 105t114 41z" />
    <glyph glyph-name="periodcentered" unicode="&#xb7;" horiz-adv-x="236" 
d="M62 318q0 25 16 42.5t39 17.5t40 -17.5t17 -42.5t-17 -42t-40 -17t-39 17t-16 42z" />
    <glyph glyph-name="cedilla" unicode="&#xb8;" horiz-adv-x="273" 
d="M102 18l43 -3l-8 -49q80 -9 80 -60q0 -32 -30 -53t-86 -25l-12 38q39 7 53.5 15t14.5 22q0 25 -73 29z" />
    <glyph glyph-name="onesuperior" unicode="&#xb9;" horiz-adv-x="278" 
d="M146 800h42v-321h-54v228h-68v35h29q28 0 37.5 10.5t13.5 47.5z" />
    <glyph glyph-name="ordmasculine" unicode="&#xba;" horiz-adv-x="285" 
d="M267 638v-93q0 -47 -33 -79t-93 -32q-58 0 -91 32t-33 79v93q0 47 33 79.5t91 32.5q60 0 93 -32t33 -80zM69 634v-85q0 -36 19.5 -56t52.5 -20q34 0 54 20t20 56v85q0 35 -20 54.5t-54 19.5q-33 0 -52.5 -19.5t-19.5 -54.5z" />
    <glyph glyph-name="guillemotright" unicode="&#xbb;" horiz-adv-x="403" 
d="M186 78l128 180l-128 179h68l126 -179l-126 -180h-68zM22 78l128 180l-128 179h68l126 -179l-126 -180h-68z" />
    <glyph glyph-name="onequarter" unicode="&#xbc;" horiz-adv-x="575" 
d="M146 727h42v-321h-54v228h-68v35h29q28 0 37.5 10.5t13.5 47.5zM135 0h-55l390 725h56zM520 0h-47v60h-156v34l153 225h50v-219h42l-5 -40h-37v-60zM373 100h100l4 162h-2z" />
    <glyph glyph-name="onehalf" unicode="&#xbd;" horiz-adv-x="575" 
d="M146 727h42v-321h-54v228h-68v35h29q28 0 37.5 10.5t13.5 47.5zM115 0h-55l390 725h56zM438 323q50 0 75.5 -24.5t25.5 -61.5q0 -36 -22 -65.5t-49 -46t-51.5 -39t-28.5 -45.5h155v-41h-210l-1 24q1 34 25.5 65t53 50t52.5 45t24 51q0 46 -52 46q-49 0 -64 -54l-41 14
q11 36 38.5 59t69.5 23z" />
    <glyph glyph-name="threequarters" unicode="&#xbe;" horiz-adv-x="575" 
d="M104 551v38h25q55 0 55 50q0 49 -50 49q-47 0 -64 -47l-38 14q12 34 39.5 54t67.5 20q49 0 74 -24t25 -61q0 -54 -46 -71v-2q53 -12 53 -73q0 -47 -28 -71.5t-80 -24.5q-83 0 -108 69l38 15q20 -44 67 -44q56 0 56 59q0 28 -15 39t-45 11h-26zM145 0h-55l390 725h56z
M520 0h-47v60h-156v34l153 225h50v-219h42l-5 -40h-37v-60zM373 100h100l4 162h-2z" />
    <glyph glyph-name="questiondown" unicode="&#xbf;" horiz-adv-x="494" 
d="M471 50q-25 -71 -84 -115t-142 -44q-101 0 -150 51t-49 126q0 78 47.5 141t131.5 100l8 111h57l6 -147q-174 -74 -174 -200q0 -50 30.5 -84t96.5 -34q58 0 99.5 30.5t62.5 84.5zM308 626v-101h-94v101h94z" />
    <glyph glyph-name="Agrave" unicode="&#xc0;" horiz-adv-x="605" 
d="M157 191l-60 -191h-84l245 725h88l246 -725h-86l-61 191h-288zM300 645l-122 -389h247l-123 389h-2zM163 872h98l72 -111h-67z" />
    <glyph glyph-name="Aacute" unicode="&#xc1;" horiz-adv-x="605" 
d="M157 191l-60 -191h-84l245 725h88l246 -725h-86l-61 191h-288zM300 645l-122 -389h247l-123 389h-2zM335 872h95l-95 -111h-65z" />
    <glyph glyph-name="Acircumflex" unicode="&#xc2;" horiz-adv-x="605" 
d="M157 191l-60 -191h-84l245 725h88l246 -725h-86l-61 191h-288zM300 645l-122 -389h247l-123 389h-2zM247 761h-67l90 111h62l90 -111h-67l-54 68z" />
    <glyph glyph-name="Atilde" unicode="&#xc3;" horiz-adv-x="605" 
d="M157 191l-60 -191h-84l245 725h88l246 -725h-86l-61 191h-288zM300 645l-122 -389h247l-123 389h-2zM402 872l40 -7q-9 -56 -27 -83.5t-53 -27.5q-23 0 -44.5 18t-38.5 36.5t-30 18.5q-26 0 -39 -67l-40 7q9 56 27 83.5t52 27.5q24 0 45.5 -18.5t38.5 -37t29 -18.5
q27 0 40 68z" />
    <glyph glyph-name="Adieresis" unicode="&#xc4;" horiz-adv-x="605" 
d="M157 191l-60 -191h-84l245 725h88l246 -725h-86l-61 191h-288zM300 645l-122 -389h247l-123 389h-2zM186 871h61v-98h-61v98zM355 871h62v-98h-62v98z" />
    <glyph glyph-name="Aring" unicode="&#xc5;" horiz-adv-x="605" 
d="M157 191l-60 -191h-84l245 725h88l246 -725h-86l-61 191h-288zM300 645l-122 -389h247l-123 389h-2zM218 823q0 32 23.5 53.5t60.5 21.5q35 0 59 -21.5t24 -53.5t-24 -53t-59 -21q-37 0 -60.5 21t-23.5 53zM262 823q0 -17 11 -28.5t29 -11.5q17 0 28 11.5t11 28.5t-11 29
t-28 12q-18 0 -29 -11.5t-11 -29.5z" />
    <glyph glyph-name="AE" unicode="&#xc6;" horiz-adv-x="859" 
d="M192 193l-92 -193h-85l354 725h441v-72h-322l24 -246h256v-65h-250l25 -271h278v-71h-355l-17 193h-257zM408 646l-185 -388h220l-33 388h-2z" />
    <glyph glyph-name="Ccedilla" unicode="&#xc7;" horiz-adv-x="533" 
d="M287 735q75 0 131 -41.5t75 -105.5l-60 -24q-33 102 -141 102q-73 0 -111.5 -46t-38.5 -131v-258q0 -79 39.5 -126.5t111.5 -47.5q59 0 91.5 25t49.5 85l61 -22q-37 -148 -194 -154l-4 -25q80 -9 80 -60q0 -32 -30 -53t-86 -25l-12 38q39 7 53.5 15t14.5 22q0 25 -73 29
l12 60q-91 10 -144 74.5t-53 163.5v258q0 115 61 181t167 66z" />
    <glyph glyph-name="Egrave" unicode="&#xc8;" horiz-adv-x="537" 
d="M83 725h402v-72h-320v-246h256v-65h-256v-271h335v-71h-417v725zM166 872h98l72 -111h-67z" />
    <glyph glyph-name="Eacute" unicode="&#xc9;" horiz-adv-x="537" 
d="M83 725h402v-72h-320v-246h256v-65h-256v-271h335v-71h-417v725zM301 872h95l-95 -111h-65z" />
    <glyph glyph-name="Ecircumflex" unicode="&#xca;" horiz-adv-x="537" 
d="M83 725h402v-72h-320v-246h256v-65h-256v-271h335v-71h-417v725zM238 761h-67l90 111h62l90 -111h-67l-54 68z" />
    <glyph glyph-name="Edieresis" unicode="&#xcb;" horiz-adv-x="537" 
d="M83 725h402v-72h-320v-246h256v-65h-256v-271h335v-71h-417v725zM174 871h61v-98h-61v98zM343 871h62v-98h-62v98z" />
    <glyph glyph-name="Igrave" unicode="&#xcc;" horiz-adv-x="284" 
d="M101 725h82v-725h-82v725zM12 872h98l72 -111h-67z" />
    <glyph glyph-name="Iacute" unicode="&#xcd;" horiz-adv-x="284" 
d="M101 725h82v-725h-82v725zM169 872h95l-95 -111h-65z" />
    <glyph glyph-name="Icircumflex" unicode="&#xce;" horiz-adv-x="284" 
d="M101 725h82v-725h-82v725zM89 761h-67l90 111h62l90 -111h-67l-54 68z" />
    <glyph glyph-name="Idieresis" unicode="&#xcf;" horiz-adv-x="284" 
d="M101 725h82v-725h-82v725zM28 871h61v-98h-61v98zM197 871h62v-98h-62v98z" />
    <glyph glyph-name="Eth" unicode="&#xd0;" horiz-adv-x="638" 
d="M95 725h238q116 0 180.5 -65.5t64.5 -180.5v-236q0 -113 -64.5 -178t-180.5 -65h-238v347h-76v50h76v328zM496 475q0 180 -163 180h-156v-258h85v-50h-85v-278h156q163 0 163 176v230z" />
    <glyph glyph-name="Ntilde" unicode="&#xd1;" horiz-adv-x="627" 
d="M83 725h66l319 -552h2v552h74v-725h-60l-325 564h-2v-564h-74v725zM416 872l40 -7q-9 -56 -27 -83.5t-53 -27.5q-23 0 -44.5 18t-38.5 36.5t-30 18.5q-26 0 -39 -67l-40 7q9 56 27 83.5t52 27.5q24 0 45.5 -18.5t38.5 -37t29 -18.5q27 0 40 68z" />
    <glyph glyph-name="Ograve" unicode="&#xd2;" horiz-adv-x="602" 
d="M301 735q116 0 178.5 -64.5t62.5 -178.5v-258q0 -115 -62.5 -179.5t-178.5 -64.5t-179 65t-63 179v257q0 114 63 179t179 65zM460 234v257q0 175 -159 175q-160 0 -160 -175v-257q0 -176 160 -176q159 0 159 176zM178 872h98l72 -111h-67z" />
    <glyph glyph-name="Oacute" unicode="&#xd3;" horiz-adv-x="602" 
d="M301 735q116 0 178.5 -64.5t62.5 -178.5v-258q0 -115 -62.5 -179.5t-178.5 -64.5t-179 65t-63 179v257q0 114 63 179t179 65zM460 234v257q0 175 -159 175q-160 0 -160 -175v-257q0 -176 160 -176q159 0 159 176zM318 872h95l-95 -111h-65z" />
    <glyph glyph-name="Ocircumflex" unicode="&#xd4;" horiz-adv-x="602" 
d="M301 735q116 0 178.5 -64.5t62.5 -178.5v-258q0 -115 -62.5 -179.5t-178.5 -64.5t-179 65t-63 179v257q0 114 63 179t179 65zM460 234v257q0 175 -159 175q-160 0 -160 -175v-257q0 -176 160 -176q159 0 159 176zM246 761h-67l90 111h62l90 -111h-67l-54 68z" />
    <glyph glyph-name="Otilde" unicode="&#xd5;" horiz-adv-x="602" 
d="M301 735q116 0 178.5 -64.5t62.5 -178.5v-258q0 -115 -62.5 -179.5t-178.5 -64.5t-179 65t-63 179v257q0 114 63 179t179 65zM460 234v257q0 175 -159 175q-160 0 -160 -175v-257q0 -176 160 -176q159 0 159 176zM397 872l40 -7q-9 -56 -27 -83.5t-53 -27.5
q-23 0 -44.5 18t-38.5 36.5t-30 18.5q-26 0 -39 -67l-40 7q9 56 27 83.5t52 27.5q24 0 45.5 -18.5t38.5 -37t29 -18.5q27 0 40 68z" />
    <glyph glyph-name="Odieresis" unicode="&#xd6;" horiz-adv-x="602" 
d="M301 735q116 0 178.5 -64.5t62.5 -178.5v-258q0 -115 -62.5 -179.5t-178.5 -64.5t-179 65t-63 179v257q0 114 63 179t179 65zM460 234v257q0 175 -159 175q-160 0 -160 -175v-257q0 -176 160 -176q159 0 159 176zM186 871h61v-98h-61v98zM355 871h62v-98h-62v98z" />
    <glyph glyph-name="multiply" unicode="&#xd7;" horiz-adv-x="478" 
d="M361 140l-123 130l-121 -130l-40 41l122 130l-122 131l39 42l122 -131l123 131l39 -42l-123 -131l123 -130z" />
    <glyph glyph-name="Oslash" unicode="&#xd8;" horiz-adv-x="602" 
d="M301 735q121 0 184 -71l42 60l32 -25l-49 -70q32 -58 32 -137v-258q0 -115 -62.5 -179.5t-178.5 -64.5q-120 0 -184 69l-39 -57l-31 25l46 66q-34 59 -34 141v257q0 114 63 179t179 65zM141 234q0 -33 5 -65l292 426q-36 71 -137 71q-160 0 -160 -175v-257zM460 234v257
q0 28 -5 60l-291 -424q38 -69 137 -69q159 0 159 176z" />
    <glyph glyph-name="Ugrave" unicode="&#xd9;" horiz-adv-x="628" 
d="M474 725h81v-497q0 -112 -62.5 -175t-178.5 -63q-115 0 -178.5 62t-63.5 173v500h83v-500q0 -162 159 -162q160 0 160 162v500zM204 872h98l72 -111h-67z" />
    <glyph glyph-name="Uacute" unicode="&#xda;" horiz-adv-x="628" 
d="M474 725h81v-497q0 -112 -62.5 -175t-178.5 -63q-115 0 -178.5 62t-63.5 173v500h83v-500q0 -162 159 -162q160 0 160 162v500zM329 872h95l-95 -111h-65z" />
    <glyph glyph-name="Ucircumflex" unicode="&#xdb;" horiz-adv-x="628" 
d="M474 725h81v-497q0 -112 -62.5 -175t-178.5 -63q-115 0 -178.5 62t-63.5 173v500h83v-500q0 -162 159 -162q160 0 160 162v500zM260 761h-67l90 111h62l90 -111h-67l-54 68z" />
    <glyph glyph-name="Udieresis" unicode="&#xdc;" horiz-adv-x="628" 
d="M474 725h81v-497q0 -112 -62.5 -175t-178.5 -63q-115 0 -178.5 62t-63.5 173v500h83v-500q0 -162 159 -162q160 0 160 162v500zM199 871h61v-98h-61v98zM368 871h62v-98h-62v98z" />
    <glyph glyph-name="Yacute" unicode="&#xdd;" horiz-adv-x="561" 
d="M550 725l-229 -477v-248h-82v248l-229 477h93l176 -402h2l178 402h91zM300 872h95l-95 -111h-65z" />
    <glyph glyph-name="Thorn" unicode="&#xde;" horiz-adv-x="559" 
d="M319 592q98 0 150.5 -56.5t52.5 -160.5q0 -102 -51.5 -159t-147.5 -57h-158v-159h-82v725h82v-133h154zM165 522v-297h153q63 0 92.5 36.5t29.5 112.5q0 77 -29 112.5t-93 35.5h-153z" />
    <glyph glyph-name="germandbls" unicode="&#xdf;" horiz-adv-x="507" 
d="M249 406q0 85 89 120q4 17 4 42q0 39 -20.5 62.5t-57.5 23.5q-115 0 -115 -188v-466h-75v467q0 119 49 182t138 63q66 0 105.5 -43t39.5 -107q0 -50 -12 -82q-40 -8 -55.5 -25.5t-15.5 -44.5q0 -24 16.5 -45.5t40.5 -40t47.5 -40t40 -55.5t16.5 -77q0 -76 -46.5 -119
t-127.5 -43q-86 0 -135 45l19 53q41 -37 112 -37q104 0 104 103q0 32 -16.5 58.5t-40 45.5l-47.5 38t-40.5 47t-16.5 63z" />
    <glyph glyph-name="agrave" unicode="&#xe0;" horiz-adv-x="458" 
d="M104 377l-45 29q64 108 170 108q79 0 118 -47t39 -125v-253q0 -45 42 -45h14v-44q-22 -6 -38 -6q-62 0 -83 51q-56 -53 -137 -53q-66 0 -103.5 36t-37.5 97q0 162 225 162h45v55q0 113 -93 113q-70 0 -116 -78zM198 46q70 0 115 53v135h-45q-85 0 -119.5 -27t-34.5 -78
q0 -83 84 -83zM129 725h87l71 -136h-59z" />
    <glyph glyph-name="aacute" unicode="&#xe1;" horiz-adv-x="458" 
d="M104 377l-45 29q64 108 170 108q79 0 118 -47t39 -125v-253q0 -45 42 -45h14v-44q-22 -6 -38 -6q-62 0 -83 51q-56 -53 -137 -53q-66 0 -103.5 36t-37.5 97q0 162 225 162h45v55q0 113 -93 113q-70 0 -116 -78zM198 46q70 0 115 53v135h-45q-85 0 -119.5 -27t-34.5 -78
q0 -83 84 -83zM244 725h88l-90 -136h-58z" />
    <glyph glyph-name="acircumflex" unicode="&#xe2;" horiz-adv-x="458" 
d="M104 377l-45 29q64 108 170 108q79 0 118 -47t39 -125v-253q0 -45 42 -45h14v-44q-22 -6 -38 -6q-62 0 -83 51q-56 -53 -137 -53q-66 0 -103.5 36t-37.5 97q0 162 225 162h45v55q0 113 -93 113q-70 0 -116 -78zM198 46q70 0 115 53v135h-45q-85 0 -119.5 -27t-34.5 -78
q0 -83 84 -83zM177 589h-64l92 136h52l93 -136h-65l-54 87z" />
    <glyph glyph-name="atilde" unicode="&#xe3;" horiz-adv-x="458" 
d="M104 377l-45 29q64 108 170 108q79 0 118 -47t39 -125v-253q0 -45 42 -45h14v-44q-22 -6 -38 -6q-62 0 -83 51q-56 -53 -137 -53q-66 0 -103.5 36t-37.5 97q0 162 225 162h45v55q0 113 -93 113q-70 0 -116 -78zM198 46q70 0 115 53v135h-45q-85 0 -119.5 -27t-34.5 -78
q0 -83 84 -83zM327 725l41 -9q-9 -66 -27 -98t-54 -32q-24 0 -45.5 23t-38 46t-29.5 23q-14 0 -22.5 -19t-16.5 -65l-40 8q9 67 27 99t53 32q24 0 46 -23.5t38.5 -46.5t29.5 -23q14 0 22.5 19.5t15.5 65.5z" />
    <glyph glyph-name="adieresis" unicode="&#xe4;" horiz-adv-x="458" 
d="M104 377l-45 29q64 108 170 108q79 0 118 -47t39 -125v-253q0 -45 42 -45h14v-44q-22 -6 -38 -6q-62 0 -83 51q-56 -53 -137 -53q-66 0 -103.5 36t-37.5 97q0 162 225 162h45v55q0 113 -93 113q-70 0 -116 -78zM198 46q70 0 115 53v135h-45q-85 0 -119.5 -27t-34.5 -78
q0 -83 84 -83zM133 725h59v-103h-59v103zM273 725h59v-103h-59v103z" />
    <glyph glyph-name="aring" unicode="&#xe5;" horiz-adv-x="458" 
d="M104 377l-45 29q64 108 170 108q79 0 118 -47t39 -125v-253q0 -45 42 -45h14v-44q-22 -6 -38 -6q-62 0 -83 51q-56 -53 -137 -53q-66 0 -103.5 36t-37.5 97q0 162 225 162h45v55q0 113 -93 113q-70 0 -116 -78zM198 46q70 0 115 53v135h-45q-85 0 -119.5 -27t-34.5 -78
q0 -83 84 -83zM149 664q0 35 23.5 58.5t60.5 23.5q36 0 59.5 -23.5t23.5 -58.5t-24 -58t-59 -23q-37 0 -60.5 23t-23.5 58zM193 664q0 -20 10.5 -32t29.5 -12q18 0 28.5 12t10.5 32q0 19 -10.5 32t-28.5 13t-29 -13t-11 -32z" />
    <glyph glyph-name="ae" unicode="&#xe6;" horiz-adv-x="724" 
d="M680 243h-276v-75q0 -120 109 -120q87 0 120 91l50 -22q-48 -127 -176 -127q-110 0 -147 85h-2q-49 -85 -171 -85q-67 0 -105.5 37t-38.5 98q0 166 232 166h54v58q0 50 -27 77t-75 27q-39 0 -67.5 -22t-42.5 -61l-52 24q20 55 64.5 87.5t100.5 32.5q98 0 137 -72h2
q40 72 140 72q79 0 125 -52t46 -127v-92zM202 47q42 0 79 21.5t48 60.5v108h-54q-159 0 -159 -108q0 -82 86 -82zM404 338v-47h209v49q0 54 -27 84.5t-77 30.5q-105 0 -105 -117z" />
    <glyph glyph-name="ccedilla" unicode="&#xe7;" horiz-adv-x="427" 
d="M401 403l-51 -24q-31 74 -113 74q-56 0 -85.5 -31t-29.5 -91v-158q0 -59 30 -91t85 -32q81 0 114 80l53 -21q-43 -111 -159 -117l-4 -26q80 -9 80 -60q0 -32 -30 -53t-86 -25l-12 38q39 7 53.5 15t14.5 22q0 25 -73 29l13 61q-72 9 -112 57.5t-40 119.5v164q0 79 48 129
t135 50q58 0 102 -29t67 -81z" />
    <glyph glyph-name="egrave" unicode="&#xe8;" horiz-adv-x="455" 
d="M413 252h-291v-79q0 -59 31 -91.5t88 -32.5q44 0 72.5 21t47.5 68l53 -21q-44 -126 -179 -126q-88 0 -137 49.5t-49 130.5v163q0 79 48.5 129t134.5 50q84 0 132.5 -51t48.5 -130v-80zM122 338v-38h226v39q0 54 -30 85.5t-84 31.5q-55 0 -83.5 -32t-28.5 -86zM124 725h87
l71 -136h-59z" />
    <glyph glyph-name="eacute" unicode="&#xe9;" horiz-adv-x="455" 
d="M413 252h-291v-79q0 -59 31 -91.5t88 -32.5q44 0 72.5 21t47.5 68l53 -21q-44 -126 -179 -126q-88 0 -137 49.5t-49 130.5v163q0 79 48.5 129t134.5 50q84 0 132.5 -51t48.5 -130v-80zM122 338v-38h226v39q0 54 -30 85.5t-84 31.5q-55 0 -83.5 -32t-28.5 -86zM253 725h88
l-90 -136h-58z" />
    <glyph glyph-name="ecircumflex" unicode="&#xea;" horiz-adv-x="455" 
d="M413 252h-291v-79q0 -59 31 -91.5t88 -32.5q44 0 72.5 21t47.5 68l53 -21q-44 -126 -179 -126q-88 0 -137 49.5t-49 130.5v163q0 79 48.5 129t134.5 50q84 0 132.5 -51t48.5 -130v-80zM122 338v-38h226v39q0 54 -30 85.5t-84 31.5q-55 0 -83.5 -32t-28.5 -86zM180 589
h-64l92 136h52l93 -136h-65l-54 87z" />
    <glyph glyph-name="edieresis" unicode="&#xeb;" horiz-adv-x="455" 
d="M413 252h-291v-79q0 -59 31 -91.5t88 -32.5q44 0 72.5 21t47.5 68l53 -21q-44 -126 -179 -126q-88 0 -137 49.5t-49 130.5v163q0 79 48.5 129t134.5 50q84 0 132.5 -51t48.5 -130v-80zM122 338v-38h226v39q0 54 -30 85.5t-84 31.5q-55 0 -83.5 -32t-28.5 -86zM135 725h59
v-103h-59v103zM275 725h59v-103h-59v103z" />
    <glyph glyph-name="igrave" unicode="&#xec;" horiz-adv-x="230" 
d="M78 504h73v-504h-73v504zM-13 725h87l71 -136h-59z" />
    <glyph glyph-name="iacute" unicode="&#xed;" horiz-adv-x="230" 
d="M78 504h73v-504h-73v504zM144 725h88l-90 -136h-58z" />
    <glyph glyph-name="icircumflex" unicode="&#xee;" horiz-adv-x="230" 
d="M78 504h73v-504h-73v504zM60 589h-64l92 136h52l93 -136h-65l-54 87z" />
    <glyph glyph-name="idieresis" unicode="&#xef;" horiz-adv-x="230" 
d="M78 504h73v-504h-73v504zM16 725h59v-103h-59v103zM156 725h59v-103h-59v103z" />
    <glyph glyph-name="eth" unicode="&#xf0;" horiz-adv-x="481" 
d="M149 682l11 48q64 -9 110 -30l44 62l39 -30l-40 -55q120 -76 120 -249v-254q0 -83 -50 -132.5t-141 -49.5t-141.5 48.5t-50.5 127.5v163q0 80 46.5 129t131.5 49q90 0 135 -55h2q-6 126 -84 178l-53 -74l-39 29l49 69q-40 16 -89 26zM123 171q0 -57 29.5 -89.5
t89.5 -32.5q58 0 87.5 32.5t29.5 89.5v158q0 58 -29.5 90.5t-89.5 32.5q-58 0 -87.5 -33t-29.5 -90v-158z" />
    <glyph glyph-name="ntilde" unicode="&#xf1;" horiz-adv-x="509" 
d="M142 388v-388h-73v504h65l2 -56h2q54 65 148 65q79 0 121.5 -49.5t42.5 -134.5v-329h-73v328q0 123 -110 123q-81 0 -125 -63zM354 725l41 -9q-9 -66 -27 -98t-54 -32q-24 0 -45.5 23t-38 46t-29.5 23q-14 0 -22.5 -19t-16.5 -65l-40 8q9 67 27 99t53 32q24 0 46 -23.5
t38.5 -46.5t29.5 -23q14 0 22.5 19.5t15.5 65.5z" />
    <glyph glyph-name="ograve" unicode="&#xf2;" horiz-adv-x="480" 
d="M431 334v-166q0 -79 -50.5 -128t-140.5 -49q-91 0 -141 48.5t-50 128.5v166q0 80 50 129.5t141 49.5t141 -49.5t50 -129.5zM122 332v-161q0 -57 29.5 -89.5t88.5 -32.5t88.5 32.5t29.5 89.5v161q0 57 -29.5 90t-88.5 33q-60 0 -89 -32.5t-29 -90.5zM120 725h87l71 -136
h-59z" />
    <glyph glyph-name="oacute" unicode="&#xf3;" horiz-adv-x="480" 
d="M431 334v-166q0 -79 -50.5 -128t-140.5 -49q-91 0 -141 48.5t-50 128.5v166q0 80 50 129.5t141 49.5t141 -49.5t50 -129.5zM122 332v-161q0 -57 29.5 -89.5t88.5 -32.5t88.5 32.5t29.5 89.5v161q0 57 -29.5 90t-88.5 33q-60 0 -89 -32.5t-29 -90.5zM265 725h88l-90 -136
h-58z" />
    <glyph glyph-name="ocircumflex" unicode="&#xf4;" horiz-adv-x="480" 
d="M431 334v-166q0 -79 -50.5 -128t-140.5 -49q-91 0 -141 48.5t-50 128.5v166q0 80 50 129.5t141 49.5t141 -49.5t50 -129.5zM122 332v-161q0 -57 29.5 -89.5t88.5 -32.5t88.5 32.5t29.5 89.5v161q0 57 -29.5 90t-88.5 33q-60 0 -89 -32.5t-29 -90.5zM185 589h-64l92 136
h52l93 -136h-65l-54 87z" />
    <glyph glyph-name="otilde" unicode="&#xf5;" horiz-adv-x="480" 
d="M431 334v-166q0 -79 -50.5 -128t-140.5 -49q-91 0 -141 48.5t-50 128.5v166q0 80 50 129.5t141 49.5t141 -49.5t50 -129.5zM122 332v-161q0 -57 29.5 -89.5t88.5 -32.5t88.5 32.5t29.5 89.5v161q0 57 -29.5 90t-88.5 33q-60 0 -89 -32.5t-29 -90.5zM337 725l41 -9
q-9 -66 -27 -98t-54 -32q-24 0 -45.5 23t-38 46t-29.5 23q-14 0 -22.5 -19t-16.5 -65l-40 8q9 67 27 99t53 32q24 0 46 -23.5t38.5 -46.5t29.5 -23q14 0 22.5 19.5t15.5 65.5z" />
    <glyph glyph-name="odieresis" unicode="&#xf6;" horiz-adv-x="480" 
d="M431 334v-166q0 -79 -50.5 -128t-140.5 -49q-91 0 -141 48.5t-50 128.5v166q0 80 50 129.5t141 49.5t141 -49.5t50 -129.5zM122 332v-161q0 -57 29.5 -89.5t88.5 -32.5t88.5 32.5t29.5 89.5v161q0 57 -29.5 90t-88.5 33q-60 0 -89 -32.5t-29 -90.5zM140 725h59v-103h-59
v103zM280 725h59v-103h-59v103z" />
    <glyph glyph-name="divide" unicode="&#xf7;" horiz-adv-x="478" 
d="M423 282h-368v58h368v-58zM187 487q0 22 14.5 37.5t34.5 15.5t35 -15.5t15 -37.5t-15 -37t-35 -15t-34.5 15t-14.5 37zM187 140q0 22 14.5 37.5t34.5 15.5t35 -15.5t15 -37.5t-15 -37t-35 -15t-34.5 15t-14.5 37z" />
    <glyph glyph-name="oslash" unicode="&#xf8;" horiz-adv-x="480" 
d="M431 334v-166q0 -79 -50.5 -128t-140.5 -49t-140 47l-28 -36l-31 25l33 43q-25 40 -25 98v166q0 80 50 129.5t141 49.5q89 0 141 -50l30 38l32 -25l-36 -46q24 -40 24 -96zM122 332v-161q0 -12 2 -38l215 276q-30 46 -99 46q-60 0 -89 -32.5t-29 -90.5zM358 332
q0 10 -2 34l-214 -274q30 -43 98 -43q59 0 88.5 32.5t29.5 89.5v161z" />
    <glyph glyph-name="ugrave" unicode="&#xf9;" horiz-adv-x="509" 
d="M367 114v390h73v-504h-65l-4 54h-2q-54 -63 -146 -63q-79 0 -122 50t-43 134v329h74v-330q0 -58 27.5 -90t82.5 -32q81 0 125 62zM138 725h87l71 -136h-59z" />
    <glyph glyph-name="uacute" unicode="&#xfa;" horiz-adv-x="509" 
d="M367 114v390h73v-504h-65l-4 54h-2q-54 -63 -146 -63q-79 0 -122 50t-43 134v329h74v-330q0 -58 27.5 -90t82.5 -32q81 0 125 62zM278 725h88l-90 -136h-58z" />
    <glyph glyph-name="ucircumflex" unicode="&#xfb;" horiz-adv-x="509" 
d="M367 114v390h73v-504h-65l-4 54h-2q-54 -63 -146 -63q-79 0 -122 50t-43 134v329h74v-330q0 -58 27.5 -90t82.5 -32q81 0 125 62zM200 589h-64l92 136h52l93 -136h-65l-54 87z" />
    <glyph glyph-name="udieresis" unicode="&#xfc;" horiz-adv-x="509" 
d="M367 114v390h73v-504h-65l-4 54h-2q-54 -63 -146 -63q-79 0 -122 50t-43 134v329h74v-330q0 -58 27.5 -90t82.5 -32q81 0 125 62zM155 725h59v-103h-59v103zM295 725h59v-103h-59v103z" />
    <glyph glyph-name="yacute" unicode="&#xfd;" horiz-adv-x="504" 
d="M481 504l-197 -534q-25 -68 -65.5 -101.5t-106.5 -37.5l-6 53q46 7 72 29t42 68l9 27l-206 496h82l159 -414h2l138 414h77zM287 725h88l-90 -136h-58z" />
    <glyph glyph-name="thorn" unicode="&#xfe;" horiz-adv-x="499" 
d="M283 -8q-89 0 -139 57h-2v-218h-73v918h73v-301h2q51 65 142 65q80 0 122 -50t42 -134v-154q0 -84 -43 -133.5t-124 -49.5zM142 389v-275q44 -63 123 -63q55 0 83.5 32.5t28.5 91.5v153q0 123 -110 123q-80 0 -125 -62z" />
    <glyph glyph-name="ydieresis" unicode="&#xff;" horiz-adv-x="504" 
d="M481 504l-197 -534q-25 -68 -65.5 -101.5t-106.5 -37.5l-6 53q46 7 72 29t42 68l9 27l-206 496h82l159 -414h2l138 414h77zM167 725h59v-103h-59v103zM307 725h59v-103h-59v103z" />
    <glyph glyph-name="Amacron" unicode="&#x100;" horiz-adv-x="605" 
d="M157 191l-60 -191h-84l245 725h88l246 -725h-86l-61 191h-288zM300 645l-122 -389h247l-123 389h-2zM431 848v-49h-257v49h257z" />
    <glyph glyph-name="amacron" unicode="&#x101;" horiz-adv-x="458" 
d="M104 377l-45 29q64 108 170 108q79 0 118 -47t39 -125v-253q0 -45 42 -45h14v-44q-22 -6 -38 -6q-62 0 -83 51q-56 -53 -137 -53q-66 0 -103.5 36t-37.5 97q0 162 225 162h45v55q0 113 -93 113q-70 0 -116 -78zM198 46q70 0 115 53v135h-45q-85 0 -119.5 -27t-34.5 -78
q0 -83 84 -83zM348 680v-51h-237v51h237z" />
    <glyph glyph-name="Abreve" unicode="&#x102;" horiz-adv-x="605" 
d="M157 191l-60 -191h-84l245 725h88l246 -725h-86l-61 191h-288zM300 645l-122 -389h247l-123 389h-2zM182 872h56q4 -42 19 -58.5t45 -16.5t45 16.5t18 58.5h56q-9 -64 -35.5 -90t-83.5 -26q-58 0 -84 25.5t-36 90.5z" />
    <glyph glyph-name="abreve" unicode="&#x103;" horiz-adv-x="458" 
d="M104 377l-45 29q64 108 170 108q79 0 118 -47t39 -125v-253q0 -45 42 -45h14v-44q-22 -6 -38 -6q-62 0 -83 51q-56 -53 -137 -53q-66 0 -103.5 36t-37.5 97q0 162 225 162h45v55q0 113 -93 113q-70 0 -116 -78zM198 46q70 0 115 53v135h-45q-85 0 -119.5 -27t-34.5 -78
q0 -83 84 -83zM114 725h55q4 -57 18.5 -79t44.5 -22q31 0 45.5 22t17.5 79h56q-9 -81 -35 -112t-84 -31t-83.5 31t-34.5 112z" />
    <glyph glyph-name="Aogonek" unicode="&#x104;" horiz-adv-x="605" 
d="M157 191l-60 -191h-84l245 725h88l246 -725h-17q-30 0 -50.5 -21.5t-20.5 -48.5q0 -45 49 -45q38 0 70 22l16 -41q-41 -31 -99 -31q-48 0 -74 20t-26 56q0 27 16 54.5t46 44.5l-57 181h-288zM300 645l-122 -389h247l-123 389h-2z" />
    <glyph glyph-name="aogonek" unicode="&#x105;" horiz-adv-x="458" 
d="M104 377l-45 29q64 108 170 108q79 0 118 -47t39 -125v-253q0 -45 42 -45h14v-44q-4 -1 -14 -2.5t-14 -2.5q-26 -5 -48.5 -25.5t-22.5 -45.5q0 -38 46 -38q42 0 74 22l16 -41q-41 -31 -99 -31q-99 0 -99 73q0 63 82 94q-30 12 -42 42q-56 -53 -137 -53q-66 0 -103.5 36
t-37.5 97q0 162 225 162h45v55q0 113 -93 113q-70 0 -116 -78zM198 46q70 0 115 53v135h-45q-85 0 -119.5 -27t-34.5 -78q0 -83 84 -83z" />
    <glyph glyph-name="Cacute" unicode="&#x106;" horiz-adv-x="533" 
d="M287 735q75 0 131 -41.5t75 -105.5l-60 -24q-33 102 -141 102q-73 0 -111.5 -46t-38.5 -131v-258q0 -79 39.5 -126.5t111.5 -47.5q59 0 91.5 25t49.5 85l61 -22q-39 -155 -208 -155q-104 0 -166 66.5t-62 173.5v258q0 115 61 181t167 66zM299 872h95l-95 -111h-65z" />
    <glyph glyph-name="cacute" unicode="&#x107;" horiz-adv-x="427" 
d="M401 403l-51 -24q-31 74 -113 74q-56 0 -85.5 -31t-29.5 -91v-158q0 -59 30 -91t85 -32q81 0 114 80l53 -21q-45 -118 -172 -118q-87 0 -135 50t-48 129v164q0 79 48 129t135 50q58 0 102 -29t67 -81zM253 725h88l-90 -136h-58z" />
    <glyph glyph-name="Ccircumflex" unicode="&#x108;" horiz-adv-x="533" 
d="M287 735q75 0 131 -41.5t75 -105.5l-60 -24q-33 102 -141 102q-73 0 -111.5 -46t-38.5 -131v-258q0 -79 39.5 -126.5t111.5 -47.5q59 0 91.5 25t49.5 85l61 -22q-39 -155 -208 -155q-104 0 -166 66.5t-62 173.5v258q0 115 61 181t167 66zM234 761h-67l90 111h62l90 -111
h-67l-54 68z" />
    <glyph glyph-name="ccircumflex" unicode="&#x109;" horiz-adv-x="427" 
d="M401 403l-51 -24q-31 74 -113 74q-56 0 -85.5 -31t-29.5 -91v-158q0 -59 30 -91t85 -32q81 0 114 80l53 -21q-45 -118 -172 -118q-87 0 -135 50t-48 129v164q0 79 48 129t135 50q58 0 102 -29t67 -81zM180 589h-64l92 136h52l93 -136h-65l-54 87z" />
    <glyph glyph-name="Cdotaccent" unicode="&#x10a;" horiz-adv-x="533" 
d="M287 735q75 0 131 -41.5t75 -105.5l-60 -24q-33 102 -141 102q-73 0 -111.5 -46t-38.5 -131v-258q0 -79 39.5 -126.5t111.5 -47.5q59 0 91.5 25t49.5 85l61 -22q-39 -155 -208 -155q-104 0 -166 66.5t-62 173.5v258q0 115 61 181t167 66zM247 872h79v-99h-79v99z" />
    <glyph glyph-name="cdotaccent" unicode="&#x10b;" horiz-adv-x="427" 
d="M401 403l-51 -24q-31 74 -113 74q-56 0 -85.5 -31t-29.5 -91v-158q0 -59 30 -91t85 -32q81 0 114 80l53 -21q-45 -118 -172 -118q-87 0 -135 50t-48 129v164q0 79 48 129t135 50q58 0 102 -29t67 -81zM200 725h71v-102h-71v102z" />
    <glyph glyph-name="Ccaron" unicode="&#x10c;" horiz-adv-x="533" 
d="M287 735q75 0 131 -41.5t75 -105.5l-60 -24q-33 102 -141 102q-73 0 -111.5 -46t-38.5 -131v-258q0 -79 39.5 -126.5t111.5 -47.5q59 0 91.5 25t49.5 85l61 -22q-39 -155 -208 -155q-104 0 -166 66.5t-62 173.5v258q0 115 61 181t167 66zM170 872h66l52 -70l54 70h65
l-93 -111h-52z" />
    <glyph glyph-name="ccaron" unicode="&#x10d;" horiz-adv-x="427" 
d="M401 403l-51 -24q-31 74 -113 74q-56 0 -85.5 -31t-29.5 -91v-158q0 -59 30 -91t85 -32q81 0 114 80l53 -21q-45 -118 -172 -118q-87 0 -135 50t-48 129v164q0 79 48 129t135 50q58 0 102 -29t67 -81zM115 725h64l54 -87l54 87h64l-92 -136h-52z" />
    <glyph glyph-name="Dcaron" unicode="&#x10e;" horiz-adv-x="626" 
d="M83 725h238q116 0 180.5 -65.5t64.5 -180.5v-236q0 -113 -64.5 -178t-180.5 -65h-238v725zM484 475q0 180 -163 180h-156v-586h156q163 0 163 176v230zM174 872h66l52 -70l54 70h65l-93 -111h-52z" />
    <glyph glyph-name="dcaron" unicode="&#x10f;" horiz-adv-x="505" 
d="M216 514q87 0 139 -57h2v292h73v-749h-65l-4 53h-2q-54 -62 -146 -62q-79 0 -121.5 50t-42.5 134v155q0 85 43 134.5t124 49.5zM357 114v278q-46 61 -123 61q-55 0 -83.5 -32.5t-28.5 -91.5v-155q0 -58 28 -90t83 -32q80 0 124 62zM506 749h68l-52 -136h-41z" />
    <glyph glyph-name="Dcroat" unicode="&#x110;" horiz-adv-x="638" 
d="M95 725h238q116 0 180.5 -65.5t64.5 -180.5v-236q0 -113 -64.5 -178t-180.5 -65h-238v347h-76v50h76v328zM496 475q0 180 -163 180h-156v-258h85v-50h-85v-278h156q163 0 163 176v230z" />
    <glyph glyph-name="dcroat" unicode="&#x111;" horiz-adv-x="507" 
d="M279 603v47h78v99h73v-99h50v-47h-50v-603h-65l-4 53h-2q-54 -62 -146 -62q-79 0 -121.5 50t-42.5 134v155q0 85 43 134.5t124 49.5q87 0 139 -57h2v146h-78zM357 114v278q-46 61 -123 61q-55 0 -83.5 -32.5t-28.5 -91.5v-155q0 -58 28 -90t83 -32q80 0 124 62z" />
    <glyph glyph-name="Emacron" unicode="&#x112;" horiz-adv-x="537" 
d="M83 725h402v-72h-320v-246h256v-65h-256v-271h335v-71h-417v725zM418 848v-49h-257v49h257z" />
    <glyph glyph-name="emacron" unicode="&#x113;" horiz-adv-x="455" 
d="M413 252h-291v-79q0 -59 31 -91.5t88 -32.5q44 0 72.5 21t47.5 68l53 -21q-44 -126 -179 -126q-88 0 -137 49.5t-49 130.5v163q0 79 48.5 129t134.5 50q84 0 132.5 -51t48.5 -130v-80zM122 338v-38h226v39q0 54 -30 85.5t-84 31.5q-55 0 -83.5 -32t-28.5 -86zM353 680
v-51h-237v51h237z" />
    <glyph glyph-name="Ebreve" unicode="&#x114;" horiz-adv-x="537" 
d="M83 725h402v-72h-320v-246h256v-65h-256v-271h335v-71h-417v725zM171 872h56q4 -42 19 -58.5t45 -16.5t45 16.5t18 58.5h56q-9 -64 -35.5 -90t-83.5 -26q-58 0 -84 25.5t-36 90.5z" />
    <glyph glyph-name="ebreve" unicode="&#x115;" horiz-adv-x="455" 
d="M413 252h-291v-79q0 -59 31 -91.5t88 -32.5q44 0 72.5 21t47.5 68l53 -21q-44 -126 -179 -126q-88 0 -137 49.5t-49 130.5v163q0 79 48.5 129t134.5 50q84 0 132.5 -51t48.5 -130v-80zM122 338v-38h226v39q0 54 -30 85.5t-84 31.5q-55 0 -83.5 -32t-28.5 -86zM116 725h55
q4 -57 18.5 -79t44.5 -22q31 0 45.5 22t17.5 79h56q-9 -81 -35 -112t-84 -31t-83.5 31t-34.5 112z" />
    <glyph glyph-name="Edotaccent" unicode="&#x116;" horiz-adv-x="537" 
d="M83 725h402v-72h-320v-246h256v-65h-256v-271h335v-71h-417v725zM255 872h79v-99h-79v99z" />
    <glyph glyph-name="edotaccent" unicode="&#x117;" horiz-adv-x="455" 
d="M413 252h-291v-79q0 -59 31 -91.5t88 -32.5q44 0 72.5 21t47.5 68l53 -21q-44 -126 -179 -126q-88 0 -137 49.5t-49 130.5v163q0 79 48.5 129t134.5 50q84 0 132.5 -51t48.5 -130v-80zM122 338v-38h226v39q0 54 -30 85.5t-84 31.5q-55 0 -83.5 -32t-28.5 -86zM199 725h71
v-102h-71v102z" />
    <glyph glyph-name="Eogonek" unicode="&#x118;" horiz-adv-x="537" 
d="M83 725h402v-72h-320v-246h256v-65h-256v-271h335v-71h-40q-30 0 -50.5 -21.5t-20.5 -48.5q0 -45 49 -45q38 0 70 22l16 -41q-41 -31 -99 -31q-48 0 -74 20t-26 56q0 59 56 87l4 2h-302v725z" />
    <glyph glyph-name="eogonek" unicode="&#x119;" horiz-adv-x="455" 
d="M413 252h-291v-79q0 -59 31 -91.5t88 -32.5q44 0 72.5 21t47.5 68l53 -21q-33 -93 -109 -116q-76 -24 -76 -78q0 -38 46 -38q42 0 74 22l16 -41q-41 -31 -99 -31q-99 0 -99 73q0 52 57 82l3 2q-84 2 -131 51t-47 128v163q0 79 48.5 129t134.5 50q84 0 132.5 -51
t48.5 -130v-80zM122 338v-38h226v39q0 54 -30 85.5t-84 31.5q-55 0 -83.5 -32t-28.5 -86z" />
    <glyph glyph-name="Ecaron" unicode="&#x11a;" horiz-adv-x="537" 
d="M83 725h402v-72h-320v-246h256v-65h-256v-271h335v-71h-417v725zM173 872h66l52 -70l54 70h65l-93 -111h-52z" />
    <glyph glyph-name="ecaron" unicode="&#x11b;" horiz-adv-x="455" 
d="M413 252h-291v-79q0 -59 31 -91.5t88 -32.5q44 0 72.5 21t47.5 68l53 -21q-44 -126 -179 -126q-88 0 -137 49.5t-49 130.5v163q0 79 48.5 129t134.5 50q84 0 132.5 -51t48.5 -130v-80zM122 338v-38h226v39q0 54 -30 85.5t-84 31.5q-55 0 -83.5 -32t-28.5 -86zM116 725h64
l54 -87l54 87h64l-92 -136h-52z" />
    <glyph glyph-name="Gcircumflex" unicode="&#x11c;" horiz-adv-x="600" 
d="M307 735q84 0 144.5 -41t82.5 -110l-60 -23q-46 105 -159 105q-174 0 -174 -196v-234q0 -86 43 -131t124 -45q106 0 155 84v151h-110v57h184v-352h-69v69q-64 -78 -176 -78q-110 0 -171.5 64t-61.5 180v236q0 121 63.5 192.5t184.5 71.5zM260 761h-67l90 111h62l90 -111
h-67l-54 68z" />
    <glyph glyph-name="gcircumflex" unicode="&#x11d;" horiz-adv-x="491" 
d="M248 182q-53 0 -92 14q-45 -16 -45 -52q0 -45 68 -45h123q162 0 162 -121q0 -73 -57 -114t-159 -41q-186 0 -186 124q0 65 50 99q-63 22 -63 85q0 57 68 88q-44 40 -44 128q0 85 42.5 125.5t132.5 40.5q72 0 115 -26q51 30 66 73l38 -16q-15 -61 -63 -99q22 -38 22 -98
q0 -85 -43 -125t-135 -40zM144 346q0 -63 22.5 -86.5t82.5 -23.5q61 0 83.5 23.5t22.5 86.5q0 62 -24 86.5t-82 24.5q-59 0 -82 -24.5t-23 -86.5zM298 37h-126q-48 -25 -48 -84q0 -77 125 -77q86 0 117.5 25t31.5 69q0 36 -21.5 51.5t-78.5 15.5zM200 589h-64l92 136h52
l93 -136h-65l-54 87z" />
    <glyph glyph-name="Gbreve" unicode="&#x11e;" horiz-adv-x="600" 
d="M307 735q84 0 144.5 -41t82.5 -110l-60 -23q-46 105 -159 105q-174 0 -174 -196v-234q0 -86 43 -131t124 -45q106 0 155 84v151h-110v57h184v-352h-69v69q-64 -78 -176 -78q-110 0 -171.5 64t-61.5 180v236q0 121 63.5 192.5t184.5 71.5zM192 872h56q4 -42 19 -58.5
t45 -16.5t45 16.5t18 58.5h56q-9 -64 -35.5 -90t-83.5 -26q-58 0 -84 25.5t-36 90.5z" />
    <glyph glyph-name="gbreve" unicode="&#x11f;" horiz-adv-x="491" 
d="M248 182q-53 0 -92 14q-45 -16 -45 -52q0 -45 68 -45h123q162 0 162 -121q0 -73 -57 -114t-159 -41q-186 0 -186 124q0 65 50 99q-63 22 -63 85q0 57 68 88q-44 40 -44 128q0 85 42.5 125.5t132.5 40.5q72 0 115 -26q51 30 66 73l38 -16q-15 -61 -63 -99q22 -38 22 -98
q0 -85 -43 -125t-135 -40zM144 346q0 -63 22.5 -86.5t82.5 -23.5q61 0 83.5 23.5t22.5 86.5q0 62 -24 86.5t-82 24.5q-59 0 -82 -24.5t-23 -86.5zM298 37h-126q-48 -25 -48 -84q0 -77 125 -77q86 0 117.5 25t31.5 69q0 36 -21.5 51.5t-78.5 15.5zM139 725h55q4 -57 18.5 -79
t44.5 -22q31 0 45.5 22t17.5 79h56q-9 -81 -35 -112t-84 -31t-83.5 31t-34.5 112z" />
    <glyph glyph-name="Gdotaccent" unicode="&#x120;" horiz-adv-x="600" 
d="M307 735q84 0 144.5 -41t82.5 -110l-60 -23q-46 105 -159 105q-174 0 -174 -196v-234q0 -86 43 -131t124 -45q106 0 155 84v151h-110v57h184v-352h-69v69q-64 -78 -176 -78q-110 0 -171.5 64t-61.5 180v236q0 121 63.5 192.5t184.5 71.5zM269 872h79v-99h-79v99z" />
    <glyph glyph-name="gdotaccent" unicode="&#x121;" horiz-adv-x="491" 
d="M248 182q-53 0 -92 14q-45 -16 -45 -52q0 -45 68 -45h123q162 0 162 -121q0 -73 -57 -114t-159 -41q-186 0 -186 124q0 65 50 99q-63 22 -63 85q0 57 68 88q-44 40 -44 128q0 85 42.5 125.5t132.5 40.5q72 0 115 -26q51 30 66 73l38 -16q-15 -61 -63 -99q22 -38 22 -98
q0 -85 -43 -125t-135 -40zM144 346q0 -63 22.5 -86.5t82.5 -23.5q61 0 83.5 23.5t22.5 86.5q0 62 -24 86.5t-82 24.5q-59 0 -82 -24.5t-23 -86.5zM298 37h-126q-48 -25 -48 -84q0 -77 125 -77q86 0 117.5 25t31.5 69q0 36 -21.5 51.5t-78.5 15.5zM219 725h71v-102h-71v102z
" />
    <glyph glyph-name="Gcommaaccent" unicode="&#x122;" horiz-adv-x="600" 
d="M307 735q84 0 144.5 -41t82.5 -110l-60 -23q-46 105 -159 105q-174 0 -174 -196v-234q0 -86 43 -131t124 -45q106 0 155 84v151h-110v57h184v-352h-69v69q-64 -78 -176 -78q-110 0 -171.5 64t-61.5 180v236q0 121 63.5 192.5t184.5 71.5zM270 -99v63h84v-40
q0 -53 -19 -76.5t-67 -27.5l-4 31q25 4 34 13.5t9 32.5z" />
    <glyph glyph-name="gcommaaccent" unicode="&#x123;" horiz-adv-x="491" 
d="M248 182q-53 0 -92 14q-45 -16 -45 -52q0 -45 68 -45h123q162 0 162 -121q0 -73 -57 -114t-159 -41q-186 0 -186 124q0 65 50 99q-63 22 -63 85q0 57 68 88q-44 40 -44 128q0 85 42.5 125.5t132.5 40.5q72 0 115 -26q51 30 66 73l38 -16q-15 -61 -63 -99q22 -38 22 -98
q0 -85 -43 -125t-135 -40zM144 346q0 -63 22.5 -86.5t82.5 -23.5q61 0 83.5 23.5t22.5 86.5q0 62 -24 86.5t-82 24.5q-59 0 -82 -24.5t-23 -86.5zM298 37h-126q-48 -25 -48 -84q0 -77 125 -77q86 0 117.5 25t31.5 69q0 36 -21.5 51.5t-78.5 15.5zM295 647v-62h-84v39
q0 54 19 77.5t67 27.5l4 -31q-24 -4 -33.5 -14t-9.5 -32z" />
    <glyph glyph-name="Hcircumflex" unicode="&#x124;" horiz-adv-x="627" 
d="M83 725h82v-319h297v319h82v-725h-82v335h-297v-335h-82v725zM261 761h-67l90 111h62l90 -111h-67l-54 68z" />
    <glyph glyph-name="hcircumflex" unicode="&#x125;" horiz-adv-x="514" 
d="M147 388v-388h-73v749h73v-297h2q50 61 142 61q79 0 121.5 -49.5t42.5 -134.5v-329h-73v328q0 123 -111 123q-40 0 -72.5 -18t-51.5 -45zM53 773h-64l92 136h52l93 -136h-65l-54 87z" />
    <glyph glyph-name="Hbar" unicode="&#x126;" horiz-adv-x="627" 
d="M83 725h82v-110h297v110h82v-110h67v-50h-67v-565h-82v335h-297v-335h-82v565h-69v50h69v110zM165 406h297v159h-297v-159z" />
    <glyph glyph-name="hbar" unicode="&#x127;" horiz-adv-x="514" 
d="M147 388v-388h-73v595h-87v48h87v106h73v-106h119v-48h-119v-143h2q50 61 142 61q79 0 121.5 -49.5t42.5 -134.5v-329h-73v328q0 123 -111 123q-40 0 -72.5 -18t-51.5 -45z" />
    <glyph glyph-name="Itilde" unicode="&#x128;" horiz-adv-x="284" 
d="M101 725h82v-725h-82v725zM239 872l40 -7q-9 -56 -27 -83.5t-53 -27.5q-23 0 -44.5 18t-38.5 36.5t-30 18.5q-26 0 -39 -67l-40 7q9 56 27 83.5t52 27.5q24 0 45.5 -18.5t38.5 -37t29 -18.5q27 0 40 68z" />
    <glyph glyph-name="itilde" unicode="&#x129;" horiz-adv-x="230" 
d="M78 504h73v-504h-73v504zM213 725l41 -9q-9 -66 -27 -98t-54 -32q-24 0 -45.5 23t-38 46t-29.5 23q-14 0 -22.5 -19t-16.5 -65l-40 8q9 67 27 99t53 32q24 0 46 -23.5t38.5 -46.5t29.5 -23q14 0 22.5 19.5t15.5 65.5z" />
    <glyph glyph-name="Imacron" unicode="&#x12a;" horiz-adv-x="284" 
d="M101 725h82v-725h-82v725zM271 848v-49h-257v49h257z" />
    <glyph glyph-name="imacron" unicode="&#x12b;" horiz-adv-x="230" 
d="M78 504h73v-504h-73v504zM234 680v-51h-237v51h237z" />
    <glyph glyph-name="Ibreve" unicode="&#x12c;" horiz-adv-x="284" 
d="M101 725h82v-725h-82v725zM22 872h56q4 -42 19 -58.5t45 -16.5t45 16.5t18 58.5h56q-9 -64 -35.5 -90t-83.5 -26q-58 0 -84 25.5t-36 90.5z" />
    <glyph glyph-name="ibreve" unicode="&#x12d;" horiz-adv-x="230" 
d="M78 504h73v-504h-73v504zM-5 725h55q4 -57 18.5 -79t44.5 -22q31 0 45.5 22t17.5 79h56q-9 -81 -35 -112t-84 -31t-83.5 31t-34.5 112z" />
    <glyph glyph-name="Iogonek" unicode="&#x12e;" horiz-adv-x="284" 
d="M101 725h82v-725h-7q-34 0 -53 -22t-19 -52q0 -41 47 -41q42 0 74 22l16 -41q-41 -31 -99 -31q-48 0 -74 20t-26 56q0 26 15 51t44 39v724z" />
    <glyph glyph-name="iogonek" unicode="&#x12f;" horiz-adv-x="230" 
d="M78 504h73v-504q-30 0 -50.5 -21.5t-20.5 -48.5q0 -45 49 -45q38 0 70 22l16 -41q-41 -31 -99 -31q-48 0 -74 22t-26 59q0 59 62 94v494zM80 725h71v-102h-71v102z" />
    <glyph glyph-name="Idotaccent" unicode="&#x130;" horiz-adv-x="284" 
d="M101 725h82v-725h-82v725zM103 872h79v-99h-79v99z" />
    <glyph glyph-name="dotlessi" unicode="&#x131;" horiz-adv-x="230" 
d="M78 504h73v-504h-73v504z" />
    <glyph glyph-name="IJ" unicode="&#x132;" horiz-adv-x="593" 
d="M101 725h82v-725h-82v725zM428 725h82v-610q0 -254 -251 -256l-6 65q91 0 133 45t42 146v610z" />
    <glyph glyph-name="ij" unicode="&#x133;" horiz-adv-x="466" 
d="M78 504h73v-504h-73v504zM79 725h71v-102h-71v102zM325 725h71v-102h-71v102zM225 -170l-7 58q107 13 107 138v478h73v-477q0 -185 -173 -197z" />
    <glyph glyph-name="Jcircumflex" unicode="&#x134;" horiz-adv-x="276" 
d="M111 725h82v-610q0 -254 -251 -256l-6 65q91 0 133 45t42 146v610zM97 761h-67l90 111h62l90 -111h-67l-54 68z" />
    <glyph glyph-name="jcircumflex" unicode="&#x135;" horiz-adv-x="229" 
d="M-5 -170l-7 58q107 13 107 138v478h73v-477q0 -185 -173 -197zM94 589h-64l92 136h52l93 -136h-65l-54 87z" />
    <glyph glyph-name="Kcommaaccent" unicode="&#x136;" horiz-adv-x="588" 
d="M571 0h-97l-221 344l-88 -105v-239h-82v725h82v-397l286 397h98l-241 -325zM268 -99v63h84v-40q0 -53 -19 -76.5t-67 -27.5l-4 31q25 4 34 13.5t9 32.5z" />
    <glyph glyph-name="kcommaaccent" unicode="&#x137;" horiz-adv-x="492" 
d="M74 749h73v-514l223 269h84l-181 -216l203 -288h-87l-165 240l-77 -82v-158h-73v749zM212 -99v63h84v-40q0 -53 -19 -76.5t-67 -27.5l-4 31q25 4 34 13.5t9 32.5z" />
    <glyph glyph-name="kgreenlandic" unicode="&#x138;" horiz-adv-x="492" 
d="M74 504h73v-269l223 269h84l-181 -216l203 -288h-87l-165 240l-77 -82v-158h-73v504z" />
    <glyph glyph-name="Lacute" unicode="&#x139;" horiz-adv-x="484" 
d="M83 725h80v-653h296v-72h-376v725zM154 872h95l-95 -111h-65z" />
    <glyph glyph-name="lacute" unicode="&#x13a;" horiz-adv-x="236" 
d="M81 749h74v-749h-74v749zM148 910h88l-90 -136h-58z" />
    <glyph glyph-name="Lcommaaccent" unicode="&#x13b;" horiz-adv-x="484" 
d="M83 725h80v-653h296v-72h-376v725zM239 -99v63h84v-40q0 -53 -19 -76.5t-67 -27.5l-4 31q25 4 34 13.5t9 32.5z" />
    <glyph glyph-name="lcommaaccent" unicode="&#x13c;" horiz-adv-x="236" 
d="M81 749h74v-749h-74v749zM79 -99v63h84v-40q0 -53 -19 -76.5t-67 -27.5l-4 31q25 4 34 13.5t9 32.5z" />
    <glyph glyph-name="Lcaron" unicode="&#x13d;" horiz-adv-x="484" 
d="M83 725h80v-653h296v-72h-376v725zM292 725h68l-52 -136h-41z" />
    <glyph glyph-name="lcaron" unicode="&#x13e;" horiz-adv-x="236" 
d="M81 749h74v-749h-74v749zM214 749h68l-52 -136h-41z" />
    <glyph glyph-name="Ldot" unicode="&#x13f;" horiz-adv-x="484" 
d="M340 461h66v-100h-66v100zM83 725h80v-653h296v-72h-376v725z" />
    <glyph glyph-name="ldot" unicode="&#x140;" horiz-adv-x="251" 
d="M218 436h50v-112h-50v112zM81 749h74v-749h-74v749z" />
    <glyph glyph-name="Lslash" unicode="&#x141;" horiz-adv-x="494" 
d="M93 725h80v-326l186 104v-69l-186 -103v-259h296v-72h-376v297l-62 -33v68l62 33v360z" />
    <glyph glyph-name="lslash" unicode="&#x142;" horiz-adv-x="311" 
d="M111 749h74v-305l93 61v-64l-93 -59v-382h-74v343l-83 -53v64l83 52v343z" />
    <glyph glyph-name="Nacute" unicode="&#x143;" horiz-adv-x="627" 
d="M83 725h66l319 -552h2v552h74v-725h-60l-325 564h-2v-564h-74v725zM332 872h95l-95 -111h-65z" />
    <glyph glyph-name="nacute" unicode="&#x144;" horiz-adv-x="509" 
d="M142 388v-388h-73v504h65l2 -56h2q54 65 148 65q79 0 121.5 -49.5t42.5 -134.5v-329h-73v328q0 123 -110 123q-81 0 -125 -63zM276 725h88l-90 -136h-58z" />
    <glyph glyph-name="Ncommaaccent" unicode="&#x145;" horiz-adv-x="627" 
d="M83 725h66l319 -552h2v552h74v-725h-60l-325 564h-2v-564h-74v725zM282 -99v63h84v-40q0 -53 -19 -76.5t-67 -27.5l-4 31q25 4 34 13.5t9 32.5z" />
    <glyph glyph-name="ncommaaccent" unicode="&#x146;" horiz-adv-x="509" 
d="M142 388v-388h-73v504h65l2 -56h2q54 65 148 65q79 0 121.5 -49.5t42.5 -134.5v-329h-73v328q0 123 -110 123q-81 0 -125 -63zM219 -99v63h84v-40q0 -53 -19 -76.5t-67 -27.5l-4 31q25 4 34 13.5t9 32.5z" />
    <glyph glyph-name="Ncaron" unicode="&#x147;" horiz-adv-x="627" 
d="M83 725h66l319 -552h2v552h74v-725h-60l-325 564h-2v-564h-74v725zM199 872h66l52 -70l54 70h65l-93 -111h-52z" />
    <glyph glyph-name="ncaron" unicode="&#x148;" horiz-adv-x="509" 
d="M142 388v-388h-73v504h65l2 -56h2q54 65 148 65q79 0 121.5 -49.5t42.5 -134.5v-329h-73v328q0 123 -110 123q-81 0 -125 -63zM137 725h64l54 -87l54 87h64l-92 -136h-52z" />
    <glyph glyph-name="napostrophe" unicode="&#x149;" horiz-adv-x="694" 
d="M48 650v93h90v-70q0 -87 -48 -155l-31 15q26 52 26 111zM327 388v-388h-73v504h65l2 -56h2q54 65 148 65q79 0 121.5 -49.5t42.5 -134.5v-329h-73v328q0 123 -110 123q-81 0 -125 -63z" />
    <glyph glyph-name="Eng" unicode="&#x14a;" horiz-adv-x="627" 
d="M157 0h-74v725h66l319 -554h2v554h74v-673q0 -184 -182 -187l-5 61q96 0 111 99l-309 539h-2v-564z" />
    <glyph glyph-name="eng" unicode="&#x14b;" horiz-adv-x="509" 
d="M278 -170l-6 54q105 12 105 144v300q0 123 -110 123q-81 0 -125 -63v-388h-73v504h65l2 -56h2q54 65 148 65q79 0 121.5 -49.5t42.5 -134.5v-301q0 -185 -172 -198z" />
    <glyph glyph-name="Omacron" unicode="&#x14c;" horiz-adv-x="602" 
d="M301 735q116 0 178.5 -64.5t62.5 -178.5v-258q0 -115 -62.5 -179.5t-178.5 -64.5t-179 65t-63 179v257q0 114 63 179t179 65zM460 234v257q0 175 -159 175q-160 0 -160 -175v-257q0 -176 160 -176q159 0 159 176zM430 848v-49h-257v49h257z" />
    <glyph glyph-name="omacron" unicode="&#x14d;" horiz-adv-x="480" 
d="M431 334v-166q0 -79 -50.5 -128t-140.5 -49q-91 0 -141 48.5t-50 128.5v166q0 80 50 129.5t141 49.5t141 -49.5t50 -129.5zM122 332v-161q0 -57 29.5 -89.5t88.5 -32.5t88.5 32.5t29.5 89.5v161q0 57 -29.5 90t-88.5 33q-60 0 -89 -32.5t-29 -90.5zM358 680v-51h-237v51
h237z" />
    <glyph glyph-name="Obreve" unicode="&#x14e;" horiz-adv-x="602" 
d="M301 735q116 0 178.5 -64.5t62.5 -178.5v-258q0 -115 -62.5 -179.5t-178.5 -64.5t-179 65t-63 179v257q0 114 63 179t179 65zM460 234v257q0 175 -159 175q-160 0 -160 -175v-257q0 -176 160 -176q159 0 159 176zM181 872h56q4 -42 19 -58.5t45 -16.5t45 16.5t18 58.5h56
q-9 -64 -35.5 -90t-83.5 -26q-58 0 -84 25.5t-36 90.5z" />
    <glyph glyph-name="obreve" unicode="&#x14f;" horiz-adv-x="480" 
d="M431 334v-166q0 -79 -50.5 -128t-140.5 -49q-91 0 -141 48.5t-50 128.5v166q0 80 50 129.5t141 49.5t141 -49.5t50 -129.5zM122 332v-161q0 -57 29.5 -89.5t88.5 -32.5t88.5 32.5t29.5 89.5v161q0 57 -29.5 90t-88.5 33q-60 0 -89 -32.5t-29 -90.5zM121 725h55
q4 -57 18.5 -79t44.5 -22q31 0 45.5 22t17.5 79h56q-9 -81 -35 -112t-84 -31t-83.5 31t-34.5 112z" />
    <glyph glyph-name="Ohungarumlaut" unicode="&#x150;" horiz-adv-x="602" 
d="M301 735q116 0 178.5 -64.5t62.5 -178.5v-258q0 -115 -62.5 -179.5t-178.5 -64.5t-179 65t-63 179v257q0 114 63 179t179 65zM460 234v257q0 175 -159 175q-160 0 -160 -175v-257q0 -176 160 -176q159 0 159 176zM255 872h81l-74 -111h-51zM391 872h81l-90 -111h-52z" />
    <glyph glyph-name="ohungarumlaut" unicode="&#x151;" horiz-adv-x="480" 
d="M431 334v-166q0 -79 -50.5 -128t-140.5 -49q-91 0 -141 48.5t-50 128.5v166q0 80 50 129.5t141 49.5t141 -49.5t50 -129.5zM122 332v-161q0 -57 29.5 -89.5t88.5 -32.5t88.5 32.5t29.5 89.5v161q0 57 -29.5 90t-88.5 33q-60 0 -89 -32.5t-29 -90.5zM197 725h80l-77 -136
h-50zM333 725h79l-93 -136h-49z" />
    <glyph glyph-name="OE" unicode="&#x152;" horiz-adv-x="914" 
d="M460 725h402v-72h-320v-246h256v-65h-256v-271h335v-71h-417v71h-2q-51 -81 -172 -81q-106 0 -166.5 65.5t-60.5 178.5v257q0 113 60.5 178.5t166.5 65.5q120 0 172 -82h2v72zM460 234v257q0 174 -159 174q-160 0 -160 -174v-257q0 -175 160 -175q159 0 159 175z" />
    <glyph glyph-name="oe" unicode="&#x153;" horiz-adv-x="758" 
d="M714 244h-284v-76q0 -57 29 -88.5t84 -31.5q92 0 123 91l51 -22q-48 -127 -179 -127q-107 0 -146 79q-44 -79 -158 -79q-86 0 -135.5 51t-49.5 125v171q0 75 49.5 126t135.5 51q111 0 158 -78q44 78 149 78q79 0 126 -52t47 -127v-91zM355 333q0 60 -30 91.5t-86 31.5
q-115 0 -115 -123v-162q0 -125 114 -125q57 0 87 32t30 93v162zM430 338v-46h217v48q0 54 -28.5 84.5t-79.5 30.5q-109 0 -109 -117z" />
    <glyph glyph-name="Racute" unicode="&#x154;" horiz-adv-x="576" 
d="M459 0l-177 317h-117v-317h-82v725h218q103 0 154.5 -51t51.5 -146q0 -84 -37 -134.5t-108 -63.5l191 -330h-94zM165 656v-273h132q70 0 99.5 35.5t29.5 105.5q0 68 -28.5 100t-97.5 32h-135zM279 872h95l-95 -111h-65z" />
    <glyph glyph-name="racute" unicode="&#x155;" horiz-adv-x="348" 
d="M332 498l-11 -66q-23 12 -51 12q-56 0 -89 -42.5t-39 -112.5v-289h-73v504h64l3 -96h2q41 104 133 104q35 0 61 -14zM213 725h88l-90 -136h-58z" />
    <glyph glyph-name="Rcommaaccent" unicode="&#x156;" horiz-adv-x="576" 
d="M459 0l-177 317h-117v-317h-82v725h218q103 0 154.5 -51t51.5 -146q0 -84 -37 -134.5t-108 -63.5l191 -330h-94zM165 656v-273h132q70 0 99.5 35.5t29.5 105.5q0 68 -28.5 100t-97.5 32h-135zM255 -99v63h84v-40q0 -53 -19 -76.5t-67 -27.5l-4 31q25 4 34 13.5t9 32.5z
" />
    <glyph glyph-name="rcommaaccent" unicode="&#x157;" horiz-adv-x="348" 
d="M332 498l-11 -66q-23 12 -51 12q-56 0 -89 -42.5t-39 -112.5v-289h-73v504h64l3 -96h2q41 104 133 104q35 0 61 -14zM66 -99v63h84v-40q0 -53 -19 -76.5t-67 -27.5l-4 31q25 4 34 13.5t9 32.5z" />
    <glyph glyph-name="Rcaron" unicode="&#x158;" horiz-adv-x="576" 
d="M459 0l-177 317h-117v-317h-82v725h218q103 0 154.5 -51t51.5 -146q0 -84 -37 -134.5t-108 -63.5l191 -330h-94zM165 656v-273h132q70 0 99.5 35.5t29.5 105.5q0 68 -28.5 100t-97.5 32h-135zM152 872h66l52 -70l54 70h65l-93 -111h-52z" />
    <glyph glyph-name="rcaron" unicode="&#x159;" horiz-adv-x="348" 
d="M332 498l-11 -66q-23 12 -51 12q-56 0 -89 -42.5t-39 -112.5v-289h-73v504h64l3 -96h2q41 104 133 104q35 0 61 -14zM77 725h64l54 -87l54 87h64l-92 -136h-52z" />
    <glyph glyph-name="Sacute" unicode="&#x15a;" horiz-adv-x="492" 
d="M242 735q77 0 133 -37.5t79 -101.5l-58 -26q-17 46 -56 72t-92 26q-67 0 -98.5 -30.5t-31.5 -81.5q0 -35 19 -62t49.5 -45.5t67.5 -35t73.5 -36t67 -42.5t49.5 -60.5t19 -84.5q0 -95 -58 -147.5t-157 -52.5q-78 0 -137.5 43t-81.5 117l64 25q18 -56 59.5 -86.5
t94.5 -30.5q137 0 137 125q0 33 -15 59t-39.5 42.5t-55.5 33t-63.5 29.5t-63.5 32t-55.5 40.5t-39.5 55.5t-15 77q0 81 55 132t150 51zM275 872h95l-95 -111h-65z" />
    <glyph glyph-name="sacute" unicode="&#x15b;" horiz-adv-x="416" 
d="M376 409l-49 -22q-31 71 -110 71q-47 0 -71 -21t-24 -55q0 -32 26.5 -53t64.5 -34.5t75.5 -29.5t64 -47.5t26.5 -79.5q0 -65 -45.5 -106t-116.5 -41q-126 0 -173 109l48 24q35 -79 122 -79q47 0 71.5 23t24.5 64q0 33 -26.5 55t-64.5 35.5t-76 29.5t-64.5 47t-26.5 77
q0 59 42.5 98t120.5 39q118 0 161 -104zM240 725h88l-90 -136h-58z" />
    <glyph glyph-name="Scircumflex" unicode="&#x15c;" horiz-adv-x="492" 
d="M242 735q77 0 133 -37.5t79 -101.5l-58 -26q-17 46 -56 72t-92 26q-67 0 -98.5 -30.5t-31.5 -81.5q0 -35 19 -62t49.5 -45.5t67.5 -35t73.5 -36t67 -42.5t49.5 -60.5t19 -84.5q0 -95 -58 -147.5t-157 -52.5q-78 0 -137.5 43t-81.5 117l64 25q18 -56 59.5 -86.5
t94.5 -30.5q137 0 137 125q0 33 -15 59t-39.5 42.5t-55.5 33t-63.5 29.5t-63.5 32t-55.5 40.5t-39.5 55.5t-15 77q0 81 55 132t150 51zM205 761h-67l90 111h62l90 -111h-67l-54 68z" />
    <glyph glyph-name="scircumflex" unicode="&#x15d;" horiz-adv-x="416" 
d="M376 409l-49 -22q-31 71 -110 71q-47 0 -71 -21t-24 -55q0 -32 26.5 -53t64.5 -34.5t75.5 -29.5t64 -47.5t26.5 -79.5q0 -65 -45.5 -106t-116.5 -41q-126 0 -173 109l48 24q35 -79 122 -79q47 0 71.5 23t24.5 64q0 33 -26.5 55t-64.5 35.5t-76 29.5t-64.5 47t-26.5 77
q0 59 42.5 98t120.5 39q118 0 161 -104zM164 589h-64l92 136h52l93 -136h-65l-54 87z" />
    <glyph glyph-name="Scedilla" unicode="&#x15e;" horiz-adv-x="492" 
d="M242 735q77 0 133 -37.5t79 -101.5l-58 -26q-17 46 -56 72t-92 26q-67 0 -98.5 -30.5t-31.5 -81.5q0 -35 19 -62t49.5 -45.5t67.5 -35t73.5 -36t67 -42.5t49.5 -60.5t19 -84.5q0 -90 -52 -142t-142 -57l-4 -25q80 -9 80 -60q0 -32 -30 -53t-86 -25l-12 38q39 7 53.5 15
t14.5 22q0 25 -73 29l12 59q-70 7 -122.5 48.5t-72.5 110.5l64 25q18 -56 59.5 -86.5t94.5 -30.5q137 0 137 125q0 33 -15 59t-39.5 42.5t-55.5 33t-63.5 29.5t-63.5 32t-55.5 40.5t-39.5 55.5t-15 77q0 81 55 132t150 51z" />
    <glyph glyph-name="scedilla" unicode="&#x15f;" horiz-adv-x="416" 
d="M376 409l-49 -22q-31 71 -110 71q-47 0 -71 -21t-24 -55q0 -32 26.5 -53t64.5 -34.5t75.5 -29.5t64 -47.5t26.5 -79.5q0 -62 -41.5 -102t-108.5 -44l-4 -26q80 -9 80 -60q0 -32 -30 -53t-86 -25l-12 38q39 7 53.5 15t14.5 22q0 25 -73 29l13 61q-101 13 -141 107l48 24
q35 -79 122 -79q47 0 71.5 23t24.5 64q0 33 -26.5 55t-64.5 35.5t-76 29.5t-64.5 47t-26.5 77q0 59 42.5 98t120.5 39q118 0 161 -104z" />
    <glyph glyph-name="Scaron" unicode="&#x160;" horiz-adv-x="492" 
d="M242 735q77 0 133 -37.5t79 -101.5l-58 -26q-17 46 -56 72t-92 26q-67 0 -98.5 -30.5t-31.5 -81.5q0 -35 19 -62t49.5 -45.5t67.5 -35t73.5 -36t67 -42.5t49.5 -60.5t19 -84.5q0 -95 -58 -147.5t-157 -52.5q-78 0 -137.5 43t-81.5 117l64 25q18 -56 59.5 -86.5
t94.5 -30.5q137 0 137 125q0 33 -15 59t-39.5 42.5t-55.5 33t-63.5 29.5t-63.5 32t-55.5 40.5t-39.5 55.5t-15 77q0 81 55 132t150 51zM136 872h66l52 -70l54 70h65l-93 -111h-52z" />
    <glyph glyph-name="scaron" unicode="&#x161;" horiz-adv-x="416" 
d="M376 409l-49 -22q-31 71 -110 71q-47 0 -71 -21t-24 -55q0 -32 26.5 -53t64.5 -34.5t75.5 -29.5t64 -47.5t26.5 -79.5q0 -65 -45.5 -106t-116.5 -41q-126 0 -173 109l48 24q35 -79 122 -79q47 0 71.5 23t24.5 64q0 33 -26.5 55t-64.5 35.5t-76 29.5t-64.5 47t-26.5 77
q0 59 42.5 98t120.5 39q118 0 161 -104zM100 725h64l54 -87l54 87h64l-92 -136h-52z" />
    <glyph glyph-name="Tcommaaccent" unicode="&#x162;" horiz-adv-x="484" 
d="M16 725h452v-72h-185v-653h-20l-5 -34q80 -9 80 -60q0 -32 -30 -53t-86 -25l-12 38q39 7 53.5 15t14.5 22q0 25 -73 29l14 68h-18v653h-185v72z" />
    <glyph glyph-name="tcommaaccent" unicode="&#x163;" horiz-adv-x="330" 
d="M295 504v-57h-130v-316q0 -80 70 -80q27 0 48 10l10 -46q-37 -22 -82 -22q-22 0 -35 4l-5 -31q80 -9 80 -60q0 -32 -30 -53t-86 -25l-12 38q39 7 53.5 15t14.5 22q0 25 -73 29l17 82q-45 33 -45 120v309l-68 13v46l71 4l19 144h53v-146h130z" />
    <glyph glyph-name="Tcaron" unicode="&#x164;" horiz-adv-x="484" 
d="M16 725h452v-72h-185v-653h-82v653h-185v72zM124 872h66l52 -70l54 70h65l-93 -111h-52z" />
    <glyph glyph-name="tcaron" unicode="&#x165;" horiz-adv-x="330" 
d="M295 504v-57h-130v-316q0 -80 70 -80q27 0 48 10l10 -46q-37 -22 -82 -22q-121 0 -121 141v309l-68 13v46l71 4l19 144h53v-146h130zM261 725h68l-52 -136h-41z" />
    <glyph glyph-name="Tbar" unicode="&#x166;" horiz-adv-x="484" 
d="M16 725h452v-72h-185v-230h122v-51h-122v-372h-82v372h-123v51h123v230h-185v72z" />
    <glyph glyph-name="tbar" unicode="&#x167;" horiz-adv-x="331" 
d="M295 504v-57h-130v-69h131v-50h-131v-197q0 -80 70 -80q27 0 48 10l10 -46q-37 -22 -82 -22q-121 0 -121 141v194h-64v50h64v65l-68 13v46l71 4l19 144h53v-146h130z" />
    <glyph glyph-name="Utilde" unicode="&#x168;" horiz-adv-x="628" 
d="M474 725h81v-497q0 -112 -62.5 -175t-178.5 -63q-115 0 -178.5 62t-63.5 173v500h83v-500q0 -162 159 -162q160 0 160 162v500zM413 872l40 -7q-9 -56 -27 -83.5t-53 -27.5q-23 0 -44.5 18t-38.5 36.5t-30 18.5q-26 0 -39 -67l-40 7q9 56 27 83.5t52 27.5
q24 0 45.5 -18.5t38.5 -37t29 -18.5q27 0 40 68z" />
    <glyph glyph-name="utilde" unicode="&#x169;" horiz-adv-x="509" 
d="M367 114v390h73v-504h-65l-4 54h-2q-54 -63 -146 -63q-79 0 -122 50t-43 134v329h74v-330q0 -58 27.5 -90t82.5 -32q81 0 125 62zM351 725l41 -9q-9 -66 -27 -98t-54 -32q-24 0 -45.5 23t-38 46t-29.5 23q-14 0 -22.5 -19t-16.5 -65l-40 8q9 67 27 99t53 32
q24 0 46 -23.5t38.5 -46.5t29.5 -23q14 0 22.5 19.5t15.5 65.5z" />
    <glyph glyph-name="Umacron" unicode="&#x16a;" horiz-adv-x="628" 
d="M474 725h81v-497q0 -112 -62.5 -175t-178.5 -63q-115 0 -178.5 62t-63.5 173v500h83v-500q0 -162 159 -162q160 0 160 162v500zM443 848v-49h-257v49h257z" />
    <glyph glyph-name="umacron" unicode="&#x16b;" horiz-adv-x="509" 
d="M367 114v390h73v-504h-65l-4 54h-2q-54 -63 -146 -63q-79 0 -122 50t-43 134v329h74v-330q0 -58 27.5 -90t82.5 -32q81 0 125 62zM373 680v-51h-237v51h237z" />
    <glyph glyph-name="Ubreve" unicode="&#x16c;" horiz-adv-x="628" 
d="M474 725h81v-497q0 -112 -62.5 -175t-178.5 -63q-115 0 -178.5 62t-63.5 173v500h83v-500q0 -162 159 -162q160 0 160 162v500zM195 872h56q4 -42 19 -58.5t45 -16.5t45 16.5t18 58.5h56q-9 -64 -35.5 -90t-83.5 -26q-58 0 -84 25.5t-36 90.5z" />
    <glyph glyph-name="ubreve" unicode="&#x16d;" horiz-adv-x="509" 
d="M367 114v390h73v-504h-65l-4 54h-2q-54 -63 -146 -63q-79 0 -122 50t-43 134v329h74v-330q0 -58 27.5 -90t82.5 -32q81 0 125 62zM135 725h55q4 -57 18.5 -79t44.5 -22q31 0 45.5 22t17.5 79h56q-9 -81 -35 -112t-84 -31t-83.5 31t-34.5 112z" />
    <glyph glyph-name="Uring" unicode="&#x16e;" horiz-adv-x="628" 
d="M474 725h81v-497q0 -112 -62.5 -175t-178.5 -63q-115 0 -178.5 62t-63.5 173v500h83v-500q0 -162 159 -162q160 0 160 162v500zM232 823q0 32 23.5 53.5t60.5 21.5q35 0 59 -21.5t24 -53.5t-24 -53t-59 -21q-37 0 -60.5 21t-23.5 53zM276 823q0 -17 11 -28.5t29 -11.5
q17 0 28 11.5t11 28.5t-11 29t-28 12q-18 0 -29 -11.5t-11 -29.5z" />
    <glyph glyph-name="uring" unicode="&#x16f;" horiz-adv-x="509" 
d="M367 114v390h73v-504h-65l-4 54h-2q-54 -63 -146 -63q-79 0 -122 50t-43 134v329h74v-330q0 -58 27.5 -90t82.5 -32q81 0 125 62zM168 664q0 35 23.5 58.5t60.5 23.5q36 0 59.5 -23.5t23.5 -58.5t-24 -58t-59 -23q-37 0 -60.5 23t-23.5 58zM212 664q0 -20 10.5 -32
t29.5 -12q18 0 28.5 12t10.5 32q0 19 -10.5 32t-28.5 13t-29 -13t-11 -32z" />
    <glyph glyph-name="Uhungarumlaut" unicode="&#x170;" horiz-adv-x="628" 
d="M474 725h81v-497q0 -112 -62.5 -175t-178.5 -63q-115 0 -178.5 62t-63.5 173v500h83v-500q0 -162 159 -162q160 0 160 162v500zM258 872h81l-74 -111h-51zM394 872h81l-90 -111h-52z" />
    <glyph glyph-name="uhungarumlaut" unicode="&#x171;" horiz-adv-x="509" 
d="M367 114v390h73v-504h-65l-4 54h-2q-54 -63 -146 -63q-79 0 -122 50t-43 134v329h74v-330q0 -58 27.5 -90t82.5 -32q81 0 125 62zM209 725h80l-77 -136h-50zM345 725h79l-93 -136h-49z" />
    <glyph glyph-name="Uogonek" unicode="&#x172;" horiz-adv-x="628" 
d="M474 725h81v-497q0 -95 -45 -155t-129 -76q-86 -17 -86 -74q0 -38 46 -38q42 0 74 22l16 -41q-41 -31 -99 -31q-99 0 -99 73q0 54 59 84h-3q-103 6 -160 67.5t-57 165.5v500h83v-500q0 -162 159 -162q160 0 160 162v500z" />
    <glyph glyph-name="uogonek" unicode="&#x173;" horiz-adv-x="509" 
d="M367 114v390h73v-504h-3q-30 0 -50.5 -21.5t-20.5 -48.5q0 -45 49 -45q38 0 70 22l16 -41q-41 -31 -99 -31q-48 0 -74 20t-26 56q0 30 18.5 56t53.5 40l-3 47h-2q-54 -63 -146 -63q-79 0 -122 50t-43 134v329h74v-330q0 -58 27.5 -90t82.5 -32q81 0 125 62z" />
    <glyph glyph-name="Wcircumflex" unicode="&#x174;" horiz-adv-x="915" 
d="M876 725l-181 -725h-89l-147 593h-2l-149 -593h-89l-179 725h83l142 -625h2l153 625h76l151 -627h2l144 627h83zM403 761h-67l90 111h62l90 -111h-67l-54 68z" />
    <glyph glyph-name="wcircumflex" unicode="&#x175;" horiz-adv-x="717" 
d="M470 0l-111 422h-2l-111 -422h-81l-143 504h77l108 -430h2l114 430h71l113 -432h2l108 432h78l-145 -504h-80zM304 589h-64l92 136h52l93 -136h-65l-54 87z" />
    <glyph glyph-name="Ycircumflex" unicode="&#x176;" horiz-adv-x="561" 
d="M550 725l-229 -477v-248h-82v248l-229 477h93l176 -402h2l178 402h91zM227 761h-67l90 111h62l90 -111h-67l-54 68z" />
    <glyph glyph-name="ycircumflex" unicode="&#x177;" horiz-adv-x="504" 
d="M481 504l-197 -534q-25 -68 -65.5 -101.5t-106.5 -37.5l-6 53q46 7 72 29t42 68l9 27l-206 496h82l159 -414h2l138 414h77zM212 589h-64l92 136h52l93 -136h-65l-54 87z" />
    <glyph glyph-name="Ydieresis" unicode="&#x178;" horiz-adv-x="561" 
d="M550 725l-229 -477v-248h-82v248l-229 477h93l176 -402h2l178 402h91zM165 871h61v-98h-61v98zM334 871h62v-98h-62v98z" />
    <glyph glyph-name="Zacute" unicode="&#x179;" 
d="M486 71v-71h-447v51l348 603h-330v71h429v-48l-350 -606h350zM291 872h95l-95 -111h-65z" />
    <glyph glyph-name="zacute" unicode="&#x17a;" horiz-adv-x="430" 
d="M387 60v-60h-346v47l260 397h-248v60h337v-46l-262 -398h259zM242 725h88l-90 -136h-58z" />
    <glyph glyph-name="Zdotaccent" unicode="&#x17b;" 
d="M486 71v-71h-447v51l348 603h-330v71h429v-48l-350 -606h350zM235 872h79v-99h-79v99z" />
    <glyph glyph-name="zdotaccent" unicode="&#x17c;" horiz-adv-x="430" 
d="M387 60v-60h-346v47l260 397h-248v60h337v-46l-262 -398h259zM187 725h71v-102h-71v102z" />
    <glyph glyph-name="Zcaron" unicode="&#x17d;" 
d="M486 71v-71h-447v51l348 603h-330v71h429v-48l-350 -606h350zM156 872h66l52 -70l54 70h65l-93 -111h-52z" />
    <glyph glyph-name="zcaron" unicode="&#x17e;" horiz-adv-x="430" 
d="M387 60v-60h-346v47l260 397h-248v60h337v-46l-262 -398h259zM105 725h64l54 -87l54 87h64l-92 -136h-52z" />
    <glyph glyph-name="longs" unicode="&#x17f;" horiz-adv-x="288" 
d="M313 729l4 -52q-128 -5 -128 -133v-544h-73v450h-94v54h94v41q0 81 47.5 130.5t149.5 53.5z" />
    <glyph glyph-name="uni018F" unicode="&#x18f;" horiz-adv-x="579" 
d="M51 224v144h386v129q0 79 -42 125t-122 46q-123 0 -156 -110l-61 22q21 78 79.5 116.5t140.5 38.5q116 0 179.5 -66t63.5 -175v-256q0 -115 -59 -181.5t-181 -66.5q-112 0 -170 65t-58 169zM278 57q159 0 159 178v78h-312v-92q0 -78 39 -121t114 -43z" />
    <glyph glyph-name="florin" unicode="&#x192;" horiz-adv-x="332" 
d="M326 504l-10 -54h-136l-97 -524h-72l95 524h-66l10 54h66l8 41q15 81 72.5 130.5t160.5 53.5l-6 -52q-132 -5 -157 -133l-7 -40h139z" />
    <glyph glyph-name="uni01B5" unicode="&#x1b5;" 
d="M69 345v60h174l144 249h-330v71h429v-48l-157 -272h139v-60h-174l-158 -274h350v-71h-447v51l169 294h-139z" />
    <glyph glyph-name="uni01B6" unicode="&#x1b6;" horiz-adv-x="430" 
d="M62 240v51h139l100 153h-248v60h337v-46l-110 -167h103v-51h-137l-118 -180h259v-60h-346v47l126 193h-105z" />
    <glyph glyph-name="Aringacute" unicode="&#x1fa;" horiz-adv-x="605" 
d="M332 931h95l-80 -93q39 -21 39 -64q0 -41 -36 -62l242 -712h-86l-61 191h-288l-60 -191h-84l241 712q-35 21 -35 62q0 27 17.5 47t46.5 26zM300 645l-122 -389h247l-123 389h-2zM263 774q0 -17 11 -28.5t29 -11.5q17 0 28 11.5t11 28.5t-11 29t-28 12q-18 0 -29 -11.5
t-11 -29.5z" />
    <glyph glyph-name="aringacute" unicode="&#x1fb;" horiz-adv-x="458" 
d="M104 377l-45 29q64 108 170 108q79 0 118 -47t39 -125v-253q0 -45 42 -45h14v-44q-22 -6 -38 -6q-62 0 -83 51q-56 -53 -137 -53q-66 0 -103.5 36t-37.5 97q0 162 225 162h45v55q0 113 -93 113q-70 0 -116 -78zM198 46q70 0 115 53v135h-45q-85 0 -119.5 -27t-34.5 -78
q0 -83 84 -83zM145 632q0 35 23.5 58.5t60.5 23.5q36 0 59.5 -23.5t23.5 -58.5t-24 -58t-59 -23q-37 0 -60.5 23t-23.5 58zM189 632q0 -20 10.5 -32t29.5 -12q18 0 28.5 12t10.5 32q0 19 -10.5 32t-28.5 13t-29 -13t-11 -32zM253 888h88l-90 -136h-58z" />
    <glyph glyph-name="AEacute" unicode="&#x1fc;" horiz-adv-x="859" 
d="M192 193l-92 -193h-85l354 725h441v-72h-322l24 -246h256v-65h-250l25 -271h278v-71h-355l-17 193h-257zM408 646l-185 -388h220l-33 388h-2zM562 872h95l-95 -111h-65z" />
    <glyph glyph-name="aeacute" unicode="&#x1fd;" horiz-adv-x="724" 
d="M680 243h-276v-75q0 -120 109 -120q87 0 120 91l50 -22q-48 -127 -176 -127q-110 0 -147 85h-2q-49 -85 -171 -85q-67 0 -105.5 37t-38.5 98q0 166 232 166h54v58q0 50 -27 77t-75 27q-39 0 -67.5 -22t-42.5 -61l-52 24q20 55 64.5 87.5t100.5 32.5q98 0 137 -72h2
q40 72 140 72q79 0 125 -52t46 -127v-92zM202 47q42 0 79 21.5t48 60.5v108h-54q-159 0 -159 -108q0 -82 86 -82zM404 338v-47h209v49q0 54 -27 84.5t-77 30.5q-105 0 -105 -117zM404 725h88l-90 -136h-58z" />
    <glyph glyph-name="Oslashacute" unicode="&#x1fe;" horiz-adv-x="602" 
d="M301 735q121 0 184 -71l42 60l32 -25l-49 -70q32 -58 32 -137v-258q0 -115 -62.5 -179.5t-178.5 -64.5q-120 0 -184 69l-39 -57l-31 25l46 66q-34 59 -34 141v257q0 114 63 179t179 65zM141 234q0 -33 5 -65l292 426q-36 71 -137 71q-160 0 -160 -175v-257zM460 234v257
q0 28 -5 60l-291 -424q38 -69 137 -69q159 0 159 176zM324 872h95l-95 -111h-65z" />
    <glyph glyph-name="oslashacute" unicode="&#x1ff;" horiz-adv-x="480" 
d="M431 334v-166q0 -79 -50.5 -128t-140.5 -49t-140 47l-28 -36l-31 25l33 43q-25 40 -25 98v166q0 80 50 129.5t141 49.5q89 0 141 -50l30 38l32 -25l-36 -46q24 -40 24 -96zM122 332v-161q0 -12 2 -38l215 276q-30 46 -99 46q-60 0 -89 -32.5t-29 -90.5zM358 332
q0 10 -2 34l-214 -274q30 -43 98 -43q59 0 88.5 32.5t29.5 89.5v161zM265 725h88l-90 -136h-58z" />
    <glyph glyph-name="Scommaaccent" unicode="&#x218;" horiz-adv-x="492" 
d="M242 735q77 0 133 -37.5t79 -101.5l-58 -26q-17 46 -56 72t-92 26q-67 0 -98.5 -30.5t-31.5 -81.5q0 -35 19 -62t49.5 -45.5t67.5 -35t73.5 -36t67 -42.5t49.5 -60.5t19 -84.5q0 -95 -58 -147.5t-157 -52.5q-78 0 -137.5 43t-81.5 117l64 25q18 -56 59.5 -86.5
t94.5 -30.5q137 0 137 125q0 33 -15 59t-39.5 42.5t-55.5 33t-63.5 29.5t-63.5 32t-55.5 40.5t-39.5 55.5t-15 77q0 81 55 132t150 51zM210 -99v63h84v-40q0 -53 -19 -76.5t-67 -27.5l-4 31q25 4 34 13.5t9 32.5z" />
    <glyph glyph-name="scommaaccent" unicode="&#x219;" horiz-adv-x="416" 
d="M376 409l-49 -22q-31 71 -110 71q-47 0 -71 -21t-24 -55q0 -32 26.5 -53t64.5 -34.5t75.5 -29.5t64 -47.5t26.5 -79.5q0 -65 -45.5 -106t-116.5 -41q-126 0 -173 109l48 24q35 -79 122 -79q47 0 71.5 23t24.5 64q0 33 -26.5 55t-64.5 35.5t-76 29.5t-64.5 47t-26.5 77
q0 59 42.5 98t120.5 39q118 0 161 -104zM173 -99v63h84v-40q0 -53 -19 -76.5t-67 -27.5l-4 31q25 4 34 13.5t9 32.5z" />
    <glyph glyph-name="uni021A" unicode="&#x21a;" horiz-adv-x="484" 
d="M16 725h452v-72h-185v-653h-82v653h-185v72zM200 -99v63h84v-40q0 -53 -19 -76.5t-67 -27.5l-4 31q25 4 34 13.5t9 32.5z" />
    <glyph glyph-name="uni021B" unicode="&#x21b;" horiz-adv-x="330" 
d="M295 504v-57h-130v-316q0 -80 70 -80q27 0 48 10l10 -46q-37 -22 -82 -22q-121 0 -121 141v309l-68 13v46l71 4l19 144h53v-146h130zM157 -99v63h84v-40q0 -53 -19 -76.5t-67 -27.5l-4 31q25 4 34 13.5t9 32.5z" />
    <glyph glyph-name="uni0237" unicode="&#x237;" horiz-adv-x="213" 
d="M-21 -170l-7 58q107 13 107 138v478h73v-477q0 -185 -173 -197z" />
    <glyph glyph-name="uni0259" unicode="&#x259;" horiz-adv-x="455" 
d="M41 253h291v78q0 59 -31 91.5t-88 32.5q-44 0 -72.5 -21t-47.5 -67l-53 20q42 126 178 126q89 0 138 -49.5t49 -130.5v-163q0 -79 -48.5 -129t-134.5 -50q-84 0 -132.5 51t-48.5 131v80zM220 48q55 0 83.5 32t28.5 87v38h-226v-40q0 -54 30 -85.5t84 -31.5z" />
    <glyph glyph-name="uni02BB" unicode="&#x2bb;" horiz-adv-x="185" 
d="M138 696v-94h-91v70q0 86 49 156l29 -16q-23 -49 -23 -110z" />
    <glyph glyph-name="afii57929" unicode="&#x2bc;" horiz-adv-x="185" 
d="M48 650v93h90v-70q0 -87 -48 -155l-31 15q26 52 26 111z" />
    <glyph glyph-name="circumflex" unicode="&#x2c6;" horiz-adv-x="273" 
d="M82 589h-64l92 136h52l93 -136h-65l-54 87z" />
    <glyph glyph-name="caron" unicode="&#x2c7;" horiz-adv-x="273" 
d="M18 725h64l54 -87l54 87h64l-92 -136h-52z" />
    <glyph glyph-name="breve" unicode="&#x2d8;" horiz-adv-x="273" 
d="M18 725h55q4 -57 18.5 -79t44.5 -22q31 0 45.5 22t17.5 79h56q-9 -81 -35 -112t-84 -31t-83.5 31t-34.5 112z" />
    <glyph glyph-name="dotaccent" unicode="&#x2d9;" horiz-adv-x="273" 
d="M50 725h71v-102h-71v102z" />
    <glyph glyph-name="ring" unicode="&#x2da;" horiz-adv-x="273" 
d="M53 664q0 35 23.5 58.5t60.5 23.5q36 0 59.5 -23.5t23.5 -58.5t-24 -58t-59 -23q-37 0 -60.5 23t-23.5 58zM97 664q0 -20 10.5 -32t29.5 -12q18 0 28.5 12t10.5 32q0 19 -10.5 32t-28.5 13t-29 -13t-11 -32z" />
    <glyph glyph-name="ogonek" unicode="&#x2db;" horiz-adv-x="273" 
d="M152 11l36 -7q-41 -12 -61.5 -34t-20.5 -47q0 -38 46 -38q42 0 74 22l16 -41q-41 -31 -99 -31q-99 0 -99 73q0 36 28.5 62.5t79.5 40.5z" />
    <glyph glyph-name="tilde" unicode="&#x2dc;" horiz-adv-x="273" 
d="M232 725l41 -9q-9 -66 -27 -98t-54 -32q-24 0 -45.5 23t-38 46t-29.5 23q-14 0 -22.5 -19t-16.5 -65l-40 8q9 67 27 99t53 32q24 0 46 -23.5t38.5 -46.5t29.5 -23q14 0 22.5 19.5t15.5 65.5z" />
    <glyph glyph-name="hungarumlaut" unicode="&#x2dd;" horiz-adv-x="273" 
d="M96 725h80l-77 -136h-50zM232 725h79l-93 -136h-49z" />
    <glyph glyph-name="gravecomb" unicode="&#x300;" horiz-adv-x="1" 
d="M-242 725h87l71 -136h-59z" />
    <glyph glyph-name="acutecomb" unicode="&#x301;" horiz-adv-x="1" 
d="M-140 725h88l-90 -136h-58z" />
    <glyph glyph-name="uni0302" unicode="&#x302;" horiz-adv-x="1" 
d="M-163 589h-64l92 136h52l93 -136h-65l-54 87z" />
    <glyph glyph-name="tildecomb" unicode="&#x303;" horiz-adv-x="1" 
d="M-47 725l41 -9q-9 -66 -27 -98t-54 -32q-24 0 -45.5 23t-38 46t-29.5 23q-14 0 -22.5 -19t-16.5 -65l-40 8q9 67 27 99t53 32q24 0 46 -23.5t38.5 -46.5t29.5 -23q14 0 22.5 19.5t15.5 65.5z" />
    <glyph glyph-name="uni0304" unicode="&#x304;" horiz-adv-x="1" 
d="M-16 680v-51h-237v51h237z" />
    <glyph glyph-name="uni0306" unicode="&#x306;" horiz-adv-x="1" 
d="M-257 725h55q4 -57 18.5 -79t44.5 -22q31 0 45.5 22t17.5 79h56q-9 -81 -35 -112t-84 -31t-83.5 31t-34.5 112z" />
    <glyph glyph-name="uni0307" unicode="&#x307;" horiz-adv-x="1" 
d="M-126 725h71v-102h-71v102z" />
    <glyph glyph-name="uni0308" unicode="&#x308;" horiz-adv-x="1" 
d="M-235 725h59v-103h-59v103zM-95 725h59v-103h-59v103z" />
    <glyph glyph-name="uni030A" unicode="&#x30a;" horiz-adv-x="1" 
d="M-226 664q0 35 23.5 58.5t60.5 23.5q36 0 59.5 -23.5t23.5 -58.5t-24 -58t-59 -23q-37 0 -60.5 23t-23.5 58zM-182 664q0 -20 10.5 -32t29.5 -12q18 0 28.5 12t10.5 32q0 19 -10.5 32t-28.5 13t-29 -13t-11 -32z" />
    <glyph glyph-name="uni030B" unicode="&#x30b;" horiz-adv-x="1" 
d="M-177 725h80l-77 -136h-50zM-41 725h79l-93 -136h-49z" />
    <glyph glyph-name="uni030C" unicode="&#x30c;" horiz-adv-x="1" 
d="M-256 725h64l54 -87l54 87h64l-92 -136h-52z" />
    <glyph glyph-name="uni0312" unicode="&#x312;" horiz-adv-x="1" 
d="M-186 647v-62h-84v39q0 54 19 77.5t67 27.5l4 -31q-24 -4 -33.5 -14t-9.5 -32z" />
    <glyph glyph-name="uni0315" unicode="&#x315;" horiz-adv-x="1" 
d="M-193 725h68l-52 -136h-41z" />
    <glyph glyph-name="uni0326" unicode="&#x326;" horiz-adv-x="1" 
d="M-277 -99v63h84v-40q0 -53 -19 -76.5t-67 -27.5l-4 31q25 4 34 13.5t9 32.5z" />
    <glyph glyph-name="uni0327" unicode="&#x327;" horiz-adv-x="1" 
d="M-123 18l43 -3l-8 -49q80 -9 80 -60q0 -32 -30 -53t-86 -25l-12 38q39 7 53.5 15t14.5 22q0 25 -73 29z" />
    <glyph glyph-name="uni0328" unicode="&#x328;" horiz-adv-x="1" 
d="M-103 11l36 -7q-41 -12 -61.5 -34t-20.5 -47q0 -38 46 -38q42 0 74 22l16 -41q-41 -31 -99 -31q-99 0 -99 73q0 36 28.5 62.5t79.5 40.5z" />
    <glyph glyph-name="uni0335" unicode="&#x335;" horiz-adv-x="1" 
d="M-17 278v-51h-237v51h237z" />
    <glyph glyph-name="uni0336" unicode="&#x336;" horiz-adv-x="1" 
d="M-557 223v59h533v-59h-533z" />
    <glyph glyph-name="uni0394" unicode="&#x394;" horiz-adv-x="605" 
d="M13 0l256 725h68l255 -725h-579zM302 628l-184 -560h368l-182 560h-2z" />
    <glyph glyph-name="uni03A9" unicode="&#x3a9;" horiz-adv-x="602" 
d="M301 735q117 0 179 -58.5t62 -164.5v-136q0 -152 -144 -198v-108h140v-70h-199v226q63 13 92 48.5t29 99.5v136q0 74 -41.5 115t-117.5 41t-118 -41t-42 -115v-136q0 -64 29 -99.5t93 -48.5v-226h-200v70h140v108q-144 46 -144 198v136q0 106 62.5 164.5t179.5 58.5z" />
    <glyph glyph-name="uni03BC" unicode="&#x3bc;" horiz-adv-x="520" 
d="M69 178v326h73v-326q0 -58 29.5 -90t85.5 -32q75 0 120 62v386h73v-504h-65l-3 55h-2q-45 -57 -121 -57q-84 0 -121 64h-2q7 -134 18 -229l-75 -6q-10 194 -10 351z" />
    <glyph glyph-name="pi" unicode="&#x3c0;" horiz-adv-x="511" 
d="M428 0h-73v445h-200v-350q0 -47 -26 -73.5t-72 -26.5q-17 0 -39 6v44h14q50 0 50 55v343h-62v61h468v-61h-60v-443z" />
    <glyph glyph-name="uni0400" unicode="&#x400;" horiz-adv-x="537" 
d="M83 725h402v-72h-320v-246h256v-65h-256v-271h335v-71h-417v725zM166 872h98l72 -111h-67z" />
    <glyph glyph-name="afii10023" unicode="&#x401;" horiz-adv-x="537" 
d="M83 725h402v-72h-320v-246h256v-65h-256v-271h335v-71h-417v725zM174 871h61v-98h-61v98zM343 871h62v-98h-62v98z" />
    <glyph glyph-name="afii10051" unicode="&#x402;" horiz-adv-x="605" 
d="M238 367v-367h-73v659h-151v66h385v-66h-161v-215h2q51 66 142 66q79 0 121.5 -49.5t42.5 -135.5v-298q0 -185 -173 -197l-5 54q105 12 105 142v298q0 123 -111 123q-42 0 -75 -22t-49 -58z" />
    <glyph glyph-name="afii10052" unicode="&#x403;" horiz-adv-x="443" 
d="M83 725h344v-72h-263v-653h-81v725zM266 872h95l-95 -111h-65z" />
    <glyph glyph-name="afii10053" unicode="&#x404;" horiz-adv-x="538" 
d="M496 582l-58 -23q-19 50 -57.5 79.5t-92.5 29.5q-146 0 -146 -175v-86h233v-68h-233v-112q0 -81 38 -126.5t107 -45.5q115 0 153 119l59 -23q-23 -79 -81 -120t-139 -41q-99 0 -159.5 65.5t-60.5 174.5v262q0 113 59 178t163 65q78 0 134 -42t81 -111z" />
    <glyph glyph-name="afii10054" unicode="&#x405;" horiz-adv-x="492" 
d="M242 735q77 0 133 -37.5t79 -101.5l-58 -26q-17 46 -56 72t-92 26q-67 0 -98.5 -30.5t-31.5 -81.5q0 -35 19 -62t49.5 -45.5t67.5 -35t73.5 -36t67 -42.5t49.5 -60.5t19 -84.5q0 -95 -58 -147.5t-157 -52.5q-78 0 -137.5 43t-81.5 117l64 25q18 -56 59.5 -86.5
t94.5 -30.5q137 0 137 125q0 33 -15 59t-39.5 42.5t-55.5 33t-63.5 29.5t-63.5 32t-55.5 40.5t-39.5 55.5t-15 77q0 81 55 132t150 51z" />
    <glyph glyph-name="afii10055" unicode="&#x406;" horiz-adv-x="284" 
d="M101 725h82v-725h-82v725z" />
    <glyph glyph-name="afii10056" unicode="&#x407;" horiz-adv-x="284" 
d="M27 871h61v-98h-61v98zM196 871h62v-98h-62v98zM101 725h82v-725h-82v725z" />
    <glyph glyph-name="afii10057" unicode="&#x408;" horiz-adv-x="276" 
d="M111 725h82v-610q0 -254 -251 -256l-6 65q91 0 133 45t42 146v610z" />
    <glyph glyph-name="afii10058" unicode="&#x409;" horiz-adv-x="920" 
d="M161 725h371v-304h139q210 0 210 -205q0 -109 -50.5 -162.5t-163.5 -53.5h-217v655h-214l-13 -276q-7 -156 -30 -242t-55 -114t-86 -28q-26 0 -43 6v54h19q38 0 59.5 23t36.5 95.5t21 210.5zM532 68h132q73 0 104.5 33.5t31.5 114.5q0 73 -32 105.5t-107 32.5h-129v-286z
" />
    <glyph glyph-name="afii10059" unicode="&#x40a;" horiz-adv-x="930" 
d="M461 725h83v-304h138q210 0 210 -205q0 -109 -50.5 -162.5t-163.5 -53.5h-217v352h-296v-352h-82v725h82v-300h296v300zM672 354h-128v-286h131q73 0 104.5 33.5t31.5 114.5q0 73 -32 105.5t-107 32.5z" />
    <glyph glyph-name="afii10060" unicode="&#x40b;" horiz-adv-x="605" 
d="M238 367v-367h-73v659h-151v66h385v-66h-161v-215h2q51 66 142 66q79 0 121.5 -49.5t42.5 -135.5v-325h-73v324q0 123 -111 123q-42 0 -75 -22t-49 -58z" />
    <glyph glyph-name="afii10061" unicode="&#x40c;" horiz-adv-x="598" 
d="M553 725v-56h-23q-54 0 -83 -56l-88 -169q-25 -48 -67 -66v-2q51 -16 75 -63l107 -206q27 -53 83 -53h21v-54q-18 -5 -49 -5q-86 0 -131 87l-111 212q-14 28 -33 38.5t-54 10.5h-36v-343h-81v725h81v-319h35q29 0 48.5 12.5t36.5 44.5l95 182q44 85 131 85q16 0 43 -5z
M318 872h95l-95 -111h-65z" />
    <glyph glyph-name="uni040D" unicode="&#x40d;" horiz-adv-x="637" 
d="M475 725h78v-725h-78v585h-2l-311 -585h-79v725h79v-585h2zM202 872h98l72 -111h-67z" />
    <glyph glyph-name="afii10062" unicode="&#x40e;" horiz-adv-x="561" 
d="M10 725h95l196 -416h2l158 416h89l-238 -593q-53 -134 -196 -134l-5 64q98 9 126 91l25 75zM166 872h56q4 -42 19 -58.5t45 -16.5t45 16.5t18 58.5h56q-9 -64 -35.5 -90t-83.5 -26q-58 0 -84 25.5t-36 90.5z" />
    <glyph glyph-name="afii10145" unicode="&#x40f;" horiz-adv-x="616" 
d="M533 0h-186v-169h-77v169h-187v725h82v-654h286v654h82v-725z" />
    <glyph glyph-name="afii10017" unicode="&#x410;" horiz-adv-x="605" 
d="M157 191l-60 -191h-84l245 725h88l246 -725h-86l-61 191h-288zM300 645l-122 -389h247l-123 389h-2z" />
    <glyph glyph-name="afii10018" unicode="&#x411;" horiz-adv-x="552" 
d="M83 725h399v-71h-317v-232h138q211 0 211 -206q0 -108 -51 -162t-163 -54h-217v725zM165 68h132q70 0 103 34t33 114q0 72 -32.5 104.5t-104.5 32.5h-131v-285z" />
    <glyph glyph-name="afii10019" unicode="&#x412;" horiz-adv-x="578" 
d="M496 544q0 -67 -24 -105.5t-78 -54.5v-2q137 -29 137 -175q0 -104 -51 -155.5t-162 -51.5h-235v725h209q101 0 152.5 -48t51.5 -133zM164 344v-276h150q70 0 103 33t33 110q0 69 -33 101t-103 32h-150zM164 655v-245h130q67 0 96 31.5t29 95.5q0 61 -29.5 89.5
t-95.5 28.5h-130z" />
    <glyph glyph-name="afii10020" unicode="&#x413;" horiz-adv-x="443" 
d="M83 725h344v-72h-263v-653h-81v725z" />
    <glyph glyph-name="afii10021" unicode="&#x414;" horiz-adv-x="619" 
d="M165 725h357v-660h83v-224h-81v159h-440v-159h-80v224h71q64 161 75 377zM441 655h-204l-12 -218q-13 -230 -71 -372h287v590z" />
    <glyph glyph-name="afii10022" unicode="&#x415;" horiz-adv-x="537" 
d="M83 725h402v-72h-320v-246h256v-65h-256v-271h335v-71h-417v725z" />
    <glyph glyph-name="afii10024" unicode="&#x416;" horiz-adv-x="866" 
d="M43 669v55q22 6 46 6q76 0 114 -83l84 -185q14 -32 31 -44t43 -12h32v319h81v-319h31q27 0 43.5 12t31.5 44l84 185q38 83 113 83q26 0 46 -6v-55h-21q-49 0 -74 -56l-77 -170q-21 -46 -60 -66v-2q42 -13 68 -61l96 -207q24 -53 73 -53h18v-54q-17 -5 -43 -5
q-85 0 -124 85l-98 214q-13 28 -30 38.5t-47 10.5h-30v-343h-81v343h-31q-30 0 -46.5 -10.5t-29.5 -38.5l-99 -214q-39 -85 -124 -85q-26 0 -43 5v54h19q49 0 73 53l95 207q20 45 68 62v2q-37 19 -59 65l-78 170q-13 29 -30 42.5t-44 13.5h-21z" />
    <glyph glyph-name="afii10025" unicode="&#x417;" horiz-adv-x="528" 
d="M190 339v68h58q138 0 138 106v48q0 51 -35.5 80t-96.5 29q-56 0 -93.5 -27t-61.5 -85l-59 24q27 72 85 112.5t135 40.5q96 0 151 -49t55 -121v-48q0 -107 -102 -139v-2q117 -26 117 -142v-66q0 -80 -59.5 -129t-160.5 -49q-165 0 -224 161l59 22q43 -121 160 -121
q71 0 107.5 32t36.5 87v64q0 58 -38 81t-113 23h-59z" />
    <glyph glyph-name="afii10026" unicode="&#x418;" horiz-adv-x="637" 
d="M475 725h78v-725h-78v585h-2l-311 -585h-79v725h79v-585h2z" />
    <glyph glyph-name="afii10027" unicode="&#x419;" horiz-adv-x="637" 
d="M475 725h78v-725h-78v585h-2l-311 -585h-79v725h79v-585h2zM198 872h56q4 -42 19 -58.5t45 -16.5t45 16.5t18 58.5h56q-9 -64 -35.5 -90t-83.5 -26q-58 0 -84 25.5t-36 90.5z" />
    <glyph glyph-name="afii10028" unicode="&#x41a;" horiz-adv-x="598" 
d="M553 725v-56h-23q-54 0 -83 -56l-88 -169q-25 -48 -67 -66v-2q51 -16 75 -63l107 -206q27 -53 83 -53h21v-54q-18 -5 -49 -5q-86 0 -131 87l-111 212q-14 28 -33 38.5t-54 10.5h-36v-343h-81v725h81v-319h35q29 0 48.5 12.5t36.5 44.5l95 182q44 85 131 85q16 0 43 -5z
" />
    <glyph glyph-name="afii10029" unicode="&#x41b;" horiz-adv-x="616" 
d="M450 655h-214l-13 -276q-7 -156 -30 -242t-55 -114t-86 -28q-26 0 -43 6v54h19q38 0 59.5 23t36.5 95.5t21 210.5l16 341h371v-725h-82v655z" />
    <glyph glyph-name="afii10030" unicode="&#x41c;" horiz-adv-x="784" 
d="M627 725h74v-725h-75v557h-2l-213 -417h-37l-214 417h-2v-557h-75v725h74l234 -472h2z" />
    <glyph glyph-name="afii10031" unicode="&#x41d;" horiz-adv-x="627" 
d="M83 725h82v-319h297v319h82v-725h-82v335h-297v-335h-82v725z" />
    <glyph glyph-name="afii10032" unicode="&#x41e;" horiz-adv-x="602" 
d="M301 735q116 0 178.5 -64.5t62.5 -178.5v-258q0 -115 -62.5 -179.5t-178.5 -64.5t-179 65t-63 179v257q0 114 63 179t179 65zM460 234v257q0 175 -159 175q-160 0 -160 -175v-257q0 -176 160 -176q159 0 159 176z" />
    <glyph glyph-name="afii10033" unicode="&#x41f;" horiz-adv-x="616" 
d="M83 725h450v-725h-82v655h-286v-655h-82v725z" />
    <glyph glyph-name="afii10034" unicode="&#x420;" horiz-adv-x="559" 
d="M319 725q98 0 150.5 -56.5t52.5 -160.5q0 -102 -51.5 -159t-147.5 -57h-158v-292h-82v725h236zM165 656v-298h153q63 0 92.5 36.5t29.5 113.5q0 76 -29.5 112t-92.5 36h-153z" />
    <glyph glyph-name="afii10035" unicode="&#x421;" horiz-adv-x="533" 
d="M287 735q75 0 131 -41.5t75 -105.5l-60 -24q-33 102 -141 102q-73 0 -111.5 -46t-38.5 -131v-258q0 -79 39.5 -126.5t111.5 -47.5q59 0 91.5 25t49.5 85l61 -22q-39 -155 -208 -155q-104 0 -166 66.5t-62 173.5v258q0 115 61 181t167 66z" />
    <glyph glyph-name="afii10036" unicode="&#x422;" horiz-adv-x="484" 
d="M16 725h452v-72h-185v-653h-82v653h-185v72z" />
    <glyph glyph-name="afii10037" unicode="&#x423;" horiz-adv-x="561" 
d="M10 725h95l196 -416h2l158 416h89l-238 -593q-53 -134 -196 -134l-5 64q98 9 126 91l25 75z" />
    <glyph glyph-name="afii10038" unicode="&#x424;" horiz-adv-x="694" 
d="M306 725h82v-93h29q114 0 172 -59t58 -155v-105q0 -100 -58.5 -158.5t-171.5 -58.5h-29v-96h-82v96h-29q-113 0 -171.5 58.5t-58.5 158.5v104q0 98 58.5 156.5t171.5 58.5h29v93zM419 565h-34v-403h34q149 0 149 150v105q0 148 -149 148zM275 162h34v403h-34
q-149 0 -149 -148v-105q0 -150 149 -150z" />
    <glyph glyph-name="afii10039" unicode="&#x425;" horiz-adv-x="580" 
d="M30 0l208 367l-204 358h93l163 -309h2l163 309h91l-202 -361l207 -364h-92l-169 314h-2l-168 -314h-90z" />
    <glyph glyph-name="afii10040" unicode="&#x426;" horiz-adv-x="612" 
d="M522 0h-439v725h82v-654h269v654h82v-651h83v-243h-77v169z" />
    <glyph glyph-name="afii10041" unicode="&#x427;" horiz-adv-x="563" 
d="M480 0h-82v313q-67 -13 -120 -13q-122 0 -176.5 50t-54.5 160v215h82v-214q0 -78 38.5 -110t127.5 -32q61 0 103 8v348h82v-725z" />
    <glyph glyph-name="afii10042" unicode="&#x428;" horiz-adv-x="852" 
d="M769 0h-686v725h82v-654h220v654h82v-654h220v654h82v-725z" />
    <glyph glyph-name="afii10043" unicode="&#x429;" horiz-adv-x="865" 
d="M769 74h83v-243h-82v169h-687v725h82v-654h220v654h82v-654h220v654h82v-651z" />
    <glyph glyph-name="afii10044" unicode="&#x42a;" horiz-adv-x="659" 
d="M190 655h-174v70h256v-304h139q210 0 210 -205q0 -109 -50.5 -162.5t-163.5 -53.5h-217v655zM272 68h132q73 0 104.5 33.5t31.5 114.5q0 73 -32 105.5t-107 32.5h-129v-286z" />
    <glyph glyph-name="afii10045" unicode="&#x42b;" horiz-adv-x="798" 
d="M83 725h82v-304h139q210 0 210 -205q0 -109 -50.5 -162.5t-163.5 -53.5h-217v725zM165 68h132q73 0 104.5 33.5t31.5 114.5q0 73 -32 105.5t-107 32.5h-129v-286zM633 725h82v-725h-82v725z" />
    <glyph glyph-name="afii10046" unicode="&#x42c;" horiz-adv-x="552" 
d="M83 725h82v-304h139q210 0 210 -205q0 -109 -50.5 -162.5t-163.5 -53.5h-217v725zM165 68h132q73 0 104.5 33.5t31.5 114.5q0 73 -32 105.5t-107 32.5h-129v-286z" />
    <glyph glyph-name="afii10047" unicode="&#x42d;" horiz-adv-x="538" 
d="M162 339v68h234v86q0 175 -147 175q-54 0 -92.5 -29.5t-57.5 -79.5l-58 23q26 69 82 111t133 42q104 0 163 -65t59 -178v-262q0 -109 -60 -174.5t-160 -65.5q-80 0 -138 41t-81 120l58 23q38 -119 154 -119q69 0 107 45.5t38 126.5v112h-234z" />
    <glyph glyph-name="afii10048" unicode="&#x42e;" horiz-adv-x="832" 
d="M83 725h81v-318h145v84q0 115 60 179.5t172 64.5q111 0 171 -64.5t60 -178.5v-258q0 -115 -60 -179.5t-171 -64.5q-112 0 -172 64.5t-60 179.5v108h-145v-342h-81v725zM690 234v257q0 173 -149 173q-150 0 -150 -173v-257q0 -174 150 -174q149 0 149 174z" />
    <glyph glyph-name="afii10049" unicode="&#x42f;" horiz-adv-x="580" 
d="M300 725h197v-725h-82v321h-76q-32 0 -50 -12t-30 -40l-81 -190q-36 -84 -123 -84q-26 0 -43 5v54h19q51 0 73 53l72 173q17 39 52 57v2q-148 24 -148 187q0 199 220 199zM415 383v273h-113q-72 0 -105.5 -32t-33.5 -103q0 -70 32.5 -104t109.5 -34h110z" />
    <glyph glyph-name="afii10065" unicode="&#x430;" horiz-adv-x="458" 
d="M104 377l-45 29q64 108 170 108q79 0 118 -47t39 -125v-253q0 -45 42 -45h14v-44q-22 -6 -38 -6q-62 0 -83 51q-56 -53 -137 -53q-66 0 -103.5 36t-37.5 97q0 162 225 162h45v55q0 113 -93 113q-70 0 -116 -78zM198 46q70 0 115 53v135h-45q-85 0 -119.5 -27t-34.5 -78
q0 -83 84 -83z" />
    <glyph glyph-name="afii10066" unicode="&#x431;" horiz-adv-x="481" 
d="M402 725l11 -58q-31 -19 -77 -27l-102 -18q-128 -23 -128 -157v-22h2q43 69 145 69q85 0 131.5 -49t46.5 -129v-166q0 -79 -50.5 -128t-140.5 -49q-91 0 -141 49t-50 128v296q0 86 44.5 144t124.5 76zM122 330v-159q0 -57 29.5 -89.5t88.5 -32.5t88.5 32.5t29.5 89.5v159
q0 59 -29 92t-88 33q-60 0 -89.5 -33t-29.5 -92z" />
    <glyph glyph-name="afii10067" unicode="&#x432;" horiz-adv-x="467" 
d="M407 383q0 -91 -85 -114v-2q114 -19 114 -121q0 -73 -41.5 -109.5t-131.5 -36.5h-194v504h178q79 0 119.5 -32t40.5 -89zM138 237v-181h123q55 0 81 21t26 72q0 46 -26 67t-81 21h-123zM138 447v-159h101q103 0 103 87q0 38 -22 55t-71 17h-111z" />
    <glyph glyph-name="afii10068" unicode="&#x433;" horiz-adv-x="377" 
d="M359 504v-62h-217v-442h-73v504h290z" />
    <glyph glyph-name="afii10069" unicode="&#x434;" horiz-adv-x="530" 
d="M140 504h302v-444h70v-217h-69v157h-365v-157h-69v217h64q37 100 48 219zM370 444h-168l-15 -169q-11 -122 -46 -219h229v388z" />
    <glyph glyph-name="afii10070" unicode="&#x435;" horiz-adv-x="455" 
d="M413 252h-291v-79q0 -59 31 -91.5t88 -32.5q44 0 72.5 21t47.5 68l53 -21q-44 -126 -179 -126q-88 0 -137 49.5t-49 130.5v163q0 79 48.5 129t134.5 50q84 0 132.5 -51t48.5 -130v-80zM122 338v-38h226v39q0 54 -30 85.5t-84 31.5q-55 0 -83.5 -32t-28.5 -86z" />
    <glyph glyph-name="afii10072" unicode="&#x436;" horiz-adv-x="699" 
d="M38 455v49q18 4 33 4q85 0 111 -72l32 -90q22 -61 68 -61h31v219h72v-219h32q46 0 68 61l32 90q26 72 111 72q15 0 33 -4v-49h-19q-49 0 -65 -48l-29 -85q-15 -41 -47 -59v-2q35 -13 52 -56l42 -104q21 -55 68 -55h14v-44q-22 -6 -38 -6q-40 0 -64.5 18t-43.5 61l-53 121
q-15 35 -55 35h-38v-231h-72v231h-37q-40 0 -55 -35l-53 -121q-19 -43 -43.5 -61t-64.5 -18q-16 0 -38 6v44h14q47 0 68 55l42 104q18 43 52 56v2q-32 17 -47 59l-29 85q-16 48 -65 48h-19z" />
    <glyph glyph-name="afii10073" unicode="&#x437;" horiz-adv-x="431" 
d="M146 231v55h54q57 0 84.5 19t27.5 66q0 85 -103 85q-92 0 -123 -77l-54 14q20 55 67 87t115 32q82 0 126.5 -38.5t44.5 -99.5q0 -86 -77 -111v-2q92 -20 92 -115q0 -77 -48 -116.5t-140 -39.5q-66 0 -114.5 26.5t-69.5 77.5l52 19q36 -70 129 -70q120 0 120 104
q0 48 -31.5 66t-95.5 18h-56z" />
    <glyph glyph-name="afii10074" unicode="&#x438;" horiz-adv-x="528" 
d="M389 504h69v-504h-69v410h-2l-249 -410h-69v504h69v-413h2z" />
    <glyph glyph-name="afii10075" unicode="&#x439;" horiz-adv-x="528" 
d="M389 504h69v-504h-69v410h-2l-249 -410h-69v504h69v-413h2zM151 725h55q4 -57 18.5 -79t44.5 -22q31 0 45.5 22t17.5 79h56q-9 -81 -35 -112t-84 -31t-83.5 31t-34.5 112z" />
    <glyph glyph-name="afii10076" unicode="&#x43a;" horiz-adv-x="476" 
d="M440 46h14v-44q-22 -6 -38 -6q-38 0 -62 18t-46 61l-64 121q-19 35 -55 35h-47v-231h-73v504h73v-219h40q38 0 68 61l45 90q35 72 111 72q16 0 32 -4v-49h-19q-40 0 -64 -48l-42 -85q-20 -41 -49 -58v-2q34 -13 54 -53l55 -109q15 -30 30.5 -42t36.5 -12z" />
    <glyph glyph-name="afii10077" unicode="&#x43b;" horiz-adv-x="519" 
d="M449 0h-73v444h-165l-20 -293q-11 -155 -134 -155q-22 0 -44 6v44h22q43 0 64 27.5t25 91.5l21 339h304v-504z" />
    <glyph glyph-name="afii10078" unicode="&#x43c;" horiz-adv-x="615" 
d="M478 504h67v-504h-68v370h-2l-151 -271h-33l-152 272h-2v-371h-68v504h68l169 -309h2z" />
    <glyph glyph-name="afii10079" unicode="&#x43d;" horiz-adv-x="521" 
d="M142 0h-73v504h73v-214h236v214h74v-504h-74v231h-236v-231z" />
    <glyph glyph-name="afii10080" unicode="&#x43e;" horiz-adv-x="480" 
d="M431 334v-166q0 -79 -50.5 -128t-140.5 -49q-91 0 -141 48.5t-50 128.5v166q0 80 50 129.5t141 49.5t141 -49.5t50 -129.5zM122 332v-161q0 -57 29.5 -89.5t88.5 -32.5t88.5 32.5t29.5 89.5v161q0 57 -29.5 90t-88.5 33q-60 0 -89 -32.5t-29 -90.5z" />
    <glyph glyph-name="afii10081" unicode="&#x43f;" horiz-adv-x="509" 
d="M142 0h-73v504h371v-504h-73v444h-225v-444z" />
    <glyph glyph-name="afii10082" unicode="&#x440;" horiz-adv-x="499" 
d="M283 -8q-89 0 -139 57h-2v-252h-73v707h65l3 -55h2q53 64 147 64q80 0 122 -50t42 -135v-151q0 -86 -43 -135.5t-124 -49.5zM142 388v-273q43 -62 123 -62q55 0 83.5 32.5t28.5 91.5v149q0 124 -110 124q-80 0 -125 -62z" />
    <glyph glyph-name="afii10083" unicode="&#x441;" horiz-adv-x="427" 
d="M401 403l-51 -24q-31 74 -113 74q-56 0 -85.5 -31t-29.5 -91v-158q0 -59 30 -91t85 -32q81 0 114 80l53 -21q-45 -118 -172 -118q-87 0 -135 50t-48 129v164q0 79 48 129t135 50q58 0 102 -29t67 -81z" />
    <glyph glyph-name="afii10084" unicode="&#x442;" horiz-adv-x="420" 
d="M247 0h-73v442h-157v62h386v-62h-156v-442z" />
    <glyph glyph-name="afii10085" unicode="&#x443;" horiz-adv-x="504" 
d="M481 504l-211 -576q-25 -68 -65.5 -101.5t-105.5 -37.5l-7 58q48 6 74.5 27.5t41.5 67.5l21 65l-206 497h83l158 -415h2l138 415h77z" />
    <glyph glyph-name="afii10086" unicode="&#x444;" horiz-adv-x="713" 
d="M320 715h73v-247h2q41 44 110 44q77 0 118.5 -50t41.5 -134v-153q0 -84 -41.5 -133.5t-118.5 -49.5q-68 0 -110 44h-2v-243h-73v243h-2q-42 -44 -110 -44q-77 0 -118 49.5t-41 133.5v153q0 85 41 134.5t118 49.5q68 0 110 -44h2v247zM487 452q-55 0 -95 -44v-310
q39 -48 96 -48q103 0 103 123v155q0 124 -104 124zM225 50q57 0 96 48v310q-42 44 -95 44q-104 0 -104 -124v-155q0 -59 26 -91t77 -32z" />
    <glyph glyph-name="afii10087" unicode="&#x445;" horiz-adv-x="481" 
d="M24 0l165 259l-156 245h85l125 -205l122 205h85l-158 -248l165 -256h-85l-134 217l-129 -217h-85z" />
    <glyph glyph-name="afii10088" unicode="&#x446;" horiz-adv-x="514" 
d="M69 504h73v-444h211v444h73v-444h70v-217h-69v157h-358v504z" />
    <glyph glyph-name="afii10089" unicode="&#x447;" horiz-adv-x="487" 
d="M136 504v-142q0 -56 25.5 -79.5t89.5 -23.5q54 0 94 9v236h73v-504h-73v211q-49 -10 -109 -10q-92 0 -132.5 39.5t-40.5 119.5v144h73z" />
    <glyph glyph-name="afii10090" unicode="&#x448;" horiz-adv-x="755" 
d="M69 504h73v-444h199v444h73v-444h198v444h73v-504h-616v504z" />
    <glyph glyph-name="afii10091" unicode="&#x449;" horiz-adv-x="773" 
d="M69 504h73v-444h199v444h73v-444h198v444h73v-444h70v-217h-69v157h-617v504z" />
    <glyph glyph-name="afii10092" unicode="&#x44a;" horiz-adv-x="560" 
d="M235 504v-208h117q92 0 133.5 -36t41.5 -108q0 -76 -41.5 -114t-133.5 -38h-190v445h-145v59h218zM235 239v-183h116q56 0 81.5 21.5t25.5 73.5q0 46 -26 67t-81 21h-116z" />
    <glyph glyph-name="afii10093" unicode="&#x44b;" horiz-adv-x="637" 
d="M494 504h73v-504h-73v504zM142 504v-208h117q92 0 133.5 -36t41.5 -108q0 -76 -41.5 -114t-133.5 -38h-190v504h73zM142 239v-183h116q56 0 81.5 21.5t25.5 73.5q0 46 -26 67t-81 21h-116z" />
    <glyph glyph-name="afii10094" unicode="&#x44c;" horiz-adv-x="467" 
d="M142 504v-208h117q92 0 133.5 -36t41.5 -108q0 -76 -41.5 -114t-133.5 -38h-190v504h73zM142 239v-183h116q56 0 81.5 21.5t25.5 73.5q0 46 -26 67t-81 21h-116z" />
    <glyph glyph-name="afii10095" unicode="&#x44d;" horiz-adv-x="453" 
d="M331 165v67h-192v56h192v49q0 56 -29 87.5t-85 31.5q-83 0 -116 -76l-50 22q23 52 67.5 81.5t103.5 29.5q86 0 134 -50t48 -129v-164q0 -79 -48 -129t-135 -50q-128 0 -173 119l51 19q33 -82 117 -82q55 0 85 31t30 87z" />
    <glyph glyph-name="afii10096" unicode="&#x44e;" horiz-adv-x="661" 
d="M73 504h73v-214h103v44q0 80 48 129.5t133 49.5q86 0 134 -49.5t48 -129.5v-166q0 -79 -48 -128t-134 -49t-133.5 49t-47.5 128v63h-103v-231h-73v504zM322 332v-161q0 -57 27.5 -89.5t80.5 -32.5q54 0 81.5 32.5t27.5 89.5v161q0 57 -28 90t-81 33t-80.5 -33t-27.5 -90z
" />
    <glyph glyph-name="afii10097" unicode="&#x44f;" horiz-adv-x="480" 
d="M18 46h14q44 0 71 49l53 97q10 20 27 31v2q-64 9 -92.5 43.5t-28.5 95.5q0 65 41.5 102.5t127.5 37.5h180v-504h-71v213h-59q-42 0 -62 -39l-54 -104q-21 -41 -45.5 -57.5t-62.5 -16.5q-17 0 -39 6v44zM340 264v182h-100q-56 0 -79.5 -21t-23.5 -64q0 -48 23 -72.5
t83 -24.5h97z" />
    <glyph glyph-name="uni0450" unicode="&#x450;" horiz-adv-x="455" 
d="M130 725h87l71 -136h-59zM413 252h-291v-79q0 -59 31 -91.5t88 -32.5q44 0 72.5 21t47.5 68l53 -21q-44 -126 -179 -126q-88 0 -137 49.5t-49 130.5v163q0 79 48.5 129t134.5 50q84 0 132.5 -51t48.5 -130v-80zM122 338v-38h226v39q0 54 -30 85.5t-84 31.5
q-55 0 -83.5 -32t-28.5 -86z" />
    <glyph glyph-name="afii10071" unicode="&#x451;" horiz-adv-x="455" 
d="M413 252h-291v-79q0 -59 31 -91.5t88 -32.5q44 0 72.5 21t47.5 68l53 -21q-44 -126 -179 -126q-88 0 -137 49.5t-49 130.5v163q0 79 48.5 129t134.5 50q84 0 132.5 -51t48.5 -130v-80zM122 338v-38h226v39q0 54 -30 85.5t-84 31.5q-55 0 -83.5 -32t-28.5 -86zM136 725h59
v-103h-59v103zM276 725h59v-103h-59v103z" />
    <glyph glyph-name="afii10099" unicode="&#x452;" horiz-adv-x="514" 
d="M266 643v-48h-119v-143h2q50 61 142 61q79 0 121.5 -49.5t42.5 -134.5v-302q0 -185 -173 -197l-5 54q105 12 105 142v302q0 123 -111 123q-40 0 -72.5 -18t-51.5 -45v-388h-73v595h-87v48h87v106h73v-106h119z" />
    <glyph glyph-name="afii10100" unicode="&#x453;" horiz-adv-x="377" 
d="M359 504v-62h-217v-442h-73v504h290zM192 725h88l-90 -136h-58z" />
    <glyph glyph-name="afii10101" unicode="&#x454;" horiz-adv-x="427" 
d="M121 165q0 -56 30.5 -87t85.5 -31q83 0 116 82l52 -19q-46 -119 -174 -119q-86 0 -134 50t-48 129v164q0 79 48 129t135 50q59 0 103 -29.5t67 -81.5l-50 -22q-34 76 -116 76q-56 0 -85.5 -31.5t-29.5 -87.5v-49h192v-56h-192v-67z" />
    <glyph glyph-name="afii10102" unicode="&#x455;" horiz-adv-x="416" 
d="M376 409l-49 -22q-31 71 -110 71q-47 0 -71 -21t-24 -55q0 -32 26.5 -53t64.5 -34.5t75.5 -29.5t64 -47.5t26.5 -79.5q0 -65 -45.5 -106t-116.5 -41q-126 0 -173 109l48 24q35 -79 122 -79q47 0 71.5 23t24.5 64q0 33 -26.5 55t-64.5 35.5t-76 29.5t-64.5 47t-26.5 77
q0 59 42.5 98t120.5 39q118 0 161 -104z" />
    <glyph glyph-name="afii10103" unicode="&#x456;" horiz-adv-x="230" 
d="M78 504h73v-504h-73v504zM80 725h71v-102h-71v102z" />
    <glyph glyph-name="afii10104" unicode="&#x457;" horiz-adv-x="230" 
d="M78 504h73v-504h-73v504zM16 725h59v-103h-59v103zM156 725h59v-103h-59v103z" />
    <glyph glyph-name="afii10105" unicode="&#x458;" horiz-adv-x="229" 
d="M96 725h70v-102h-70v102zM-5 -211l-7 58q54 7 79.5 40.5t25.5 97.5v519h75v-519q0 -184 -173 -196z" />
    <glyph glyph-name="afii10106" unicode="&#x459;" horiz-adv-x="774" 
d="M449 504v-208h117q92 0 133.5 -36t41.5 -108q0 -76 -41.5 -114t-133.5 -38h-190v444h-165l-20 -293q-11 -155 -134 -155q-22 0 -44 6v44h22q43 0 64 27.5t25 91.5l21 339h304zM449 239v-183h116q56 0 81.5 21.5t25.5 73.5q0 46 -26 67t-81 21h-116z" />
    <glyph glyph-name="afii10107" unicode="&#x45a;" horiz-adv-x="776" 
d="M142 0h-73v504h73v-214h236v214h74v-208h116q92 0 133.5 -36t41.5 -108q0 -76 -41.5 -114t-133.5 -38h-190v231h-236v-231zM567 239h-115v-183h115q56 0 81.5 21.5t25.5 73.5q0 46 -26 67t-81 21z" />
    <glyph glyph-name="afii10108" unicode="&#x45b;" horiz-adv-x="514" 
d="M147 388v-388h-73v595h-87v48h87v106h73v-106h119v-48h-119v-143h2q50 61 142 61q79 0 121.5 -49.5t42.5 -134.5v-329h-73v328q0 123 -111 123q-40 0 -72.5 -18t-51.5 -45z" />
    <glyph glyph-name="afii10109" unicode="&#x45c;" horiz-adv-x="476" 
d="M440 46h14v-44q-22 -6 -38 -6q-38 0 -62 18t-46 61l-64 121q-19 35 -55 35h-47v-231h-73v504h73v-219h40q38 0 68 61l45 90q35 72 111 72q16 0 32 -4v-49h-19q-40 0 -64 -48l-42 -85q-20 -41 -49 -58v-2q34 -13 54 -53l55 -109q15 -30 30.5 -42t36.5 -12zM256 725h88
l-90 -136h-58z" />
    <glyph glyph-name="uni045D" unicode="&#x45d;" horiz-adv-x="528" 
d="M389 504h69v-504h-69v410h-2l-249 -410h-69v504h69v-413h2zM152 725h87l71 -136h-59z" />
    <glyph glyph-name="afii10110" unicode="&#x45e;" horiz-adv-x="504" 
d="M481 504l-211 -576q-25 -68 -65.5 -101.5t-105.5 -37.5l-7 58q48 6 74.5 27.5t41.5 67.5l21 65l-206 497h83l158 -415h2l138 415h77zM134 725h55q4 -57 18.5 -79t44.5 -22q31 0 45.5 22t17.5 79h56q-9 -81 -35 -112t-84 -31t-83.5 31t-34.5 112z" />
    <glyph glyph-name="afii10193" unicode="&#x45f;" horiz-adv-x="517" 
d="M440 0h-154v-157h-64v157h-153v504h73v-444h225v444h73v-504z" />
    <glyph glyph-name="afii10146" unicode="&#x462;" horiz-adv-x="552" 
d="M83 725h82v-87h222v-58h-222v-159h139q210 0 210 -205q0 -109 -50.5 -162.5t-163.5 -53.5h-217v580h-101v58h101v87zM165 68h132q73 0 104.5 33.5t31.5 114.5q0 73 -32 105.5t-107 32.5h-129v-286z" />
    <glyph glyph-name="afii10194" unicode="&#x463;" horiz-adv-x="467" 
d="M142 725v-221h146v-48h-146v-160h117q92 0 133.5 -36t41.5 -108q0 -76 -41.5 -114t-133.5 -38h-190v456h-60v48h60v221h73zM142 239v-183h116q56 0 81.5 21.5t25.5 73.5q0 46 -26 67t-81 21h-116z" />
    <glyph glyph-name="afii10147" unicode="&#x472;" horiz-adv-x="602" 
d="M542 492v-258q0 -115 -62.5 -179.5t-178.5 -64.5t-179 65t-63 179v257q0 114 63 179t179 65t178.5 -64.5t62.5 -178.5zM460 233v106h-319v-107q0 -174 160 -174q159 0 159 175zM141 493v-91h319v91q0 172 -159 172q-160 0 -160 -172z" />
    <glyph glyph-name="afii10195" unicode="&#x473;" horiz-adv-x="480" 
d="M431 334v-166q0 -79 -50.5 -128t-140.5 -49q-91 0 -141 48.5t-50 128.5v166q0 80 50 129.5t141 49.5t141 -49.5t50 -129.5zM240 47q59 0 88.5 32t29.5 89v71h-236v-71q0 -57 29.5 -89t88.5 -32zM122 334v-46h236v46q0 57 -29.5 90t-88.5 33q-60 0 -89 -32.5t-29 -90.5z
" />
    <glyph glyph-name="afii10148" unicode="&#x474;" horiz-adv-x="623" 
d="M14 725h90l191 -628h2l150 514q17 56 55 87.5t90 31.5q22 0 49 -5v-56h-22q-70 0 -92 -71l-189 -598h-84z" />
    <glyph glyph-name="afii10196" unicode="&#x475;" horiz-adv-x="511" 
d="M19 504h84l144 -435h2l112 354q27 85 117 85q19 0 37 -4v-49h-20q-47 0 -64 -50l-142 -405h-81z" />
    <glyph glyph-name="afii10050" unicode="&#x490;" horiz-adv-x="443" 
d="M350 823h77v-169h-263v-654h-81v725h267v98z" />
    <glyph glyph-name="afii10098" unicode="&#x491;" horiz-adv-x="377" 
d="M359 581v-139h-217v-442h-73v504h229v77h61z" />
    <glyph glyph-name="uni0492" unicode="&#x492;" horiz-adv-x="465" 
d="M13 334v65h92v326h344v-72h-264v-254h143v-65h-143v-334h-80v334h-92z" />
    <glyph glyph-name="uni0493" unicode="&#x493;" horiz-adv-x="389" 
d="M6 235v51h74v218h291v-62h-217v-156h147v-51h-147v-235h-74v235h-74z" />
    <glyph glyph-name="uni0496" unicode="&#x496;" horiz-adv-x="883" 
d="M43 669v55q22 6 46 6q76 0 114 -83l84 -185q14 -32 31 -44t43 -12h32v319h81v-319h31q27 0 43.5 12t31.5 44l84 185q38 83 113 83q26 0 46 -6v-55h-21q-49 0 -74 -56l-77 -170q-21 -46 -60 -66v-2q42 -13 68 -61l96 -207q24 -53 73 -53h50v-223h-78v164q-84 2 -121 85
l-98 214q-13 28 -30 38.5t-47 10.5h-30v-343h-81v343h-31q-30 0 -46.5 -10.5t-29.5 -38.5l-99 -214q-39 -85 -124 -85q-26 0 -43 5v54h19q49 0 73 53l95 207q20 45 68 62v2q-37 19 -59 65l-78 170q-13 29 -30 42.5t-44 13.5h-21z" />
    <glyph glyph-name="uni0497" unicode="&#x497;" horiz-adv-x="715" 
d="M38 455v49q18 4 33 4q85 0 111 -72l32 -90q22 -61 68 -61h31v219h72v-219h32q46 0 68 61l32 90q26 72 111 72q15 0 33 -4v-49h-19q-49 0 -65 -48l-29 -85q-15 -41 -47 -59v-2q35 -13 52 -56l42 -104q21 -55 68 -55h35v-203h-65v153q-37 1 -60 19t-42 60l-53 121
q-15 35 -55 35h-38v-231h-72v231h-37q-40 0 -55 -35l-53 -121q-19 -43 -43.5 -61t-64.5 -18q-16 0 -38 6v44h14q47 0 68 55l42 104q18 43 52 56v2q-32 17 -47 59l-29 85q-16 48 -65 48h-19z" />
    <glyph glyph-name="uni049A" unicode="&#x49a;" horiz-adv-x="614" 
d="M553 725v-56h-23q-54 0 -83 -56l-88 -169q-25 -48 -67 -66v-2q51 -16 75 -63l107 -206q27 -53 83 -53h53v-223h-78v164h-3q-86 0 -131 87l-111 212q-14 28 -33 38.5t-54 10.5h-36v-343h-81v725h81v-319h35q29 0 48.5 12.5t36.5 44.5l95 182q44 85 131 85q16 0 43 -5z" />
    <glyph glyph-name="uni049B" unicode="&#x49b;" horiz-adv-x="492" 
d="M440 46h35v-203h-65v153q-35 1 -57.5 19.5t-44.5 59.5l-64 121q-19 35 -55 35h-47v-231h-73v504h73v-219h40q38 0 68 61l45 90q35 72 111 72q16 0 32 -4v-49h-19q-40 0 -64 -48l-42 -85q-20 -41 -49 -58v-2q34 -13 54 -53l55 -109q15 -30 30.5 -42t36.5 -12z" />
    <glyph glyph-name="uni049C" unicode="&#x49c;" horiz-adv-x="629" 
d="M584 725v-56h-30q-55 0 -76 -56l-61 -167q-18 -51 -55 -69v-2q42 -14 63 -67l81 -201q21 -53 82 -53h21v-54q-20 -5 -48 -5q-96 0 -133 90l-83 209q-12 29 -26.5 38.5t-45.5 10.5v-143h-45v143h-64v-343h-81v725h81v-319h64v115h45v-115q27 0 42.5 11t28.5 46l64 178
q32 89 131 89q17 0 45 -5z" />
    <glyph glyph-name="uni049D" unicode="&#x49d;" horiz-adv-x="508" 
d="M69 504h73v-219h46v108h44v-108q18 0 30.5 12t26.5 46l38 91q32 74 109 74q17 0 35 -4v-49h-20q-44 0 -64 -48l-35 -85q-17 -41 -45 -59v-2q32 -12 50 -53l49 -108q24 -54 67 -54h13v-44q-16 -6 -37 -6q-40 0 -64 17.5t-44 61.5l-55 121q-15 35 -49 35h-5v-117h-44v117
h-46v-231h-73v504z" />
    <glyph glyph-name="uni04A2" unicode="&#x4a2;" horiz-adv-x="609" 
d="M83 725h82v-319h297v319h82v-670h52v-224h-78v169h-56v335h-297v-335h-82v725z" />
    <glyph glyph-name="uni04A3" unicode="&#x4a3;" horiz-adv-x="539" 
d="M142 0h-73v504h73v-214h236v214h74v-458h45v-203h-65v157h-54v231h-236v-231z" />
    <glyph glyph-name="uni04AE" unicode="&#x4ae;" horiz-adv-x="561" 
d="M550 725l-229 -477v-248h-82v248l-229 477h93l176 -402h2l178 402h91z" />
    <glyph glyph-name="uni04AF" unicode="&#x4af;" horiz-adv-x="489" 
d="M280 -207h-73v215l-188 496h84l140 -417h2l142 417h83l-190 -499v-212z" />
    <glyph glyph-name="uni04B0" unicode="&#x4b0;" horiz-adv-x="561" 
d="M550 725l-229 -452v-35h159v-61h-159v-177h-82v177h-159v61h159v35l-229 452h93l176 -378h2l178 378h91z" />
    <glyph glyph-name="uni04B1" unicode="&#x4b1;" horiz-adv-x="489" 
d="M470 504l-173 -454h105v-50h-122v-207h-73v207h-123v50h107l-172 454h84l140 -418h2l142 418h83z" />
    <glyph glyph-name="uni04B2" unicode="&#x4b2;" horiz-adv-x="584" 
d="M30 0l208 367l-204 358h93l163 -309h2l163 309h91l-202 -361l176 -310h60v-223h-78v169h-43l-169 314h-2l-168 -314h-90z" />
    <glyph glyph-name="uni04B3" unicode="&#x4b3;" horiz-adv-x="496" 
d="M24 0l165 259l-156 245h85l125 -205l122 205h85l-158 -248l135 -210h52v-203h-65v157h-42l-134 217l-129 -217h-85z" />
    <glyph glyph-name="uni04B6" unicode="&#x4b6;" horiz-adv-x="545" 
d="M480 55h52v-224h-78v169h-56v313q-67 -13 -120 -13q-122 0 -176.5 50t-54.5 160v215h82v-214q0 -78 38.5 -110t127.5 -32q61 0 103 8v348h82v-670z" />
    <glyph glyph-name="uni04B7" unicode="&#x4b7;" horiz-adv-x="506" 
d="M136 504v-142q0 -56 25.5 -79.5t89.5 -23.5q54 0 94 9v236h73v-458h46v-203h-66v157h-53v211q-49 -10 -109 -10q-92 0 -132.5 39.5t-40.5 119.5v144h73z" />
    <glyph glyph-name="uni04B8" unicode="&#x4b8;" horiz-adv-x="574" 
d="M254 503h46v-136q60 0 109 9v349h82v-725h-82v313q-61 -12 -109 -13v-118h-46v119q-109 6 -158 56t-49 153v215h82v-216q0 -69 29 -101t96 -39v134z" />
    <glyph glyph-name="uni04B9" unicode="&#x4b9;" horiz-adv-x="516" 
d="M238 368h45v-109q56 2 90 9v236h74v-504h-74v211q-48 -9 -90 -10v-111h-45v111q-175 6 -175 160v143h73v-141q0 -50 24 -74.5t78 -28.5v108z" />
    <glyph glyph-name="uni04BA" unicode="&#x4ba;" horiz-adv-x="570" 
d="M165 725v-251q68 13 120 13q122 0 176.5 -50t54.5 -160v-277h-82v276q0 78 -38.5 110.5t-127.5 32.5q-52 0 -103 -10v-409h-82v725h82z" />
    <glyph glyph-name="uni04BB" unicode="&#x4bb;" horiz-adv-x="488" 
d="M147 0h-73v748h73v-250q45 11 109 11q92 0 132.5 -40t40.5 -120v-349h-73v347q0 56 -25.5 80t-89.5 24q-50 0 -94 -10v-441z" />
    <glyph glyph-name="uni04C0" unicode="&#x4c0;" horiz-adv-x="284" 
d="M101 725h82v-725h-82v725z" />
    <glyph glyph-name="uni04CF" unicode="&#x4cf;" horiz-adv-x="236" 
d="M81 749h74v-749h-74v749z" />
    <glyph glyph-name="uni04D8" unicode="&#x4d8;" horiz-adv-x="579" 
d="M51 224v144h386v129q0 79 -42 125t-122 46q-123 0 -156 -110l-61 22q21 78 79.5 116.5t140.5 38.5q116 0 179.5 -66t63.5 -175v-256q0 -115 -59 -181.5t-181 -66.5q-112 0 -170 65t-58 169zM278 57q159 0 159 178v78h-312v-92q0 -78 39 -121t114 -43z" />
    <glyph glyph-name="afii10846" unicode="&#x4d9;" horiz-adv-x="455" 
d="M41 253h291v78q0 59 -31 91.5t-88 32.5q-44 0 -72.5 -21t-47.5 -67l-53 20q42 126 178 126q89 0 138 -49.5t49 -130.5v-163q0 -79 -48.5 -129t-134.5 -50q-84 0 -132.5 51t-48.5 131v80zM220 48q55 0 83.5 32t28.5 87v38h-226v-40q0 -54 30 -85.5t84 -31.5z" />
    <glyph glyph-name="uni04E2" unicode="&#x4e2;" horiz-adv-x="637" 
d="M475 725h78v-725h-78v585h-2l-311 -585h-79v725h79v-585h2zM447 848v-49h-257v49h257z" />
    <glyph glyph-name="uni04E3" unicode="&#x4e3;" horiz-adv-x="528" 
d="M389 504h69v-504h-69v410h-2l-249 -410h-69v504h69v-413h2zM382 680v-51h-237v51h237z" />
    <glyph glyph-name="uni04E8" unicode="&#x4e8;" horiz-adv-x="602" 
d="M542 492v-258q0 -115 -62.5 -179.5t-178.5 -64.5t-179 65t-63 179v257q0 114 63 179t179 65t178.5 -64.5t62.5 -178.5zM460 233v106h-319v-107q0 -174 160 -174q159 0 159 175zM141 493v-91h319v91q0 172 -159 172q-160 0 -160 -172z" />
    <glyph glyph-name="uni04E9" unicode="&#x4e9;" horiz-adv-x="480" 
d="M431 334v-166q0 -79 -50.5 -128t-140.5 -49q-91 0 -141 48.5t-50 128.5v166q0 80 50 129.5t141 49.5t141 -49.5t50 -129.5zM240 47q59 0 88.5 32t29.5 89v71h-236v-71q0 -57 29.5 -89t88.5 -32zM122 334v-46h236v46q0 57 -29.5 90t-88.5 33q-60 0 -89 -32.5t-29 -90.5z
" />
    <glyph glyph-name="uni04EE" unicode="&#x4ee;" horiz-adv-x="561" 
d="M10 725h95l196 -416h2l158 416h89l-238 -593q-53 -134 -196 -134l-5 64q98 9 126 91l25 75zM409 848v-49h-257v49h257z" />
    <glyph glyph-name="uni04EF" unicode="&#x4ef;" horiz-adv-x="504" 
d="M481 504l-211 -576q-25 -68 -65.5 -101.5t-105.5 -37.5l-7 58q48 6 74.5 27.5t41.5 67.5l21 65l-206 497h83l158 -415h2l138 415h77zM370 680v-51h-237v51h237z" />
    <glyph glyph-name="Wgrave" unicode="&#x1e80;" horiz-adv-x="915" 
d="M876 725l-181 -725h-89l-147 593h-2l-149 -593h-89l-179 725h83l142 -625h2l153 625h76l151 -627h2l144 627h83zM323 872h98l72 -111h-67z" />
    <glyph glyph-name="wgrave" unicode="&#x1e81;" horiz-adv-x="717" 
d="M470 0l-111 422h-2l-111 -422h-81l-143 504h77l108 -430h2l114 430h71l113 -432h2l108 432h78l-145 -504h-80zM223 725h87l71 -136h-59z" />
    <glyph glyph-name="Wacute" unicode="&#x1e82;" horiz-adv-x="915" 
d="M876 725l-181 -725h-89l-147 593h-2l-149 -593h-89l-179 725h83l142 -625h2l153 625h76l151 -627h2l144 627h83zM487 872h95l-95 -111h-65z" />
    <glyph glyph-name="wacute" unicode="&#x1e83;" horiz-adv-x="717" 
d="M470 0l-111 422h-2l-111 -422h-81l-143 504h77l108 -430h2l114 430h71l113 -432h2l108 432h78l-145 -504h-80zM390 725h88l-90 -136h-58z" />
    <glyph glyph-name="Wdieresis" unicode="&#x1e84;" horiz-adv-x="915" 
d="M876 725l-181 -725h-89l-147 593h-2l-149 -593h-89l-179 725h83l142 -625h2l153 625h76l151 -627h2l144 627h83zM343 871h61v-98h-61v98zM512 871h62v-98h-62v98z" />
    <glyph glyph-name="wdieresis" unicode="&#x1e85;" horiz-adv-x="717" 
d="M470 0l-111 422h-2l-111 -422h-81l-143 504h77l108 -430h2l114 430h71l113 -432h2l108 432h78l-145 -504h-80zM260 725h59v-103h-59v103zM400 725h59v-103h-59v103z" />
    <glyph glyph-name="uni1E8A" unicode="&#x1e8a;" horiz-adv-x="580" 
d="M30 0l208 367l-204 358h93l163 -309h2l163 309h91l-202 -361l207 -364h-92l-169 314h-2l-168 -314h-90zM250 872h79v-99h-79v99z" />
    <glyph glyph-name="uni1E8B" unicode="&#x1e8b;" horiz-adv-x="481" 
d="M24 0l165 259l-156 245h85l125 -205l122 205h85l-158 -248l165 -256h-85l-134 217l-129 -217h-85zM205 725h71v-102h-71v102z" />
    <glyph glyph-name="uni1E9E" unicode="&#x1e9e;" horiz-adv-x="611" 
d="M83 725h457v-50l-160 -235q85 -6 134.5 -55.5t49.5 -164.5q0 -116 -55 -172t-148 -56q-97 0 -152 50l19 59q54 -43 124 -43q130 0 130 161q0 90 -36 123.5t-102 33.5h-55v52l157 230h-281v-658h-82v725z" />
    <glyph glyph-name="Ygrave" unicode="&#x1ef2;" horiz-adv-x="561" 
d="M550 725l-229 -477v-248h-82v248l-229 477h93l176 -402h2l178 402h91zM170 872h98l72 -111h-67z" />
    <glyph glyph-name="ygrave" unicode="&#x1ef3;" horiz-adv-x="504" 
d="M481 504l-197 -534q-25 -68 -65.5 -101.5t-106.5 -37.5l-6 53q46 7 72 29t42 68l9 27l-206 496h82l159 -414h2l138 414h77zM148 725h87l71 -136h-59z" />
    <glyph glyph-name="uni2007" unicode="&#x2007;" horiz-adv-x="567" 
 />
    <glyph glyph-name="uni2008" unicode="&#x2008;" horiz-adv-x="208" 
 />
    <glyph glyph-name="uni200B" unicode="&#x200b;" horiz-adv-x="0" 
 />
    <glyph glyph-name="uni2010" unicode="&#x2010;" horiz-adv-x="273" 
d="M26 260v65h221v-65h-221z" />
    <glyph glyph-name="uni2011" unicode="&#x2011;" horiz-adv-x="273" 
d="M26 260v65h221v-65h-221z" />
    <glyph glyph-name="endash" unicode="&#x2013;" horiz-adv-x="410" 
d="M25 265v58h361v-58h-361z" />
    <glyph glyph-name="emdash" unicode="&#x2014;" horiz-adv-x="583" 
d="M25 264v59h533v-59h-533z" />
    <glyph glyph-name="afii00208" unicode="&#x2015;" horiz-adv-x="583" 
d="M25 264v59h533v-59h-533z" />
    <glyph glyph-name="quoteleft" unicode="&#x2018;" horiz-adv-x="185" 
d="M138 696v-94h-91v70q0 86 49 156l29 -16q-23 -49 -23 -110z" />
    <glyph glyph-name="quoteright" unicode="&#x2019;" horiz-adv-x="185" 
d="M48 650v93h90v-70q0 -87 -48 -155l-31 15q26 52 26 111z" />
    <glyph glyph-name="quotesinglbase" unicode="&#x201a;" horiz-adv-x="185" 
d="M48 6v93h90v-70q0 -87 -48 -155l-31 15q26 52 26 111z" />
    <glyph glyph-name="quotedblleft" unicode="&#x201c;" horiz-adv-x="328" 
d="M277 696v-94h-91v70q0 86 49 156l29 -16q-23 -49 -23 -110zM138 696v-94h-91v70q0 86 49 156l29 -16q-23 -49 -23 -110z" />
    <glyph glyph-name="quotedblright" unicode="&#x201d;" horiz-adv-x="328" 
d="M187 651v93h90v-70q0 -87 -48 -155l-31 15q26 52 26 111zM48 651v93h90v-70q0 -87 -48 -155l-31 15q26 52 26 111z" />
    <glyph glyph-name="quotedblbase" unicode="&#x201e;" horiz-adv-x="327" 
d="M176 6v93h90v-70q0 -87 -48 -155l-31 15q26 52 26 111zM43 6v93h90v-70q0 -87 -48 -155l-31 15q26 52 26 111z" />
    <glyph glyph-name="dagger" unicode="&#x2020;" horiz-adv-x="425" 
d="M22 543l159 -6l-6 212h73l-5 -212l160 6v-72l-160 6l5 -632h-73l6 632l-159 -6v72z" />
    <glyph glyph-name="daggerdbl" unicode="&#x2021;" horiz-adv-x="425" 
d="M181 117v360l-159 -6v72l159 -6l-6 212h73l-5 -212l160 6v-72l-160 6v-360l160 5v-72l-160 6l5 -211h-73l6 211l-159 -6v72z" />
    <glyph glyph-name="bullet" unicode="&#x2022;" horiz-adv-x="276" 
d="M22 309q0 55 34 92.5t83 37.5q50 0 84 -37.5t34 -92.5q0 -53 -34.5 -90.5t-83.5 -37.5t-83 37.5t-34 90.5z" />
    <glyph glyph-name="ellipsis" unicode="&#x2026;" horiz-adv-x="624" 
d="M57 0v100h94v-100h-94zM265 0v100h94v-100h-94zM473 0v100h94v-100h-94z" />
    <glyph glyph-name="perthousand" unicode="&#x2030;" horiz-adv-x="848" 
d="M275 604v-62q0 -61 -30.5 -94.5t-87.5 -33.5t-87 33.5t-30 94.5v62q0 62 30.5 96.5t86.5 34.5q57 0 87.5 -34.5t30.5 -96.5zM95 605v-64q0 -78 62 -78q63 0 63 78v64q0 79 -63 79q-62 0 -62 -79zM52 0l410 725h61l-410 -725h-61zM545 179v-63q0 -60 -30 -93.5t-87 -33.5
t-87.5 33t-30.5 94v63q0 62 30.5 96.5t87.5 34.5q56 0 86.5 -34.5t30.5 -96.5zM365 180v-65q0 -77 63 -77q62 0 62 77v65q0 78 -62 78q-63 0 -63 -78zM817 179v-63q0 -60 -30.5 -93.5t-86.5 -33.5q-57 0 -87.5 33t-30.5 94v63q0 62 30.5 96.5t87.5 34.5q56 0 86.5 -35
t30.5 -96zM637 180v-65q0 -77 63 -77q62 0 62 77v65q0 78 -62 78q-63 0 -63 -78z" />
    <glyph glyph-name="minute" unicode="&#x2032;" horiz-adv-x="132" 
d="M23 576l33 202h54l-35 -202h-52z" />
    <glyph glyph-name="second" unicode="&#x2033;" horiz-adv-x="254" 
d="M23 576l33 202h54l-35 -202h-52zM144 576l34 202h53l-34 -202h-53z" />
    <glyph glyph-name="guilsinglleft" unicode="&#x2039;" horiz-adv-x="239" 
d="M217 437l-128 -179l128 -180h-68l-126 180l126 179h68z" />
    <glyph glyph-name="guilsinglright" unicode="&#x203a;" horiz-adv-x="239" 
d="M22 78l128 180l-128 179h68l126 -179l-126 -180h-68z" />
    <glyph glyph-name="uni203D" unicode="&#x203d;" horiz-adv-x="512" 
d="M23 574q25 71 87 116.5t146 45.5q106 0 158 -52.5t52 -128.5q0 -77 -48.5 -138t-137.5 -98l-5 -113h-55l-6 178v287q-91 -19 -131 -116zM393 553q0 48 -27 81.5t-88 39.5v-297q115 65 115 176zM199 0v100h94v-100h-94z" />
    <glyph glyph-name="fraction" unicode="&#x2044;" horiz-adv-x="19" 
d="M-163 0h-55l390 725h56z" />
    <glyph glyph-name="uni2070" unicode="&#x2070;" horiz-adv-x="278" 
d="M248 689v-102q0 -52 -28.5 -82t-80.5 -30t-81 30t-29 82v102q0 52 28.5 82.5t81.5 30.5q52 0 80.5 -30.5t28.5 -82.5zM81 689v-102q0 -70 58 -70t58 70v102q0 69 -58 69t-58 -69z" />
    <glyph glyph-name="uni2074" unicode="&#x2074;" horiz-adv-x="278" 
d="M223 479h-47v60h-156v34l153 225h50v-219h42l-5 -40h-37v-60zM76 579h100l4 162h-2z" />
    <glyph glyph-name="uni2075" unicode="&#x2075;" horiz-adv-x="278" 
d="M73 622l-34 18l14 158h182l-3 -43h-138l-7 -88q30 14 63 14q97 0 97 -99q0 -107 -111 -107q-37 0 -65 18t-39 51l38 15q18 -44 63 -44q61 0 61 67q0 31 -14.5 45t-46.5 14q-36 0 -60 -19z" />
    <glyph glyph-name="uni2076" unicode="&#x2076;" horiz-adv-x="278" 
d="M146 802q72 0 95 -65l-34 -16q-17 39 -58 39q-65 0 -65 -73v-26h2q23 20 67 20q96 0 96 -96q0 -110 -109 -110q-50 0 -78.5 30t-28.5 86v91q0 53 30.5 86.5t82.5 33.5zM143 641q-22 0 -39.5 -8.5t-19.5 -21.5v-28q0 -32 15.5 -49t42.5 -17q57 0 57 67q0 57 -56 57z" />
    <glyph glyph-name="uni2077" unicode="&#x2077;" horiz-adv-x="278" 
d="M127 479h-58l128 276h-168v43h221v-39z" />
    <glyph glyph-name="uni2078" unicode="&#x2078;" horiz-adv-x="278" 
d="M139 475q-112 0 -112 97q0 59 50 75v2q-42 17 -42 68q0 85 104 85q103 0 103 -85q0 -51 -42 -67v-2q51 -16 51 -76q0 -97 -112 -97zM199 574q0 53 -60 53q-61 0 -61 -53q0 -32 14.5 -45.5t46.5 -13.5t46 13t14 46zM139 762q-30 0 -42.5 -11.5t-12.5 -37.5t13 -38t42 -12
t42 12t13 38t-12.5 37.5t-42.5 11.5z" />
    <glyph glyph-name="uni2079" unicode="&#x2079;" horiz-adv-x="278" 
d="M34 537l33 19q22 -40 66 -40q29 0 45.5 16t16.5 46v46h-2q-23 -20 -68 -20q-44 0 -69.5 24t-25.5 72t28.5 75t81.5 27q50 0 77.5 -28.5t27.5 -76.5v-117q0 -48 -30 -76.5t-79 -28.5q-76 0 -102 62zM134 643q21 0 40 8t21 23v28q0 59 -55 59q-60 0 -60 -59
q0 -32 13.5 -45.5t40.5 -13.5z" />
    <glyph glyph-name="uni207A" unicode="&#x207a;" horiz-adv-x="239" 
d="M101 533v83h-70v35h70v83h36v-83h71v-35h-71v-83h-36z" />
    <glyph glyph-name="uni207B" unicode="&#x207b;" horiz-adv-x="239" 
d="M208 616h-177v35h177v-35z" />
    <glyph glyph-name="uni207C" unicode="&#x207c;" horiz-adv-x="239" 
d="M200 647h-164v35h164v-35zM200 577h-164v35h164v-35z" />
    <glyph glyph-name="uni207D" unicode="&#x207d;" horiz-adv-x="144" 
d="M35 572v123q0 80 24.5 116t77.5 36h13v-32h-13q-60 0 -60 -120v-123q0 -120 60 -120h13v-32h-13q-53 0 -77.5 36.5t-24.5 115.5z" />
    <glyph glyph-name="uni207E" unicode="&#x207e;" horiz-adv-x="144" 
d="M109 695v-123q0 -79 -25 -115.5t-78 -36.5h-12v33h12q61 0 61 119v123q0 119 -61 119h-12v33h12q54 0 78.5 -36t24.5 -116z" />
    <glyph glyph-name="uni207F" unicode="&#x207f;" horiz-adv-x="278" 
d="M42 479v248h43l3 -28h2q28 33 70 33q40 0 59.5 -24t19.5 -62v-167h-47v164q0 49 -45 49q-36 0 -56 -34v-179h-49z" />
    <glyph glyph-name="uni2080" unicode="&#x2080;" horiz-adv-x="278" 
d="M248 91v-102q0 -52 -28.5 -82t-80.5 -30t-81 30t-29 82v102q0 52 28.5 82.5t81.5 30.5q52 0 80.5 -30.5t28.5 -82.5zM81 91v-102q0 -70 58 -70t58 70v102q0 69 -58 69t-58 -69z" />
    <glyph glyph-name="uni2081" unicode="&#x2081;" horiz-adv-x="278" 
d="M146 202h42v-321h-54v228h-68v35h29q28 0 37.5 10.5t13.5 47.5z" />
    <glyph glyph-name="uni2082" unicode="&#x2082;" horiz-adv-x="278" 
d="M141 204q50 0 75.5 -24.5t25.5 -61.5q0 -36 -22 -65.5t-49 -46t-51.5 -39t-28.5 -45.5h155v-41h-210l-1 24q1 34 25.5 65t53 50t52.5 45t24 51q0 46 -52 46q-49 0 -64 -54l-41 14q11 36 38.5 59t69.5 23z" />
    <glyph glyph-name="uni2083" unicode="&#x2083;" horiz-adv-x="278" 
d="M104 26v38h25q55 0 55 50q0 49 -50 49q-47 0 -64 -47l-38 14q12 34 39.5 54t67.5 20q49 0 74 -24t25 -61q0 -54 -46 -71v-2q53 -12 53 -73q0 -47 -28 -71.5t-80 -24.5q-83 0 -108 69l38 15q20 -44 67 -44q56 0 56 59q0 28 -15 39t-45 11h-26z" />
    <glyph glyph-name="uni2084" unicode="&#x2084;" horiz-adv-x="278" 
d="M223 -119h-47v60h-156v34l153 225h50v-219h42l-5 -40h-37v-60zM76 -19h100l4 162h-2z" />
    <glyph glyph-name="uni2085" unicode="&#x2085;" horiz-adv-x="278" 
d="M73 24l-34 18l14 158h182l-3 -43h-138l-7 -88q30 14 63 14q97 0 97 -99q0 -107 -111 -107q-37 0 -65 18t-39 51l38 15q18 -44 63 -44q61 0 61 67q0 31 -14.5 45t-46.5 14q-36 0 -60 -19z" />
    <glyph glyph-name="uni2086" unicode="&#x2086;" horiz-adv-x="278" 
d="M146 204q72 0 95 -65l-34 -16q-17 39 -58 39q-65 0 -65 -73v-26h2q23 20 67 20q96 0 96 -96q0 -110 -109 -110q-50 0 -78.5 30t-28.5 86v91q0 53 30.5 86.5t82.5 33.5zM143 43q-22 0 -39.5 -8.5t-19.5 -21.5v-28q0 -32 15.5 -49t42.5 -17q57 0 57 67q0 57 -56 57z" />
    <glyph glyph-name="uni2087" unicode="&#x2087;" horiz-adv-x="278" 
d="M127 -119h-58l128 276h-168v43h221v-39z" />
    <glyph glyph-name="uni2088" unicode="&#x2088;" horiz-adv-x="278" 
d="M139 -123q-112 0 -112 97q0 59 50 75v2q-42 17 -42 68q0 85 104 85q103 0 103 -85q0 -51 -42 -67v-2q51 -16 51 -76q0 -97 -112 -97zM199 -24q0 53 -60 53q-61 0 -61 -53q0 -32 14.5 -45.5t46.5 -13.5t46 13t14 46zM139 164q-30 0 -42.5 -11.5t-12.5 -37.5t13 -38t42 -12
t42 12t13 38t-12.5 37.5t-42.5 11.5z" />
    <glyph glyph-name="uni2089" unicode="&#x2089;" horiz-adv-x="278" 
d="M34 -61l33 19q22 -40 66 -40q29 0 45.5 16t16.5 46v46h-2q-23 -20 -68 -20q-44 0 -69.5 24t-25.5 72t28.5 75t81.5 27q50 0 77.5 -28.5t27.5 -76.5v-117q0 -48 -30 -76.5t-79 -28.5q-76 0 -102 62zM134 45q21 0 40 8t21 23v28q0 59 -55 59q-60 0 -60 -59
q0 -32 13.5 -45.5t40.5 -13.5z" />
    <glyph glyph-name="uni208A" unicode="&#x208a;" horiz-adv-x="239" 
d="M101 -65v83h-70v35h70v83h36v-83h71v-35h-71v-83h-36z" />
    <glyph glyph-name="uni208B" unicode="&#x208b;" horiz-adv-x="239" 
d="M208 18h-177v35h177v-35z" />
    <glyph glyph-name="uni208C" unicode="&#x208c;" horiz-adv-x="239" 
d="M200 49h-164v35h164v-35zM200 -21h-164v35h164v-35z" />
    <glyph glyph-name="uni208D" unicode="&#x208d;" horiz-adv-x="144" 
d="M35 -26v123q0 80 24.5 116t77.5 36h13v-32h-13q-60 0 -60 -120v-123q0 -120 60 -120h13v-32h-13q-53 0 -77.5 36.5t-24.5 115.5z" />
    <glyph glyph-name="uni208E" unicode="&#x208e;" horiz-adv-x="144" 
d="M109 97v-123q0 -79 -25 -115.5t-78 -36.5h-12v33h12q61 0 61 119v123q0 119 -61 119h-12v33h12q54 0 78.5 -36t24.5 -116z" />
    <glyph glyph-name="franc" unicode="&#x20a3;" horiz-adv-x="524" 
d="M5 113v56h77v556h402v-72h-320v-251h275v-68h-275v-165h112v-56h-112v-113h-82v113h-77z" />
    <glyph glyph-name="lira" unicode="&#x20a4;" horiz-adv-x="560" 
d="M47 366l-7 48h65q-9 65 -9 93q0 108 53 168.5t150 60.5q74 0 128 -40t72 -106l-58 -23q-34 101 -139 101q-131 0 -131 -168q0 -37 7 -86h251l-8 -48h-237l6 -38h222l-8 -46h-208q9 -62 10 -84q29 -9 58 -32.5t48 -46.5t45 -41t52 -18q35 0 54 29t29 98l57 -14
q-24 -183 -137 -183q-36 0 -68.5 19t-52 42l-44 51.5t-42.5 40.5q-11 -153 -111 -153q-38 0 -60 23.5t-22 63.5q0 55 34 89t95 38l-14 78h-63l-7 46h62l-7 38h-65zM99 42q24 0 35 26t12 90q-76 -6 -76 -77q0 -19 8.5 -29t20.5 -10z" />
    <glyph glyph-name="peseta" unicode="&#x20a7;" horiz-adv-x="922" 
d="M200 725q74 0 114.5 -54t40.5 -159q0 -102 -40 -157t-113 -55h-76v-300h-68v725h142zM896 408l-43 -17q-18 70 -73 70q-60 0 -60 -77q0 -28 18.5 -50t44.5 -39.5t52 -37t44.5 -53.5t18.5 -79q0 -62 -32 -98.5t-87 -36.5q-101 0 -127 122l46 16q10 -48 29 -67.5t49 -19.5
q63 0 63 81q0 34 -18.5 60t-44.5 43.5l-52.5 36t-45 49t-18.5 71.5q0 59 31 96t85 37q95 0 120 -107zM608 505v-54h-94v-351q0 -56 49 -56q17 0 37 11l11 -41q-29 -22 -68 -22q-91 0 -91 109v348l-51 12v42l53 4l16 140h44v-142h94zM126 665v-309h73q88 0 88 156
q0 82 -22 117.5t-66 35.5h-73z" />
    <glyph glyph-name="Euro" unicode="&#x20ac;" horiz-adv-x="564" 
d="M305 735q75 0 131 -41.5t75 -105.5l-60 -24q-15 46 -51 73t-90 27q-73 0 -111.5 -46t-38.5 -129v-40h263l-13 -47h-250v-54h237l-12 -47h-225v-70q0 -78 39.5 -125.5t111.5 -47.5q59 0 92 25t49 84l62 -22q-39 -155 -208 -155q-104 0 -166.5 66.5t-62.5 173.5v71h-59v47
h59v54h-59v47h59v39q0 115 61 181t167 66z" />
    <glyph glyph-name="uni20B4" unicode="&#x20b4;" horiz-adv-x="542" 
d="M40 407v48h314q54 47 54 105q0 113 -123 113q-113 0 -168 -96l-57 27q70 131 228 131q92 0 140.5 -47t48.5 -123q0 -62 -46 -110h66v-48h-122q-17 -12 -38 -24.5l-47.5 -27.5l-40.5 -23h247v-48h-308q-51 -49 -51 -112q0 -56 38 -88t103 -32q118 0 170 110l53 -27
q-65 -145 -226 -145q-104 0 -156 48t-52 128q0 67 45 118h-73v48h125q10 7 124 75h-248z" />
    <glyph glyph-name="uni20B8" unicode="&#x20b8;" horiz-adv-x="484" 
d="M16 619h452v-57h-185v-562h-82v562h-185v57zM468 668h-452v57h452v-57z" />
    <glyph glyph-name="uni20BA" unicode="&#x20ba;" horiz-adv-x="494" 
d="M19 307v58l61 32v328h77v-296l183 103v-58l-183 -103v-56l183 103v-59l-183 -102v-187h119q59 0 93.5 26t50.5 86l58 -30q-37 -152 -201 -152h-197v224l-61 -32v58l61 32v57z" />
    <glyph glyph-name="uni20BD" unicode="&#x20bd;" horiz-adv-x="547" 
d="M182 0h-82v196h-77v59h77v49h-77v59h77v362h219q96 0 147.5 -54.5t51.5 -156.5q0 -99 -50.5 -154.5t-144.5 -55.5h-141v-49h198v-59h-198v-196zM182 663v-300h133q63 0 92 36.5t29 113.5q0 78 -29 114t-92 36h-133z" />
    <glyph glyph-name="afii61248" unicode="&#x2105;" horiz-adv-x="838" 
d="M199 735q49 0 86 -26t49 -65l-48 -20q-20 56 -83 56q-42 0 -64.5 -26t-22.5 -73v-145q0 -44 23 -70.5t64 -26.5q65 0 83 61l50 -17q-26 -95 -137 -95q-68 0 -109 40.5t-41 107.5v145q0 72 40 113t110 41zM789 288v-140q0 -71 -41.5 -112.5t-117.5 -41.5t-117.5 41.5
t-41.5 112.5v139q0 71 41.5 112.5t117.5 41.5t117.5 -41t41.5 -112zM723 148v139q0 99 -93 99t-93 -99v-139q0 -100 93 -100t93 100zM241 0h-49l390 725h49z" />
    <glyph glyph-name="afii61289" unicode="&#x2113;" horiz-adv-x="679" 
d="M175 258l-11 52q31 8 58 21q14 182 67.5 292t130.5 110q84 0 84 -116q0 -83 -62 -168t-160 -142q-2 -60 -2 -94q0 -91 12 -126.5t41 -35.5q26 0 50.5 33t42.5 85l51 -15q-18 -70 -62 -118t-95 -48q-53 0 -78 50.5t-25 167.5q0 46 1 68q-17 -8 -43 -16zM413 674
q-41 0 -77 -80t-50 -226l2 1q70 50 114.5 116t44.5 127q0 62 -34 62z" />
    <glyph glyph-name="afii61352" unicode="&#x2116;" horiz-adv-x="909" 
d="M83 725h66l319 -552h2v552h74v-725h-60l-325 564h-2v-564h-74v725zM855 622v-100q0 -51 -32.5 -81t-91.5 -30q-58 0 -90.5 30.5t-32.5 80.5v100q0 51 32.5 82t90.5 31q59 0 91.5 -30.5t32.5 -82.5zM662 619v-96q0 -29 17.5 -47t50.5 -18q70 0 70 66v97q0 67 -69 67
t-69 -69zM613 330v44h247v-44h-247z" />
    <glyph glyph-name="uni2117" unicode="&#x2117;" horiz-adv-x="706" 
d="M651 423v-124q0 -135 -80 -223.5t-218 -88.5t-218.5 88.5t-80.5 223.5v124q0 135 80.5 223.5t218.5 88.5t218 -88.5t80 -223.5zM601 300v122q0 117 -66.5 190.5t-181.5 73.5t-181.5 -73.5t-66.5 -190.5v-122q0 -117 66.5 -190.5t181.5 -73.5t181.5 73.5t66.5 190.5z
M371 611q74 0 112.5 -38.5t38.5 -110.5t-38.5 -111t-110.5 -39h-92v-198h-60v497h150zM281 562v-203h89q48 0 70.5 25t22.5 77t-22.5 76.5t-70.5 24.5h-89z" />
    <glyph glyph-name="uni2120" unicode="&#x2120;" horiz-adv-x="597" 
d="M516 725h48v-313h-46v216h-2l-83 -163h-22l-82 163h-2v-216h-47v313h48l93 -192h2zM232 665l-37 -15q-19 42 -62 42q-25 0 -38.5 -11.5t-13.5 -29.5q0 -19 15.5 -31.5t38 -21t45 -19t38 -31t15.5 -49.5q0 -41 -28.5 -66.5t-73.5 -25.5q-79 0 -108 70l36 17q21 -48 70 -48
q52 0 52 48q0 19 -15.5 32.5t-38 22t-45 18.5t-38 30t-15.5 49q0 37 27.5 62t75.5 25q75 0 100 -68z" />
    <glyph glyph-name="trademark" unicode="&#x2122;" horiz-adv-x="575" 
d="M494 725h48v-313h-46v216h-2l-82 -163h-22l-82 163h-2v-216h-47v313h47l93 -192h2zM15 725h206v-44h-78v-269h-51v269h-77v44z" />
    <glyph glyph-name="Omega" unicode="&#x2126;" horiz-adv-x="602" 
d="M301 735q117 0 179 -58.5t62 -164.5v-136q0 -152 -144 -198v-108h140v-70h-199v226q63 13 92 48.5t29 99.5v136q0 74 -41.5 115t-117.5 41t-118 -41t-42 -115v-136q0 -64 29 -99.5t93 -48.5v-226h-200v70h140v108q-144 46 -144 198v136q0 106 62.5 164.5t179.5 58.5z" />
    <glyph glyph-name="estimated" unicode="&#x212e;" horiz-adv-x="787" 
d="M738 353h-596v-100q0 -86 73.5 -155.5t193.5 -69.5q160 0 260 126l36 -27q-105 -140 -300 -140q-156 0 -256 102t-100 246q0 149 97 249.5t248 100.5q149 0 240 -91.5t104 -240.5zM142 440v-41h502v41q0 86 -68.5 146t-181.5 60q-110 0 -181 -64t-71 -142z" />
    <glyph glyph-name="uni2150" unicode="&#x2150;" horiz-adv-x="575" 
d="M146 727h42v-321h-54v228h-68v35h29q28 0 37.5 10.5t13.5 47.5zM115 0h-55l390 725h56zM424 0h-58l128 276h-168v43h221v-39z" />
    <glyph glyph-name="uni2151" unicode="&#x2151;" horiz-adv-x="575" 
d="M146 727h42v-321h-54v228h-68v35h29q28 0 37.5 10.5t13.5 47.5zM115 0h-55l390 725h56zM331 58l33 19q22 -40 66 -40q29 0 45.5 16t16.5 46v46h-2q-23 -20 -68 -20q-44 0 -69.5 24t-25.5 72t28.5 75t81.5 27q50 0 77.5 -28.5t27.5 -76.5v-117q0 -48 -30 -76.5t-79 -28.5
q-76 0 -102 62zM431 164q21 0 40 8t21 23v28q0 59 -55 59q-60 0 -60 -59q0 -32 13.5 -45.5t40.5 -13.5z" />
    <glyph glyph-name="uni2152" unicode="&#x2152;" horiz-adv-x="853" 
d="M146 727h42v-321h-54v228h-68v35h29q28 0 37.5 10.5t13.5 47.5zM115 0h-55l390 725h56zM443 321h42v-321h-54v228h-68v35h29q28 0 37.5 10.5t13.5 47.5zM823 210v-102q0 -52 -28.5 -82t-80.5 -30t-81 30t-29 82v102q0 52 28.5 82.5t81.5 30.5q52 0 80.5 -30.5t28.5 -82.5
zM656 210v-102q0 -70 58 -70t58 70v102q0 69 -58 69t-58 -69z" />
    <glyph glyph-name="onethird" unicode="&#x2153;" horiz-adv-x="575" 
d="M146 727h42v-321h-54v228h-68v35h29q28 0 37.5 10.5t13.5 47.5zM115 0h-55l390 725h56zM401 145v38h25q55 0 55 50q0 49 -50 49q-47 0 -64 -47l-38 14q12 34 39.5 54t67.5 20q49 0 74 -24t25 -61q0 -54 -46 -71v-2q53 -12 53 -73q0 -47 -28 -71.5t-80 -24.5
q-83 0 -108 69l38 15q20 -44 67 -44q56 0 56 59q0 28 -15 39t-45 11h-26z" />
    <glyph glyph-name="twothirds" unicode="&#x2154;" horiz-adv-x="575" 
d="M141 729q50 0 75.5 -24.5t25.5 -61.5q0 -36 -22 -65.5t-49 -46t-51.5 -39t-28.5 -45.5h155v-41h-210l-1 24q1 34 25.5 65t53 50t52.5 45t24 51q0 46 -52 46q-49 0 -64 -54l-41 14q11 36 38.5 59t69.5 23zM115 0h-55l390 725h56zM401 145v38h25q55 0 55 50q0 49 -50 49
q-47 0 -64 -47l-38 14q12 34 39.5 54t67.5 20q49 0 74 -24t25 -61q0 -54 -46 -71v-2q53 -12 53 -73q0 -47 -28 -71.5t-80 -24.5q-83 0 -108 69l38 15q20 -44 67 -44q56 0 56 59q0 28 -15 39t-45 11h-26z" />
    <glyph glyph-name="uni2155" unicode="&#x2155;" horiz-adv-x="575" 
d="M146 727h42v-321h-54v228h-68v35h29q28 0 37.5 10.5t13.5 47.5zM115 0h-55l390 725h56zM370 143l-34 18l14 158h182l-3 -43h-138l-7 -88q30 14 63 14q97 0 97 -99q0 -107 -111 -107q-37 0 -65 18t-39 51l38 15q18 -44 63 -44q61 0 61 67q0 31 -14.5 45t-46.5 14
q-36 0 -60 -19z" />
    <glyph glyph-name="uni2156" unicode="&#x2156;" horiz-adv-x="575" 
d="M141 729q50 0 75.5 -24.5t25.5 -61.5q0 -36 -22 -65.5t-49 -46t-51.5 -39t-28.5 -45.5h155v-41h-210l-1 24q1 34 25.5 65t53 50t52.5 45t24 51q0 46 -52 46q-49 0 -64 -54l-41 14q11 36 38.5 59t69.5 23zM115 0h-55l390 725h56zM370 143l-34 18l14 158h182l-3 -43h-138
l-7 -88q30 14 63 14q97 0 97 -99q0 -107 -111 -107q-37 0 -65 18t-39 51l38 15q18 -44 63 -44q61 0 61 67q0 31 -14.5 45t-46.5 14q-36 0 -60 -19z" />
    <glyph glyph-name="uni2157" unicode="&#x2157;" horiz-adv-x="575" 
d="M104 551v38h25q55 0 55 50q0 49 -50 49q-47 0 -64 -47l-38 14q12 34 39.5 54t67.5 20q49 0 74 -24t25 -61q0 -54 -46 -71v-2q53 -12 53 -73q0 -47 -28 -71.5t-80 -24.5q-83 0 -108 69l38 15q20 -44 67 -44q56 0 56 59q0 28 -15 39t-45 11h-26zM115 0h-55l390 725h56z
M370 143l-34 18l14 158h182l-3 -43h-138l-7 -88q30 14 63 14q97 0 97 -99q0 -107 -111 -107q-37 0 -65 18t-39 51l38 15q18 -44 63 -44q61 0 61 67q0 31 -14.5 45t-46.5 14q-36 0 -60 -19z" />
    <glyph glyph-name="uni2158" unicode="&#x2158;" horiz-adv-x="575" 
d="M223 406h-47v60h-156v34l153 225h50v-219h42l-5 -40h-37v-60zM76 506h100l4 162h-2zM115 0h-55l390 725h56zM370 143l-34 18l14 158h182l-3 -43h-138l-7 -88q30 14 63 14q97 0 97 -99q0 -107 -111 -107q-37 0 -65 18t-39 51l38 15q18 -44 63 -44q61 0 61 67
q0 31 -14.5 45t-46.5 14q-36 0 -60 -19z" />
    <glyph glyph-name="uni2159" unicode="&#x2159;" horiz-adv-x="575" 
d="M146 727h42v-321h-54v228h-68v35h29q28 0 37.5 10.5t13.5 47.5zM115 0h-55l390 725h56zM443 323q72 0 95 -65l-34 -16q-17 39 -58 39q-65 0 -65 -73v-26h2q23 20 67 20q96 0 96 -96q0 -110 -109 -110q-50 0 -78.5 30t-28.5 86v91q0 53 30.5 86.5t82.5 33.5zM440 162
q-22 0 -39.5 -8.5t-19.5 -21.5v-28q0 -32 15.5 -49t42.5 -17q57 0 57 67q0 57 -56 57z" />
    <glyph glyph-name="uni215A" unicode="&#x215a;" horiz-adv-x="575" 
d="M73 549l-34 18l14 158h182l-3 -43h-138l-7 -88q30 14 63 14q97 0 97 -99q0 -107 -111 -107q-37 0 -65 18t-39 51l38 15q18 -44 63 -44q61 0 61 67q0 31 -14.5 45t-46.5 14q-36 0 -60 -19zM115 0h-55l390 725h56zM443 323q72 0 95 -65l-34 -16q-17 39 -58 39
q-65 0 -65 -73v-26h2q23 20 67 20q96 0 96 -96q0 -110 -109 -110q-50 0 -78.5 30t-28.5 86v91q0 53 30.5 86.5t82.5 33.5zM440 162q-22 0 -39.5 -8.5t-19.5 -21.5v-28q0 -32 15.5 -49t42.5 -17q57 0 57 67q0 57 -56 57z" />
    <glyph glyph-name="oneeighth" unicode="&#x215b;" horiz-adv-x="575" 
d="M146 727h42v-321h-54v228h-68v35h29q28 0 37.5 10.5t13.5 47.5zM115 0h-55l390 725h56zM436 -4q-112 0 -112 97q0 59 50 75v2q-42 17 -42 68q0 85 104 85q103 0 103 -85q0 -50 -42 -67v-2q51 -16 51 -76q0 -97 -112 -97zM496 95q0 53 -60 53q-61 0 -61 -53
q0 -32 14.5 -45.5t46.5 -13.5t46 13t14 46zM436 283q-30 0 -42.5 -11.5t-12.5 -37.5t13 -38t42 -12t42 12t13 38t-12.5 37.5t-42.5 11.5z" />
    <glyph glyph-name="threeeighths" unicode="&#x215c;" horiz-adv-x="575" 
d="M104 551v38h25q55 0 55 50q0 49 -50 49q-47 0 -64 -47l-38 14q12 34 39.5 54t67.5 20q49 0 74 -24t25 -61q0 -54 -46 -71v-2q53 -12 53 -73q0 -47 -28 -71.5t-80 -24.5q-83 0 -108 69l38 15q20 -44 67 -44q56 0 56 59q0 28 -15 39t-45 11h-26zM115 0h-55l390 725h56z
M436 -4q-112 0 -112 97q0 59 50 75v2q-42 17 -42 68q0 85 104 85q103 0 103 -85q0 -50 -42 -67v-2q51 -16 51 -76q0 -97 -112 -97zM496 95q0 53 -60 53q-61 0 -61 -53q0 -32 14.5 -45.5t46.5 -13.5t46 13t14 46zM436 283q-30 0 -42.5 -11.5t-12.5 -37.5t13 -38t42 -12t42 12
t13 38t-12.5 37.5t-42.5 11.5z" />
    <glyph glyph-name="fiveeighths" unicode="&#x215d;" horiz-adv-x="575" 
d="M73 549l-34 18l14 158h182l-3 -43h-138l-7 -88q30 14 63 14q97 0 97 -99q0 -107 -111 -107q-37 0 -65 18t-39 51l38 15q18 -44 63 -44q61 0 61 67q0 31 -14.5 45t-46.5 14q-36 0 -60 -19zM115 0h-55l390 725h56zM436 -4q-112 0 -112 97q0 59 50 75v2q-42 17 -42 68
q0 85 104 85q103 0 103 -85q0 -50 -42 -67v-2q51 -16 51 -76q0 -97 -112 -97zM496 95q0 53 -60 53q-61 0 -61 -53q0 -32 14.5 -45.5t46.5 -13.5t46 13t14 46zM436 283q-30 0 -42.5 -11.5t-12.5 -37.5t13 -38t42 -12t42 12t13 38t-12.5 37.5t-42.5 11.5z" />
    <glyph glyph-name="seveneighths" unicode="&#x215e;" horiz-adv-x="575" 
d="M127 406h-58l128 276h-168v43h221v-39zM115 0h-55l390 725h56zM436 -4q-112 0 -112 97q0 59 50 75v2q-42 17 -42 68q0 85 104 85q103 0 103 -85q0 -50 -42 -67v-2q51 -16 51 -76q0 -97 -112 -97zM496 95q0 53 -60 53q-61 0 -61 -53q0 -32 14.5 -45.5t46.5 -13.5t46 13
t14 46zM436 283q-30 0 -42.5 -11.5t-12.5 -37.5t13 -38t42 -12t42 12t13 38t-12.5 37.5t-42.5 11.5z" />
    <glyph glyph-name="uni215F" unicode="&#x215f;" horiz-adv-x="297" 
d="M146 727h42v-321h-54v228h-68v35h29q28 0 37.5 10.5t13.5 47.5zM115 0h-55l390 725h56z" />
    <glyph glyph-name="uni2189" unicode="&#x2189;" horiz-adv-x="575" 
d="M248 616v-102q0 -52 -28.5 -82t-80.5 -30t-81 30t-29 82v102q0 52 28.5 82.5t81.5 30.5q52 0 80.5 -30.5t28.5 -82.5zM81 616v-102q0 -70 58 -70t58 70v102q0 69 -58 69t-58 -69zM401 145v38h25q55 0 55 50q0 49 -50 49q-47 0 -64 -47l-38 14q12 34 39.5 54t67.5 20
q49 0 74 -24t25 -61q0 -54 -46 -71v-2q53 -12 53 -73q0 -47 -28 -71.5t-80 -24.5q-83 0 -108 69l38 15q20 -44 67 -44q56 0 56 59q0 28 -15 39t-45 11h-26zM115 0h-55l390 725h56z" />
    <glyph glyph-name="partialdiff" unicode="&#x2202;" horiz-adv-x="483" 
d="M268 513q85 0 122 -51h2q1 11 1 31q0 79 -39.5 128t-131.5 67l20 48q115 -18 163.5 -80.5t48.5 -165.5q0 -50 -9 -107l-33 -207q-14 -84 -74.5 -134.5t-152.5 -50.5q-79 0 -119.5 37.5t-40.5 102.5q0 19 4 40l27 162q14 81 70.5 130.5t141.5 49.5zM338 173l27 158
q3 18 3 34q0 90 -98 90q-59 0 -96 -33t-46 -91l-26 -158q-3 -18 -3 -35q0 -89 97 -89q59 0 95.5 33t46.5 91z" />
    <glyph glyph-name="Delta" unicode="&#x2206;" horiz-adv-x="605" 
d="M13 0l256 725h68l255 -725h-579zM302 628l-184 -560h368l-182 560h-2z" />
    <glyph glyph-name="product" unicode="&#x220f;" horiz-adv-x="616" 
d="M32 725h552v-72h-70v-727h-76v728h-260v-728h-76v727h-70v72z" />
    <glyph glyph-name="summation" unicode="&#x2211;" horiz-adv-x="556" 
d="M34 725h486v-72h-372v-2l218 -311l-220 -342v-2h385v-70h-497v35l244 379l-244 347v38z" />
    <glyph glyph-name="minus" unicode="&#x2212;" horiz-adv-x="478" 
d="M423 283h-368v57h368v-57z" />
    <glyph glyph-name="uni2219" unicode="&#x2219;" horiz-adv-x="478" 
d="M121 309q0 55 34 92.5t83 37.5q50 0 84 -37.5t34 -92.5q0 -53 -34.5 -90.5t-83.5 -37.5t-83 37.5t-34 90.5z" />
    <glyph glyph-name="radical" unicode="&#x221a;" horiz-adv-x="577" 
d="M570 749l-246 -749h-84l-148 434l-81 13v57h147l124 -408h2l196 653h90z" />
    <glyph glyph-name="infinity" unicode="&#x221e;" horiz-adv-x="570" 
d="M529 289q0 -71 -29.5 -107.5t-76.5 -36.5q-39 0 -67.5 22.5t-70.5 75.5q-42 -52 -71 -75t-67 -23q-47 0 -76.5 36.5t-29.5 107.5t29.5 107.5t76.5 36.5q38 0 66.5 -23t71.5 -76q42 54 70.5 76.5t67.5 22.5q47 0 76.5 -36.5t29.5 -107.5zM255 289l-14 17.5l-13 16.5
t-11.5 13.5l-11 12.5t-10 9.5t-10.5 8t-10 5.5t-11.5 4t-11.5 1q-57 0 -57 -88t57 -88q6 0 11.5 1t11.5 4t10 5.5t10.5 8t10 9.5l11 12.5t11.5 13.5l13 16.5zM315 289l14 -17.5l13 -16.5t11.5 -13.5l11 -12.5t10 -9.5t10.5 -8t10 -5.5t11.5 -4t11.5 -1q57 0 57 88t-57 88
q-6 0 -11.5 -1t-11.5 -4t-10 -5.5t-10.5 -8t-10 -9.5l-11 -12.5t-11.5 -13.5l-13 -16.5z" />
    <glyph glyph-name="integral" unicode="&#x222b;" horiz-adv-x="213" 
d="M252 835l7 -58q-107 -12 -107 -138v-612q0 -185 -173 -197l-7 58q107 13 107 138v613q0 184 173 196z" />
    <glyph glyph-name="approxequal" unicode="&#x2248;" horiz-adv-x="478" 
d="M416 414v-58q-47 -26 -92 -26q-32 0 -89 18.5t-88 18.5q-43 0 -85 -26v58q47 26 92 26q34 0 92 -19t87 -19q43 0 83 27zM416 274v-58q-47 -26 -92 -26q-32 0 -89 18.5t-88 18.5q-43 0 -85 -26v58q47 26 92 26q34 0 92 -19t87 -19q43 0 83 27z" />
    <glyph glyph-name="notequal" unicode="&#x2260;" horiz-adv-x="478" 
d="M368 491l-48 -88h96v-59h-128l-43 -81h171v-58h-203l-61 -114l-39 23l49 91h-100v58h131l44 81h-175v59h207l60 111z" />
    <glyph glyph-name="lessequal" unicode="&#x2264;" horiz-adv-x="478" 
d="M395 465l-227 -135l228 -134v-73l-335 202v10l334 206v-76zM68 33v56h328v-56h-328z" />
    <glyph glyph-name="greaterequal" unicode="&#x2265;" horiz-adv-x="478" 
d="M82 196l228 134l-227 135v76l334 -206v-10l-335 -202v73zM410 89v-56h-328v56h328z" />
    <glyph glyph-name="dotmath" unicode="&#x22c5;" horiz-adv-x="478" 
d="M183 318q0 25 16 42.5t39 17.5t40 -17.5t17 -42.5t-17 -42t-40 -17t-39 17t-16 42z" />
    <glyph glyph-name="lozenge" unicode="&#x25ca;" horiz-adv-x="423" 
d="M42 364l169 361l170 -361l-170 -364zM107 361l104 -222l105 222l-105 225z" />
    <glyph glyph-name="uni2E18" unicode="&#x2e18;" horiz-adv-x="512" 
d="M426 71l60 -20q-26 -71 -87.5 -116.5t-145.5 -45.5q-106 0 -158 52.5t-52 128.5q0 77 48 137.5t137 98.5l5 113h56l6 -178v-287q92 19 131 117zM116 72q0 -48 27 -81.5t87 -39.5v296q-114 -64 -114 -175zM310 625v-100h-94v100h94z" />
    <glyph glyph-name="uniFB00" unicode="&#xfb00;" horiz-adv-x="600" 
d="M581 504v-54h-135v-450h-73v450h-210v-450h-73v450h-68v54h68v41q0 81 47.5 130.5t149.5 53.5l4 -52q-131 -5 -131 -133v-40h213v41q0 81 47.5 130.5t149.5 53.5l4 -52q-131 -5 -131 -133v-40h138z" />
    <glyph glyph-name="fi" unicode="&#xfb01;" horiz-adv-x="522" 
d="M287 729l4 -52q-131 -5 -131 -133v-40h283v-504h-73v450h-207v-450h-73v450h-68v54h68v41q0 81 47.5 130.5t149.5 53.5zM371 725h69v-102h-69v102z" />
    <glyph glyph-name="fl" unicode="&#xfb02;" horiz-adv-x="528" 
d="M292 504v-55h-129v-449h-73v449h-68v55h68v41q0 184 220 184h62v20h74v-749h-74v677h-60q-81 0 -116.5 -32.5t-35.5 -100.5v-40h132z" />
    <glyph glyph-name="uniFB03" unicode="&#xfb03;" horiz-adv-x="802" 
d="M567 729l4 -52q-131 -5 -131 -133v-40h283v-504h-73v450h-207v-450h-73v450h-207v-450h-73v450h-68v54h68v41q0 81 47.5 130.5t149.5 53.5l4 -52q-131 -5 -131 -133v-40h210v41q0 81 47.5 130.5t149.5 53.5zM651 725h69v-102h-69v102z" />
    <glyph glyph-name="uniFB04" unicode="&#xfb04;" horiz-adv-x="807" 
d="M370 504v41q0 184 220 184h62v20h74v-749h-74v677h-60q-81 0 -116.5 -32.5t-35.5 -100.5v-40h132v-54h-129v-450h-73v450h-207v-450h-73v450h-68v54h68v41q0 81 47.5 130.5t149.5 53.5l4 -52q-131 -5 -131 -133v-40h210z" />
    <glyph glyph-name="uniFEFF" unicode="&#xfeff;" horiz-adv-x="0" 
 />
    <glyph glyph-name="caron.alt001" horiz-adv-x="273" 
d="M127 725h68l-52 -136h-41z" />
    <glyph glyph-name="ogonek.alt001" horiz-adv-x="273" 
d="M144 15l38 -15q-34 0 -53 -22t-19 -52q0 -41 47 -41q42 0 74 22l16 -41q-41 -31 -99 -31q-48 0 -74 20t-26 56q0 34 25 63.5t71 40.5z" />
    <glyph glyph-name="uni030C.alt001" horiz-adv-x="1" 
d="M-53 725h86l-70 -152h-56z" />
    <glyph glyph-name="i.latn_TRK" horiz-adv-x="230" 
d="M78 504h73v-504h-73v504zM79 725h71v-102h-71v102z" />
    <glyph glyph-name="Ldot.latn_CAT" horiz-adv-x="484" 
d="M340 461h66v-100h-66v100zM83 725h80v-653h296v-72h-376v725z" />
    <glyph glyph-name="ldot.latn_CAT" horiz-adv-x="251" 
d="M218 436h50v-112h-50v112zM81 749h74v-749h-74v749z" />
    <glyph glyph-name="afii10066.cyrl_SRB" horiz-adv-x="481" 
d="M431 333v-163q0 -85 -50 -132t-141 -47t-141 48t-50 129v161q0 130 117 165v2q-39 16 -60 39.5t-21 65.5q0 108 158 117l141 8l6 -58q-25 -5 -110 -7q-74 -3 -99.5 -17.5t-25.5 -42.5q0 -23 20.5 -40t51 -26t66.5 -24.5t66.5 -33.5t51 -55.5t20.5 -88.5zM358 329
q0 60 -32.5 90.5t-91.5 50.5q-112 -24 -112 -138v-162q0 -57 29.5 -89t88.5 -32q56 0 87 30.5t31 90.5v159z" />
    <glyph glyph-name="numbersign.subs" horiz-adv-x="281" 
d="M20 78v31h58l9 94h35l-9 -94h67l8 94h35l-9 -94h46v-31h-46l-6 -73h52v-31h-53l-8 -93h-35l8 93h-67l-8 -93h-35l8 93h-50v31h52l6 73h-58zM113 78l-6 -73h66l6 73h-66z" />
    <glyph glyph-name="dollar.subs" horiz-adv-x="253" 
d="M121 253h31l1 -52q56 -12 76 -64l-33 -13q-14 30 -46 38l-8 -100q28 -10 44.5 -18.5t31.5 -28t15 -46.5q0 -40 -26 -64.5t-70 -27.5l-5 -46h-30l-1 47q-66 9 -86 72l35 15q14 -39 53 -48l7 107q-22 8 -34 13.5t-27.5 16t-22.5 26t-7 36.5q0 37 26 61.5t70 26.5zM191 -37
q0 32 -51 51l-3 -99q54 5 54 48zM64 121q0 -29 48 -49l2 92q-50 -4 -50 -43z" />
    <glyph glyph-name="comma.subs" horiz-adv-x="141" 
d="M39 -118v68h63v-51q0 -52 -14.5 -77t-46.5 -30l-4 26q33 10 33 64h-31z" />
    <glyph glyph-name="period.subs" horiz-adv-x="141" 
d="M39 -119v69h63v-69h-63z" />
    <glyph glyph-name="n.subs" horiz-adv-x="278" 
d="M42 -119v248h43l3 -28h2q28 33 70 33q40 0 59.5 -24t19.5 -62v-167h-47v164q0 49 -45 49q-36 0 -56 -34v-179h-49z" />
    <glyph glyph-name="cent.subs" horiz-adv-x="248" 
d="M235 135l-35 -14q-15 43 -60 43q-62 0 -62 -70v-109q0 -71 61 -71q45 0 61 48l36 -14q-21 -63 -81 -70l-6 -47h-32v47q-44 5 -67 34t-23 73v112q0 44 23.5 73t68.5 33l7 50h32l2 -52q51 -10 75 -66z" />
    <glyph glyph-name="sterling.subs" horiz-adv-x="284" 
d="M25 25l-6 34h34q-5 30 -5 45q0 47 27.5 75.5t77.5 28.5q38 0 66.5 -19t38.5 -49l-37 -16q-17 42 -65 42q-59 0 -59 -68q0 -19 4 -39h115l-5 -34h-105q6 -37 7 -47q17 -6 45.5 -31.5t47.5 -25.5q16 0 25 11.5t14 38.5l36 -10q-15 -85 -73 -85q-21 0 -36.5 9t-37.5 32.5
t-23 24.5q-6 -66 -60 -66q-21 0 -33 12t-12 33q0 25 17 41.5t48 18.5l-11 44h-35zM55 -91q20 0 21 45q-33 -2 -33 -30q0 -15 12 -15z" />
    <glyph glyph-name="currency.subs" horiz-adv-x="199" 
d="M40 48q0 20 9 33l-21 24l18 20l22 -24q14 9 32 9q17 0 32 -10l24 25l17 -19l-23 -25q10 -15 10 -33q0 -17 -10 -34l23 -23l-19 -20l-23 24q-13 -9 -31 -9t-32 9l-23 -24l-18 19l22 24q-9 15 -9 34zM70 48q0 -14 8.5 -23t21.5 -9t21.5 9t8.5 23t-8.5 23t-21.5 9t-21.5 -9
t-8.5 -23z" />
    <glyph glyph-name="yen.subs" horiz-adv-x="310" 
d="M250 -53h-65v-66h-54v66h-71v32h71v20h-71v31h61v2l-103 171h61l78 -153h2l77 153h62l-104 -171v-2h56v-31h-65v-20h65v-32z" />
    <glyph glyph-name="franc.subs" horiz-adv-x="269" 
d="M2 -72v32h36v243h212v-44h-158v-96h135v-41h-135v-62h53v-32h-53v-47h-54v47h-36z" />
    <glyph glyph-name="lira.subs" horiz-adv-x="284" 
d="M25 45l-5 26h31q-3 18 -3 33q0 47 27.5 75.5t77.5 28.5q38 0 66.5 -19t38.5 -49l-37 -16q-17 42 -65 42q-59 0 -59 -68q0 -17 2 -27h120l-5 -26h-111l2 -15h106l-5 -26h-97q4 -26 4 -32q17 -5 45.5 -28t47.5 -23q16 0 25 11.5t14 38.5l36 -10q-15 -85 -73 -85
q-21 0 -37.5 9.5t-36 30.5t-24.5 25q-6 -65 -59 -65q-21 0 -33 11.5t-12 31.5q0 25 17.5 40.5t49.5 16.5l-8 28h-32l-4 26h30l-3 15h-31zM54 -93q20 0 21 45q-33 -2 -33 -30q0 -15 12 -15z" />
    <glyph glyph-name="peseta.subs" horiz-adv-x="461" 
d="M103 203q78 0 78 -98q0 -47 -20 -72.5t-56 -25.5h-36v-126h-43v322h77zM449 62l-25 -12q-10 29 -33 29q-25 0 -25 -29q0 -13 13 -24.5t29 -19t29 -25t13 -41.5q0 -30 -16 -47t-45 -17q-50 0 -65 56l27 10q9 -35 36 -35t27 31q0 16 -13.5 28t-29.5 19.5t-29.5 24
t-13.5 39.5q0 28 16 45t44 17q47 0 61 -49zM305 106v-32h-42v-141q0 -25 22 -25q7 0 17 4l5 -25q-17 -10 -35 -10q-49 0 -49 57v139l-22 6v27l25 1l9 62h28v-63h42zM69 167v-126h33q36 0 36 64q0 62 -36 62h-33z" />
    <glyph glyph-name="Euro.subs" horiz-adv-x="286" 
d="M154 208q39 0 68.5 -19.5t39.5 -49.5l-38 -16q-16 41 -65 41q-33 0 -51 -19.5t-18 -55.5v-7h129l-7 -25h-122v-21h116l-6 -26h-110v-18q0 -34 18 -54t51 -20q49 0 65 44l39 -15q-21 -71 -108 -71q-54 0 -87 32t-33 84v18h-27v26h27v21h-27v25h27v7q0 55 32 87t87 32z" />
    <glyph glyph-name="numbersign.sups" horiz-adv-x="281" 
d="M20 676v31h58l9 94h35l-9 -94h67l8 94h35l-9 -94h46v-31h-46l-6 -73h52v-31h-53l-8 -93h-35l8 93h-67l-8 -93h-35l8 93h-50v31h52l6 73h-58zM113 676l-6 -73h66l6 73h-66z" />
    <glyph glyph-name="dollar.sups" horiz-adv-x="253" 
d="M121 851h31l1 -52q56 -12 76 -64l-33 -13q-14 30 -46 38l-8 -100q28 -10 44.5 -18.5t31.5 -28t15 -46.5q0 -40 -26 -64.5t-70 -27.5l-5 -46h-30l-1 47q-66 9 -86 72l35 15q14 -39 53 -48l7 107q-22 8 -34 13.5t-27.5 16t-22.5 26t-7 36.5q0 37 26 61.5t70 26.5zM191 561
q0 32 -51 51l-3 -99q54 5 54 48zM64 719q0 -29 48 -49l2 92q-50 -4 -50 -43z" />
    <glyph glyph-name="comma.sups" horiz-adv-x="141" 
d="M39 480v68h63v-51q0 -52 -14.5 -77t-46.5 -30l-4 26q33 10 33 64h-31z" />
    <glyph glyph-name="period.sups" horiz-adv-x="141" 
d="M39 479v69h63v-69h-63z" />
    <glyph glyph-name="cent.sups" horiz-adv-x="248" 
d="M235 733l-35 -14q-15 43 -60 43q-62 0 -62 -70v-109q0 -71 61 -71q45 0 61 48l36 -14q-21 -63 -81 -70l-6 -47h-32v47q-44 5 -67 34t-23 73v112q0 44 23.5 73t68.5 33l7 50h32l2 -52q51 -10 75 -66z" />
    <glyph glyph-name="sterling.sups" horiz-adv-x="284" 
d="M25 623l-6 34h34q-5 30 -5 45q0 47 27.5 75.5t77.5 28.5q38 0 66.5 -19t38.5 -49l-37 -16q-17 42 -65 42q-59 0 -59 -68q0 -19 4 -39h115l-5 -34h-105q6 -37 7 -47q17 -6 45.5 -31.5t47.5 -25.5q16 0 25 11.5t14 38.5l36 -10q-15 -85 -73 -85q-21 0 -36.5 9t-37.5 32.5
t-23 24.5q-6 -66 -60 -66q-21 0 -33 12t-12 33q0 25 17 41.5t48 18.5l-11 44h-35zM55 507q20 0 21 45q-33 -2 -33 -30q0 -15 12 -15z" />
    <glyph glyph-name="currency.sups" horiz-adv-x="199" 
d="M40 646q0 20 9 33l-21 24l18 20l22 -24q13 9 32 9q17 0 32 -10l24 25l17 -19l-23 -25q10 -15 10 -33q0 -17 -10 -34l23 -23l-19 -20l-23 24q-13 -9 -31 -9t-32 9l-23 -24l-18 19l22 24q-9 15 -9 34zM70 646q0 -14 8.5 -23t21.5 -9t21.5 9t8.5 23t-8.5 23t-21.5 9
t-21.5 -9t-8.5 -23z" />
    <glyph glyph-name="yen.sups" horiz-adv-x="310" 
d="M250 545h-65v-66h-54v66h-71v32h71v20h-71v31h61v2l-103 171h61l78 -153h2l77 153h62l-104 -171v-2h56v-31h-65v-20h65v-32z" />
    <glyph glyph-name="franc.sups" horiz-adv-x="269" 
d="M2 526v32h36v243h212v-44h-158v-96h135v-41h-135v-62h53v-32h-53v-47h-54v47h-36z" />
    <glyph glyph-name="lira.sups" horiz-adv-x="284" 
d="M25 643l-5 26h31q-3 18 -3 33q0 47 27.5 75.5t77.5 28.5q38 0 66.5 -19t38.5 -49l-37 -16q-17 42 -65 42q-59 0 -59 -68q0 -17 2 -27h120l-5 -26h-111l2 -15h106l-5 -26h-97q4 -26 4 -32q17 -5 45.5 -28t47.5 -23q16 0 25 11.5t14 38.5l36 -10q-15 -85 -73 -85
q-21 0 -37.5 9.5t-36 30.5t-24.5 25q-6 -65 -59 -65q-21 0 -33 11.5t-12 31.5q0 25 17.5 40.5t49.5 16.5l-8 28h-32l-4 26h30l-3 15h-31zM54 505q20 0 21 45q-33 -2 -33 -30q0 -15 12 -15z" />
    <glyph glyph-name="peseta.sups" horiz-adv-x="461" 
d="M103 801q78 0 78 -98q0 -47 -20 -72.5t-56 -25.5h-36v-126h-43v322h77zM449 660l-25 -12q-10 29 -33 29q-25 0 -25 -29q0 -13 13 -24.5t29 -19t29 -25t13 -41.5q0 -30 -16 -47t-45 -17q-50 0 -65 56l27 10q9 -35 36 -35t27 31q0 16 -13.5 28t-29.5 19.5t-29.5 24
t-13.5 39.5q0 28 16 45t44 17q47 0 61 -49zM305 704v-32h-42v-141q0 -25 22 -25q7 0 17 4l5 -25q-17 -10 -35 -10q-49 0 -49 57v139l-22 6v27l25 1l9 62h28v-63h42zM69 765v-126h33q36 0 36 64q0 62 -36 62h-33z" />
    <glyph glyph-name="Euro.sups" horiz-adv-x="286" 
d="M154 806q39 0 68.5 -19.5t39.5 -49.5l-38 -16q-16 41 -65 41q-33 0 -51 -19.5t-18 -55.5v-7h129l-7 -25h-122v-21h116l-6 -26h-110v-18q0 -34 18 -54t51 -20q49 0 65 44l39 -15q-21 -71 -108 -71q-54 0 -87 32t-33 84v18h-27v26h27v21h-27v25h27v7q0 55 32 87t87 32z" />
    <glyph glyph-name="numbersign.numr" horiz-adv-x="281" 
d="M20 603v31h58l9 94h35l-9 -94h67l8 94h35l-9 -94h46v-31h-46l-6 -73h52v-31h-53l-8 -93h-35l8 93h-67l-8 -93h-35l8 93h-50v31h52l6 73h-58zM113 603l-6 -73h66l6 73h-66z" />
    <glyph glyph-name="dollar.numr" horiz-adv-x="253" 
d="M121 778h31l1 -52q56 -12 76 -64l-33 -13q-14 30 -46 38l-8 -100q28 -10 44.5 -18.5t31.5 -28t15 -46.5q0 -40 -26 -64.5t-70 -27.5l-5 -46h-30l-1 47q-66 9 -86 72l35 15q14 -39 53 -48l7 107q-22 8 -34 13.5t-27.5 16t-22.5 26t-7 36.5q0 37 26 61.5t70 26.5zM191 488
q0 32 -51 51l-3 -99q54 5 54 48zM64 646q0 -29 48 -49l2 92q-50 -4 -50 -43z" />
    <glyph glyph-name="parenleft.numr" horiz-adv-x="144" 
d="M35 499v123q0 80 24.5 116t77.5 36h13v-32h-13q-60 0 -60 -120v-123q0 -120 60 -120h13v-32h-13q-53 0 -77.5 36.5t-24.5 115.5z" />
    <glyph glyph-name="parenright.numr" horiz-adv-x="144" 
d="M109 622v-123q0 -79 -25 -115.5t-78 -36.5h-12v33h12q61 0 61 119v123q0 119 -61 119h-12v33h12q54 0 78.5 -36t24.5 -116z" />
    <glyph glyph-name="plus.numr" horiz-adv-x="239" 
d="M101 460v83h-70v35h70v83h36v-83h71v-35h-71v-83h-36z" />
    <glyph glyph-name="comma.numr" horiz-adv-x="141" 
d="M39 407v68h63v-51q0 -52 -14.5 -77t-46.5 -30l-4 26q33 10 33 64h-31z" />
    <glyph glyph-name="period.numr" horiz-adv-x="141" 
d="M39 406v69h63v-69h-63z" />
    <glyph glyph-name="zero.numr" horiz-adv-x="278" 
d="M248 616v-102q0 -52 -28.5 -82t-80.5 -30t-81 30t-29 82v102q0 52 28.5 82.5t81.5 30.5q52 0 80.5 -30.5t28.5 -82.5zM81 616v-102q0 -70 58 -70t58 70v102q0 69 -58 69t-58 -69z" />
    <glyph glyph-name="one.numr" horiz-adv-x="278" 
d="M146 727h42v-321h-54v228h-68v35h29q28 0 37.5 10.5t13.5 47.5z" />
    <glyph glyph-name="two.numr" horiz-adv-x="278" 
d="M141 729q50 0 75.5 -24.5t25.5 -61.5q0 -36 -22 -65.5t-49 -46t-51.5 -39t-28.5 -45.5h155v-41h-210l-1 24q1 34 25.5 65t53 50t52.5 45t24 51q0 46 -52 46q-49 0 -64 -54l-41 14q11 36 38.5 59t69.5 23z" />
    <glyph glyph-name="three.numr" horiz-adv-x="278" 
d="M104 551v38h25q55 0 55 50q0 49 -50 49q-47 0 -64 -47l-38 14q12 34 39.5 54t67.5 20q49 0 74 -24t25 -61q0 -54 -46 -71v-2q53 -12 53 -73q0 -47 -28 -71.5t-80 -24.5q-83 0 -108 69l38 15q20 -44 67 -44q56 0 56 59q0 28 -15 39t-45 11h-26z" />
    <glyph glyph-name="four.numr" horiz-adv-x="278" 
d="M223 406h-47v60h-156v34l153 225h50v-219h42l-5 -40h-37v-60zM76 506h100l4 162h-2z" />
    <glyph glyph-name="five.numr" horiz-adv-x="278" 
d="M73 549l-34 18l14 158h182l-3 -43h-138l-7 -88q30 14 63 14q97 0 97 -99q0 -107 -111 -107q-37 0 -65 18t-39 51l38 15q18 -44 63 -44q61 0 61 67q0 31 -14.5 45t-46.5 14q-36 0 -60 -19z" />
    <glyph glyph-name="six.numr" horiz-adv-x="278" 
d="M146 729q72 0 95 -65l-34 -16q-17 39 -58 39q-65 0 -65 -73v-26h2q23 20 67 20q96 0 96 -96q0 -110 -109 -110q-50 0 -78.5 30t-28.5 86v91q0 53 30.5 86.5t82.5 33.5zM143 568q-22 0 -39.5 -8.5t-19.5 -21.5v-28q0 -32 15.5 -49t42.5 -17q57 0 57 67q0 57 -56 57z" />
    <glyph glyph-name="seven.numr" horiz-adv-x="278" 
d="M127 406h-58l128 276h-168v43h221v-39z" />
    <glyph glyph-name="eight.numr" horiz-adv-x="278" 
d="M139 402q-112 0 -112 97q0 59 50 75v2q-42 16 -42 68q0 85 104 85q103 0 103 -85q0 -50 -42 -67v-2q51 -17 51 -76q0 -97 -112 -97zM199 501q0 53 -60 53q-61 0 -61 -53q0 -32 14.5 -45.5t46.5 -13.5t46 13t14 46zM139 689q-30 0 -42.5 -11.5t-12.5 -37.5t13 -38t42 -12
t42 12t13 38t-12.5 37.5t-42.5 11.5z" />
    <glyph glyph-name="nine.numr" horiz-adv-x="278" 
d="M34 464l33 19q22 -40 66 -40q29 0 45.5 16t16.5 46v46h-2q-23 -20 -68 -20q-44 0 -69.5 24t-25.5 72t28.5 75t81.5 27q50 0 77.5 -28.5t27.5 -76.5v-117q0 -48 -30 -76.5t-79 -28.5q-76 0 -102 62zM134 570q21 0 40 8t21 23v28q0 59 -55 59q-60 0 -60 -59
q0 -32 13.5 -45.5t40.5 -13.5z" />
    <glyph glyph-name="equal.numr" horiz-adv-x="239" 
d="M200 574h-164v35h164v-35zM200 504h-164v35h164v-35z" />
    <glyph glyph-name="n.numr" horiz-adv-x="278" 
d="M42 406v248h43l3 -28h2q28 33 70 33q40 0 59.5 -24t19.5 -62v-167h-47v164q0 49 -45 49q-36 0 -56 -34v-179h-49z" />
    <glyph glyph-name="cent.numr" horiz-adv-x="248" 
d="M235 660l-35 -14q-15 43 -60 43q-62 0 -62 -70v-109q0 -71 61 -71q45 0 61 48l36 -14q-21 -63 -81 -70l-6 -47h-32v47q-44 5 -67 34t-23 73v112q0 44 23.5 73t68.5 33l7 50h32l2 -52q51 -10 75 -66z" />
    <glyph glyph-name="sterling.numr" horiz-adv-x="284" 
d="M25 550l-6 34h34q-5 30 -5 45q0 47 27.5 75.5t77.5 28.5q38 0 66.5 -19t38.5 -49l-37 -16q-17 42 -65 42q-59 0 -59 -68q0 -19 4 -39h115l-5 -34h-105q6 -37 7 -47q17 -6 45.5 -31.5t47.5 -25.5q16 0 25 11.5t14 38.5l36 -10q-15 -85 -73 -85q-21 0 -36.5 9t-37.5 32.5
t-23 24.5q-6 -66 -60 -66q-21 0 -33 12t-12 33q0 25 17 41.5t48 18.5l-11 44h-35zM55 434q20 0 21 45q-33 -2 -33 -30q0 -15 12 -15z" />
    <glyph glyph-name="currency.numr" horiz-adv-x="199" 
d="M40 573q0 19 9 33l-21 24l18 20l22 -24q13 9 32 9q17 0 32 -10l24 25l17 -19l-23 -25q10 -15 10 -33q0 -17 -10 -34l23 -23l-19 -20l-23 24q-13 -9 -31 -9t-32 9l-23 -24l-18 19l22 24q-9 15 -9 34zM70 573q0 -14 8.5 -23t21.5 -9t21.5 9t8.5 23t-8.5 23t-21.5 9
t-21.5 -9t-8.5 -23z" />
    <glyph glyph-name="yen.numr" horiz-adv-x="310" 
d="M250 472h-65v-66h-54v66h-71v32h71v20h-71v31h61v2l-103 171h61l78 -153h2l77 153h62l-104 -171v-2h56v-31h-65v-20h65v-32z" />
    <glyph glyph-name="franc.numr" horiz-adv-x="269" 
d="M2 453v32h36v243h212v-44h-158v-96h135v-41h-135v-62h53v-32h-53v-47h-54v47h-36z" />
    <glyph glyph-name="lira.numr" horiz-adv-x="284" 
d="M25 570l-5 26h31q-3 18 -3 33q0 47 27.5 75.5t77.5 28.5q38 0 66.5 -19t38.5 -49l-37 -16q-17 42 -65 42q-59 0 -59 -68q0 -17 2 -27h120l-5 -26h-111l2 -15h106l-5 -26h-97q4 -26 4 -32q17 -5 45.5 -28t47.5 -23q16 0 25 11.5t14 38.5l36 -10q-15 -85 -73 -85
q-21 0 -37.5 9.5t-36 30.5t-24.5 25q-6 -65 -59 -65q-21 0 -33 11.5t-12 31.5q0 25 17.5 40.5t49.5 16.5l-8 28h-32l-4 26h30l-3 15h-31zM54 432q20 0 21 45q-33 -2 -33 -30q0 -15 12 -15z" />
    <glyph glyph-name="peseta.numr" horiz-adv-x="461" 
d="M103 728q78 0 78 -98q0 -47 -20 -72.5t-56 -25.5h-36v-126h-43v322h77zM449 587l-25 -12q-10 29 -33 29q-25 0 -25 -29q0 -13 13 -24.5t29 -19t29 -25t13 -41.5q0 -30 -16 -47t-45 -17q-50 0 -65 56l27 10q9 -35 36 -35t27 31q0 16 -13.5 28t-29.5 19.5t-29.5 24
t-13.5 39.5q0 28 16 45t44 17q47 0 61 -49zM305 631v-32h-42v-141q0 -25 22 -25q7 0 17 4l5 -25q-17 -10 -35 -10q-49 0 -49 57v139l-22 6v27l25 1l9 62h28v-63h42zM69 692v-126h33q36 0 36 64q0 62 -36 62h-33z" />
    <glyph glyph-name="Euro.numr" horiz-adv-x="286" 
d="M154 733q39 0 68.5 -19.5t39.5 -49.5l-38 -16q-16 41 -65 41q-33 0 -51 -19.5t-18 -55.5v-7h129l-7 -25h-122v-21h116l-6 -26h-110v-18q0 -34 18 -54t51 -20q49 0 65 44l39 -15q-21 -71 -108 -71q-54 0 -87 32t-33 84v18h-27v26h27v21h-27v25h27v7q0 55 32 87t87 32z" />
    <glyph glyph-name="minus.numr" horiz-adv-x="239" 
d="M208 543h-177v35h177v-35z" />
    <glyph glyph-name="numbersign.dnom" horiz-adv-x="281" 
d="M20 197v31h58l9 94h35l-9 -94h67l8 94h35l-9 -94h46v-31h-46l-6 -73h52v-31h-53l-8 -93h-35l8 93h-67l-8 -93h-35l8 93h-50v31h52l6 73h-58zM113 197l-6 -73h66l6 73h-66z" />
    <glyph glyph-name="dollar.dnom" horiz-adv-x="253" 
d="M121 372h31l1 -52q56 -12 76 -64l-33 -13q-14 30 -46 38l-8 -100q28 -10 44.5 -18.5t31.5 -28t15 -46.5q0 -40 -26 -64.5t-70 -27.5l-5 -46h-30l-1 47q-66 9 -86 72l35 15q14 -39 53 -48l7 107q-22 8 -34 13.5t-27.5 16t-22.5 26t-7 36.5q0 37 26 61.5t70 26.5zM191 82
q0 32 -51 51l-3 -99q54 5 54 48zM64 240q0 -29 48 -49l2 92q-50 -4 -50 -43z" />
    <glyph glyph-name="parenleft.dnom" horiz-adv-x="144" 
d="M35 93v123q0 80 24.5 116t77.5 36h13v-32h-13q-60 0 -60 -120v-123q0 -120 60 -120h13v-32h-13q-53 0 -77.5 36.5t-24.5 115.5z" />
    <glyph glyph-name="parenright.dnom" horiz-adv-x="144" 
d="M109 216v-123q0 -79 -25 -115.5t-78 -36.5h-12v33h12q61 0 61 119v123q0 119 -61 119h-12v33h12q54 0 78.5 -36t24.5 -116z" />
    <glyph glyph-name="plus.dnom" horiz-adv-x="239" 
d="M101 54v83h-70v35h70v83h36v-83h71v-35h-71v-83h-36z" />
    <glyph glyph-name="comma.dnom" horiz-adv-x="141" 
d="M39 1v68h63v-51q0 -52 -14.5 -77t-46.5 -30l-4 26q33 10 33 64h-31z" />
    <glyph glyph-name="period.dnom" horiz-adv-x="141" 
d="M39 0v69h63v-69h-63z" />
    <glyph glyph-name="zero.dnom" horiz-adv-x="278" 
d="M248 210v-102q0 -52 -28.5 -82t-80.5 -30t-81 30t-29 82v102q0 52 28.5 82.5t81.5 30.5q52 0 80.5 -30.5t28.5 -82.5zM81 210v-102q0 -70 58 -70t58 70v102q0 69 -58 69t-58 -69z" />
    <glyph glyph-name="one.dnom" horiz-adv-x="278" 
d="M146 321h42v-321h-54v228h-68v35h29q28 0 37.5 10.5t13.5 47.5z" />
    <glyph glyph-name="two.dnom" horiz-adv-x="278" 
d="M141 323q50 0 75.5 -24.5t25.5 -61.5q0 -36 -22 -65.5t-49 -46t-51.5 -39t-28.5 -45.5h155v-41h-210l-1 24q1 34 25.5 65t53 50t52.5 45t24 51q0 46 -52 46q-49 0 -64 -54l-41 14q11 36 38.5 59t69.5 23z" />
    <glyph glyph-name="three.dnom" horiz-adv-x="278" 
d="M104 145v38h25q55 0 55 50q0 49 -50 49q-47 0 -64 -47l-38 14q12 34 39.5 54t67.5 20q49 0 74 -24t25 -61q0 -54 -46 -71v-2q53 -12 53 -73q0 -47 -28 -71.5t-80 -24.5q-83 0 -108 69l38 15q20 -44 67 -44q56 0 56 59q0 28 -15 39t-45 11h-26z" />
    <glyph glyph-name="four.dnom" horiz-adv-x="278" 
d="M223 0h-47v60h-156v34l153 225h50v-219h42l-5 -40h-37v-60zM76 100h100l4 162h-2z" />
    <glyph glyph-name="five.dnom" horiz-adv-x="278" 
d="M73 143l-34 18l14 158h182l-3 -43h-138l-7 -88q30 14 63 14q97 0 97 -99q0 -107 -111 -107q-37 0 -65 18t-39 51l38 15q18 -44 63 -44q61 0 61 67q0 31 -14.5 45t-46.5 14q-36 0 -60 -19z" />
    <glyph glyph-name="six.dnom" horiz-adv-x="278" 
d="M146 323q72 0 95 -65l-34 -16q-17 39 -58 39q-65 0 -65 -73v-26h2q23 20 67 20q96 0 96 -96q0 -110 -109 -110q-50 0 -78.5 30t-28.5 86v91q0 53 30.5 86.5t82.5 33.5zM143 162q-22 0 -39.5 -8.5t-19.5 -21.5v-28q0 -32 15.5 -49t42.5 -17q57 0 57 67q0 57 -56 57z" />
    <glyph glyph-name="seven.dnom" horiz-adv-x="278" 
d="M127 0h-58l128 276h-168v43h221v-39z" />
    <glyph glyph-name="eight.dnom" horiz-adv-x="278" 
d="M139 -4q-112 0 -112 97q0 59 50 75v2q-42 16 -42 68q0 85 104 85q103 0 103 -85q0 -50 -42 -67v-2q51 -16 51 -76q0 -97 -112 -97zM199 95q0 53 -60 53q-61 0 -61 -53q0 -32 14.5 -45.5t46.5 -13.5t46 13t14 46zM139 283q-30 0 -42.5 -11.5t-12.5 -37.5t13 -38t42 -12
t42 12t13 38t-12.5 37.5t-42.5 11.5z" />
    <glyph glyph-name="nine.dnom" horiz-adv-x="278" 
d="M34 58l33 19q22 -40 66 -40q29 0 45.5 16t16.5 46v46h-2q-23 -20 -68 -20q-44 0 -69.5 24t-25.5 72t28.5 75t81.5 27q50 0 77.5 -28.5t27.5 -76.5v-117q0 -48 -30 -76.5t-79 -28.5q-76 0 -102 62zM134 164q21 0 40 8t21 23v28q0 59 -55 59q-60 0 -60 -59
q0 -32 13.5 -45.5t40.5 -13.5z" />
    <glyph glyph-name="equal.dnom" horiz-adv-x="239" 
d="M200 168h-164v35h164v-35zM200 98h-164v35h164v-35z" />
    <glyph glyph-name="n.dnom" horiz-adv-x="278" 
d="M42 0v248h43l3 -28h2q28 33 70 33q40 0 59.5 -24t19.5 -62v-167h-47v164q0 49 -45 49q-36 0 -56 -34v-179h-49z" />
    <glyph glyph-name="cent.dnom" horiz-adv-x="248" 
d="M235 254l-35 -14q-15 43 -60 43q-62 0 -62 -70v-109q0 -71 61 -71q45 0 61 48l36 -14q-21 -63 -81 -70l-6 -47h-32v47q-44 5 -67 34t-23 73v112q0 44 23.5 73t68.5 33l7 50h32l2 -52q51 -10 75 -66z" />
    <glyph glyph-name="sterling.dnom" horiz-adv-x="284" 
d="M25 144l-6 34h34q-5 30 -5 45q0 47 27.5 75.5t77.5 28.5q38 0 66.5 -19t38.5 -49l-37 -16q-17 42 -65 42q-59 0 -59 -68q0 -19 4 -39h115l-5 -34h-105q6 -37 7 -47q17 -6 45.5 -31.5t47.5 -25.5q16 0 25 11.5t14 38.5l36 -10q-15 -85 -73 -85q-21 0 -36.5 9t-37.5 32.5
t-23 24.5q-6 -66 -60 -66q-21 0 -33 12t-12 33q0 25 17 41.5t48 18.5l-11 44h-35zM55 28q20 0 21 45q-33 -2 -33 -30q0 -15 12 -15z" />
    <glyph glyph-name="currency.dnom" horiz-adv-x="199" 
d="M40 167q0 20 9 33l-21 24l18 20l22 -24q14 9 32 9q17 0 32 -10l24 25l17 -19l-23 -25q10 -15 10 -33q0 -17 -10 -34l23 -23l-19 -20l-23 24q-13 -9 -31 -9t-32 9l-23 -24l-18 19l22 24q-9 15 -9 34zM70 167q0 -14 8.5 -23t21.5 -9t21.5 9t8.5 23t-8.5 23t-21.5 9
t-21.5 -9t-8.5 -23z" />
    <glyph glyph-name="yen.dnom" horiz-adv-x="310" 
d="M250 66h-65v-66h-54v66h-71v32h71v20h-71v31h61v2l-103 171h61l78 -153h2l77 153h62l-104 -171v-2h56v-31h-65v-20h65v-32z" />
    <glyph glyph-name="franc.dnom" horiz-adv-x="269" 
d="M2 47v32h36v243h212v-44h-158v-96h135v-41h-135v-62h53v-32h-53v-47h-54v47h-36z" />
    <glyph glyph-name="lira.dnom" horiz-adv-x="284" 
d="M25 164l-5 26h31q-3 18 -3 33q0 47 27.5 75.5t77.5 28.5q38 0 66.5 -19t38.5 -49l-37 -16q-17 42 -65 42q-59 0 -59 -68q0 -17 2 -27h120l-5 -26h-111l2 -15h106l-5 -26h-97q4 -26 4 -32q17 -5 45.5 -28t47.5 -23q16 0 25 11.5t14 38.5l36 -10q-15 -85 -73 -85
q-21 0 -37.5 9.5t-36 30.5t-24.5 25q-6 -65 -59 -65q-21 0 -33 11.5t-12 31.5q0 25 17.5 40.5t49.5 16.5l-8 28h-32l-4 26h30l-3 15h-31zM54 26q20 0 21 45q-33 -2 -33 -30q0 -15 12 -15z" />
    <glyph glyph-name="peseta.dnom" horiz-adv-x="461" 
d="M103 322q78 0 78 -98q0 -47 -20 -72.5t-56 -25.5h-36v-126h-43v322h77zM449 181l-25 -12q-10 29 -33 29q-25 0 -25 -29q0 -13 13 -24.5t29 -19t29 -25t13 -41.5q0 -30 -16 -47t-45 -17q-50 0 -65 56l27 10q9 -35 36 -35t27 31q0 16 -13.5 28t-29.5 19.5t-29.5 24
t-13.5 39.5q0 28 16 45t44 17q47 0 61 -49zM305 225v-32h-42v-141q0 -25 22 -25q7 0 17 4l5 -25q-17 -10 -35 -10q-49 0 -49 57v139l-22 6v27l25 1l9 62h28v-63h42zM69 286v-126h33q36 0 36 64q0 62 -36 62h-33z" />
    <glyph glyph-name="Euro.dnom" horiz-adv-x="286" 
d="M154 327q39 0 68.5 -19.5t39.5 -49.5l-38 -16q-16 41 -65 41q-33 0 -51 -19.5t-18 -55.5v-7h129l-7 -25h-122v-21h116l-6 -26h-110v-18q0 -34 18 -54t51 -20q49 0 65 44l39 -15q-21 -71 -108 -71q-54 0 -87 32t-33 84v18h-27v26h27v21h-27v25h27v7q0 55 32 87t87 32z" />
    <glyph glyph-name="minus.dnom" horiz-adv-x="239" 
d="M208 137h-177v35h177v-35z" />
    <glyph glyph-name="space.frac" horiz-adv-x="48" 
 />
    <glyph glyph-name="numbersign.osf" horiz-adv-x="466" 
d="M30 376v52h100l15 182h56l-16 -182h117l15 182h56l-15 -182h77v-52h-79l-12 -143h91v-52h-92l-16 -181h-56l16 181h-117l-15 -181h-55l15 181h-85v52h87l12 143h-99zM184 376l-11 -143h116l12 143h-117z" />
    <glyph glyph-name="dollar.osf" horiz-adv-x="466" 
d="M47 461q0 64 43 105.5t118 47.5l13 126h49l3 -129q49 -10 84.5 -40t51.5 -74l-53 -21q-32 79 -123 79q-110 0 -110 -90q0 -33 21.5 -58t54 -40.5l70.5 -35t70.5 -39t54 -54.5t21.5 -80q0 -69 -41 -113t-110 -53l-11 -129h-50l-2 129q-61 6 -99.5 38.5t-61.5 94.5l55 21
q36 -98 140 -98q50 0 80 26.5t30 75.5q0 35 -22 61.5t-55 41.5l-72 34t-72 38.5t-55 54.5t-22 81z" />
    <glyph glyph-name="plus.osf" horiz-adv-x="466" 
d="M203 67v191h-150v58h150v192h57v-192h154v-58h-154v-191h-57z" />
    <glyph glyph-name="zero.osf" horiz-adv-x="497" 
d="M449 388v-200q0 -93 -52 -145t-149 -52q-96 0 -148 52.5t-52 146.5v192q0 97 52 151.5t148 54.5q97 0 149 -52.5t52 -147.5zM121 382v-194q0 -139 127 -139t127 136v204q0 140 -127 140t-127 -147z" />
    <glyph glyph-name="one.osf" horiz-adv-x="336" 
d="M189 414h-152v54h70q59 0 78.5 23t22.5 100h58v-591h-77v414z" />
    <glyph glyph-name="two.osf" horiz-adv-x="469" 
d="M247 590q88 0 131.5 -40t43.5 -106q0 -78 -71 -170t-203 -211v-2h282v-61h-386l-1 48q305 255 305 392q0 89 -108 89q-88 0 -144 -81l-51 27q37 58 85 86.5t117 28.5z" />
    <glyph glyph-name="three.osf" horiz-adv-x="468" 
d="M409 440q0 -117 -90 -147v-2q60 -12 85 -47t25 -97q0 -243 -363 -243l-7 60q160 0 228 48t68 136q0 61 -33.5 85.5t-118.5 24.5h-25v58h23q73 0 103.5 28.5t30.5 91.5q0 92 -102 92q-91 0 -148 -81l-51 27q75 116 205 116q85 0 127.5 -41.5t42.5 -108.5z" />
    <glyph glyph-name="four.osf" horiz-adv-x="461" 
d="M366 -94h-71v232h-291v53l291 391h71v-386h92l-7 -58h-85v-232zM86 196h209l8 302h-2z" />
    <glyph glyph-name="five.osf" horiz-adv-x="450" 
d="M386 517h-265l-17 -202q56 24 119 24q96 0 144 -43t48 -135q0 -118 -92 -187.5t-258 -69.5l-7 59q145 0 214 53t69 140q0 68 -33 96t-103 28q-74 0 -121 -30l-50 24l28 308h329z" />
    <glyph glyph-name="six.osf" horiz-adv-x="477" 
d="M381 627q-105 0 -170.5 -66.5t-78.5 -195.5h2q51 44 125 44q182 0 182 -196q0 -105 -49.5 -163.5t-144.5 -58.5q-94 0 -142 60.5t-48 164.5v88q0 177 85 280t234 103zM251 347q-73 0 -121 -51v-80q0 -83 31.5 -123.5t87.5 -40.5q119 0 119 158q0 73 -28.5 105t-88.5 32z
" />
    <glyph glyph-name="seven.osf" horiz-adv-x="425" 
d="M160 -91h-80l258 608h-329v65h406v-56z" />
    <glyph glyph-name="eight.osf" horiz-adv-x="472" 
d="M236 -9q-193 0 -193 173q0 112 96 140v2q-83 31 -83 131q0 71 44 112t136 41t136 -41t44 -111q0 -101 -83 -132v-2q96 -28 96 -140q0 -173 -193 -173zM356 168q0 106 -120 106t-120 -106q0 -118 120 -118q62 0 91 29t29 89zM236 531q-57 0 -83.5 -24.5t-26.5 -76.5
q0 -102 110 -102t110 103q0 52 -26 76t-84 24z" />
    <glyph glyph-name="nine.osf" horiz-adv-x="477" 
d="M92 -36q116 0 182 69.5t73 211.5h-2q-48 -40 -125 -40q-88 0 -136 46.5t-48 140.5q0 92 50 144.5t144 52.5q93 0 141.5 -61t48.5 -162v-86q0 -178 -84.5 -277t-236.5 -99zM228 264q70 0 119 49v52q0 162 -119 162t-119 -134q0 -68 29.5 -98.5t89.5 -30.5z" />
    <glyph glyph-name="less.osf" horiz-adv-x="466" 
d="M404 440l-248 -153l250 -153v-74l-351 221v11l349 222v-74z" />
    <glyph glyph-name="equal.osf" horiz-adv-x="466" 
d="M407 328h-347v58h347v-58zM407 188h-347v59h347v-59z" />
    <glyph glyph-name="greater.osf" horiz-adv-x="466" 
d="M63 134l248 153l-250 153v74l351 -221v-11l-349 -222v74z" />
    <glyph glyph-name="cent.osf" horiz-adv-x="466" 
d="M419 497l-58 -23q-33 83 -126 83q-122 0 -122 -146v-222q0 -141 124 -141q93 0 125 90l58 -21q-39 -112 -155 -125l-12 -129h-49l-2 129q-81 8 -122 60t-41 141v215q0 89 42.5 145t127.5 64l13 123h49l2 -125q105 -18 146 -118z" />
    <glyph glyph-name="sterling.osf" horiz-adv-x="466" 
d="M398 496l-54 -20q-23 81 -102 81q-95 0 -95 -133q0 -30 9 -100h183l-6 -47h-171l5 -40t5 -41.5t3 -28.5q27 -10 53 -39l48.5 -52t44.5 -23q27 0 42 23t22 79l52 -13q-19 -153 -111 -153q-35 0 -62 21t-53 57.5t-37 46.5h-2q-9 -125 -89 -125q-31 0 -49 19.5t-18 55.5
q0 44 26 73.5t73 34.5l-20 105h-50l-8 47h50q-10 65 -10 103q0 90 42 140.5t119 50.5q60 0 102.5 -33t57.5 -89zM86 36q35 0 36 94q-57 -6 -57 -64q0 -30 21 -30z" />
    <glyph glyph-name="currency.osf" horiz-adv-x="374" 
d="M71 308q0 38 20 67l-46 49l31 34l47 -49q30 20 63 20q36 0 64 -20l48 51l32 -34l-47 -52q19 -30 19 -66q0 -35 -20 -67l47 -50l-32 -34l-47 50q-29 -20 -64 -20q-34 0 -62 19l-48 -51l-32 34l47 51q-20 31 -20 68zM120 308q0 -31 19.5 -51.5t47.5 -20.5t47.5 20.5
t19.5 51.5q0 30 -19.5 50.5t-47.5 20.5t-47.5 -20.5t-19.5 -50.5z" />
    <glyph glyph-name="yen.osf" horiz-adv-x="466" 
d="M396 144h-126v-144h-73v144h-126v47h126v43h-126v47h111l-180 328h82l150 -298h2l146 298h85l-182 -328h111v-47h-126v-43h126v-47z" />
    <glyph glyph-name="logicalnot.osf" horiz-adv-x="466" 
d="M358 106v152h-305v58h361v-210h-56z" />
    <glyph glyph-name="plusminus.osf" horiz-adv-x="466" 
d="M203 123v161h-150v58h150v165h57v-165h154v-58h-154v-161h-57zM414 28h-361v59h361v-59z" />
    <glyph glyph-name="multiply.osf" horiz-adv-x="466" 
d="M346 117l-122 130l-122 -130l-39 41l122 130l-122 131l39 42l122 -131l122 131l40 -42l-123 -131l123 -130z" />
    <glyph glyph-name="divide.osf" horiz-adv-x="466" 
d="M414 258h-361v58h361v-58zM182 463q0 22 14.5 37.5t34.5 15.5t35 -15.5t15 -37.5t-15 -37t-35 -15t-34.5 15t-14.5 37zM182 116q0 22 14.5 37.5t34.5 15.5t35 -15.5t15 -37.5t-15 -37t-35 -15t-34.5 15t-14.5 37z" />
    <glyph glyph-name="franc.osf" horiz-adv-x="466" 
d="M19 93v50h62v466h336v-64h-262v-207h225v-60h-225v-135h93v-50h-93v-93h-74v93h-62z" />
    <glyph glyph-name="lira.osf" horiz-adv-x="466" 
d="M398 496l-54 -20q-23 81 -102 81q-95 0 -95 -133q0 -32 4 -65h204l-7 -39h-192q2 -12 4 -34h181l-7 -37h-168l9 -82q27 -10 53 -39l48.5 -52t44.5 -23q27 0 42 23t22 79l52 -13q-19 -153 -111 -153q-35 0 -62 21t-53 57.5t-37 46.5l-2 2q-8 -127 -89 -127q-31 0 -49 19.5
t-18 55.5q0 44 26 73.5t73 34.5l-15 77h-46l-7 37h46l-5 34h-50l-6 39h50q-5 43 -5 68q0 90 42 140.5t119 50.5q60 0 102.5 -33t57.5 -89zM86 36q35 0 36 94q-57 -6 -57 -64q0 -30 21 -30z" />
    <glyph glyph-name="peseta.osf" horiz-adv-x="466" 
d="M11 402v46h54v161h185q75 0 115.5 -41.5t45.5 -119.5h42v-46h-42q-6 -76 -46.5 -118t-110.5 -42h-116v-242h-73v402h-54zM248 299q44 0 65.5 25t24.5 80h-200v-105h110zM138 547v-101h200q-3 53 -24.5 77t-65.5 24h-110z" />
    <glyph glyph-name="Euro.osf" horiz-adv-x="466" 
d="M422 497l-58 -23q-31 83 -118 83q-115 0 -115 -140v-39h187l-10 -41h-177v-46h168l-10 -40h-158v-66q0 -136 115 -136q89 0 119 88l58 -20q-20 -60 -65.5 -93.5t-113.5 -33.5q-93 0 -139.5 52t-46.5 147v62h-38v40h38v46h-38v41h38v36q0 92 46.5 148t139.5 56
q64 0 110.5 -32.5t67.5 -88.5z" />
    <glyph glyph-name="uni20B4.osf" horiz-adv-x="475" 
d="M44 337v44h264q42 39 42 84q0 91 -99 91q-93 0 -136 -79l-55 25q58 112 195 112q79 0 120.5 -40t41.5 -104q0 -52 -37 -89h54v-44h-104q-15 -10 -102 -60h205v-44h-260q-40 -40 -40 -90q0 -45 31 -70t84 -25q94 0 138 89l51 -24q-55 -123 -193 -123q-88 0 -132.5 40.5
t-44.5 107.5q0 54 36 95h-60v44h105q24 17 101 60h-205z" />
    <glyph glyph-name="uni20B8.osf" horiz-adv-x="466" 
d="M396 473h-126v-473h-73v473h-126v46h325v-46zM396 563h-325v46h325v-46z" />
    <glyph glyph-name="uni20BA.osf" horiz-adv-x="531" 
d="M51 271v58l60 32v248h77v-216l177 100v-59l-177 -98v-57l177 99v-58l-177 -99v-151h92q59 0 93.5 26t50.5 86l58 -30q-37 -152 -201 -152h-170v189l-60 -32v57l60 32v57z" />
    <glyph glyph-name="uni20BD.osf" horiz-adv-x="477" 
d="M166 0h-73v158h-64v54h64v41h-64v55h64v301h186q165 0 165 -179q0 -85 -40.5 -131t-121.5 -46h-116v-41h175v-54h-175v-158zM166 549v-241h107q52 0 74 29t22 92q0 64 -21.5 92t-74.5 28h-107z" />
    <glyph glyph-name="minus.osf" horiz-adv-x="466" 
d="M414 258h-361v58h361v-58z" />
    <glyph glyph-name="approxequal.osf" horiz-adv-x="466" 
d="M408 392v-58q-47 -26 -91 -26q-32 0 -87 18.5t-85 18.5q-41 0 -85 -26v58q47 26 91 26q33 0 89 -19t85 -19q43 0 83 27zM408 252v-58q-47 -26 -91 -26q-32 0 -87 18.5t-85 18.5q-41 0 -85 -26v58q47 26 91 26q33 0 89 -19t85 -19q43 0 83 27z" />
    <glyph glyph-name="notequal.osf" horiz-adv-x="466" 
d="M407 188h-195l-62 -114l-39 23l49 91h-100v59h132l44 81h-176v58h207l61 112l39 -24l-48 -88h88v-58h-119l-44 -81h163v-59z" />
    <glyph glyph-name="lessequal.osf" horiz-adv-x="466" 
d="M404 444l-241 -127v-2l243 -126v-72l-351 194v10l349 197v-74zM62 29v54h344v-54h-344z" />
    <glyph glyph-name="greaterequal.osf" horiz-adv-x="466" 
d="M60 189l243 126v2l-241 127v74l349 -197v-10l-351 -194v72zM404 83v-54h-344v54h344z" />
    <glyph glyph-name="numbersign.tf" 
d="M31 452v53h123l18 220h55l-18 -220h144l18 220h55l-18 -220h93v-53h-94l-15 -180h109v-53h-111l-18 -219h-56l19 219h-144l-18 -219h-55l18 219h-105v53h107l15 180h-122zM208 452l-14 -180h143l14 180h-143z" />
    <glyph glyph-name="dollar.tf" 
d="M253 832h52l1 -101q63 -10 109.5 -47t66.5 -91l-56 -24q-33 79 -126 94l-13 -260q47 -17 75.5 -31t62.5 -38.5t50.5 -59.5t16.5 -81q0 -89 -58.5 -143t-156.5 -59l-9 -94h-53l-1 96q-69 10 -119 52t-73 107l59 29q38 -99 137 -118l16 277q-38 14 -60.5 23t-53 27
t-47 37.5t-29 50t-12.5 67.5q0 80 58 132.5t153 56.5zM420 185q0 52 -35 82t-101 55l-8 -263q68 4 106 36t38 90zM106 551q0 -48 33.5 -76.5t97.5 -53.5l5 245q-68 -4 -102 -35.5t-34 -79.5z" />
    <glyph glyph-name="plus.tf" 
d="M235 87v196h-153v57h153v197h57v-197h158v-57h-158v-196h-57z" />
    <glyph glyph-name="zero.tf" 
d="M490 493v-265q0 -112 -58 -175t-166 -63t-166 63t-58 175v264q0 114 58 178.5t166 64.5q107 0 165.5 -64.5t58.5 -177.5zM119 493v-265q0 -171 147 -171q148 0 148 171v265q0 173 -148 173q-147 0 -147 -173z" />
    <glyph glyph-name="one.tf" 
d="M105 0v49h136v499h-176v55h95q58 0 78 22.5t24 102.5h58v-679h126v-49h-341z" />
    <glyph glyph-name="two.tf" 
d="M275 735q101 0 153.5 -51.5t52.5 -132.5q0 -69 -32.5 -126.5t-80 -98t-96 -77.5t-86.5 -84t-45 -99h351v-66h-428l-2 43q1 47 20.5 90.5t49.5 77.5t66.5 66l72.5 62.5t66 61.5t48.5 69t18.5 78q0 56 -33 88.5t-100 32.5q-56 0 -96 -35t-54 -96l-61 20q19 76 74.5 126.5
t140.5 50.5z" />
    <glyph glyph-name="three.tf" 
d="M209 345v62h50q137 0 137 132q0 130 -126 130q-112 0 -151 -119l-59 21q24 76 80.5 120t134.5 44q99 0 149.5 -51.5t50.5 -137.5q0 -130 -104 -166v-2q120 -28 120 -168q0 -220 -218 -220q-78 0 -135.5 37.5t-83.5 110.5l57 24q21 -53 63.5 -80.5t95.5 -27.5
q75 0 108 39.5t33 119.5q0 73 -38 102.5t-113 29.5h-51z" />
    <glyph glyph-name="four.tf" 
d="M428 0h-71v140h-339v51l338 534h72v-521h98l-7 -64h-91v-140zM106 204h251l3 417h-2z" />
    <glyph glyph-name="five.tf" 
d="M116 341l-53 28l32 356h368l-5 -68h-303l-21 -241h2q70 40 149 40q206 0 206 -226q0 -116 -59 -178t-169 -62q-74 0 -129.5 39t-78.5 112l57 23q19 -55 59 -82.5t90 -27.5q153 0 153 176q0 86 -36 123.5t-115 37.5q-41 0 -82.5 -14t-64.5 -36z" />
    <glyph glyph-name="six.tf" 
d="M277 735q69 0 120 -36.5t73 -103.5l-53 -26q-37 100 -137 100q-75 0 -114 -49.5t-39 -138.5v-83h2q54 57 156 57q203 0 203 -218q0 -122 -57.5 -184.5t-161.5 -62.5q-101 0 -160 60t-59 175v250q0 117 60 188.5t167 71.5zM273 390q-56 0 -100 -24t-46 -64v-83
q0 -82 39 -122t104 -40q143 0 143 179q0 154 -140 154z" />
    <glyph glyph-name="seven.tf" 
d="M220 0h-87l290 658h-395v67h479v-58z" />
    <glyph glyph-name="eight.tf" 
d="M266 -10q-230 0 -230 217q0 143 112 177v2q-95 37 -95 160q0 189 213 189q110 0 161.5 -50t51.5 -139q0 -122 -97 -160v-2q113 -34 113 -177q0 -112 -57.5 -164.5t-171.5 -52.5zM418 211q0 140 -152 140t-152 -140q0 -85 36.5 -120.5t115.5 -35.5t115.5 35.5t36.5 120.5z
M266 671q-74 0 -106.5 -30t-32.5 -100q0 -68 33 -99t106 -31q72 0 105.5 31.5t33.5 98.5q0 70 -32.5 100t-106.5 30z" />
    <glyph glyph-name="nine.tf" 
d="M107 154q47 -98 152 -98q67 0 106.5 39t39.5 112v142h-2q-53 -56 -153 -56q-99 0 -152.5 54t-53.5 162q0 107 57.5 166.5t167.5 59.5q98 0 155 -59t57 -158v-308q0 -100 -61 -160t-158 -60q-156 0 -207 135zM261 355q51 0 96 24t48 63v79q0 70 -35.5 109t-102.5 39
q-146 0 -146 -158q0 -83 35.5 -119.5t104.5 -36.5z" />
    <glyph glyph-name="less.tf" 
d="M422 466l-233 -152l234 -151v-75l-335 221v10l334 223v-76z" />
    <glyph glyph-name="equal.tf" 
d="M443 344h-354v59h354v-59zM443 205h-354v58h354v-58z" />
    <glyph glyph-name="greater.tf" 
d="M109 163l233 151l-232 152v76l334 -223v-10l-335 -221v75z" />
    <glyph glyph-name="cent.tf" 
d="M53 488q0 108 54.5 173.5t150.5 72.5l10 92h49l1 -94q62 -10 107 -49.5t62 -94.5l-60 -24q-33 100 -141 100q-74 0 -112.5 -46t-38.5 -129v-258q0 -78 39.5 -125.5t111.5 -47.5q59 0 92 25t50 84l61 -22q-36 -143 -184 -154l-10 -90h-49l-1 92q-88 11 -140 75t-52 162
v258z" />
    <glyph glyph-name="sterling.tf" 
d="M48 331l-9 56h66q-12 84 -12 123q0 107 50 166.5t143 59.5q72 0 123 -39.5t68 -105.5l-58 -22q-31 98 -131 98q-122 0 -122 -164q0 -38 10 -116h230l-7 -56h-216q15 -108 16 -129q27 -9 54.5 -33t45.5 -47t42.5 -41.5t48.5 -18.5q32 0 50 28t28 96l55 -14
q-12 -96 -44.5 -139t-85.5 -43q-44 0 -78.5 28.5t-66 71t-50.5 56.5q-5 -156 -105 -156q-36 0 -57.5 23.5t-21.5 65.5q0 52 32 86.5t89 40.5q-8 38 -21 125h-66zM98 45q23 0 33.5 25t10.5 88q-71 -6 -71 -76q0 -37 27 -37z" />
    <glyph glyph-name="currency.tf" 
d="M150 379q0 37 19 67l-45 48l31 35l47 -49q30 20 63 20q36 0 64 -20l48 50l32 -34l-47 -51q19 -30 19 -66q0 -37 -20 -68l47 -49l-32 -34l-47 49q-29 -20 -64 -20t-63 20l-47 -51l-32 34l47 51q-20 29 -20 68zM199 379q0 -31 19.5 -51.5t47.5 -20.5t47.5 20.5t19.5 51.5
q0 30 -19.5 50.5t-47.5 20.5t-47.5 -20.5t-19.5 -50.5z" />
    <glyph glyph-name="yen.tf" 
d="M444 170h-139v-170h-78v170h-152v55h152v50h-152v55h135l-205 395h88l172 -360h2l172 360h88l-206 -395h123v-55h-139v-50h139v-55z" />
    <glyph glyph-name="logicalnot.tf" 
d="M393 130v152h-311v58h368v-210h-57z" />
    <glyph glyph-name="plusminus.tf" 
d="M235 137v169h-153v58h153v173h57v-173h158v-58h-158v-169h-57zM450 42h-368v59h368v-59z" />
    <glyph glyph-name="multiply.tf" 
d="M388 140l-123 130l-121 -130l-40 41l122 130l-122 131l39 42l122 -131l123 131l39 -42l-123 -131l123 -130z" />
    <glyph glyph-name="divide.tf" 
d="M450 282h-368v58h368v-58zM214 487q0 22 14.5 37.5t34.5 15.5t35 -15.5t15 -37.5t-15 -37t-35 -15t-34.5 15t-14.5 37zM214 140q0 22 14.5 37.5t34.5 15.5t35 -15.5t15 -37.5t-15 -37t-35 -15t-34.5 15t-14.5 37z" />
    <glyph glyph-name="uni2007.tf" 
 />
    <glyph glyph-name="franc.tf" 
d="M9 113v56h77v556h406v-73h-322v-250h276v-68h-276v-165h112v-56h-112v-113h-84v113h-77z" />
    <glyph glyph-name="lira.tf" 
d="M41 369l-7 45h67q-8 62 -8 96q0 107 50 166.5t143 59.5q72 0 123 -39.5t68 -105.5l-58 -22q-31 98 -131 98q-122 0 -122 -164q0 -24 7 -89h246l-8 -45h-233q4 -26 5 -38h219l-8 -42h-205l10 -87q27 -9 54.5 -33t45.5 -47t42.5 -41.5t48.5 -18.5q32 0 50 28t28 96l55 -14
q-12 -96 -44.5 -139t-85.5 -43q-34 0 -64.5 19t-49 43l-41.5 53t-40 41q-5 -156 -105 -156q-36 0 -57.5 23.5t-21.5 65.5q0 52 32 86.5t89 40.5q-1 5 -3.5 20t-5.5 31t-5 32h-63l-7 42h63l-6 38h-67zM98 45q23 0 33.5 25t10.5 88q-71 -6 -71 -76q0 -37 27 -37z" />
    <glyph glyph-name="peseta.tf" 
d="M4 482v48h61v195h217q87 0 135 -51t53 -144h58v-48h-58q-6 -91 -54 -140.5t-131 -49.5h-140v-292h-80v482h-61zM145 656v-127h245q-3 66 -29.5 96.5t-80.5 30.5h-135zM280 358q53 0 79.5 30t30.5 95h-245v-125h135z" />
    <glyph glyph-name="Euro.tf" 
d="M308 735q75 0 131 -41.5t75 -105.5l-60 -24q-33 100 -141 100q-74 0 -112.5 -46t-38.5 -129v-40h252l-12 -47h-240v-54h226l-12 -47h-214v-70q0 -78 39.5 -125.5t111.5 -47.5q59 0 92 25t50 84l61 -22q-39 -155 -208 -155q-104 0 -166 66.5t-62 173.5v71h-78v47h78v54
h-78v47h78v39q0 115 60.5 181t167.5 66z" />
    <glyph glyph-name="uni20B4.tf" 
d="M43 407v48h308q53 48 53 106q0 52 -26.5 83t-94.5 31q-111 0 -165 -98l-55 27q66 131 223 131q91 0 138.5 -46t47.5 -123q0 -64 -47 -111h67v-48h-122q-21 -15 -63.5 -40l-57.5 -34h242v-48h-302q-51 -51 -51 -114q0 -57 37 -88.5t102 -31.5q115 0 167 110l52 -26
q-63 -145 -222 -145q-102 0 -153.5 48t-51.5 127q0 70 47 120h-74v48h125q28 21 117 72l3 2h-244z" />
    <glyph glyph-name="uni20B8.tf" 
d="M54 619h422v-57h-170v-562h-82v562h-170v57zM476 668h-422v57h422v-57z" />
    <glyph glyph-name="uni20BA.tf" 
d="M39 307v58l61 32v328h77v-296l183 103v-58l-183 -103v-56l183 103v-59l-183 -102v-187h119q59 0 93.5 26t50.5 86l58 -30q-37 -152 -201 -152h-197v224l-61 -32v58l61 32v57z" />
    <glyph glyph-name="uni20BD.tf" 
d="M174 0h-82v196h-77v59h77v49h-77v59h77v362h219q96 0 147.5 -54.5t51.5 -156.5q0 -99 -50.5 -154.5t-144.5 -55.5h-141v-49h198v-59h-198v-196zM174 663v-300h133q63 0 92 36.5t29 113.5q0 78 -29 114t-92 36h-133z" />
    <glyph glyph-name="minus.tf" 
d="M450 283h-368v57h368v-57z" />
    <glyph glyph-name="approxequal.tf" 
d="M443 414v-58q-47 -26 -92 -26q-32 0 -89 18.5t-88 18.5q-43 0 -85 -26v58q47 26 92 26q34 0 92 -19t87 -19q42 0 83 27zM443 274v-58q-47 -26 -92 -26q-32 0 -89 18.5t-88 18.5q-43 0 -85 -26v58q47 26 92 26q34 0 92 -19t87 -19q42 0 83 27z" />
    <glyph glyph-name="notequal.tf" 
d="M395 491l-48 -88h96v-59h-128l-43 -81h171v-58h-203l-61 -114l-39 23l49 91h-100v58h131l44 81h-175v59h207l60 111z" />
    <glyph glyph-name="lessequal.tf" 
d="M422 465l-227 -135l228 -134v-73l-335 202v10l334 206v-76zM95 33v56h328v-56h-328z" />
    <glyph glyph-name="greaterequal.tf" 
d="M109 196l228 134l-227 135v76l334 -206v-10l-335 -202v73zM437 89v-56h-328v56h328z" />
    <glyph glyph-name="numbersign.tosf" horiz-adv-x="480" 
d="M37 376v52h100l15 182h56l-16 -182h117l15 182h56l-15 -182h77v-52h-79l-12 -143h91v-52h-92l-16 -181h-56l16 181h-117l-15 -181h-55l15 181h-85v52h87l12 143h-99zM191 376l-11 -143h116l12 143h-117z" />
    <glyph glyph-name="dollar.tosf" horiz-adv-x="480" 
d="M54 461q0 64 43 105.5t118 47.5l13 126h49l3 -129q49 -10 84.5 -40t51.5 -74l-53 -21q-32 79 -123 79q-110 0 -110 -90q0 -33 21.5 -58t54 -40.5l70.5 -35t70.5 -39t54 -54.5t21.5 -80q0 -69 -41 -113t-110 -53l-11 -129h-50l-2 129q-61 6 -99.5 38.5t-61.5 94.5l55 21
q36 -98 140 -98q50 0 80 26.5t30 75.5q0 35 -22 61.5t-55 41.5l-72 34t-72 38.5t-55 54.5t-22 81z" />
    <glyph glyph-name="plus.tosf" horiz-adv-x="480" 
d="M210 67v191h-150v58h150v192h57v-192h154v-58h-154v-191h-57z" />
    <glyph glyph-name="zero.tosf" horiz-adv-x="480" 
d="M440 388v-200q0 -93 -52 -145t-149 -52q-96 0 -148 52.5t-52 146.5v192q0 97 52 151.5t148 54.5q97 0 149 -52.5t52 -147.5zM112 382v-194q0 -139 127 -139t127 136v204q0 140 -127 140t-127 -147z" />
    <glyph glyph-name="one.tosf" horiz-adv-x="480" 
d="M242 414h-152v54h70q59 0 78.5 23t22.5 100h58v-542h124v-49h-341v49h140v365z" />
    <glyph glyph-name="two.tosf" horiz-adv-x="480" 
d="M250 590q88 0 131.5 -40t43.5 -106q0 -78 -71 -170t-203 -211v-2h282v-61h-386l-1 48q305 255 305 392q0 89 -108 89q-88 0 -144 -81l-51 27q37 58 85 86.5t117 28.5z" />
    <glyph glyph-name="three.tosf" horiz-adv-x="480" 
d="M413 440q0 -117 -90 -147v-2q60 -12 85 -47t25 -97q0 -243 -363 -243l-7 60q160 0 228 48t68 136q0 61 -33.5 85.5t-118.5 24.5h-25v58h23q73 0 103.5 28.5t30.5 91.5q0 92 -102 92q-91 0 -148 -81l-51 27q75 116 205 116q85 0 127.5 -41.5t42.5 -108.5z" />
    <glyph glyph-name="four.tosf" horiz-adv-x="480" 
d="M376 -94h-71v232h-291v53l291 391h71v-386h92l-7 -58h-85v-232zM96 196h209l8 302h-2z" />
    <glyph glyph-name="five.tosf" horiz-adv-x="480" 
d="M401 517h-265l-17 -202q56 24 119 24q96 0 144 -43t48 -135q0 -118 -92 -187.5t-258 -69.5l-7 59q145 0 214 53t69 140q0 68 -33 96t-103 28q-74 0 -121 -30l-50 24l28 308h329z" />
    <glyph glyph-name="six.tosf" horiz-adv-x="480" 
d="M378 627q-105 0 -170.5 -66.5t-78.5 -195.5h2q51 44 125 44q182 0 182 -196q0 -105 -49.5 -163.5t-144.5 -58.5q-94 0 -142 60.5t-48 164.5v88q0 177 85 280t234 103zM248 347q-73 0 -121 -51v-80q0 -83 31.5 -123.5t87.5 -40.5q119 0 119 158q0 73 -28.5 105t-88.5 32z
" />
    <glyph glyph-name="seven.tosf" horiz-adv-x="480" 
d="M192 -91h-80l258 608h-329v65h406v-56z" />
    <glyph glyph-name="eight.tosf" horiz-adv-x="480" 
d="M240 -9q-193 0 -193 173q0 112 96 140v2q-83 31 -83 131q0 71 44 112t136 41t136 -41t44 -111q0 -101 -83 -132v-2q96 -28 96 -140q0 -173 -193 -173zM360 168q0 106 -120 106t-120 -106q0 -118 120 -118q62 0 91 29t29 89zM240 531q-57 0 -83.5 -24.5t-26.5 -76.5
q0 -102 110 -102t110 103q0 52 -26 76t-84 24z" />
    <glyph glyph-name="nine.tosf" horiz-adv-x="480" 
d="M98 -36q116 0 182 69.5t73 211.5h-2q-48 -40 -125 -40q-88 0 -136 46.5t-48 140.5q0 92 50 144.5t144 52.5q93 0 141.5 -61t48.5 -162v-86q0 -178 -84.5 -277t-236.5 -99zM234 264q70 0 119 49v52q0 162 -119 162t-119 -134q0 -68 29.5 -98.5t89.5 -30.5z" />
    <glyph glyph-name="less.tosf" horiz-adv-x="480" 
d="M411 440l-248 -153l250 -153v-74l-351 221v11l349 222v-74z" />
    <glyph glyph-name="equal.tosf" horiz-adv-x="480" 
d="M414 328h-347v58h347v-58zM414 188h-347v59h347v-59z" />
    <glyph glyph-name="greater.tosf" horiz-adv-x="480" 
d="M69 514l350 -221v-11l-349 -222v74l249 153l-250 153v74z" />
    <glyph glyph-name="cent.tosf" horiz-adv-x="480" 
d="M426 497l-58 -23q-33 83 -126 83q-122 0 -122 -146v-222q0 -141 124 -141q93 0 125 90l58 -21q-39 -112 -155 -125l-12 -129h-49l-2 129q-81 8 -122 60t-41 141v215q0 89 42.5 145t127.5 64l13 123h49l2 -125q105 -18 146 -118z" />
    <glyph glyph-name="sterling.tosf" horiz-adv-x="480" 
d="M405 496l-54 -20q-23 81 -102 81q-95 0 -95 -133q0 -30 9 -100h183l-6 -47h-171l5 -40t5 -41.5t3 -28.5q27 -10 53 -39l48.5 -52t44.5 -23q27 0 42 23t22 79l52 -13q-19 -153 -111 -153q-35 0 -62 21t-53 57.5t-37 46.5l-2 2q-8 -127 -89 -127q-31 0 -49 19.5t-18 55.5
q0 44 26 73.5t73 34.5l-20 105h-50l-8 47h50q-10 65 -10 103q0 90 42 140.5t119 50.5q60 0 102.5 -33t57.5 -89zM93 36q35 0 36 94q-57 -6 -57 -64q0 -30 21 -30z" />
    <glyph glyph-name="currency.tosf" horiz-adv-x="480" 
d="M124 308q0 38 20 67l-46 49l31 34l47 -49q30 20 63 20q36 0 64 -20l48 51l32 -34l-47 -52q19 -30 19 -66q0 -35 -20 -67l47 -50l-32 -34l-47 50q-29 -20 -64 -20q-33 0 -62 19l-48 -51l-32 34l47 51q-20 31 -20 68zM173 308q0 -31 19.5 -51.5t47.5 -20.5t47.5 20.5
t19.5 51.5q0 30 -19.5 50.5t-47.5 20.5t-47.5 -20.5t-19.5 -50.5z" />
    <glyph glyph-name="yen.tosf" horiz-adv-x="480" 
d="M403 144h-126v-144h-73v144h-126v47h126v43h-126v47h111l-180 329h82l150 -299h2l146 299h85l-182 -329h111v-47h-126v-43h126v-47z" />
    <glyph glyph-name="logicalnot.tosf" horiz-adv-x="480" 
d="M365 106v152h-305v58h361v-210h-56z" />
    <glyph glyph-name="plusminus.tosf" horiz-adv-x="480" 
d="M210 123v161h-150v58h150v165h57v-165h154v-58h-154v-161h-57zM421 28h-361v59h361v-59z" />
    <glyph glyph-name="multiply.tosf" horiz-adv-x="480" 
d="M353 117l-122 130l-122 -130l-39 41l122 130l-122 131l39 42l122 -131l122 131l40 -42l-123 -131l123 -130z" />
    </font>
</defs>
</svg>
