<svg width="40" height="40" viewBox="0 0 40 40" fill="none" xmlns="http://www.w3.org/2000/svg"><g clip-path="url(#a)" fill="#4F9D3A"><path d="M37.844 20.388l-4.097-.91-1.961-4.655a.693.693 0 0 0-.032-.067 2.667 2.667 0 0 0-2.332-1.368h-4.156v-1.334h1.333v-1.333h-1.333v-2a.667.667 0 0 0-.667-.667H.598a.667.667 0 0 0-.667.667v19.334c0 .368.298.667.667.667H5.93a3.334 3.334 0 1 0 6.667 0h18.668a3.334 3.334 0 1 0 6.667 0h1.334a.667.667 0 0 0 .666-.667v-5.063a2.652 2.652 0 0 0-2.089-2.604zM9.264 30.722a2 2 0 1 1 .651-3.89c.631.221 1.11.743 1.277 1.39a1.968 1.968 0 0 1-1.927 2.5zm14.668-16.668V27.39H12.31l-.008-.018c-.017-.037-.04-.067-.056-.106a3.38 3.38 0 0 0-.193-.35c-.034-.052-.073-.1-.109-.15a4.77 4.77 0 0 0-.205-.26c-.044-.05-.091-.095-.139-.142a3.392 3.392 0 0 0-.393-.337 3.155 3.155 0 0 0-.259-.168c-.058-.036-.117-.067-.178-.101a3.373 3.373 0 0 0-.29-.129c-.061-.024-.121-.05-.184-.07a3.186 3.186 0 0 0-.338-.088c-.056-.012-.11-.028-.166-.037a3.114 3.114 0 0 0-1.055 0c-.056.009-.11.025-.166.037a3.296 3.296 0 0 0-.338.088c-.062.02-.122.046-.183.07-.1.04-.2.08-.29.129-.062.031-.12.067-.179.1a3.556 3.556 0 0 0-.42.294 3.247 3.247 0 0 0-.232.213 3.03 3.03 0 0 0-.138.14 3.124 3.124 0 0 0-.208.268c-.035.048-.073.094-.106.145a3.31 3.31 0 0 0-.2.36c-.016.033-.036.063-.05.097 0 .006-.007.012-.01.018H1.264V9.387h22.668v4.667zM34.6 30.722a2 2 0 1 1 .65-3.89c.631.221 1.11.743 1.277 1.39a1.968 1.968 0 0 1-1.927 2.5zm4-3.334h-.955c0-.006-.006-.01-.008-.017-.017-.037-.04-.067-.056-.106a3.361 3.361 0 0 0-.193-.35c-.034-.052-.073-.1-.109-.15a4.67 4.67 0 0 0-.204-.26c-.045-.05-.092-.095-.14-.142a3.487 3.487 0 0 0-.393-.337 3.15 3.15 0 0 0-.259-.168c-.059-.036-.116-.067-.178-.101a3.38 3.38 0 0 0-.29-.129c-.061-.024-.121-.05-.184-.07a3.151 3.151 0 0 0-.338-.088c-.056-.012-.11-.028-.166-.037a3.143 3.143 0 0 0-1.055 0c-.056.009-.11.025-.166.037a3.3 3.3 0 0 0-.337.088c-.063.02-.123.046-.184.07-.1.04-.197.08-.29.129-.062.031-.12.067-.179.1a3.566 3.566 0 0 0-.42.294 3.316 3.316 0 0 0-.232.213 3.225 3.225 0 0 0-.139.14 3.176 3.176 0 0 0-.207.268c-.035.048-.073.094-.106.145a3.51 3.51 0 0 0-.2.36c-.016.033-.036.063-.05.097 0 .006-.007.012-.01.018h-6.286v-12.67h4.156c.473-.001.91.249 1.15.656l2.08 4.934a.667.667 0 0 0 .466.392l4.434.985c.515.111.914.517 1.018 1.033H36.6v1.333h2v3.334z"/><path d="M2.597 10.72h2v1.334h-2v-1.333zm3.333 0h2.001v1.334h-2v-1.333zm11.335 0h2v1.334h-2v-1.333zm3.334 0h2v1.334h-2v-1.333zm9.299 5.79a.667.667 0 0 0-.632-.456h-2a.667.667 0 0 0-.667.667v4c0 .369.299.667.667.667H30.6a.667.667 0 0 0 .631-.877l-1.333-4zm-1.965 3.545v-2.667h.852l.89 2.667h-1.742zM26.6 22.721h2.666v1.334h-2.667V22.72zM2.597 25.388h4v-5.333h-4v5.333zm1.334-4h1.333v2.667H3.931v-2.667zm18.668-1.333H11.265v5.333h11.334v-5.333zm-8 4h-2v-2.667h2v2.667zm3.333 0h-2v-2.667h2v2.667zm3.334 0h-2v-2.667h2v2.667z"/></g><defs><clipPath id="a"><path fill="#4F9D3A" d="M0 0h40v40H0z"/></clipPath></defs></svg>