<svg width="80" height="80" viewBox="0 0 80 80" fill="none" xmlns="http://www.w3.org/2000/svg"><g clip-path="url(#a)" fill="#72BF44"><path d="M73.333 54.667c-2.133 0-3.866-1.6-4-3.734 5.067-2.133 8.134-7.2 8-12.666v-.934c0-6.666-5.333-12-12-12h-16c-.8 0-1.333.534-1.333 1.334 0 3.066 1.2 6 3.2 8.133-.267 1.333-.533 2.533-.533 3.867 0 5.333 3.2 10.133 8 12.266-.134 2.134-1.867 3.734-4 3.734-3.734 0-6.667 2.933-6.667 6.666V80h2.667V61.333c0-2.133 1.733-4 3.866-4l6.534 1.067-2.4 16c0 .4.133.8.4 1.2l4 4a1.289 1.289 0 0 0 1.866 0l4-4c.267-.267.4-.667.4-1.2l-2.4-16 6.534-1.067c2.133 0 3.866 1.867 3.866 4V80H80V61.333c0-3.733-2.933-6.666-6.667-6.666zM50.8 28h14.533c4.667 0 8.534 3.467 9.2 8H60c-4.667 0-8.533-3.467-9.2-8zM64 76.8l-2.533-2.533 2.4-15.6h.4l2.4 15.6L64 76.8zM65.2 56h-2.4l-3.467-.533c1.334-1.2 2-2.934 2-4.8V50c0-.533-.4-1.067-.933-1.2-4.267-1.6-7.067-5.6-7.067-10.133 0-.667 0-1.334.134-1.867C55.333 38 57.6 38.667 60 38.667h14.667c0 4.533-2.8 8.533-7.067 10-.533.133-.933.666-.933 1.2v.8c0 1.733.666 3.466 2 4.8L65.2 56z"/><path d="M73.333 64h-4v2.667h4V64zm5.334-64H1.333C.533 0 0 .533 0 1.333v5.334C0 7.467.533 8 1.333 8h1.334v48H1.333C.533 56 0 56.533 0 57.333v5.334C0 63.467.533 64 1.333 64H36v14.667c0 .8.533 1.333 1.333 1.333h5.334c.8 0 1.333-.533 1.333-1.333V64h1.333v-2.667H2.667v-2.666h42.666V56h-40V8h69.334v18.667h2.666V8h1.334C79.467 8 80 7.467 80 6.667V1.333C80 .533 79.467 0 78.667 0zm-40 64h2.666v13.333h-2.666V64zM77.333 5.333H2.667V2.667h74.666v2.666z"/><path d="M70.667 10.667H9.333C8.533 10.667 8 11.2 8 12v26.667c0 .8.533 1.333 1.333 1.333H48v-2.667H10.667v-7.466l10.266 3.466c.134 0 .267.134.4.134.4 0 .667-.134.934-.4l7.333-7.334 7.2 3.6c.4.267.933.134 1.333-.133L52.4 18.667h4.933V16H52c-.267 0-.533.133-.8.267L37.2 26.4l-7.333-3.6c-.534-.267-1.067-.133-1.6.267L20.8 30.533l-10.133-3.466V13.333h58.666v9.334H72V12c0-.8-.533-1.333-1.333-1.333zM44.933 48.4l-6.666-6.667a1.289 1.289 0 0 0-1.867 0L29.733 48.4a1.289 1.289 0 0 0 0 1.867c.267.266.534.4.934.4h2.666v2.666c0 .8.534 1.334 1.334 1.334H40c.8 0 1.333-.534 1.333-1.334v-2.666H44c.8 0 1.333-.534 1.333-1.334 0-.4-.133-.666-.4-.933zM40 48c-.8 0-1.333.533-1.333 1.333V52H36v-2.667c0-.8-.533-1.333-1.333-1.333h-.8l3.466-3.467L40.8 48H40zm-12.4-2.267c-.267-.266-.533-.4-.933-.4H24v-2.666c0-.8-.533-1.334-1.333-1.334h-5.334c-.8 0-1.333.534-1.333 1.334v2.666h-2.667c-.8 0-1.333.534-1.333 1.334 0 .4.133.666.4.933l6.667 6.667a1.289 1.289 0 0 0 1.866 0L27.6 47.6a1.289 1.289 0 0 0 0-1.867zM20 51.467L16.533 48h.8c.8 0 1.334-.533 1.334-1.333V44h2.666v2.667c0 .8.534 1.333 1.334 1.333h.8L20 51.467z"/><path d="M65.333 16v-1.333h-2.666V16h-1.334v2.667h1.334V20h2.666v-1.333h1.334V16h-1.334zm-34.666 1.333V16H28v1.333h-1.333V20H28v1.333h2.667V20H32v-2.667h-1.333z"/></g><defs><clipPath id="a"><path fill="#fff" d="M0 0h80v80H0z"/></clipPath></defs></svg>