<svg width="40" height="40" viewBox="0 0 40 40" fill="none" xmlns="http://www.w3.org/2000/svg"><g clip-path="url(#a)" fill="#4F9D3A"><path d="M7.095 29.023a4.515 4.515 0 0 0 4.463-3.87h17.518a4.509 4.509 0 0 0 8.927 0h.696a.645.645 0 0 0 .633-.52l.645-3.275a.64.64 0 0 0 .004-.228 5.971 5.971 0 0 0-5.402-5.136l-6.145-.59-3.827-2.313a12.208 12.208 0 0 0-6.901-2.128h-2.838c-2.39.003-4.775.208-7.13.615-.764.129-1.397.253-1.993.387l-1.368.304a.645.645 0 0 0-.507.629v.89l-2.838 1.42A1.856 1.856 0 0 0 0 16.878v4.543c-.002.496.195.971.547 1.32l2.047 2.048a4.515 4.515 0 0 0 4.5 4.233zm0-1.29a3.225 3.225 0 1 1 0-6.45 3.225 3.225 0 0 1 0 6.45zm26.445 0a3.225 3.225 0 1 1 0-6.45 3.225 3.225 0 0 1 0 6.45zm.923-10.457h.006c.79.065 1.551.334 2.206.782h-.556v1.29h1.806c.38.567.639 1.206.763 1.878l-.519 2.637h-.16c-.008-.05-.02-.098-.029-.148a3.31 3.31 0 0 0-.1-.426c-.015-.056-.03-.113-.047-.168a4.401 4.401 0 0 0-.093-.251c-.019-.048-.035-.097-.056-.145a4.599 4.599 0 0 0-.135-.28c-.017-.032-.03-.065-.048-.097a4.227 4.227 0 0 0-.218-.358c-.014-.021-.03-.04-.044-.06a3.298 3.298 0 0 0-.205-.274c-.03-.037-.065-.07-.094-.107a4.405 4.405 0 0 0-.184-.202c-.038-.039-.078-.075-.117-.112a4.692 4.692 0 0 0-.188-.171 7.348 7.348 0 0 0-.327-.254c-.049-.034-.098-.064-.147-.098a9.213 9.213 0 0 0-.207-.128 4.564 4.564 0 0 0-.376-.192c-.054-.024-.109-.05-.164-.072a4.006 4.006 0 0 0-.234-.085c-.055-.02-.11-.04-.167-.056-.083-.024-.167-.044-.252-.065-.055-.012-.109-.027-.164-.037-.095-.02-.194-.032-.288-.045-.048-.006-.094-.015-.142-.02a4.544 4.544 0 0 0-.885.003c-.049.005-.095.014-.143.02a3.839 3.839 0 0 0-.288.044c-.055.011-.11.025-.163.038-.085.02-.17.04-.253.065a2.336 2.336 0 0 0-.167.056 4.095 4.095 0 0 0-.234.085 4.444 4.444 0 0 0-.54.263c-.07.04-.139.082-.207.13-.05.03-.098.063-.147.096a6.758 6.758 0 0 0-.327.254 3.073 3.073 0 0 0-.187.172c-.04.037-.08.073-.118.112a3.861 3.861 0 0 0-.184.201c-.03.037-.064.07-.094.108a4.574 4.574 0 0 0-.207.276c-.013.02-.028.038-.042.057a4.83 4.83 0 0 0-.218.359c-.017.03-.03.064-.048.096a4.548 4.548 0 0 0-.135.281c-.02.048-.037.097-.056.144a4.334 4.334 0 0 0-.092.251c-.018.056-.033.112-.049.168a7.8 7.8 0 0 0-.064.246c-.013.06-.023.12-.034.18-.01.05-.022.098-.029.148H18.616l-.291-1.935h9.41v-1.293h-9.603l-.75-4.993 10.815 1.046 6.266.586zm-16.76-5.023a10.96 10.96 0 0 1 6.207 1.924l1.557.94-8.283-.795-.31-2.07h.829zm-2.838 0h.703l.292 1.942-6.443-.618-.527-.877a40.683 40.683 0 0 1 5.976-.447h-.001zM1.29 18.058h2.58v-1.29H1.305a.567.567 0 0 1 .304-.406l3.194-1.594a.645.645 0 0 0 .357-.58v-.774l.862-.194c.46-.102.943-.198 1.498-.298l.957 1.595c.105.175.287.29.49.31l7.093.689.767 5.122h-4.573v1.29h4.766l.29 1.935h-5.746c-.007-.05-.02-.098-.029-.147a3.17 3.17 0 0 0-.1-.426c-.015-.057-.029-.114-.047-.169a4.185 4.185 0 0 0-.093-.251c-.018-.048-.035-.097-.056-.144a4.52 4.52 0 0 0-.135-.282c-.017-.031-.03-.064-.048-.096a4.148 4.148 0 0 0-.218-.358c-.013-.021-.03-.04-.044-.06a3.243 3.243 0 0 0-.205-.274c-.03-.037-.064-.07-.094-.107a4.405 4.405 0 0 0-.184-.202c-.038-.039-.078-.075-.117-.112-.065-.058-.123-.116-.188-.171a6.35 6.35 0 0 0-.327-.253c-.048-.035-.097-.065-.147-.099-.064-.043-.136-.085-.206-.128a4.563 4.563 0 0 0-.376-.192c-.055-.024-.11-.05-.165-.072a4.327 4.327 0 0 0-.233-.085c-.056-.02-.11-.04-.167-.056a4.882 4.882 0 0 0-.252-.064c-.055-.013-.11-.027-.165-.038-.095-.019-.193-.032-.288-.045-.047-.006-.094-.015-.142-.02a4.446 4.446 0 0 0-1.108.035l-.132.02a4.43 4.43 0 0 0-.61.154c-.036.011-.071.025-.106.038a4.56 4.56 0 0 0-.533.229c-.023.012-.048.022-.072.035-.064.035-.129.076-.193.115H1.29v-2.58zm2.105 3.87a4.425 4.425 0 0 0-.315.523l-.054.112c-.093.19-.172.386-.236.587v.007l-1.233-1.23h1.838z"/><path d="M28.38 18.058h1.29v1.29h-1.29v-1.29zm-19.35-1.29h2.58v1.29H9.03v-1.29zm10.32.645h2.58v1.29h-2.58v-1.29zm-12.255 5.16a1.935 1.935 0 1 0 0 3.87 1.935 1.935 0 0 0 0-3.87zm0 2.58a.645.645 0 1 1 0-1.29.645.645 0 0 1 0 1.29zm26.445-2.58a1.935 1.935 0 1 0 0 3.87 1.935 1.935 0 0 0 0-3.87zm0 2.58a.645.645 0 1 1 0-1.29.645.645 0 0 1 0 1.29z"/></g><defs><clipPath id="a"><path fill="#4F9D3A" d="M0 0h40v40H0z"/></clipPath></defs></svg>