<svg width="24" height="24" viewBox="0 0 24 24" fill="none" xmlns="http://www.w3.org/2000/svg"><g clip-path="url(#a)"><path d="M10.482 22.83a7.356 7.356 0 0 1-1.842-2.985 20.266 20.266 0 0 1-1.01-5.404 36.43 36.43 0 0 1 .141-7.506 12.74 12.74 0 0 1 1.086-3.928c.514-1.06 1.208-1.999 2.356-2.498a4.957 4.957 0 0 1 4.152-.104c.265.097.48.288.6.533.121.245.138.525.048.782a632.379 632.379 0 0 1-1.224 4.768 1.095 1.095 0 0 1-.312.548c-.157.15-.356.254-.573.299l-1.897.488a1.164 1.164 0 0 0-.685.368 1.076 1.076 0 0 0-.28.703c-.246 2.1-.201 4.222.134 6.31.019.246.125.478.3.658.176.18.41.298.665.334.622.136 1.253.28 1.867.4.248.037.478.144.662.308.183.164.31.377.366.61.447 1.531.906 3.058 1.362 4.585a1.045 1.045 0 0 1-.283 1.264 1.147 1.147 0 0 1-.42.223 5.044 5.044 0 0 1-4.782-.424 4.568 4.568 0 0 1-.418-.32" fill="#4F9D3A"/></g><defs><clipPath id="a"><path fill="#fff" d="M0 0h24v24H0z"/></clipPath></defs></svg>