<svg width="40" height="40" viewBox="0 0 40 40" fill="none" xmlns="http://www.w3.org/2000/svg"><path d="M34.142 5.858A19.87 19.87 0 0 0 20 0 19.869 19.869 0 0 0 5.858 5.858 19.87 19.87 0 0 0 0 20a19.87 19.87 0 0 0 5.858 14.142A19.869 19.869 0 0 0 20 40c5.342 0 10.365-2.08 14.142-5.858A19.87 19.87 0 0 0 40 20a19.87 19.87 0 0 0-5.858-14.142zM20 38.438C9.834 38.438 1.562 30.166 1.562 20 1.563 9.834 9.835 1.562 20 1.562c10.166 0 18.438 8.272 18.438 18.438 0 10.166-8.272 18.438-18.438 18.438z" fill="#fff"/><path d="M36.57 16.793A16.858 16.858 0 0 0 26.7 4.508a.781.781 0 0 0-.62 1.434 15.297 15.297 0 0 1 8.956 11.146.782.782 0 0 0 1.535-.295zM23.627 3.516l-.02-.004a.781.781 0 1 0-.33 1.527l.01.002a.782.782 0 0 0 .34-1.525zm-9.53 30.618a15.272 15.272 0 0 1-9.133-11.222.78.78 0 1 0-1.535.295 16.876 16.876 0 0 0 3.51 7.48 16.972 16.972 0 0 0 6.555 4.888.778.778 0 0 0 1.022-.42.781.781 0 0 0-.419-1.021zm2.627.827l-.049-.01a.782.782 0 0 0-.338 1.525l.054.012a.782.782 0 0 0 .332-1.527zM35.89 22.68a.781.781 0 0 0-.929.596 15.273 15.273 0 0 1-12.05 11.76.781.781 0 1 0 .296 1.535 16.797 16.797 0 0 0 8.585-4.5 16.807 16.807 0 0 0 4.696-8.462.781.781 0 0 0-.597-.93zM17.708 4.049a.781.781 0 0 0-.915-.62 16.797 16.797 0 0 0-8.585 4.5 16.806 16.806 0 0 0-4.696 8.462.781.781 0 0 0 1.527.333 15.273 15.273 0 0 1 12.05-11.76.781.781 0 0 0 .619-.915zM20 17.344A2.66 2.66 0 0 0 17.344 20 2.66 2.66 0 0 0 20 22.656 2.66 2.66 0 0 0 22.656 20 2.66 2.66 0 0 0 20 17.344zm0 3.75a1.095 1.095 0 0 1 0-2.188 1.095 1.095 0 0 1 0 2.188zm.012-17.969a.781.781 0 0 0-.781.781v1.75a.781.781 0 0 0 1.562 0v-1.75a.781.781 0 0 0-.781-.781zm-.024 29.88a.781.781 0 0 0-.781.781v2.308a.781.781 0 0 0 1.562 0v-2.308a.781.781 0 0 0-.78-.781zM36.094 19.23h-2.11a.781.781 0 1 0 0 1.563h2.11a.781.781 0 0 0 0-1.562zm-29.922-.023H3.906a.781.781 0 0 0 0 1.562h2.266a.781.781 0 1 0 0-1.562z" fill="#fff"/><path d="M18.125 19.219h-3.568a.781.781 0 1 0 0 1.562h3.568a.781.781 0 1 0 0-1.562zM20 10.026a.781.781 0 0 0-.781.781v7.318a.781.781 0 1 0 1.562 0v-7.318a.781.781 0 0 0-.781-.781z" fill="#fff"/></svg>