<svg width="80" height="80" viewBox="0 0 80 80" fill="none" xmlns="http://www.w3.org/2000/svg"><g clip-path="url(#a)" fill="#000" fill-opacity=".1"><path d="M76 34.667H49.333a4 4 0 0 0-4 4V76a4 4 0 0 0 4 4H76a4 4 0 0 0 4-4V38.667a4 4 0 0 0-4-4zM61.333 77.333h-12A1.333 1.333 0 0 1 48 76v-9.333h13.333v10.666zm0-13.333H48V53.333h13.333V64zm16 12c0 .736-.597 1.333-1.333 1.333H64V66.667h13.333V76zm0-12H64V53.333h13.333V64zm0-13.333H48v-12c0-.737.597-1.334 1.333-1.334H76c.736 0 1.333.597 1.333 1.334v12z"/><path d="M73.333 40H52c-.736 0-1.333.597-1.333 1.333v5.334c0 .736.597 1.333 1.333 1.333h21.333c.737 0 1.334-.597 1.334-1.333v-5.334c0-.736-.597-1.333-1.334-1.333zM72 45.333H53.333v-2.666H72v2.666zm-16 12v-2.666h-2.667v2.666h-2.666V60h2.666v2.667H56V60h2.667v-2.667H56zm18.667 0h-8V60h8v-2.667zm-16.23 12.943l-1.885-1.885-1.885 1.885-1.886-1.885-1.885 1.885 1.885 1.885-1.885 1.886 1.885 1.885 1.886-1.885 1.885 1.885 1.885-1.885-1.885-1.886 1.885-1.885zm16.23.391h-8v2.666h8v-2.666zM72 74h-2.667v1.333H72V74zm0-5.333h-2.667V70H72v-1.333z"/><path d="M53.333 0H14.667v.012a1.324 1.324 0 0 0-.943.379L.391 13.724a1.32 1.32 0 0 0-.379.943H0v62.666A2.667 2.667 0 0 0 2.667 80h40v-2.667h-8v-4h2.666c.737 0 1.334-.597 1.334-1.333v-6.667c0-.736-.597-1.333-1.334-1.333h-2.666v-4h2.666c.737 0 1.334-.597 1.334-1.333V52c0-.736-.597-1.333-1.334-1.333H37.3A13.307 13.307 0 0 0 42.667 40c.014-7.364-5.944-13.345-13.308-13.36-7.363-.014-13.345 5.944-13.359 13.308a13.333 13.333 0 0 0 5.368 10.719H10.667c-.737 0-1.334.597-1.334 1.333v5.333H6.667c-.737 0-1.334.597-1.334 1.334v6.666c0 .737.597 1.334 1.334 1.334h2.666v4H6.667c-.737 0-1.334.597-1.334 1.333v5.333H2.667V16h10.666A2.667 2.667 0 0 0 16 13.333V2.667h37.333V32H56V2.667A2.667 2.667 0 0 0 53.333 0zM36 66.667v4H12v-4h24zM18.667 40c0-5.891 4.775-10.667 10.666-10.667S40 34.11 40 40s-4.776 10.667-10.667 10.667C23.445 50.66 18.673 45.888 18.667 40zM12 53.333h24v4H12v-4zM8 64v-4h24v4H8zm0 9.333h24v4H8v-4zm5.333-60H4.552l8.781-8.781v8.781z"/><path d="M29.333 36h4v-2.667h-2.666V32H28v1.579a3.99 3.99 0 0 0 1.333 7.754 1.333 1.333 0 0 1 0 2.667h-4v2.667H28V48h2.667v-1.579a3.99 3.99 0 0 0-1.334-7.754 1.333 1.333 0 0 1 0-2.667zM74.667 6.667H72c0-.737-.597-1.334-1.333-1.334h-1.334v-4C69.333.597 68.736 0 68 0h-5.333c-.737 0-1.334.597-1.334 1.333v4H60c-.736 0-1.333.597-1.333 1.334V32h2.666V8h8v24H72V9.333h2.667v17.334h2.666V9.333a2.667 2.667 0 0 0-2.666-2.666zm-8-1.334H64V2.667h2.667v2.666zm-24 5.334H20v2.666h22.667v-2.666zm8 8H5.333v2.666h45.334v-2.666zM21.333 24h-16v2.667h16V24zm29.334 0h-12v2.667h12V24z"/></g><defs><clipPath id="a"><path fill="#fff" d="M0 0h80v80H0z"/></clipPath></defs></svg>