<svg width="56" height="56" viewBox="0 0 56 56" fill="none" xmlns="http://www.w3.org/2000/svg"><path d="M44.49 22.588v-5.421h-2.132a11.552 11.552 0 0 0-1.427-3.448l1.507-1.508-3.833-3.833-1.508 1.507A11.562 11.562 0 0 0 33.65 8.46V6.325h-5.421v2.133a11.548 11.548 0 0 0-3.448 1.426l-1.508-1.507-3.833 3.833 1.507 1.508a11.559 11.559 0 0 0-1.426 3.448h-2.135v5.42h2.133a11.55 11.55 0 0 0 1.427 3.448l-1.508 1.508 3.833 3.833 1.51-1.51c.198.119.405.236.627.355l.85-1.594h1.066v-2.512a7.22 7.22 0 0 1-3.614-6.253 7.228 7.228 0 0 1 14.456 0 7.22 7.22 0 0 1-3.614 6.253v2.506h1.082l.859 1.59c.212-.115.412-.23.6-.344l1.511 1.51 3.833-3.832-1.507-1.508a11.562 11.562 0 0 0 1.427-3.448h2.134z" fill="#8ED564"/><path d="M51.702 20.771c0-11.308-9.197-20.625-20.5-20.77L30.937 0c-9.76 0-18.291 6.952-20.345 16.623a20.234 20.234 0 0 0-.19 7.322L4.296 34.869l6.765 1.95v11.05h9.035V56h1.807v-9.938h-9.035V35.46l-5.884-1.697 5.306-9.49-.053-.314c-.4-2.355-.358-4.697.124-6.962 1.893-8.916 9.8-15.312 18.817-15.19 10.321.133 18.717 8.64 18.717 18.964l.003 3.297a21.987 21.987 0 0 1-9.534 18.127l-.39.27V56h1.806V43.41a23.794 23.794 0 0 0 9.924-19.342l-.002-3.297z" fill="#fff"/><path d="M39.07 19.86c0-4.484-3.648-8.132-8.132-8.132s-8.131 3.648-8.131 8.132a8.16 8.16 0 0 0 3.614 6.754v1.424a2.262 2.262 0 0 0-1.807 2.212c0 .804.424 1.505 1.058 1.907-.096.25-.155.52-.155.804a2.26 2.26 0 0 0 2.259 2.258H34.1a2.26 2.26 0 0 0 2.26-2.258c0-.285-.06-.554-.155-.804a2.254 2.254 0 0 0-.75-4.12v-1.423a8.16 8.16 0 0 0 3.615-6.754zm-14.456 0a6.333 6.333 0 0 1 6.324-6.325 6.333 6.333 0 0 1 6.325 6.325 6.348 6.348 0 0 1-3.163 5.47l-.451.262v2.398h-1.807v-5.587a2.707 2.707 0 0 0 1.807-2.544 2.714 2.714 0 0 0-2.71-2.71 2.714 2.714 0 0 0-2.711 2.71c0 1.176.758 2.17 1.807 2.544v5.587h-1.807v-2.398l-.451-.262a6.347 6.347 0 0 1-3.163-5.471zm5.42 0a.904.904 0 1 1 1.808 0 .904.904 0 0 1-1.807 0zm-3.162 9.939h8.132c.248 0 .452.203.452.451a.453.453 0 0 1-.452.452h-8.132a.453.453 0 0 1-.451-.452c0-.248.203-.451.451-.451zm7.228 3.614h-6.324a.453.453 0 0 1-.452-.452c0-.249.203-.452.452-.452H34.1c.249 0 .452.203.452.452a.453.453 0 0 1-.452.452zm-2.273 3.613H30.02v1.807h1.807v-1.807zm0 3.614H30.02v1.807h1.807V40.64zm0 3.615H30.02v1.806h1.807v-1.806zm0 3.613H30.02v1.807h1.807V47.87z" fill="#fff"/></svg>