<svg width="40" height="40" viewBox="0 0 40 40" fill="none" xmlns="http://www.w3.org/2000/svg"><g clip-path="url(#a)"><path d="M6.652 17.147A6.617 6.617 0 0 1 13 21.81h1.043l-2.568-5.504a7.395 7.395 0 0 1-.703-.19 5.803 5.803 0 0 0-1.844-.3H4.654a.666.666 0 1 1 0-1.332h.92l-.184-.368a.674.674 0 0 1-.036-.087.665.665 0 0 0-.632-.455H4.35V12.24h.37c.841 0 1.592.526 1.878 1.317l.067.13a1.994 1.994 0 0 1 1.984-1.868h.28c.769 0 1.533.124 2.264.367a5.814 5.814 0 0 0 1.839.299h5.45a5.316 5.316 0 0 1 4.152-1.998h2.663a3.298 3.298 0 0 1 1.785.529l-.4-.932 1.225-.525.768 1.794c.5-.55 1.207-.864 1.95-.866h.665c.368 0 .666.298.666.666v3.996a.666.666 0 0 1-.666.665h-.665c-.014 0-.026 0-.04-.004l.705 1.643a6.685 6.685 0 1 1-1.222.527l-1.23-2.867-3.585 9.22h-.008a2.664 2.664 0 0 1-2.611 2.136h-5.328a2.642 2.642 0 0 1-1.743-.666H13a6.66 6.66 0 1 1-6.348-8.657zm23.973 6.66a2.664 2.664 0 1 0 2.663-2.664 2.598 2.598 0 0 0-.4.04l1.012 2.361-1.224.525-1.01-2.36a2.65 2.65 0 0 0-1.041 2.097zm-2.664 0a5.344 5.344 0 1 0 3.859-5.118l.532 1.238a3.999 3.999 0 1 1-1.223.524l-.533-1.234a5.328 5.328 0 0 0-2.635 4.59zm1.97-9.523c.208.13.448.199.694.2V11.82c-.626 0-1.167.437-1.3 1.048l.606 1.416zm-16.209 3.53h2.956l.4-1.333h-4.021l.665 1.332zm-.69-3.996c-.77 0-1.534-.124-2.264-.367a5.804 5.804 0 0 0-1.84-.3H8.65a.666.666 0 1 0 0 1.332h.666a.742.742 0 0 1 .096.02c.606.04 1.204.157 1.78.348a5.81 5.81 0 0 0 1.84.298h4.321c.057-.457.174-.904.346-1.331h-4.666zm5.437 2.663l-.65 2.188c-.004.016-.015.028-.02.044l-.737 2.454c.082-.007.16-.024.244-.024h.881l.964-2.409c.153-.379.46-.675.843-.816a1.462 1.462 0 0 1-.024-.238v-1.199h-1.501zm1.152 4.662h2.562l.726-1.816a.133.133 0 0 0-.123-.182H20.51a.133.133 0 0 0-.123.084l-.767 1.914zm7.674-6.66v-.665a1.998 1.998 0 0 0-1.998-1.998h-2.663a3.979 3.979 0 0 0-3.278 1.74l-.485 1.59h7.758a.666.666 0 0 0 .666-.667zm-1.542 4.886l1.132-2.914a1.95 1.95 0 0 1-.256.026h-5.327v1.199c0 .073.06.133.133.133h1.35a1.458 1.458 0 0 1 1.457 1.332h.789c.258.002.509.08.722.224zm-.722 1.108h-1.147l-.333.837c.333.123.638.31.897.551l.583-1.388zm-2.397 4.661a1.332 1.332 0 1 0 0-2.664 1.332 1.332 0 0 0 0 2.664zm-6.628-1.05c.004.02.012.039.018.059a1.367 1.367 0 0 0 .307.56c.25.274.604.43.975.431h3.034a2.58 2.58 0 0 1 0-2.663h-3.034a1.324 1.324 0 0 0-1.282.991c-.006.02-.014.039-.018.059a1.284 1.284 0 0 0 0 .563zm.272-4.943h-2.01l1.224 2.622.786-2.622zm-1.549 5.327c-.006-.023-.008-.047-.014-.07a2.062 2.062 0 0 1-.025-.134 2.31 2.31 0 0 1 0-.932c.007-.038.011-.075.02-.112h-.005l-.043-.084h-8.01v1.332h8.077zM5.986 21.81H8.41a2.565 2.565 0 0 0-.347-.255c-.039-.024-.079-.044-.119-.067a2.418 2.418 0 0 0-.415-.188 2.63 2.63 0 0 0-.295-.083c-.045-.01-.09-.023-.133-.03a2.587 2.587 0 0 0-.45-.043 2.664 2.664 0 1 0 0 5.327 2.64 2.64 0 0 0 .445-.041c.046-.008.09-.02.134-.03a2.63 2.63 0 0 0 .71-.271c.04-.022.08-.042.118-.067.123-.076.24-.162.349-.257H5.986a.666.666 0 0 1-.666-.666v-2.664c0-.367.298-.665.666-.665zm.666 7.325a5.29 5.29 0 0 0 4.937-3.33h-1.48c-.013.023-.03.042-.043.067-.04.066-.083.124-.125.186a3.596 3.596 0 0 1-.573.667 3.558 3.558 0 0 1-.426.346 4.479 4.479 0 0 1-.192.129c-.09.055-.184.106-.279.155-.067.034-.133.07-.2.101a3.644 3.644 0 0 1-.31.119c-.068.023-.134.05-.205.07a4.024 4.024 0 0 1-.36.08c-.06.012-.12.029-.181.037a3.996 3.996 0 1 1 0-7.908c.061.009.12.025.18.037.122.022.243.046.361.08.067.02.133.047.2.07.105.037.21.074.312.12.066.03.133.066.2.1a3.239 3.239 0 0 1 .471.285 3.688 3.688 0 0 1 .65.574c.052.056.104.113.152.172.067.085.134.176.196.266.043.062.086.122.125.187.014.022.03.042.043.066h1.484a5.327 5.327 0 1 0-4.937 7.324z" fill="#4F9D3A"/></g><defs><clipPath id="a"><path fill="#4F9D3A" transform="matrix(-1 0 0 1 40 0)" d="M0 0h40v40H0z"/></clipPath></defs></svg>