<svg width="40" height="40" viewBox="0 0 40 40" fill="none" xmlns="http://www.w3.org/2000/svg"><g clip-path="url(#a)" fill="#4F9D3A"><path d="M38.504 20.747l-.281-.847a2 2 0 0 0-1.569-1.34l-2.81-.467-1.56-4.779a2.01 2.01 0 0 0-1.872-1.301H2a2 2 0 0 0-2 2v11.334c0 .368.298.667.667.667h6.761a2.654 2.654 0 0 0 5.145 0h20.19a2.654 2.654 0 0 0 5.145 0h1.428a.667.667 0 0 0 .667-.667V22.68a2 2 0 0 0-1.499-1.933zm-6.087-2.734h-2.415v-2h1.762l.653 2zm-31.084-2H4v2H1.333v-2zm8.668 10.668a1.333 1.333 0 1 1 0-2.667 1.333 1.333 0 0 1 0 2.667zm14-4v2H12.585a2.664 2.664 0 0 0-.095-.267c-.015-.04-.026-.082-.042-.122a2.662 2.662 0 0 0-.229-.42c-.019-.028-.043-.053-.063-.081a2.748 2.748 0 0 0-.237-.288c-.04-.04-.083-.075-.124-.113a2.745 2.745 0 0 0-.24-.2c-.048-.036-.1-.067-.15-.1a2.652 2.652 0 0 0-.267-.146c-.055-.026-.109-.052-.166-.074a2.557 2.557 0 0 0-.316-.098c-.05-.014-.1-.03-.153-.04a2.49 2.49 0 0 0-1 0c-.053.01-.102.026-.153.04a2.588 2.588 0 0 0-.316.098c-.057.022-.11.048-.166.074a2.62 2.62 0 0 0-.266.146c-.052.032-.102.066-.152.1a2.662 2.662 0 0 0-.239.2c-.042.038-.084.073-.123.113-.086.09-.165.187-.238.288-.02.028-.044.053-.067.081a2.66 2.66 0 0 0-.228.42c-.017.04-.028.082-.042.122a2.642 2.642 0 0 0-.095.266H1.333v-5.333h22.669v3.333zM5.335 18.012v-2H8v2H5.334zm4 0v-2H12v2H9.334zm4 0v-2h2.667v2h-2.667zm4 0v-2h2.668v2h-2.667zm6.668 0h-2.667v-2h2.667v2zm4.667 6.667h-3.334v-1.333h3.334v1.333zm0-6v3.334h-3.334v-6h3.334v2.666zm-4-4H1.332v-.667c0-.368.3-.667.667-.667h28.412c.267 0 .51.16.614.406l.303.928h-6.66zm10.667 12a1.333 1.333 0 1 1 0-2.666 1.333 1.333 0 0 1 0 2.667zm3.334-2h-.751a2.64 2.64 0 0 0-.095-.266c-.014-.04-.025-.082-.042-.122a2.662 2.662 0 0 0-.228-.42c-.02-.028-.044-.053-.064-.081a2.712 2.712 0 0 0-.237-.288c-.04-.04-.082-.075-.124-.113a2.729 2.729 0 0 0-.239-.2c-.05-.036-.1-.067-.151-.1a2.685 2.685 0 0 0-.267-.146c-.055-.026-.109-.052-.165-.074a2.56 2.56 0 0 0-.316-.098c-.052-.014-.101-.03-.154-.04a2.492 2.492 0 0 0-1 0c-.053.01-.102.026-.153.04a2.589 2.589 0 0 0-.316.098c-.057.022-.11.048-.166.074a2.55 2.55 0 0 0-.417.246 2.705 2.705 0 0 0-.24.2c-.041.038-.084.073-.123.113a2.7 2.7 0 0 0-.238.288c-.02.028-.044.053-.063.081a2.662 2.662 0 0 0-.229.42c-.016.04-.027.082-.042.122a2.5 2.5 0 0 0-.094.266h-2.754v-5.333h3.278l3.154.525c.244.04.445.213.524.448l.12.36h-3.585a1.99 1.99 0 0 0-1.789 1.105l-.298.597 1.193.596.298-.596a.663.663 0 0 1 .596-.369h4.51c.368 0 .666.3.666.667v2z"/><path d="M2.667 20.68h20.001v1.334H2.667V20.68z"/></g><defs><clipPath id="a"><path fill="#4F9D3A" d="M0 0h40v40H0z"/></clipPath></defs></svg>