<svg width="32" height="32" viewBox="0 0 32 32" fill="none" xmlns="http://www.w3.org/2000/svg"><circle cx="16" cy="16" r="16" fill="#72BF44"/><g clip-path="url(#a)" fill-rule="evenodd" clip-rule="evenodd" fill="#fff"><path d="M23.805 11.529c.26.26.26.682 0 .942l-6.334 6.334a.667.667 0 0 1-.942 0l-2.862-2.862-4.529 4.528a.667.667 0 1 1-.943-.942l5-5c.26-.26.683-.26.943 0L17 17.39l5.862-5.862c.26-.26.682-.26.943 0z"/><path d="M18.666 12c0-.368.299-.667.667-.667h4c.368 0 .667.299.667.667v4a.667.667 0 1 1-1.334 0v-3.333h-3.333a.667.667 0 0 1-.666-.667z"/></g><defs><clipPath id="a"><path fill="#fff" transform="translate(8 8)" d="M0 0h16v16H0z"/></clipPath></defs></svg>