<svg width="32" height="32" viewBox="0 0 32 32" fill="none" xmlns="http://www.w3.org/2000/svg"><circle cx="16" cy="16" r="16" fill="#72BF44"/><path fill-rule="evenodd" clip-rule="evenodd" d="M16 8c.368 0 .667.298.667.667v14.666a.667.667 0 1 1-1.334 0V8.667c0-.369.299-.667.667-.667z" fill="#fff"/><path fill-rule="evenodd" clip-rule="evenodd" d="M12.212 11.545a3 3 0 0 1 2.122-.878h5a.667.667 0 0 1 0 1.333h-5a1.667 1.667 0 0 0 0 3.333h3.333a3 3 0 0 1 0 6H12A.667.667 0 0 1 12 20h5.667a1.666 1.666 0 1 0 0-3.333h-3.334a3 3 0 0 1-2.12-5.122z" fill="#fff"/></svg>