<svg width="40" height="40" viewBox="0 0 40 40" fill="none" xmlns="http://www.w3.org/2000/svg"><g clip-path="url(#a)" fill="#fff"><path d="M9.844 16.172a.781.781 0 1 1-1.563 0 .781.781 0 0 1 1.563 0z"/><path d="M19.567 39.869a.782.782 0 0 0 .866 0l7.105-4.737a16.372 16.372 0 0 0 7.306-13.65V5.49a.781.781 0 0 0-.533-.74L20.248.04a.784.784 0 0 0-.496 0L5.689 4.75a.78.78 0 0 0-.533.74v15.991a16.372 16.372 0 0 0 7.306 13.65l7.105 4.738zM6.719 21.48V6.053L20 1.605l13.281 4.448V21.48c0 4.975-2.47 9.592-6.61 12.35L20 38.28l-6.671-4.448a14.813 14.813 0 0 1-6.61-12.35z"/><path d="M19.567 36.113a.782.782 0 0 0 .866 0l5.372-3.58a13.254 13.254 0 0 0 5.914-11.051V7.743a.781.781 0 0 0-.533-.74L20.248 3.334a.782.782 0 0 0-.496 0L8.814 7.002a.781.781 0 0 0-.533.741v5.304a.781.781 0 0 0 1.563 0V8.305L20 4.9l10.156 3.405v13.177c0 3.927-1.95 7.572-5.218 9.75L20 34.524l-4.938-3.292a11.693 11.693 0 0 1-5.218-9.75v-2.185a.781.781 0 0 0-1.563 0v2.185c0 4.451 2.211 8.582 5.915 11.05l5.37 3.581z"/><path d="M16.78 25.641a2.328 2.328 0 0 0 1.657.687c.627 0 1.215-.244 1.658-.687l6.25-6.25a2.342 2.342 0 0 0 0-3.314 2.342 2.342 0 0 0-3.314 0l-4.593 4.593-1.468-1.468a2.342 2.342 0 0 0-3.315 0 2.342 2.342 0 0 0 0 3.314l3.125 3.125zm-2.02-5.334a.78.78 0 0 1 1.105 0l2.02 2.02c.305.305.8.305 1.105 0l5.145-5.145a.781.781 0 1 1 1.105 1.105l-6.25 6.25a.776.776 0 0 1-1.105 0l-3.125-3.125a.78.78 0 0 1 0-1.105z"/></g><defs><clipPath id="a"><path fill="#fff" d="M0 0h40v40H0z"/></clipPath></defs></svg>