<svg width="32" height="32" viewBox="0 0 32 32" fill="none" xmlns="http://www.w3.org/2000/svg"><circle cx="16" cy="16" r="16" fill="#72BF44"/><path fill-rule="evenodd" clip-rule="evenodd" d="M10.667 13.333A.667.667 0 0 0 10 14v6.667c0 .368.299.666.667.666h10.666a.667.667 0 0 0 .667-.666V14a.667.667 0 0 0-.667-.667H10.667zm-2 .667a2 2 0 0 1 2-2h10.666a2 2 0 0 1 2 2v6.667a2 2 0 0 1-2 2H10.667a2 2 0 0 1-2-2V14z" fill="#fff"/><path fill-rule="evenodd" clip-rule="evenodd" d="M13.252 9.92a2 2 0 0 1 1.415-.587h2.666a2 2 0 0 1 2 2V22A.667.667 0 0 1 18 22V11.333a.667.667 0 0 0-.667-.666h-2.666a.667.667 0 0 0-.667.666V22a.667.667 0 0 1-1.333 0V11.333a2 2 0 0 1 .585-1.414z" fill="#fff"/></svg>