<svg width="40" height="40" viewBox="0 0 40 40" fill="none" xmlns="http://www.w3.org/2000/svg"><path d="M29.844 26.484a.782.782 0 1 0 0 1.563.782.782 0 0 0 0-1.563zm-9.375 0a.782.782 0 0 1 0-1.562c.276 0 .569.141.845.408a.781.781 0 1 0 1.086-1.122 3.014 3.014 0 0 0-1.15-.72v-.91a.781.781 0 0 0-1.563 0v.916a2.347 2.347 0 0 0-1.562 2.21 2.346 2.346 0 0 0 2.344 2.343.782.782 0 0 1 0 1.562c-.334 0-.695-.21-1.015-.59a.781.781 0 1 0-1.196 1.005c.418.497.909.843 1.43 1.017v.912a.781.781 0 1 0 1.562 0v-.915a2.348 2.348 0 0 0 1.563-2.21 2.346 2.346 0 0 0-2.344-2.344z" fill="#fff"/><path d="M3.906 40h32.188a2.346 2.346 0 0 0 2.343-2.344V31.82A2.348 2.348 0 0 0 40 29.609v-4.687a2.348 2.348 0 0 0-1.563-2.21v-5.837a2.346 2.346 0 0 0-2.343-2.344h-.782v-3.906a2.346 2.346 0 0 0-2.343-2.344h-2.344v-7.5A.781.781 0 0 0 29.844 0H5.469a.781.781 0 0 0-.782.781v7.5h-.78A3.91 3.91 0 0 0 0 12.187v23.907A3.91 3.91 0 0 0 3.906 40zm34.532-15.078v4.687c0 .431-.35.782-.782.782h-7.031a3.125 3.125 0 1 1 0-6.25h7.031c.431 0 .782.35.782.78zm-7.813 7.031h3.125v3.36H4.687V19.218H33.75v3.36h-3.125a4.686 4.686 0 1 0 0 9.374zm0-22.11h2.344c.43 0 .781.351.781.782v3.906h-3.125V9.844zM27.5 1.564h1.563V14.53H27.5V1.562zm-3.125 0h1.563V14.53h-1.563V1.562zm-18.125 0h16.563V14.53H21.25V5.47a.781.781 0 0 0-.781-.782.782.782 0 0 1-.782-.78.781.781 0 0 0-.78-.782h-8.75a.781.781 0 0 0-.782.781c0 .431-.35.781-.781.781a.781.781 0 0 0-.781.782v9.062H6.25V1.562zm13.438 4.553v8.415H9.374V6.116a2.354 2.354 0 0 0 1.428-1.428h7.456a2.354 2.354 0 0 0 1.428 1.428zM3.905 9.844h.781v4.687h-.649c-1.312 0-2.476-.896-2.476-2.344a2.346 2.346 0 0 1 2.344-2.343zm-2.344 5.453a4.221 4.221 0 0 0 2.476.797h32.056c.43 0 .781.35.781.781v5.703h-1.563v-4.14a.781.781 0 0 0-.78-.782H3.905a.781.781 0 0 0-.781.782v17.656c0 .431.35.781.781.781H34.53c.432 0 .782-.35.782-.781v-4.14h1.562v5.702c0 .431-.35.782-.781.782H3.906a2.346 2.346 0 0 1-2.344-2.344V15.297z" fill="#fff"/><path d="M32.969 28.047h3.125a.781.781 0 0 0 0-1.563h-3.125a.781.781 0 1 0 0 1.563z" fill="#fff"/></svg>