<svg width="40" height="40" viewBox="0 0 40 40" fill="none" xmlns="http://www.w3.org/2000/svg"><path d="M32.157 4.404H15.972a.78.78 0 0 0 0 1.56h16.185a.78.78 0 0 0 0-1.56zm-24.092.229a.785.785 0 0 0-.551-.229.784.784 0 0 0-.78.78.785.785 0 0 0 .78.78.786.786 0 0 0 .551-.229.785.785 0 0 0 .229-.55.785.785 0 0 0-.229-.552zm-2.865 0a.785.785 0 0 0-.552-.229.785.785 0 0 0-.551.229.786.786 0 0 0-.229.551.785.785 0 0 0 .78.78.786.786 0 0 0 .551-.229.785.785 0 0 0 .229-.55.785.785 0 0 0-.229-.552zm5.73 0a.787.787 0 0 0-.551-.229.787.787 0 0 0-.552.229.786.786 0 0 0-.228.551c0 .205.083.406.228.551a.787.787 0 0 0 .552.229.787.787 0 0 0 .552-.229.784.784 0 0 0 0-1.102z" fill="#fff"/><path d="M39.772 34.075l-6.139-6.139.963-.963.002-.001.962-.963 3.033 3.033a.78.78 0 0 0 1.103-1.103l-3.584-3.584a.78.78 0 0 0-1.103 0l-.964.963-.466-.466a9.09 9.09 0 0 0 2.15-5.88c0-5.034-4.097-9.13-9.132-9.13a9.106 9.106 0 0 0-6.603 2.83l-.022-.002H4.991a.78.78 0 0 0-.78.78v10.917c0 .43.349.78.78.78h14.884a9.11 9.11 0 0 0 6.722 2.958c2.237 0 4.289-.81 5.879-2.15l.467.466-.964.964a.78.78 0 0 0 0 1.103l3.267 3.267v3.373c0 .946-.77 1.715-1.716 1.715H3.275c-.946 0-1.715-.77-1.715-1.715V8.77h33.686v3.515a.78.78 0 0 0 1.56 0V4.872a3.279 3.279 0 0 0-3.276-3.275H3.275A3.279 3.279 0 0 0 0 4.872v30.256a3.279 3.279 0 0 0 3.275 3.275H33.53a3.279 3.279 0 0 0 3.276-3.275v-1.814l1.863 1.864a.778.778 0 0 0 1.103 0 .78.78 0 0 0 0-1.103zM17.468 19.21l-.983-1.898a.78.78 0 0 0-1.385.717l1.832 3.537a.78.78 0 0 0 1.02.348c.2.587.458 1.146.767 1.673H5.77V14.23h13.026a9.076 9.076 0 0 0-1.328 4.98zm9.129 7.335c-4.175 0-7.572-3.397-7.572-7.572 0-.06 0-.119.002-.178l1.434 2.771a.78.78 0 0 0 .693.421h.012a.78.78 0 0 0 .69-.442l1.7-3.537a.78.78 0 0 0-1.406-.675l-1.022 2.128-1.113-2.149a.78.78 0 0 0-.7-.42c.907-3.167 3.828-5.492 7.282-5.492 4.175 0 7.572 3.397 7.572 7.573 0 4.175-3.397 7.572-7.572 7.572zM1.56 4.872c0-.946.77-1.715 1.715-1.715H33.53c.946 0 1.716.77 1.716 1.715v2.34H1.56v-2.34z" fill="#fff"/><path d="M14.256 16.968a.78.78 0 0 0-1.04.365l-1.022 2.128-1.113-2.149a.78.78 0 1 0-1.395.02l-1.022 2.129-1.113-2.149a.78.78 0 0 0-1.385.717l1.831 3.537a.78.78 0 0 0 1.396-.02l1.022-2.129 1.112 2.15a.78.78 0 0 0 .693.42h.011a.78.78 0 0 0 .691-.442l1.7-3.537a.78.78 0 0 0-.366-1.04zm17.869 0a.78.78 0 0 0-1.04.365l-1.023 2.128-1.112-2.149a.78.78 0 1 0-1.395.021l-1.023 2.128-1.112-2.149a.78.78 0 0 0-1.385.717l1.831 3.537a.78.78 0 0 0 .692.422h.012a.78.78 0 0 0 .691-.443l1.022-2.128 1.113 2.15a.78.78 0 0 0 .692.42h.012a.78.78 0 0 0 .691-.442l1.699-3.537a.78.78 0 0 0-.365-1.04zM5.542 31.301a.782.782 0 0 0-1.103 0 .786.786 0 0 0-.228.552.78.78 0 0 0 .228.55.786.786 0 0 0 .552.23.786.786 0 0 0 .55-.23.785.785 0 0 0 .23-.55.786.786 0 0 0-.23-.552zm17.311-.227H7.668a.78.78 0 0 0 0 1.56h15.185a.78.78 0 0 0 0-1.56zm-2.891-3.744h-4.6a.78.78 0 0 0 0 1.56h4.6a.78.78 0 0 0 0-1.56zm-8.102 0H4.99a.78.78 0 0 0 0 1.56h6.87a.78.78 0 0 0 0-1.56z" fill="#fff"/></svg>