<svg width="148" height="40" viewBox="0 0 148 40" fill="none" xmlns="http://www.w3.org/2000/svg"><g clip-path="url(#a)" fill="#fff"><path d="M50.634 8.231v2.5h5.242v2.8h-5.242v4.688h-3.425V5.43h9.106v2.8h-5.681zm15.144 6.6h-2.652v3.394h-3.424V5.431h6.61a8.644 8.644 0 0 1 2.508.338 2.47 2.47 0 0 1 1.411 1.143 4.9 4.9 0 0 1 .47 2.394 12.86 12.86 0 0 1-.112 2c-.074.45-.295.863-.628 1.175a3.605 3.605 0 0 1-1.68.769v.137a2.513 2.513 0 0 1 1.693.625 2.162 2.162 0 0 1 .627 1.65v2.575h-3.424v-1.793c.004-1.075-.462-1.613-1.399-1.613zm-2.652-2.968h2.652c.334.024.668-.037.972-.175a.789.789 0 0 0 .377-.563c.06-.414.086-.832.075-1.25a1.72 1.72 0 0 0-.288-1.162 1.578 1.578 0 0 0-1.136-.3h-2.652v3.45zm14.687-3.632v2.338h5.48v2.368h-5.48v2.5h5.957v2.8h-9.406V5.432h9.262v2.8h-5.813zm13.201 0v2.338h5.48v2.368h-5.48v2.5h5.957v2.8h-9.407V5.432h9.307v2.8h-5.857zm9.67 9.994V5.431h6.503a7.548 7.548 0 0 1 2.954.488 3.23 3.23 0 0 1 1.674 1.581c.398.914.582 1.905.54 2.9v2.681a8.214 8.214 0 0 1-.439 2.925 3.128 3.128 0 0 1-1.474 1.675 5.975 5.975 0 0 1-2.797.55l-6.961-.006zm3.424-9.825v6.875h2.991c1.154 0 1.731-.727 1.731-2.181v-2.7a3.4 3.4 0 0 0-.175-1.25 1.038 1.038 0 0 0-.546-.594 2.57 2.57 0 0 0-1.003-.163l-2.998.013zm17.484 9.931c-.84.012-1.68-.052-2.508-.194a4.994 4.994 0 0 1-1.832-.7A3.309 3.309 0 0 1 116.048 16a5.692 5.692 0 0 1-.426-2.363V10.02a5.675 5.675 0 0 1 .426-2.363 3.294 3.294 0 0 1 1.204-1.437 5.034 5.034 0 0 1 1.832-.7 13.75 13.75 0 0 1 2.508-.194c.84-.012 1.68.053 2.508.194a5.034 5.034 0 0 1 1.832.7 3.27 3.27 0 0 1 1.197 1.437c.309.749.454 1.554.427 2.363v3.612a5.692 5.692 0 0 1-.427 2.363 3.287 3.287 0 0 1-1.204 1.437 4.98 4.98 0 0 1-1.831.7c-.826.142-1.664.21-2.502.2zm0-2.968c.495.015.99-.03 1.474-.138a1.107 1.107 0 0 0 .715-.581c.175-.439.253-.91.225-1.382v-2.88a3.958 3.958 0 0 0-.125-1.132 1.177 1.177 0 0 0-.401-.625 1.553 1.553 0 0 0-.715-.269 8.45 8.45 0 0 0-1.173-.062 5.865 5.865 0 0 0-1.455.131 1.1 1.1 0 0 0-.709.569c-.18.437-.265.908-.25 1.381v2.881c-.014.475.072.947.25 1.388a1.087 1.087 0 0 0 .709.575 5.78 5.78 0 0 0 1.455.112v.032zm12.593-6.944l.313 9.806h-3.424V5.431h5.425l2.477 8.025h.119l2.327-8.037h5.562v12.793h-3.424l.345-9.793h-.119l-3.249 9.806h-2.96l-3.286-9.806h-.106zM51.486 25.225v1.094h-2.345v7.862h-1.367v-7.868h-1.367v-1.094h1.367v-1.325a2.64 2.64 0 0 1 .677-2.075 3.326 3.326 0 0 1 2.201-.588l.84.05v1.107a5.25 5.25 0 0 0-.733-.05h-.238a1.397 1.397 0 0 0-1.073.33 1.658 1.658 0 0 0-.3 1.12v1.43l2.338.007zm3.663-3.838v1.444h-1.367v-1.468l1.367.024zm0 3.857v8.937h-1.367v-8.937h1.367zm4.446 3.462v5.475h-1.367v-8.937h1.254v1.143a2.57 2.57 0 0 1 1.317-1.056 5.299 5.299 0 0 1 1.743-.237c1.221 0 2.074.225 2.56.675.484.45.727 1.283.727 2.5v5.919h-1.367v-5.794a2.68 2.68 0 0 0-.408-1.775c-.276-.284-.87-.425-1.781-.425a3.05 3.05 0 0 0-2.032.581 2.419 2.419 0 0 0-.646 1.931zm15.421 1.107v-1.25c0-1.08-.155-1.759-.464-2.038-.31-.28-1.022-.43-2.139-.45a3.637 3.637 0 0 0-1.68.262 1.182 1.182 0 0 0-.446 1.1v.257h-1.386c0-1.117.337-1.857 1.01-2.219a5.812 5.812 0 0 1 2.553-.394c1.392 0 2.355.177 2.89.532.686.441 1.03 1.316 1.03 2.625v5.937h-1.255l.05-1.125a2.247 2.247 0 0 1-1.029 1.069 5.895 5.895 0 0 1-1.988.231 4.912 4.912 0 0 1-2.602-.513c-.627-.416-.94-1.202-.94-2.356 0-1.079.307-1.819.921-2.219a4.729 4.729 0 0 1 2.509-.493 6.724 6.724 0 0 1 2.113.219c.377.16.681.453.853.825zm0 1.756c0-.775-.184-1.26-.552-1.456a6.19 6.19 0 0 0-2.433-.3 3.063 3.063 0 0 0-1.537.274 1.394 1.394 0 0 0-.526 1.25 2.006 2.006 0 0 0 .464 1.538 2.459 2.459 0 0 0 1.618.413 6.566 6.566 0 0 0 2.132-.22 1.447 1.447 0 0 0 .834-1.487v-.012zm5.807-2.863v5.475h-1.367v-8.937h1.254v1.143a2.57 2.57 0 0 1 1.317-1.056 5.298 5.298 0 0 1 1.743-.237c1.221 0 2.074.225 2.56.675.484.45.727 1.283.727 2.5v5.919h-1.368v-5.794a2.68 2.68 0 0 0-.407-1.775c-.276-.284-.87-.425-1.781-.425a3.049 3.049 0 0 0-2.032.581 2.417 2.417 0 0 0-.646 1.931zm15.509 2.25h1.317c0 1.342-.303 2.259-.91 2.75-.606.492-1.593.713-2.96.663-1.496 0-2.512-.325-3.047-.975-.536-.65-.803-1.88-.803-3.688 0-1.775.265-2.991.796-3.65.531-.658 1.535-.981 3.01-.969.94-.067 1.881.12 2.722.544a2.44 2.44 0 0 1 1.041 2.238v.287H96.2a2.044 2.044 0 0 0-.426-1.518 3.227 3.227 0 0 0-2.026-.444c-1.008 0-1.666.208-1.976.625-.309.416-.468 1.379-.476 2.887 0 1.446.163 2.398.49 2.857.325.458.986.69 1.98.693 1.054 0 1.744-.15 2.07-.45.326-.3.492-.916.496-1.85zm11.695-.987h-6.434c0 1.354.161 2.243.483 2.669.322.425 1.01.633 2.063.625a4.46 4.46 0 0 0 2.051-.3 1.377 1.377 0 0 0 .464-1.25v-.288h1.367c0 1.196-.33 1.998-.991 2.406-.527.33-1.49.494-2.891.494-1.505 0-2.535-.325-3.091-.975-.557-.65-.83-1.865-.822-3.644 0-1.729.297-2.929.891-3.6.593-.67 1.597-1.006 3.01-1.006 1.392 0 2.391.313 2.997.938.607.625.91 1.71.91 3.256l-.007.675zm-1.367-1.044a3.258 3.258 0 0 0-.545-2.156 2.63 2.63 0 0 0-1.995-.625 2.595 2.595 0 0 0-1.988.625 3.293 3.293 0 0 0-.539 2.156h5.067zM32.73 16.313a27.652 27.652 0 0 1-1.512 8.712v-8.65h-18.38V11.95h19.954l-.063 4.363zM27.711 31.4a19.068 19.068 0 0 1-10.63 6.563 25.665 25.665 0 0 1-4.188-1.482c0-1.05 0-3.575-.044-9.706h17.684A20.614 20.614 0 0 1 27.7 31.4h.012zm6.44-30S24.063.875 16.895.875C9.728.875 0 1.4 0 1.4l.125 8.281.17 6.65s.062 6.194 2.144 10.625a20.926 20.926 0 0 0 9.326 10.25 8.18 8.18 0 0 0 1.066.5 24.95 24.95 0 0 0 4.214 1.419c8.516-1.763 16.53-9.337 16.782-22.788l.069-4.374.257-10.563z"/></g><defs><clipPath id="a"><path fill="#fff" d="M0 0h148v40H0z"/></clipPath></defs></svg>