<svg width="143" height="134" viewBox="0 0 143 134" fill="none" xmlns="http://www.w3.org/2000/svg"><g clip-path="url(#a)" fill="#58595B"><path d="M46.45 86.58a2.633 2.633 0 0 0-1.85-.765c-.689 0-1.364.278-1.85.764a2.646 2.646 0 0 0-.768 1.85 2.625 2.625 0 0 0 2.617 2.618 2.624 2.624 0 0 0 2.618-2.617c0-.686-.28-1.361-.767-1.85z"/><path d="M134 88.96c0-5.286-3.714-9.717-8.669-10.83a11.036 11.036 0 0 0 1.859-6.14c0-6.122-4.98-11.102-11.102-11.102H86.964l3.81-11.31a17.518 17.518 0 0 0-1.035-13.72 17.519 17.519 0 0 0-10.564-8.814l-4.592-1.396a2.616 2.616 0 0 0-3.222 1.614l-7.216 19.941a24.587 24.587 0 0 1-11.371 13.24l-7.209 3.925a8.502 8.502 0 0 0-6.858-3.48H2.617A2.617 2.617 0 0 0 0 63.505v67.878A2.617 2.617 0 0 0 2.617 134h36.09a8.513 8.513 0 0 0 7.348-4.226l3.694 1.449A40.077 40.077 0 0 0 64.44 134h45.732c6.122 0 11.102-4.98 11.102-11.102 0-2.287-.696-4.414-1.886-6.183 4.861-1.181 8.481-5.567 8.481-10.786a11.04 11.04 0 0 0-1.957-6.286c4.66-1.317 8.088-5.606 8.088-10.683zm-11.102 5.867H95.979a2.618 2.618 0 0 0 0 5.234h20.788a5.874 5.874 0 0 1 5.867 5.868 5.874 5.874 0 0 1-5.867 5.867H95.979a2.618 2.618 0 0 0 0 5.235h14.192a5.875 5.875 0 0 1 5.868 5.867 5.875 5.875 0 0 1-5.868 5.868H64.44c-4.392 0-8.691-.813-12.78-2.417l-4.443-1.742V98.93a2.618 2.618 0 0 0-5.235 0v26.56a3.279 3.279 0 0 1-3.275 3.275H5.234V66.122h33.473a3.279 3.279 0 0 1 3.275 3.275v8.887a2.618 2.618 0 0 0 5.235 0v-8.855l8.06-4.39a29.816 29.816 0 0 0 13.79-16.055l6.37-17.605 2.216.673a12.325 12.325 0 0 1 7.432 6.201 12.324 12.324 0 0 1 .728 9.653l-4.972 14.763a2.618 2.618 0 0 0 2.48 3.453h32.767a5.874 5.874 0 0 1 5.867 5.867 5.874 5.874 0 0 1-5.867 5.868H95.979a2.618 2.618 0 0 0 0 5.234h26.919a5.874 5.874 0 0 1 5.868 5.868 5.874 5.874 0 0 1-5.868 5.868z"/><path d="M28.572 108.752c-4.042 0-7.33 3.288-7.33 7.331 0 4.042 3.288 7.331 7.33 7.331 4.043 0 7.331-3.289 7.331-7.331s-3.288-7.331-7.33-7.331zm0 9.427a2.099 2.099 0 0 1-2.096-2.096 2.1 2.1 0 0 1 2.096-2.097 2.1 2.1 0 0 1 2.097 2.097c0 1.156-.94 2.096-2.097 2.096zM80.055.767A2.637 2.637 0 0 0 78.205 0c-.688 0-1.364.28-1.85.767a2.637 2.637 0 0 0-.767 1.85c0 .689.28 1.364.767 1.85a2.635 2.635 0 0 0 1.85.767c.689 0 1.364-.28 1.85-.767a2.636 2.636 0 0 0 .767-1.85c0-.688-.28-1.363-.767-1.85zm-1.85 9.003a2.618 2.618 0 0 0-2.617 2.618v6.368a2.617 2.617 0 0 0 5.234 0v-6.368a2.617 2.617 0 0 0-2.617-2.617zm34.351 24.585H96.417a2.617 2.617 0 1 0 0 5.234h16.139a2.617 2.617 0 0 0 0-5.234zm-52.563-.007h-16.14a2.618 2.618 0 0 0 0 5.234h16.14a2.618 2.618 0 0 0 0-5.234zm5.267-14.03l-7.62-7.62a2.618 2.618 0 0 0-3.702 3.702l7.62 7.62a2.61 2.61 0 0 0 1.851.766 2.618 2.618 0 0 0 1.85-4.468zm37.213-7.615a2.619 2.619 0 0 0-3.702 0l-7.62 7.62a2.617 2.617 0 0 0 3.702 3.701l7.62-7.62a2.618 2.618 0 0 0 0-3.701z"/></g><circle cx="103" cy="48" r="40" fill="#72BF44" style="mix-blend-mode:multiply"/><defs><clipPath id="a"><path fill="#fff" d="M0 0h134v134H0z"/></clipPath></defs></svg>