<svg width="144" height="144" viewBox="0 0 144 144" fill="none" xmlns="http://www.w3.org/2000/svg"><circle cx="72" cy="72" r="40" fill="#4F9D3A"/><path fill-rule="evenodd" clip-rule="evenodd" d="M71.627 52.008h.002a19.987 19.987 0 0 1 19.987 19.987.765.765 0 1 1-1.53 0A18.457 18.457 0 0 0 71.63 53.538a18.142 18.142 0 0 0-18.082 18.444v.009a18.558 18.558 0 0 0 18.058 18.456v-2.929a15.593 15.593 0 1 1 6.475-1.424.765.765 0 0 1-.639-1.39 14.063 14.063 0 1 0-5.112 1.264.765.765 0 0 1 .806.764v4.485a.765.765 0 0 1-.754.765 20.09 20.09 0 0 1-20.364-19.979 19.671 19.671 0 0 1 19.609-19.995z" fill="#fff"/><path fill-rule="evenodd" clip-rule="evenodd" d="M69.423 57.229a.765.765 0 0 1 .994.427l.024.06.063.16.217.553c.172.442.388 1.006.56 1.477.1.276.201.678.307 1.097l.02.083c.106.417.224.885.365 1.377.307 1.062.705 2.158 1.255 2.97.348.513.66.585 1.29.729.127.029.267.06.422.1.453.114.977.292 1.512.7.53.404 1.023.999 1.488 1.879.23.434.394.857.417 1.248.012.207-.013.433-.115.65a1.175 1.175 0 0 1-.458.51c-.344.21-.748.23-1.047.219a6.531 6.531 0 0 1-1.028-.144c-.31-.064-.64-.143-.962-.22l-.125-.03a22.692 22.692 0 0 0-1.058-.236 5.585 5.585 0 0 0-.877-.109c-.254-.006-.392.026-.454.053-.221.098-.216.163-.216.173-.015.097.01.297.157.688a13.383 13.383 0 0 0 .278.665c.086.196.179.409.267.626.196.486.389 1.048.453 1.643.09.83-.344 1.482-.831 1.955-.486.471-1.138.879-1.75 1.237-.186.109-.367.212-.544.314-.44.253-.855.49-1.23.74-.536.359-.847.655-.975.9-.112.214-.07.3-.035.358.068.11.249.271.6.407.71.275 1.685.282 2.309.003.867-.389 2.43-1.003 4.038-1.387.804-.192 1.643-.333 2.426-.352.771-.018 1.563.08 2.216.431a193.482 193.482 0 0 1 3.264 1.803l.208.117.073.042a.765.765 0 0 1-.758 1.329l-.07-.04-.206-.117-.754-.423c-.637-.356-1.516-.843-2.483-1.364-.319-.172-.803-.264-1.453-.248-.638.015-1.364.132-2.108.31-1.488.355-2.956.931-3.767 1.295-1.055.473-2.46.425-3.486.028-.517-.2-1.043-.528-1.354-1.036-.344-.562-.351-1.224-.016-1.866.32-.608.915-1.083 1.48-1.461.423-.282.908-.56 1.367-.823a61.8 61.8 0 0 0 .484-.28c.614-.36 1.12-.686 1.458-1.015.337-.327.393-.54.376-.692-.042-.386-.173-.794-.35-1.235-.08-.196-.164-.389-.25-.587l-.031-.07a14.726 14.726 0 0 1-.277-.666c-.157-.415-.32-.945-.236-1.47.098-.617.502-1.063 1.107-1.33.358-.159.754-.193 1.11-.184.363.008.75.064 1.124.135.377.07.766.163 1.132.25l.125.03c.325.08.63.152.913.21.304.063.553.102.746.113a3.478 3.478 0 0 0-.177-.383c-.39-.737-.752-1.139-1.064-1.377-.307-.234-.61-.345-.956-.432-.092-.023-.191-.044-.298-.067-.67-.143-1.597-.34-2.307-1.388-.691-1.019-1.142-2.307-1.459-3.404a42.702 42.702 0 0 1-.377-1.424l-.022-.086c-.113-.45-.195-.763-.262-.95a71.852 71.852 0 0 0-.76-1.989l-.063-.159-.023-.056a.766.766 0 0 1 .427-.994z" fill="#fff"/><path fill-rule="evenodd" clip-rule="evenodd" d="M65.717 59.41l-.004.005-.015.024a7.619 7.619 0 0 0-.283.476c-.178.32-.391.743-.553 1.182-.166.453-.251.854-.234 1.15.015.258.094.357.224.425.34.176.718.326 1.144.493l.177.07c.476.189 1.007.406 1.477.694.476.291.937.683 1.237 1.248.306.574.403 1.25.284 2.031-.122.8-.253 1.446-.4 1.957-.143.5-.315.924-.546 1.242-.245.338-.593.599-1.052.637-.412.034-.772-.127-1.029-.278a6.37 6.37 0 0 1-.775-.565l-.2-.165c-.187-.154-.371-.306-.57-.458-.539-.411-1.08-.735-1.669-.85a36.922 36.922 0 0 1-4.947-1.49.765.765 0 1 1 .543-1.43 35.388 35.388 0 0 0 4.707 1.421c.932.183 1.696.677 2.293 1.132.226.172.443.352.635.51l.177.146c.245.2.428.34.58.429a.79.79 0 0 0 .081.044c.076-.112.184-.335.302-.747.12-.424.24-.999.357-1.765m-2.157-8.628a.765.765 0 0 1 .216 1.06m-.216-1.06a.765.765 0 0 0-1.06.215l1.06-.215zm-1.06.215l.638.422-.638-.422zm.638.422l-.638-.422.638.422zm-.638-.422zm0 0l-.001.001zm-.001.001l-.002.003.002-.003zm-.002.003l-.007.01.007-.01zm-.007.01l-.022.035.022-.035zm-.022.035l-.077.123.077-.123zm-.077.123c-.064.105-.153.253-.254.434l.254-.434zm-.254.434c-.2.359-.453.858-.652 1.398l.652-1.398zm-.652 1.398c-.193.527-.36 1.16-.325 1.766l.325-1.766zm-.325 1.766c.037.644.316 1.314 1.045 1.694L63.1 62.335zm1.045 1.694c.416.217.876.398 1.293.561l-1.293-.561zm1.293.561l.171.068-.171-.068zm.171.068c.481.19.897.365 1.24.575l-1.24-.575zm1.24.575c.338.207.558.42.686.662l-.685-.662zm.686.662c.123.231.202.563.122 1.083l-.122-1.083z" fill="#fff"/><circle opacity=".5" cx="72" cy="72" r="55.5" stroke="#72BF44"/><circle opacity=".2" cx="72" cy="72" r="71.5" stroke="#72BF44"/></svg>