<svg width="144" height="144" viewBox="0 0 144 144" fill="none" xmlns="http://www.w3.org/2000/svg"><circle cx="72" cy="72" r="40" fill="#2D7D2F"/><path d="M62.968 85.548a1.938 1.938 0 0 0-1.936 1.936c0 1.067.869 1.935 1.936 1.935a1.938 1.938 0 0 0 1.935-1.935 1.938 1.938 0 0 0-1.935-1.936zm0 2.581a.646.646 0 1 1 .001-1.292.646.646 0 0 1-.001 1.292zm17.419-2.581a1.938 1.938 0 0 0-1.935 1.936c0 1.067.868 1.935 1.935 1.935a1.938 1.938 0 0 0 1.936-1.935 1.938 1.938 0 0 0-1.936-1.936zm0 2.581a.646.646 0 1 1 .002-1.292.646.646 0 0 1-.002 1.292z" fill="#fff"/><path d="M89.23 79.286l-7.742-7.742a.644.644 0 0 0-.456-.19h-8.387v-9.619a3.874 3.874 0 0 1 3.226 3.813h1.29a3.875 3.875 0 0 1 3.871-3.87 3.876 3.876 0 0 1 3.851 3.475c.005.132.02.262.02.395h1.29c0-.178-.009-.353-.026-.527C85.887 57.796 79.938 52 72.645 52h-1.29c-7.293 0-13.242 5.796-13.522 13.021a5.305 5.305 0 0 0-.026.527h1.29c0-.133.015-.263.02-.395a3.876 3.876 0 0 1 3.85-3.476 3.875 3.875 0 0 1 3.872 3.871h1.29a3.875 3.875 0 0 1 3.226-3.813v9.62h-3.226a.644.644 0 0 0-.456.189l-7.553 7.553h-3.604a1.938 1.938 0 0 0-1.935 1.935v6.452c0 .357.289.645.645.645h3.277A4.52 4.52 0 0 0 62.968 92a4.52 4.52 0 0 0 4.464-3.871h8.49A4.52 4.52 0 0 0 80.388 92a4.52 4.52 0 0 0 4.465-3.871h3.922a.645.645 0 0 0 .645-.645v-7.742a.642.642 0 0 0-.189-.456zm-5.037-17.809a5.128 5.128 0 0 0-3.16-1.09c-1.552 0-2.941.69-3.888 1.777a13.423 13.423 0 0 0-3.58-8.826c4.928.368 9.043 3.656 10.629 8.14zm-21.225-1.09c-1.192 0-2.287.41-3.162 1.09 1.586-4.483 5.701-7.771 10.628-8.14a13.422 13.422 0 0 0-3.579 8.827 5.148 5.148 0 0 0-3.887-1.777zm5.18 1.739a12.165 12.165 0 0 1 3.571-8.287l.281-.282.28.281a12.165 12.165 0 0 1 3.572 8.287A5.145 5.145 0 0 0 72 60.387a5.144 5.144 0 0 0-3.852 1.739zM56.516 80.387h.645v2.58h-1.29v-1.935c0-.356.29-.645.645-.645zm6.452 10.323a3.23 3.23 0 0 1-3.226-3.226 3.23 3.23 0 0 1 3.226-3.226 3.23 3.23 0 0 1 3.226 3.226 3.23 3.23 0 0 1-3.226 3.226zm17.42 0a3.23 3.23 0 0 1-3.227-3.226 3.23 3.23 0 0 1 3.226-3.226 3.23 3.23 0 0 1 3.226 3.226 3.23 3.23 0 0 1-3.226 3.226zm7.741-3.871h-3.277a4.52 4.52 0 0 0-4.465-3.871 4.52 4.52 0 0 0-4.464 3.87h-8.49a4.52 4.52 0 0 0-4.465-3.87 4.52 4.52 0 0 0-4.465 3.87h-2.632v-2.58h1.935a.645.645 0 0 0 .646-.645v-3.226h1.935a.643.643 0 0 0 .456-.189l7.553-7.553h12.37l7.363 7.364v6.83z" fill="#fff"/><path d="M73.936 73.936h-4.517a.644.644 0 0 0-.456.189l-3.226 3.225a.642.642 0 0 0-.189.457v1.935c0 .357.29.645.646.645h7.742a.645.645 0 0 0 .645-.645v-5.161a.645.645 0 0 0-.645-.645zm-.646 5.16h-6.45v-1.022l2.847-2.848h3.604v3.87zm6.452-5.16h-3.226a.645.645 0 0 0-.645.645v5.161c0 .357.29.645.645.645h6.452a.645.645 0 0 0 .645-.645v-1.936a.642.642 0 0 0-.19-.456l-3.225-3.225a.644.644 0 0 0-.456-.19zm2.58 5.16h-5.16v-3.87h2.313l2.848 2.848v1.023zM72 81.677h2.58v1.29H72v-1.29zm3.871 0h2.58v1.29h-2.58v-1.29z" fill="#fff"/><circle opacity=".5" cx="72" cy="72" r="55.5" stroke="#72BF44"/><circle opacity=".2" cx="72" cy="72" r="71.5" stroke="#72BF44"/></svg>