<svg width="144" height="144" viewBox="0 0 144 144" fill="none" xmlns="http://www.w3.org/2000/svg"><circle cx="72" cy="72" r="40" fill="#2D7D2F"/><g clip-path="url(#a)" fill="#fff"><path d="M63.613 85.53a1.938 1.938 0 0 0-1.936 1.935c0 1.067.869 1.935 1.936 1.935a1.938 1.938 0 0 0 1.935-1.935 1.938 1.938 0 0 0-1.935-1.936zm0 2.58a.646.646 0 0 1 0-1.29.646.646 0 0 1 0 1.29zm17.419-2.58a1.938 1.938 0 0 0-1.935 1.935c0 1.067.868 1.935 1.935 1.935a1.938 1.938 0 0 0 1.936-1.935 1.938 1.938 0 0 0-1.936-1.936zm0 2.58a.646.646 0 0 1 0-1.29.646.646 0 0 1 0 1.29z"/><path d="M82.134 71.525a.644.644 0 0 0-.457-.19H68.774a.643.643 0 0 0-.456.19l-7.553 7.552h-3.604a1.938 1.938 0 0 0-1.935 1.936v6.451c0 .357.289.646.645.646h3.277a4.519 4.519 0 0 0 4.465 3.87c2.27 0 4.15-1.685 4.464-3.87h8.49a4.519 4.519 0 0 0 4.465 3.87 4.52 4.52 0 0 0 4.465-3.87h3.922a.645.645 0 0 0 .645-.645v-7.743a.643.643 0 0 0-.188-.456l-7.742-7.742zM57.16 80.368h.645v2.58h-1.29v-1.935c0-.356.29-.645.645-.645zm6.452 10.322a3.23 3.23 0 0 1-3.226-3.225 3.23 3.23 0 0 1 3.226-3.226 3.23 3.23 0 0 1 3.226 3.225 3.23 3.23 0 0 1-3.226 3.226zm17.42 0a3.23 3.23 0 0 1-3.227-3.225 3.23 3.23 0 0 1 3.226-3.226 3.23 3.23 0 0 1 3.226 3.225 3.23 3.23 0 0 1-3.226 3.226zm7.741-3.87h-3.277a4.519 4.519 0 0 0-4.465-3.872 4.519 4.519 0 0 0-4.464 3.871h-8.49a4.519 4.519 0 0 0-4.465-3.87 4.519 4.519 0 0 0-4.465 3.87h-2.632v-2.58h1.936a.645.645 0 0 0 .645-.645v-3.226h1.935a.643.643 0 0 0 .456-.19l7.553-7.552h12.37l7.363 7.364v6.83z"/><path d="M74.58 73.916h-4.515a.643.643 0 0 0-.457.19l-3.225 3.225a.643.643 0 0 0-.19.456v1.936c0 .356.29.645.646.645h7.742a.645.645 0 0 0 .645-.645v-5.161a.646.646 0 0 0-.645-.645zm-.644 5.162h-6.452v-1.023l2.848-2.848h3.604v3.87zm6.451-5.162h-3.226a.646.646 0 0 0-.645.646v5.161c0 .356.29.645.645.645h6.452a.645.645 0 0 0 .645-.645v-1.936a.643.643 0 0 0-.189-.456l-3.226-3.225a.643.643 0 0 0-.456-.19zm2.58 5.162h-5.16v-3.871h2.313l2.848 2.848v1.023zm-10.322 2.58h2.58v1.29h-2.58v-1.29zm3.871 0h2.58v1.29h-2.58v-1.29zm-17.419-3.871a2.583 2.583 0 0 0 2.58-2.58c0-.935-.517-1.788-1.311-2.238.014-.115.021-.23.021-.343 0-.88-.358-1.71-.979-2.313a3.839 3.839 0 0 0-.395-3.816 3.839 3.839 0 0 0 .729-2.258 3.875 3.875 0 0 0-3.871-3.871A3.875 3.875 0 0 0 52 64.238c0 .82.255 1.604.729 2.259A3.839 3.839 0 0 0 52 68.755c0 1.4.776 2.688 1.979 3.365-.03.17-.044.337-.044.506a3.23 3.23 0 0 0 2.65 3.174 2.584 2.584 0 0 0 2.512 1.987zm-3.871-5.161c0-.205.04-.416.121-.645a.645.645 0 0 0-.38-.82 2.556 2.556 0 0 1-1.677-2.406c0-.678.264-1.32.742-1.806a.647.647 0 0 0 0-.904 2.566 2.566 0 0 1-.742-1.806 2.583 2.583 0 0 1 2.581-2.581 2.583 2.583 0 0 1 2.58 2.58c0 .679-.263 1.32-.74 1.806a.647.647 0 0 0 0 .904c.477.488.74 1.129.74 1.807 0 .482-.14.958-.406 1.377a.644.644 0 0 0 .187.883c.542.36.865.963.865 1.61 0 .163-.029.337-.09.545a.645.645 0 0 0 .441.803c.553.158.94.666.94 1.233a1.292 1.292 0 0 1-2.58 0 .646.646 0 0 0-.647-.645 1.938 1.938 0 0 1-1.935-1.935zM92 57.788a3.875 3.875 0 0 0-3.87-3.871 3.875 3.875 0 0 0-3.872 3.87c0 .82.256 1.604.73 2.258a3.84 3.84 0 0 0-.396 3.817 3.22 3.22 0 0 0-.979 2.313c0 .113.007.227.021.343a2.584 2.584 0 0 0-1.311 2.237 2.583 2.583 0 0 0 2.58 2.58 2.584 2.584 0 0 0 2.512-1.986 3.23 3.23 0 0 0 2.65-3.174 2.98 2.98 0 0 0-.044-.506 3.884 3.884 0 0 0 1.98-3.365c0-.82-.256-1.604-.73-2.259a3.839 3.839 0 0 0 .73-2.258zm-2.03 2.71a2.57 2.57 0 0 1 .74 1.806c0 1.061-.674 2.03-1.676 2.406a.645.645 0 0 0-.38.82c.08.23.12.44.12.645a1.938 1.938 0 0 1-1.935 1.935.646.646 0 0 0-.645.645 1.291 1.291 0 0 1-2.581 0c0-.567.386-1.075.94-1.233a.645.645 0 0 0 .441-.803 1.872 1.872 0 0 1-.09-.544c0-.648.323-1.25.864-1.611a.645.645 0 0 0 .187-.883 2.565 2.565 0 0 1-.407-1.377c0-.678.264-1.32.742-1.806a.646.646 0 0 0 0-.904 2.565 2.565 0 0 1-.742-1.806 2.583 2.583 0 0 1 2.581-2.581 2.583 2.583 0 0 1 2.58 2.58c0 .679-.263 1.32-.74 1.806a.646.646 0 0 0 0 .905zm-26.357 5.676h6.452v3.871h1.29v-3.87h1.29v3.87h1.29v-3.87h6.452a.645.645 0 0 0 .54-.998l-8.386-12.903c-.238-.365-.844-.365-1.082 0l-8.387 12.903a.646.646 0 0 0 .541.997zM72 53.81l7.198 11.074H64.802L72 53.81z"/><path d="M71.355 62.303h1.29v1.29h-1.29v-1.29zm0-5.161h1.29v3.871h-1.29v-3.87z"/></g><circle opacity=".5" cx="72" cy="72" r="55.5" stroke="#72BF44"/><circle opacity=".2" cx="72" cy="72" r="71.5" stroke="#72BF44"/><defs><clipPath id="a"><path fill="#fff" transform="translate(52 52)" d="M0 0h40v40H0z"/></clipPath></defs></svg>