<svg width="144" height="144" viewBox="0 0 144 144" fill="none" xmlns="http://www.w3.org/2000/svg"><circle cx="72" cy="72" r="40" fill="#2D7D2F"/><g clip-path="url(#a)" fill="#fff"><path d="M77.161 68.774h-1.29A3.23 3.23 0 0 1 72.645 72a3.23 3.23 0 0 1-3.226-3.226h-1.29a4.522 4.522 0 0 0 4.516 4.516 4.522 4.522 0 0 0 4.516-4.516z"/><path d="M81.677 77.806h-5.37l-.985-2.463c2.59-1.06 4.42-3.603 4.42-6.569v-5.161h.645a.644.644 0 0 0 .645-.645v-3.871a.644.644 0 0 0-.645-.645h-.697a4.482 4.482 0 0 0-.764-1.936h2.106v-1.29h-3.225V52h-1.29v2.77a4.49 4.49 0 0 0-1.291-.19h-.645v-.645A1.938 1.938 0 0 0 72.645 52a1.938 1.938 0 0 0-1.935 1.935v.646h-.645a4.52 4.52 0 0 0-4.465 3.87h-.697a.644.644 0 0 0-.645.646v3.87c0 .358.288.646.645.646h.645v5.161c0 2.966 1.83 5.51 4.42 6.569l-.985 2.463h-5.37a5.813 5.813 0 0 0-5.806 5.807v7.742c0 .357.288.645.645.645h28.387a.644.644 0 0 0 .645-.645v-7.742a5.813 5.813 0 0 0-5.807-5.807zM64.258 88.13v-1.29h16.774v1.29H64.258zm16.774 1.29v1.29H64.258v-1.29h16.774zm-18.064-1.29h-3.871v-1.29h3.87v1.29zm19.355-1.29h3.87v1.29h-3.87v-1.29zm-23.226-1.29v-1.29h27.097v1.29H59.097zm13.548-2.581H59.148a4.48 4.48 0 0 1 .39-1.29h11.55l1.101 1.1a.644.644 0 0 0 .912 0l1.102-1.1h11.549c.191.4.324.834.39 1.29H72.645zm0-1.558l-2.313-2.313h4.627l-2.314 2.313zm12.187-1.023h-9.34l1.291-1.29h4.894a4.5 4.5 0 0 1 3.155 1.29zM69.419 59.742v2.58h-1.29v-2.58h1.29zm1.29 0H72v2.58h-1.29v-2.58zm2.581 0h1.29v2.58h-1.29v-2.58zm2.581 0h1.29v2.58h-1.29v-2.58zm3.87 2.58h-1.29v-2.58h1.29v2.58zM72 53.936a.646.646 0 0 1 1.29 0v.646H72v-.646zm-1.936 1.936h5.162c1.557 0 2.86 1.11 3.16 2.58H66.904a3.232 3.232 0 0 1 3.16-2.58zm-4.516 3.87h1.29v2.582h-1.29v-2.581zm12.904 3.872v2.58h-3.604l-1.102-1.1a.643.643 0 0 0-.456-.19H72a.642.642 0 0 0-.456.19l-1.102 1.1H66.84v-2.58h11.613zm-11.613 5.161v-1.29h3.87a.642.642 0 0 0 .457-.19l1.101-1.1h.756l1.102 1.1c.12.122.284.19.456.19h3.87v1.29a5.813 5.813 0 0 1-5.806 5.807 5.813 5.813 0 0 1-5.806-5.807zm4.366 6.95a7.12 7.12 0 0 0 2.88 0l.833 2.082h-4.546l.833-2.082zm-2.698 3.373l1.29 1.29H60.46a4.5 4.5 0 0 1 3.154-1.29h4.894zm-9.41 10.322h3.87v1.29h-3.87v-1.29zm23.226 1.29v-1.29h3.87v1.29h-3.87z"/><path d="M86.194 66.312v-1.409h-1.29v1.41a1.93 1.93 0 0 0-1.291 1.816v1.29c0 1.067.868 1.936 1.935 1.936.356 0 .646.29.646.645v1.29a.646.646 0 0 1-1.29 0v-.645h-1.291v.645c0 .84.541 1.55 1.29 1.817v1.41h1.29v-1.41a1.933 1.933 0 0 0 1.29-1.817V72a1.938 1.938 0 0 0-1.935-1.935.646.646 0 0 1-.645-.646v-1.29a.646.646 0 0 1 1.29 0v.645h1.29v-.645c0-.84-.54-1.55-1.29-1.817zm2.58 3.752h1.29v1.29h-1.29v-1.29zm-7.742 0h1.29v1.29h-1.29v-1.29zm-23.226-1.29h1.29v-1.409a1.933 1.933 0 0 0 1.291-1.817v-1.29a1.938 1.938 0 0 0-1.935-1.936.646.646 0 0 1-.646-.645v-1.29a.646.646 0 0 1 1.29 0v.645h1.291v-.645c0-.84-.541-1.55-1.29-1.817v-1.409h-1.29v1.41a1.93 1.93 0 0 0-1.29 1.816v1.29c0 1.067.868 1.936 1.935 1.936.356 0 .645.289.645.645v1.29a.646.646 0 0 1-1.29 0v-.645h-1.29v.645c0 .84.54 1.55 1.29 1.817v1.409zm3.871-6.451h1.29v1.29h-1.29v-1.29zm-7.742 0h1.29v1.29h-1.29v-1.29z"/></g><circle opacity=".5" cx="72" cy="72" r="55.5" stroke="#72BF44"/><circle opacity=".2" cx="72" cy="72" r="71.5" stroke="#72BF44"/><defs><clipPath id="a"><path fill="#fff" transform="translate(52 52)" d="M0 0h40v40H0z"/></clipPath></defs></svg>