<svg width="144" height="144" viewBox="0 0 144 144" fill="none" xmlns="http://www.w3.org/2000/svg"><circle cx="72" cy="72" r="40" fill="#4F9D3A"/><circle opacity=".5" cx="72" cy="72" r="55.5" stroke="#72BF44"/><circle opacity=".2" cx="72" cy="72" r="71.5" stroke="#72BF44"/><path fill-rule="evenodd" clip-rule="evenodd" d="M70.697 52.113a.765.765 0 0 1 .533.941l-1.325 4.78a.765.765 0 1 1-1.474-.409l1.325-4.78a.765.765 0 0 1 .941-.532zm-9.596 2.528a.765.765 0 0 0-1.239.898l2.914 4.018a.765.765 0 0 0 1.239-.898l-2.914-4.018zm-5.865 9.654a.765.765 0 0 1 .798-.73l4.956.22a.765.765 0 0 1-.068 1.53l-4.956-.222a.765.765 0 0 1-.73-.798zm12.148-.55c.257-.18.6-.183.861-.009l20.662 13.742a.765.765 0 0 1-.339 1.397l-6.468.718a.765.765 0 1 1-.168-1.521l4.376-.486L69.02 66.09l5.044 21.023 2.33-5.816a.765.765 0 0 1 1.398-.05l6.275 9.494a.765.765 0 0 1-1.277.843l-5.522-8.355-2.677 6.683a.765.765 0 0 1-1.454-.106l-6.06-25.253a.765.765 0 0 1 .307-.806zm-3.114 6.606a.765.765 0 0 0-1.152-1.006l-3.267 3.741a.765.765 0 1 0 1.152 1.007l3.267-3.742zm14.524-10.373a.765.765 0 0 0-.599-1.408l-4.57 1.943a.765.765 0 0 0 .6 1.408l4.569-1.943z" fill="#fff"/></svg>