<svg width="144" height="144" viewBox="0 0 144 144" fill="none" xmlns="http://www.w3.org/2000/svg"><circle cx="72" cy="72" r="40" fill="#4F9D3A"/><path fill-rule="evenodd" clip-rule="evenodd" d="M71.815 52.008h-.002c-2.63.006-5.231.53-7.655 1.542a19.86 19.86 0 0 0-6.463 4.351 19.655 19.655 0 0 0-4.269 6.488 19.516 19.516 0 0 0-1.41 7.614 19.932 19.932 0 0 0 1.604 7.717 20.082 20.082 0 0 0 4.479 6.513 20.292 20.292 0 0 0 6.66 4.304 20.436 20.436 0 0 0 7.817 1.434.765.765 0 0 0 .754-.764v-4.485a.765.765 0 0 0-.8-.765c-3.534.163-7-.984-9.723-3.218a14.03 14.03 0 0 1-5.002-8.853 13.954 13.954 0 0 1 2.313-9.88 14.206 14.206 0 0 1 8.431-5.771 14.33 14.33 0 0 1 10.162 1.35 14.1 14.1 0 0 1 6.594 7.766 13.934 13.934 0 0 1-.397 10.134 14.13 14.13 0 0 1-7.184 7.237.765.765 0 0 0 .626 1.396 15.661 15.661 0 0 0 7.96-8.021 15.464 15.464 0 0 0 .441-11.246 15.63 15.63 0 0 0-7.309-8.61 15.86 15.86 0 0 0-11.247-1.495 15.736 15.736 0 0 0-9.338 6.395 15.484 15.484 0 0 0-2.567 10.963 15.559 15.559 0 0 0 5.546 9.818 15.82 15.82 0 0 0 9.964 3.58v2.935a18.903 18.903 0 0 1-6.477-1.322 18.76 18.76 0 0 1-6.158-3.98 18.553 18.553 0 0 1-4.138-6.017 18.403 18.403 0 0 1-1.482-7.128v-.008c-.04-2.403.402-4.79 1.3-7.022a18.125 18.125 0 0 1 3.937-5.982 18.331 18.331 0 0 1 5.966-4.016 18.479 18.479 0 0 1 7.068-1.424 18.8 18.8 0 0 1 7.135 1.406 18.653 18.653 0 0 1 6.047 4.002 18.445 18.445 0 0 1 4.039 5.988 18.3 18.3 0 0 1 1.418 7.06.765.765 0 1 0 1.53 0 19.83 19.83 0 0 0-1.537-7.65 19.977 19.977 0 0 0-4.373-6.485 20.181 20.181 0 0 0-6.544-4.33 20.328 20.328 0 0 0-7.716-1.521zm8.823 15.069a.765.765 0 0 0-1.011-1.148l-7.931 6.983-5.085-2.518a.765.765 0 0 0-.679 1.371l5.544 2.746a.765.765 0 0 0 .846-.111l8.316-7.323z" fill="#fff"/><circle opacity=".5" cx="72" cy="72" r="55.5" stroke="#72BF44"/><circle opacity=".2" cx="72" cy="72" r="71.5" stroke="#72BF44"/></svg>