<svg width="144" height="144" viewBox="0 0 144 144" fill="none" xmlns="http://www.w3.org/2000/svg"><circle cx="72" cy="72" r="40" fill="#4F9D3A"/><g clip-path="url(#a)"><path fill-rule="evenodd" clip-rule="evenodd" d="M84.47 53.518a2.757 2.757 0 0 0-2.76 2.755 2.757 2.757 0 0 0 2.76 2.755 2.757 2.757 0 0 0 2.76-2.755 2.757 2.757 0 0 0-2.76-2.755zm-4.29 2.755a4.288 4.288 0 0 1 4.29-4.285 4.287 4.287 0 0 1 4.29 4.285 4.287 4.287 0 0 1-4.29 4.285 4.287 4.287 0 0 1-4.29-4.285zm-8.604 6.776a2.758 2.758 0 0 1 2.76-2.755 2.758 2.758 0 0 1 2.76 2.755 2.758 2.758 0 0 1-2.76 2.755 2.758 2.758 0 0 1-2.76-2.755zm2.76-4.285a4.287 4.287 0 0 0-4.29 4.285 4.288 4.288 0 0 0 4.29 4.285 4.288 4.288 0 0 0 4.29-4.285 4.287 4.287 0 0 0-4.29-4.285zm1.273 18.97c.918-.461 1.95-1.197 2.493-2.462.23-.525.382-1.08.398-1.61.018-.528-.1-1.096-.485-1.545-.396-.463-.975-.681-1.633-.699-.643-.017-1.403.153-2.28.501-.545.216-1.88.634-3.471 1.133l-.009.002-.012.004-.02.006-.876.275c-1.948.612-4.084 1.296-5.403 1.816a.756.756 0 0 0-.105.051c-.654.383-1.288 1.025-1.817 1.604a42.83 42.83 0 0 0-.586.655c-.217.246-.413.468-.594.658h-.66v-1.826a.765.765 0 0 0-.764-.765h-7.05a.765.765 0 0 0-.765.765V87.17a.765.765 0 1 0 1.53 0V77.062h5.52v1.652a.768.768 0 0 0 0 .348v9.506a1.922 1.922 0 0 1-1.928 1.924h-4.347a.765.765 0 1 0 0 1.53h4.347a3.452 3.452 0 0 0 3.458-3.454v-8.915h.978a.765.765 0 0 0 .53-.214c.28-.27.618-.651.956-1.033.17-.192.34-.385.504-.564.511-.559.992-1.027 1.413-1.287 1.263-.493 3.308-1.149 5.242-1.756l.897-.282h.003c1.583-.496 2.99-.937 3.592-1.175h.002c.773-.308 1.316-.404 1.675-.394.344.009.465.11.512.164.058.068.127.214.117.502-.009.285-.096.646-.271 1.045l-.003.008c-.34.794-1.01 1.315-1.775 1.7-.38.19-.765.338-1.123.47l-.146.053a7.379 7.379 0 0 0-.816.332c-.208.107-.38.19-.537.268l-.203.1c-.193.095-.4.201-.572.33a1.38 1.38 0 0 0-.476.605 1.892 1.892 0 0 0-.113.705.813.813 0 0 0 .086.364c.023.05.05.095.071.132.046.077.105.165.169.256.13.184.306.412.505.642.198.227.43.47.67.675.222.187.529.411.874.5.978.255 1.983.557 2.775.797l.24.073c.294.09.553.168.757.228.128.037.243.07.334.093.045.012.092.023.136.032h.002a.946.946 0 0 0 .208.024.761.761 0 0 0 .168-.02L83.8 81.7a.762.762 0 0 0 .398-.222c.031-.031.057-.063.072-.081a28.317 28.317 0 0 0 .22-.287c.058-.078.124-.166.207-.274.26-.342.613-.791 1.02-1.244.408-.456.856-.898 1.301-1.234.46-.346.844-.524 1.134-.557a.789.789 0 0 0 .084-.014 2.177 2.177 0 0 1 2.044.602 86.86 86.86 0 0 1-6.453 7.23 7.144 7.144 0 0 1-.454.207c-.296.122-.686.27-1.147.435-.92.33-2.096.717-3.315 1.087a63.46 63.46 0 0 1-3.543.976c-1.1.264-1.933.409-2.354.409H63.32a.765.765 0 1 0 0 1.53h9.694c.627 0 1.626-.191 2.71-.45a65.505 65.505 0 0 0 3.631-1.001 75.25 75.25 0 0 0 3.387-1.11c.473-.17.89-.328 1.218-.464.3-.125.601-.26.785-.39a.767.767 0 0 0 .1-.085 88.378 88.378 0 0 0 7.004-7.89.765.765 0 0 0 .055-.864 3.7 3.7 0 0 0-3.97-1.723c-.673.09-1.306.45-1.836.85-.556.419-1.078.94-1.52 1.434a21.33 21.33 0 0 0-1.099 1.34l-.225.297-.042.057-5.454 1.235-.244-.07a70.02 70.02 0 0 1-.737-.221l-.245-.075a79.13 79.13 0 0 0-2.835-.814h-.003v-.001a1.214 1.214 0 0 1-.266-.185 4.89 4.89 0 0 1-.504-.51 7.352 7.352 0 0 1-.412-.523c.055-.032.138-.076.266-.14l.177-.086c.163-.08.362-.177.586-.293l.005-.002c.122-.064.313-.134.616-.245l.165-.06c.369-.135.821-.308 1.283-.54zm-2.297 4.065h-.002l.193-.74-.19.74h-.002zm8.399-11.975a2.757 2.757 0 0 1 2.76-2.754 2.757 2.757 0 0 1 2.76 2.755 2.757 2.757 0 0 1-2.76 2.754 2.757 2.757 0 0 1-2.76-2.754zm2.76-4.284a4.287 4.287 0 0 0-4.29 4.284 4.288 4.288 0 0 0 4.29 4.285 4.287 4.287 0 0 0 4.29-4.284 4.287 4.287 0 0 0-4.29-4.285zM57.045 78.937a.765.765 0 1 0-1.53 0v2.64a.765.765 0 0 0 1.53 0v-2.64z" fill="#fff"/></g><circle opacity=".5" cx="72" cy="72" r="55.5" stroke="#72BF44"/><circle opacity=".2" cx="72" cy="72" r="71.5" stroke="#72BF44"/><defs><clipPath id="a"><path fill="#fff" transform="translate(52 52)" d="M0 0h40v40H0z"/></clipPath></defs></svg>