<svg width="144" height="144" viewBox="0 0 144 144" fill="none" xmlns="http://www.w3.org/2000/svg"><circle cx="72" cy="72" r="40" fill="#2D7D2F"/><g clip-path="url(#a)" fill="#fff"><path d="M81.032 89.4a1.938 1.938 0 0 0 1.936-1.935 1.938 1.938 0 0 0-1.936-1.936 1.938 1.938 0 0 0-1.935 1.936c0 1.067.868 1.935 1.935 1.935zm0-2.58a.646.646 0 1 1-.001 1.291.646.646 0 0 1 .001-1.291z"/><path d="M86.194 71.336a.642.642 0 0 0-.457.189l-4.186 4.187-2.803-1.4 2.176-3.264a.646.646 0 0 0-.617-.998l-4.436.555v-3.14a.645.645 0 0 0-1.101-.456L72 69.779l-2.77-2.77a.645.645 0 0 0-1.101.456v3.14l-4.436-.555a.646.646 0 0 0-.617.998l2.176 3.264-2.802 1.4-4.187-4.187a.64.64 0 0 0-.456-.19H52v1.291h5.54l7.552 7.553c.12.121.285.19.456.19h1.936v3.225c0 .356.288.645.645.645h1.935v2.58h-2.632a4.519 4.519 0 0 0-4.464-3.87 4.519 4.519 0 0 0-4.465 3.87H52v1.291h6.503a4.519 4.519 0 0 0 4.465 3.871c2.27 0 4.15-1.686 4.464-3.871h3.278a.645.645 0 0 0 .645-.645v-6.452a1.938 1.938 0 0 0-1.936-1.935h-1.023l1.48-1.48a.645.645 0 0 0 .176-.582l-.36-1.796 1.976 1.185c.203.123.46.123.664 0l1.975-1.185-.36 1.796a.646.646 0 0 0 .177.582l1.48 1.48H74.58a1.938 1.938 0 0 0-1.936 1.935v6.452c0 .356.288.645.645.645h3.278a4.519 4.519 0 0 0 4.464 3.871 4.52 4.52 0 0 0 4.465-3.871H92v-1.29h-6.503a4.519 4.519 0 0 0-4.465-3.871 4.519 4.519 0 0 0-4.464 3.87h-2.632v-2.58h1.935a.645.645 0 0 0 .645-.645v-3.226h1.936a.643.643 0 0 0 .456-.189l7.553-7.553H92v-1.29h-5.806zM62.968 90.69a3.23 3.23 0 0 1-3.226-3.226 3.23 3.23 0 0 1 3.226-3.226 3.23 3.23 0 0 1 3.225 3.226 3.23 3.23 0 0 1-3.225 3.226zm18.064-6.452a3.23 3.23 0 0 1 3.226 3.226 3.23 3.23 0 0 1-3.226 3.226 3.23 3.23 0 0 1-3.226-3.226 3.23 3.23 0 0 1 3.226-3.226zm-10.968-3.226v1.936h-1.29v-2.58h.645c.356 0 .645.289.645.644zm5.162 1.936h-1.29v-1.936c0-.355.289-.645.645-.645h.645v2.58zm2.959-3.871h-.757l-2.147-2.148.578-2.887a.646.646 0 0 0-.965-.68L72 75.1l-2.894-1.736a.647.647 0 0 0-.964.68l.577 2.887-2.147 2.147h-.757l-2.403-2.404 3.07-1.536a.646.646 0 0 0 .248-.935l-1.798-2.698 3.762.47a.635.635 0 0 0 .507-.157.641.641 0 0 0 .218-.482v-2.314l2.125 2.125c.252.252.66.252.912 0l2.125-2.125v2.314a.646.646 0 0 0 .725.64l3.762-.47-1.798 2.698a.647.647 0 0 0 .248.936l3.07 1.535-2.403 2.403z"/><path d="M87.028 74.106l-3.226 3.225a.643.643 0 0 0-.19.456v1.936c0 .356.29.645.646.645H92v-1.29h-7.097v-1.023l2.848-2.848H92v-1.29h-4.516a.642.642 0 0 0-.456.189zm2.392 7.552H92v1.29h-2.58v-1.29zM62.968 85.53a1.938 1.938 0 0 0-1.936 1.935c0 1.067.869 1.935 1.936 1.935a1.938 1.938 0 0 0 1.935-1.935 1.938 1.938 0 0 0-1.935-1.936zm0 2.58a.646.646 0 1 1 .001-1.292.646.646 0 0 1-.001 1.292zm-2.581-8.387v-1.936a.643.643 0 0 0-.189-.456l-3.226-3.225a.642.642 0 0 0-.456-.19H52v1.29h4.249l2.848 2.849v1.023H52v1.29h7.742a.645.645 0 0 0 .645-.645zM52 81.658h2.58v1.29H52v-1.29zm11.613-15.484h16.774a.645.645 0 0 0 .541-.997l-8.387-12.903c-.238-.365-.844-.365-1.082 0l-8.387 12.903a.646.646 0 0 0 .541.997zM72 53.81l7.198 11.074H64.802L72 53.81z"/><path d="M71.355 62.303h1.29v1.29h-1.29v-1.29zm0-5.161h1.29v3.871h-1.29v-3.87z"/></g><circle opacity=".5" cx="72" cy="72" r="55.5" stroke="#72BF44"/><circle opacity=".2" cx="72" cy="72" r="71.5" stroke="#72BF44"/><defs><clipPath id="a"><path fill="#fff" transform="translate(52 52)" d="M0 0h40v40H0z"/></clipPath></defs></svg>